<?xml version="1.0" standalone="no"?>
<!DOCTYPE svg PUBLIC "-//W3C//DTD SVG 20010904//EN"
 "http://www.w3.org/TR/2001/REC-SVG-20010904/DTD/svg10.dtd">
<svg version="1.0" xmlns="http://www.w3.org/2000/svg"
 width="1044.000000pt" height="1044.000000pt" viewBox="0 0 1044.000000 1044.000000"
 preserveAspectRatio="xMidYMid meet">
<metadata>
Created by potrace 1.11, written by Peter Selinger 2001-2013
</metadata>
<g transform="translate(0.000000,1044.000000) scale(0.100000,-0.100000)"
fill="#000000" stroke="none">
<path d="M8535 9632 c-16 -15 -55 -47 -85 -72 -30 -25 -57 -47 -60 -50 -3 -3
-36 -32 -75 -65 -38 -33 -73 -64 -77 -70 -4 -5 -8 -7 -8 -3 0 3 -12 -6 -28
-20 -15 -15 -51 -47 -81 -72 -30 -25 -59 -49 -65 -55 -6 -5 -38 -32 -71 -60
-33 -27 -73 -62 -90 -76 -16 -15 -52 -46 -80 -69 -74 -62 -141 -119 -225 -191
-41 -36 -106 -91 -145 -123 -77 -64 -164 -139 -202 -173 -13 -11 -43 -36 -66
-55 -23 -18 -51 -42 -63 -54 -12 -11 -34 -31 -50 -43 -27 -21 -83 -69 -178
-151 -22 -19 -45 -38 -51 -43 -5 -4 -21 -17 -36 -30 -14 -12 -47 -40 -73 -62
-27 -22 -58 -48 -70 -58 -11 -11 -38 -33 -59 -50 -21 -18 -51 -43 -66 -57 -15
-14 -46 -41 -70 -60 -41 -34 -110 -93 -157 -135 -12 -11 -40 -34 -61 -51 -21
-18 -51 -44 -66 -58 -15 -14 -30 -26 -33 -26 -3 0 -11 -6 -18 -12 -17 -17
-198 -173 -240 -207 -10 -9 -26 -23 -35 -31 -9 -8 -30 -25 -46 -38 -16 -13
-52 -43 -80 -67 -83 -72 -277 -237 -335 -285 -30 -25 -61 -52 -70 -60 -8 -8
-40 -35 -70 -60 -30 -25 -57 -47 -60 -50 -9 -9 -85 -74 -131 -112 -24 -20 -55
-46 -69 -58 -14 -12 -47 -40 -74 -63 -28 -23 -60 -51 -72 -62 -13 -11 -36 -30
-51 -42 -15 -12 -42 -34 -59 -50 -17 -15 -57 -50 -90 -77 -32 -27 -63 -54 -69
-60 -5 -6 -32 -29 -60 -51 -27 -22 -59 -49 -71 -60 -11 -11 -37 -33 -58 -50
-21 -16 -48 -39 -60 -50 -12 -12 -44 -39 -71 -60 -27 -22 -56 -47 -65 -55 -16
-15 -90 -78 -179 -153 -52 -43 -113 -95 -186 -159 -28 -23 -73 -61 -99 -83
-27 -22 -60 -50 -75 -63 -14 -13 -43 -37 -65 -55 -21 -18 -46 -39 -55 -48 -9
-8 -43 -37 -76 -65 -33 -27 -65 -53 -71 -59 -6 -5 -33 -29 -60 -52 -27 -23
-59 -50 -72 -61 l-22 -20 57 -48 c112 -97 160 -142 343 -324 181 -181 260
-264 349 -370 25 -29 50 -58 56 -64 6 -6 47 -56 90 -111 44 -55 85 -105 90
-112 16 -20 28 -35 59 -78 17 -22 32 -42 35 -45 4 -3 21 -27 40 -55 19 -27 68
-99 110 -160 85 -123 185 -281 267 -423 32 -55 38 -61 53 -50 24 19 195 161
201 168 3 3 34 30 70 60 36 30 70 60 76 65 6 6 31 26 55 47 24 20 58 48 74 62
17 15 43 37 58 49 15 12 38 31 51 42 12 11 47 40 76 65 30 25 68 57 85 72 16
15 53 46 80 68 28 23 61 52 75 64 14 12 57 49 95 81 39 32 75 64 81 69 6 6 28
25 49 41 21 17 45 37 54 45 9 8 44 38 76 65 76 64 112 94 143 123 14 13 41 35
60 50 19 15 50 41 68 57 18 17 47 41 64 54 18 14 45 36 60 50 16 14 48 42 71
61 23 19 47 40 53 45 12 11 118 100 149 125 10 8 31 26 46 40 15 14 46 41 70
60 53 44 129 109 153 133 10 9 21 17 24 17 4 0 14 8 23 18 9 9 43 39 76 67 33
27 62 52 65 55 3 3 32 27 65 55 33 27 62 52 65 55 3 3 32 27 65 55 33 27 62
52 65 55 3 3 32 28 65 55 71 60 68 57 141 120 31 28 61 49 66 48 4 -2 8 1 8 6
0 5 28 33 63 61 57 47 134 113 176 150 19 17 126 107 154 130 10 8 31 25 45
38 15 13 44 37 66 55 21 18 53 46 72 62 18 17 49 44 69 60 21 17 47 38 59 49
11 10 41 35 66 55 24 20 51 43 60 51 17 16 89 77 175 150 58 49 140 118 167
142 10 9 37 31 58 48 22 18 50 42 63 53 13 12 45 40 72 62 27 22 53 45 59 50
6 6 38 32 71 59 33 28 67 57 76 65 9 9 35 32 59 51 24 19 53 45 66 58 13 12
27 22 33 22 5 0 11 4 13 9 2 5 53 50 113 101 112 93 210 177 229 195 6 6 38
33 71 60 70 59 94 79 157 133 26 22 55 46 65 54 10 7 23 20 30 28 9 12 42 173
57 285 2 11 6 34 9 50 3 17 9 48 12 70 3 22 7 47 10 55 4 17 16 85 19 115 2
19 14 87 22 130 4 21 9 48 24 135 5 30 12 69 15 85 3 17 8 46 11 65 2 19 9 58
14 85 5 28 11 61 14 75 2 14 7 41 11 60 3 19 8 49 10 65 2 17 4 30 5 30 1 0 3
9 4 20 5 33 16 99 21 125 7 36 23 129 30 170 7 45 17 99 22 125 2 11 6 36 9
55 3 19 7 41 9 48 4 9 -187 12 -933 12 l-937 0 -30 -28z"/>
<path d="M3712 8708 c-15 -10 -23 -18 -17 -18 5 0 -8 -12 -29 -26 -21 -14 -46
-34 -55 -43 -25 -23 -121 -105 -156 -133 -16 -13 -37 -30 -45 -38 -8 -8 -56
-49 -105 -90 -49 -41 -100 -84 -112 -95 -12 -11 -29 -26 -38 -33 -9 -8 -44
-37 -78 -65 -34 -28 -69 -58 -77 -67 -9 -8 -36 -31 -60 -50 -23 -19 -48 -40
-54 -45 -6 -6 -38 -33 -71 -60 -32 -28 -67 -57 -76 -65 -22 -20 -103 -89 -137
-118 -15 -12 -34 -28 -42 -35 -8 -7 -44 -38 -80 -68 -36 -29 -67 -56 -70 -59
-10 -11 -183 -155 -203 -170 -12 -8 -33 -26 -47 -40 -15 -14 -51 -45 -80 -70
-30 -25 -88 -74 -130 -110 -41 -36 -102 -87 -135 -115 -33 -27 -71 -60 -85
-71 -32 -28 -171 -146 -240 -204 -29 -25 -58 -50 -64 -55 -6 -6 -38 -33 -71
-60 -91 -77 -117 -99 -134 -115 -9 -8 -39 -33 -66 -55 -28 -22 -62 -51 -76
-65 -15 -14 -36 -32 -48 -40 -24 -16 -27 -29 -8 -35 100 -33 355 -133 399
-156 10 -5 22 -9 27 -9 23 0 502 -233 647 -315 53 -30 98 -55 101 -55 2 0 16
-8 31 -19 54 -36 87 -55 95 -53 4 1 7 -2 7 -8 0 -5 4 -10 9 -10 5 0 33 -16 63
-35 81 -54 85 -54 147 6 9 8 43 38 76 65 64 53 91 75 133 112 15 13 45 37 66
55 22 18 47 39 56 47 9 8 43 37 75 65 75 62 102 85 129 110 12 11 49 42 81 68
32 26 81 68 109 91 169 145 217 186 266 226 30 25 63 54 75 65 12 11 37 32 56
46 19 15 43 35 54 46 11 10 47 41 80 68 33 28 65 55 71 60 6 6 32 28 58 50 27
22 60 50 75 63 14 13 42 35 61 50 19 15 40 32 45 39 19 21 170 143 178 143 4
0 5 5 2 10 -3 6 -2 10 3 10 9 0 68 47 110 88 12 12 25 22 27 22 3 0 13 8 23
18 10 9 40 35 66 57 103 86 120 101 142 120 12 11 41 36 65 55 23 19 77 64
118 100 42 36 101 85 130 110 29 25 63 53 75 63 11 11 39 33 60 50 22 18 46
39 55 47 9 8 46 40 81 70 36 30 70 60 76 65 6 6 28 24 49 40 20 17 45 37 54
45 9 9 61 54 116 100 55 47 111 95 125 106 14 12 77 65 140 119 63 53 138 116
165 140 28 24 61 52 74 62 23 18 1 19 -1143 19 -1103 0 -1168 -1 -1194 -18z"/>
<path d="M8748 5442 c-1 -4 -39 -36 -83 -72 -44 -36 -84 -70 -90 -76 -5 -5
-39 -35 -75 -65 -36 -30 -70 -58 -76 -64 -6 -5 -33 -28 -59 -50 -27 -22 -53
-45 -59 -50 -6 -6 -33 -28 -61 -50 -27 -22 -59 -49 -70 -60 -11 -12 -40 -37
-65 -57 -25 -20 -58 -48 -75 -63 -16 -14 -39 -34 -50 -43 -60 -50 -211 -177
-215 -182 -3 -3 -30 -25 -60 -50 -30 -25 -57 -47 -60 -50 -6 -6 -112 -96 -148
-126 -13 -10 -34 -28 -46 -39 -12 -11 -44 -38 -71 -60 -26 -22 -58 -49 -71
-60 -52 -46 -130 -112 -178 -150 -21 -16 -50 -41 -65 -55 -14 -14 -46 -41 -70
-60 -23 -19 -55 -46 -69 -58 -15 -13 -38 -34 -52 -46 -14 -12 -52 -44 -85 -71
-33 -28 -62 -52 -65 -55 -3 -3 -32 -28 -65 -55 -33 -28 -73 -62 -90 -77 -16
-14 -40 -35 -52 -45 -71 -59 -108 -90 -123 -103 -10 -8 -37 -31 -61 -52 -24
-20 -55 -46 -69 -58 -48 -41 -115 -98 -165 -140 -27 -23 -64 -54 -81 -69 -17
-14 -53 -45 -80 -68 -27 -23 -59 -50 -70 -60 -12 -10 -43 -36 -70 -58 -26 -22
-69 -58 -94 -80 -25 -22 -68 -58 -94 -80 -27 -22 -58 -48 -69 -57 -11 -10 -24
-18 -29 -18 -5 0 -6 -4 -3 -10 3 -5 2 -10 -4 -10 -5 0 -16 -6 -23 -12 -7 -7
-40 -35 -73 -63 -33 -27 -65 -54 -71 -60 -6 -5 -35 -30 -65 -55 -29 -25 -64
-54 -77 -65 l-23 -20 22 -60 c12 -33 26 -71 31 -85 5 -14 10 -27 10 -30 0 -3
4 -13 10 -23 5 -10 11 -26 13 -35 3 -9 20 -63 40 -120 33 -95 113 -358 130
-427 5 -16 9 -34 11 -40 29 -107 39 -143 55 -215 11 -47 22 -96 25 -110 3 -14
10 -45 15 -70 6 -25 13 -54 15 -65 2 -11 6 -31 10 -45 3 -14 7 -36 9 -50 11
-73 15 -93 41 -218 4 -19 7 -21 18 -10 7 7 35 31 62 53 66 54 138 117 144 124
3 3 28 24 55 46 28 21 52 42 55 45 3 3 34 30 70 60 36 31 76 65 90 77 14 11
59 49 100 84 41 35 77 66 80 69 3 3 32 27 65 55 33 27 65 54 71 60 6 5 31 26
55 47 24 20 55 46 69 58 14 12 45 38 69 58 24 21 55 47 68 60 12 13 23 20 23
17 0 -3 18 12 40 33 22 20 45 42 52 47 46 37 195 163 208 175 9 8 38 33 64 55
27 22 54 45 60 50 6 6 38 33 71 60 32 28 67 57 76 65 9 8 38 33 64 55 26 22
59 50 73 63 14 12 38 33 54 45 16 12 39 31 52 42 13 11 38 34 57 50 19 17 61
52 94 80 33 27 65 54 71 60 6 5 35 30 64 55 30 25 72 61 94 80 23 19 46 40 52
45 7 6 29 24 49 40 21 17 43 35 49 40 6 6 40 34 76 64 36 30 70 60 75 65 6 6
39 35 75 65 36 29 68 58 72 65 5 10 11 39 23 111 1 11 6 36 9 55 4 19 18 98
31 175 14 77 28 154 31 170 4 17 8 41 9 55 2 14 4 25 5 25 1 0 3 16 6 35 2 19
8 55 14 80 6 25 12 61 15 80 2 19 6 45 9 56 2 12 7 39 10 60 4 22 8 46 11 54
2 8 6 31 9 50 3 19 8 46 11 60 3 14 7 44 9 66 2 23 6 46 9 50 3 5 8 31 11 58
4 27 9 52 11 56 2 3 6 24 9 45 3 22 7 49 9 60 3 11 8 40 12 65 14 86 16 95 20
110 3 8 7 33 10 55 3 22 7 51 10 65 2 13 7 42 11 65 3 22 9 58 14 80 5 22 11
58 15 81 3 22 9 54 14 70 4 16 7 39 6 52 -1 12 1 22 5 22 3 0 6 8 6 18 1 20
10 78 24 147 6 28 12 60 15 73 4 20 -9 32 -17 14z"/>
<path d="M405 3083 c-9 -53 -11 -62 -21 -113 -3 -19 -8 -45 -9 -57 -2 -12 -6
-34 -9 -50 -3 -15 -8 -44 -11 -63 -3 -19 -13 -71 -21 -115 -16 -85 -23 -124
-29 -165 -4 -27 -14 -90 -21 -124 -8 -44 -44 -246 -69 -391 -34 -199 -34 -196
-41 -228 -3 -16 -7 -38 -9 -50 -5 -34 -16 -99 -21 -127 -3 -14 -7 -34 -9 -45
-1 -11 -8 -49 -15 -85 -7 -36 -14 -76 -16 -90 -1 -14 -5 -38 -9 -55 -11 -61
-15 -81 -21 -120 -4 -22 -8 -49 -10 -60 -1 -11 -3 -20 -4 -20 -1 0 -3 -11 -5
-25 -2 -14 -9 -54 -15 -90 -7 -36 -14 -74 -15 -85 -2 -11 -6 -31 -9 -45 -2
-14 -7 -41 -10 -60 l-5 -35 1167 1 c642 1 1170 2 1174 3 7 1 -41 122 -103 261
-44 99 -178 362 -217 425 -17 28 -41 69 -53 93 -12 23 -26 42 -31 42 -4 0 -8
5 -8 11 0 9 -175 275 -190 289 -3 3 -34 43 -70 90 -35 47 -89 114 -120 150
-30 36 -69 81 -85 100 -70 82 -457 460 -471 460 -1 0 -18 14 -36 30 -18 17
-85 70 -148 118 -63 48 -117 89 -120 92 -6 6 -143 99 -169 115 -9 6 -18 12
-21 15 -6 7 -79 50 -84 50 -2 0 -7 -21 -11 -47z"/>
</g>
</svg>
