<svg width="10" height="15" viewBox="0 0 10 15" fill="none" xmlns="http://www.w3.org/2000/svg">
<path d="M9.2366 4.78007C9.2366 5.28674 9.1366 5.7734 8.9366 6.24007C8.7366 6.70674 8.4766 7.16007 8.1566 7.60007C7.8366 8.02674 7.4766 8.44007 7.0766 8.84007C6.6766 9.24007 6.28327 9.62007 5.8966 9.98007C5.6966 10.1667 5.4766 10.3801 5.2366 10.6201C5.00994 10.8467 4.78994 11.0801 4.5766 11.3201C4.36327 11.5601 4.16994 11.7867 3.9966 12.0001C3.8366 12.2001 3.7366 12.3667 3.6966 12.5001H9.6566V15.0001H0.416602C0.389935 14.8534 0.376602 14.6667 0.376602 14.4401C0.376602 14.2134 0.376602 14.0534 0.376602 13.9601C0.376602 13.3201 0.476602 12.7334 0.676602 12.2001C0.889935 11.6667 1.16327 11.1734 1.4966 10.7201C1.82994 10.2534 2.20327 9.82007 2.6166 9.42007C3.04327 9.02007 3.46327 8.62007 3.8766 8.22007C4.1966 7.9134 4.4966 7.62674 4.7766 7.36007C5.0566 7.08007 5.30327 6.8134 5.5166 6.56007C5.72993 6.2934 5.8966 6.0334 6.0166 5.78007C6.1366 5.5134 6.1966 5.24674 6.1966 4.98007C6.1966 4.3934 6.02994 3.98007 5.6966 3.74007C5.36327 3.50007 4.94993 3.38007 4.4566 3.38007C4.0966 3.38007 3.7566 3.44007 3.4366 3.56007C3.12994 3.66674 2.84327 3.80007 2.5766 3.96007C2.32327 4.10674 2.10327 4.26007 1.9166 4.42007C1.72994 4.56674 1.58994 4.68674 1.4966 4.78007L0.0166016 2.70007C0.603268 2.1534 1.28327 1.70674 2.0566 1.36007C2.84327 1.00007 3.68327 0.820068 4.5766 0.820068C5.38994 0.820068 6.08994 0.913402 6.6766 1.10007C7.26327 1.28673 7.74327 1.5534 8.1166 1.90007C8.50327 2.2334 8.78327 2.64673 8.9566 3.14007C9.14327 3.62007 9.2366 4.16674 9.2366 4.78007Z" fill="#4B2661"/>
</svg>
