<svg width="11" height="16" viewBox="0 0 11 16" fill="none" xmlns="http://www.w3.org/2000/svg">
<path d="M4.87594 15.3001C4.51594 15.3001 4.13594 15.2734 3.73594 15.2201C3.33594 15.1801 2.94927 15.1201 2.57594 15.0401C2.2026 14.9601 1.8626 14.8734 1.55594 14.7801C1.24927 14.6867 1.00927 14.6001 0.835938 14.5201L1.41594 12.0401C1.7626 12.1867 2.2026 12.3467 2.73594 12.5201C3.2826 12.6801 3.95594 12.7601 4.75594 12.7601C5.67594 12.7601 6.34927 12.5867 6.77594 12.2401C7.2026 11.8934 7.41594 11.4267 7.41594 10.8401C7.41594 10.4801 7.33594 10.1801 7.17594 9.94007C7.02927 9.68674 6.8226 9.48674 6.55594 9.34007C6.28927 9.18007 5.96927 9.0734 5.59594 9.02007C5.23594 8.9534 4.84927 8.92007 4.43594 8.92007H3.27594V6.52007H4.59594C4.88927 6.52007 5.16927 6.4934 5.43594 6.44007C5.71594 6.38674 5.9626 6.30007 6.17594 6.18007C6.38927 6.04674 6.55594 5.8734 6.67594 5.66007C6.80927 5.4334 6.87594 5.1534 6.87594 4.82007C6.87594 4.56674 6.8226 4.34674 6.71594 4.16007C6.60927 3.9734 6.46927 3.82007 6.29594 3.70007C6.13594 3.58007 5.9426 3.4934 5.71594 3.44007C5.5026 3.3734 5.2826 3.34007 5.05594 3.34007C4.4826 3.34007 3.94927 3.42674 3.45594 3.60007C2.97594 3.7734 2.53594 3.98674 2.13594 4.24007L1.07594 2.06007C1.28927 1.92674 1.53594 1.78674 1.81594 1.64007C2.10927 1.4934 2.42927 1.36007 2.77594 1.24007C3.1226 1.12007 3.48927 1.02007 3.87594 0.940069C4.27594 0.860069 4.69594 0.820068 5.13594 0.820068C5.94927 0.820068 6.64927 0.920069 7.23594 1.12007C7.83594 1.30674 8.32927 1.58007 8.71594 1.94007C9.1026 2.28674 9.38927 2.70007 9.57594 3.18007C9.7626 3.64674 9.85594 4.16007 9.85594 4.72007C9.85594 5.26674 9.7026 5.80007 9.39594 6.32007C9.08927 6.82674 8.67594 7.2134 8.15594 7.48007C8.87594 7.7734 9.42927 8.2134 9.81594 8.80007C10.2159 9.3734 10.4159 10.0667 10.4159 10.8801C10.4159 11.5201 10.3093 12.1134 10.0959 12.6601C9.8826 13.1934 9.54927 13.6601 9.09594 14.0601C8.6426 14.4467 8.0626 14.7534 7.35594 14.9801C6.6626 15.1934 5.83594 15.3001 4.87594 15.3001Z" fill="#4B2661"/>
</svg>
