<svg width="10" height="15" viewBox="0 0 10 15" fill="none" xmlns="http://www.w3.org/2000/svg">
<path d="M6.51617 9.92001C6.51617 9.53335 6.42951 9.19335 6.25617 8.90001C6.08284 8.59335 5.78284 8.34001 5.35617 8.14001C4.92951 7.94001 4.35617 7.78668 3.63617 7.68001C2.91617 7.57335 2.00951 7.52001 0.916172 7.52001C1.06284 6.28001 1.18284 5.02001 1.27617 3.74001C1.36951 2.46001 1.44284 1.26001 1.49617 0.140015H8.99617V2.64001H3.99617C3.96951 3.12001 3.93617 3.58668 3.89617 4.04001C3.86951 4.48001 3.83617 4.86668 3.79617 5.20001C5.74284 5.33335 7.17617 5.79335 8.09617 6.58001C9.02951 7.35335 9.49617 8.43335 9.49617 9.82001C9.49617 10.46 9.38284 11.0533 9.15617 11.6C8.92951 12.1467 8.58951 12.62 8.13617 13.02C7.68284 13.42 7.10951 13.7333 6.41617 13.96C5.73617 14.1867 4.93617 14.3 4.01617 14.3C3.65617 14.3 3.27617 14.2733 2.87617 14.22C2.48951 14.18 2.10951 14.12 1.73617 14.04C1.37617 13.9733 1.04951 13.9 0.756172 13.82C0.462839 13.74 0.236172 13.66 0.0761719 13.58L0.616172 11.12C0.949505 11.2667 1.38951 11.4133 1.93617 11.56C2.48284 11.6933 3.13617 11.76 3.89617 11.76C4.81617 11.76 5.48284 11.58 5.89617 11.22C6.30951 10.8467 6.51617 10.4133 6.51617 9.92001Z" fill="#4B2661"/>
</svg>
