<svg width="10" height="15" viewBox="0 0 10 15" fill="none" xmlns="http://www.w3.org/2000/svg">
<path d="M4.79664 7.48004C4.50331 7.48004 4.18997 7.50671 3.85664 7.56004C3.52331 7.61337 3.26331 7.68671 3.07664 7.78004C3.07664 7.83337 3.06997 7.91337 3.05664 8.02004C3.05664 8.12671 3.05664 8.22004 3.05664 8.30004C3.05664 8.78004 3.08997 9.23337 3.15664 9.66004C3.22331 10.0867 3.33664 10.46 3.49664 10.78C3.65664 11.1 3.86997 11.3534 4.13664 11.54C4.40331 11.7134 4.73664 11.8 5.13664 11.8C5.46997 11.8 5.74997 11.7334 5.97664 11.6C6.21664 11.4534 6.40997 11.2734 6.55664 11.06C6.71664 10.8467 6.82997 10.6134 6.89664 10.36C6.97664 10.0934 7.01664 9.84004 7.01664 9.60004C7.01664 8.92004 6.84331 8.40004 6.49664 8.04004C6.16331 7.66671 5.59664 7.48004 4.79664 7.48004ZM5.17664 5.16004C6.04331 5.16004 6.77664 5.28004 7.37664 5.52004C7.98997 5.74671 8.48997 6.06004 8.87664 6.46004C9.26331 6.86004 9.54331 7.32671 9.71664 7.86004C9.88997 8.39337 9.97664 8.96004 9.97664 9.56004C9.97664 10.0934 9.87664 10.64 9.67664 11.2C9.48997 11.76 9.19664 12.2667 8.79664 12.72C8.40997 13.1734 7.90997 13.5467 7.29664 13.84C6.69664 14.1334 5.98331 14.28 5.15664 14.28C3.48997 14.28 2.22331 13.7534 1.35664 12.7C0.489974 11.6467 0.0566406 10.1934 0.0566406 8.34004C0.0566406 7.00671 0.263307 5.82671 0.676641 4.80004C1.08997 3.77337 1.67664 2.91337 2.43664 2.22004C3.20997 1.51337 4.13664 0.980039 5.21664 0.620039C6.30997 0.246705 7.53664 0.0533722 8.89664 0.0400391C8.92331 0.453372 8.94997 0.860038 8.97664 1.26004C9.00331 1.64671 9.02997 2.05337 9.05664 2.48004C8.37664 2.49337 7.73664 2.56004 7.13664 2.68004C6.54997 2.78671 6.00997 2.96004 5.51664 3.20004C5.03664 3.44004 4.61664 3.75337 4.25664 4.14004C3.89664 4.51337 3.61664 4.97337 3.41664 5.52004C3.70997 5.38671 4.00997 5.29337 4.31664 5.24004C4.62331 5.18671 4.90997 5.16004 5.17664 5.16004Z" fill="#4B2661"/>
</svg>
