<svg width="1800" height="640" viewBox="0 0 1800 640" fill="none" xmlns="http://www.w3.org/2000/svg">
<path d="M0.606934 637.405L319.067 536.11H421.214L523.361 491.42L625.509 503.238L727.656 445.758L829.804 357.156L931.951 334.971C931.951 334.971 1015.17 353.541 1034.1 353.541C1053.03 353.541 1136.25 311.096 1136.25 311.096L1238.39 261.355L1340.54 247.096L1442.69 231.012L1798.92 2" stroke="#F7F5F7" stroke-width="4"/>
<path d="M319.066 543.775V638.716" stroke="#F7F5F7" stroke-width="4" stroke-dasharray="8 8"/>
<path d="M421.214 543.775V638.716" stroke="#F7F5F7" stroke-width="4" stroke-dasharray="8 8"/>
<path d="M523.361 500.708V638.715" stroke="#F7F5F7" stroke-width="4" stroke-dasharray="8 8"/>
<path d="M625.509 510.724V638.715" stroke="#F7F5F7" stroke-width="4" stroke-dasharray="8 8"/>
<path d="M727.656 454.636V638.715" stroke="#F7F5F7" stroke-width="4" stroke-dasharray="8 8"/>
<path d="M829.804 362.379V638.712" stroke="#F7F5F7" stroke-width="4" stroke-dasharray="8 8"/>
<path d="M931.951 343.462V638.715" stroke="#F7F5F7" stroke-width="4" stroke-dasharray="8 8"/>
<path d="M1034.1 362.379V638.712" stroke="#F7F5F7" stroke-width="4" stroke-dasharray="8 8"/>
<path d="M1136.25 318.423V638.715" stroke="#F7F5F7" stroke-width="4" stroke-dasharray="8 8"/>
<path d="M1238.39 264.876V638.715" stroke="#F7F5F7" stroke-width="4" stroke-dasharray="8 8"/>
<path d="M1340.54 249.32V638.716" stroke="#F7F5F7" stroke-width="4" stroke-dasharray="8 8"/>
<path d="M1442.69 234.005V638.716" stroke="#F7F5F7" stroke-width="4" stroke-dasharray="8 8"/>
<path d="M319.067 543.775C323.491 543.775 327.078 540.188 327.078 535.763C327.078 531.338 323.491 527.75 319.067 527.75C314.642 527.75 311.055 531.338 311.055 535.763C311.055 540.188 314.642 543.775 319.067 543.775Z" fill="white"/>
<path d="M319.067 541.772C322.385 541.772 325.075 539.082 325.075 535.763C325.075 532.444 322.385 529.753 319.067 529.753C315.748 529.753 313.058 532.444 313.058 535.763C313.058 539.082 315.748 541.772 319.067 541.772Z" stroke="#F7F5F7" stroke-width="4"/>
<path d="M421.214 543.775C425.639 543.775 429.226 540.188 429.226 535.763C429.226 531.338 425.639 527.75 421.214 527.75C416.79 527.75 413.203 531.338 413.203 535.763C413.203 540.188 416.79 543.775 421.214 543.775Z" fill="white"/>
<path d="M421.214 541.772C424.533 541.772 427.223 539.082 427.223 535.763C427.223 532.444 424.533 529.753 421.214 529.753C417.896 529.753 415.206 532.444 415.206 535.763C415.206 539.082 417.896 541.772 421.214 541.772Z" stroke="#F7F5F7" stroke-width="4"/>
<path d="M523.362 500.708C527.786 500.708 531.373 497.121 531.373 492.695C531.373 488.27 527.786 484.683 523.362 484.683C518.937 484.683 515.35 488.27 515.35 492.695C515.35 497.121 518.937 500.708 523.362 500.708Z" fill="white"/>
<path d="M523.362 498.705C526.68 498.705 529.37 496.014 529.37 492.695C529.37 489.376 526.68 486.686 523.362 486.686C520.043 486.686 517.353 489.376 517.353 492.695C517.353 496.014 520.043 498.705 523.362 498.705Z" stroke="#F7F5F7" stroke-width="4"/>
<path d="M625.509 510.724C629.933 510.724 633.52 507.136 633.52 502.711C633.52 498.286 629.933 494.698 625.509 494.698C621.084 494.698 617.497 498.286 617.497 502.711C617.497 507.136 621.084 510.724 625.509 510.724Z" fill="white"/>
<path d="M625.509 508.72C628.827 508.72 631.517 506.03 631.517 502.711C631.517 499.392 628.827 496.702 625.509 496.702C622.19 496.702 619.5 499.392 619.5 502.711C619.5 506.03 622.19 508.72 625.509 508.72Z" stroke="#F7F5F7" stroke-width="4"/>
<path d="M727.656 454.636C732.081 454.636 735.668 451.048 735.668 446.623C735.668 442.198 732.081 438.611 727.656 438.611C723.231 438.611 719.645 442.198 719.645 446.623C719.645 451.048 723.231 454.636 727.656 454.636Z" fill="white"/>
<path d="M727.656 452.633C730.975 452.633 733.665 449.942 733.665 446.623C733.665 443.304 730.975 440.614 727.656 440.614C724.338 440.614 721.647 443.304 721.647 446.623C721.647 449.942 724.338 452.633 727.656 452.633Z" stroke="#F7F5F7" stroke-width="4"/>
<path d="M829.804 364.495C834.228 364.495 837.815 360.907 837.815 356.482C837.815 352.057 834.228 348.47 829.804 348.47C825.379 348.47 821.792 352.057 821.792 356.482C821.792 360.907 825.379 364.495 829.804 364.495Z" fill="white"/>
<path d="M829.804 362.492C833.122 362.492 835.812 359.801 835.812 356.482C835.812 353.163 833.122 350.473 829.804 350.473C826.485 350.473 823.795 353.163 823.795 356.482C823.795 359.801 826.485 362.492 829.804 362.492Z" stroke="#F7F5F7" stroke-width="4"/>
<path d="M932.953 343.462C937.377 343.462 940.964 339.874 940.964 335.449C940.964 331.024 937.377 327.437 932.953 327.437C928.528 327.437 924.941 331.024 924.941 335.449C924.941 339.874 928.528 343.462 932.953 343.462Z" fill="white"/>
<path d="M932.953 341.459C936.271 341.459 938.961 338.768 938.961 335.449C938.961 332.13 936.271 329.44 932.953 329.44C929.634 329.44 926.944 332.13 926.944 335.449C926.944 338.768 929.634 341.459 932.953 341.459Z" stroke="#F7F5F7" stroke-width="4"/>
<path d="M1033.1 364.495C1037.52 364.495 1041.11 360.907 1041.11 356.482C1041.11 352.057 1037.52 348.47 1033.1 348.47C1028.67 348.47 1025.09 352.057 1025.09 356.482C1025.09 360.907 1028.67 364.495 1033.1 364.495Z" fill="white"/>
<path d="M1033.1 362.492C1036.42 362.492 1039.11 359.801 1039.11 356.482C1039.11 353.163 1036.42 350.473 1033.1 350.473C1029.78 350.473 1027.09 353.163 1027.09 356.482C1027.09 359.801 1029.78 362.492 1033.1 362.492Z" stroke="#F7F5F7" stroke-width="4"/>
<path d="M1238.39 269.346C1242.82 269.346 1246.4 265.759 1246.4 261.333C1246.4 256.908 1242.82 253.321 1238.39 253.321C1233.97 253.321 1230.38 256.908 1230.38 261.333C1230.38 265.759 1233.97 269.346 1238.39 269.346Z" fill="white"/>
<path d="M1238.39 267.343C1241.71 267.343 1244.4 264.652 1244.4 261.333C1244.4 258.014 1241.71 255.324 1238.39 255.324C1235.07 255.324 1232.38 258.014 1232.38 261.333C1232.38 264.652 1235.07 267.343 1238.39 267.343Z" stroke="#F7F5F7" stroke-width="4"/>
<path d="M1136.25 318.423C1140.67 318.423 1144.26 314.835 1144.26 310.41C1144.26 305.985 1140.67 302.398 1136.25 302.398C1131.82 302.398 1128.23 305.985 1128.23 310.41C1128.23 314.835 1131.82 318.423 1136.25 318.423Z" fill="white"/>
<path d="M1136.25 316.419C1139.56 316.419 1142.25 313.729 1142.25 310.41C1142.25 307.091 1139.56 304.401 1136.25 304.401C1132.93 304.401 1130.24 307.091 1130.24 310.41C1130.24 313.729 1132.93 316.419 1136.25 316.419Z" stroke="#F7F5F7" stroke-width="4"/>
<path d="M1340.54 253.321C1344.97 253.321 1348.55 249.733 1348.55 245.308C1348.55 240.883 1344.97 237.296 1340.54 237.296C1336.12 237.296 1332.53 240.883 1332.53 245.308C1332.53 249.733 1336.12 253.321 1340.54 253.321Z" fill="white"/>
<path d="M1340.54 251.318C1343.86 251.318 1346.55 248.627 1346.55 245.308C1346.55 241.989 1343.86 239.299 1340.54 239.299C1337.22 239.299 1334.53 241.989 1334.53 245.308C1334.53 248.627 1337.22 251.318 1340.54 251.318Z" stroke="#F7F5F7" stroke-width="4"/>
<path d="M1442.69 238.297C1447.11 238.297 1450.7 234.71 1450.7 230.285C1450.7 225.86 1447.11 222.272 1442.69 222.272C1438.26 222.272 1434.68 225.86 1434.68 230.285C1434.68 234.71 1438.26 238.297 1442.69 238.297Z" fill="white"/>
<path d="M1442.69 236.294C1446.01 236.294 1448.7 233.604 1448.7 230.285C1448.7 226.966 1446.01 224.275 1442.69 224.275C1439.37 224.275 1436.68 226.966 1436.68 230.285C1436.68 233.604 1439.37 236.294 1442.69 236.294Z" stroke="#F7F5F7" stroke-width="4"/>
</svg>
