<svg width="121" height="24" viewBox="0 0 121 24" fill="none" xmlns="http://www.w3.org/2000/svg">
<path d="M41.0865 5.45459C43.1373 5.45459 44.6668 5.83695 45.6401 6.60167C46.6133 7.3664 46.9609 8.54824 46.6829 10.1472C46.5438 10.9815 46.2657 11.7114 45.8486 12.3023C45.4315 12.8933 44.9449 13.3799 44.3192 13.7623C43.6935 14.1446 42.9635 14.4227 42.1293 14.5965C41.295 14.7703 40.3565 14.8746 39.3137 14.8746H38.0276L37.1238 19.8105H34.5516L37.0195 5.76743C37.6452 5.62839 38.3404 5.52411 39.0704 5.48935C39.8004 5.48935 40.4608 5.45459 41.0865 5.45459ZM40.8779 7.67924C40.2175 7.67924 39.6613 7.714 39.2442 7.74876L38.3752 12.5804H39.6266C40.8779 12.5804 41.8512 12.4066 42.5812 12.059C43.3111 11.7114 43.763 11.051 43.9368 10.0777C44.0063 9.6258 44.0063 9.20868 43.8673 8.89584C43.7282 8.583 43.5544 8.33968 43.2416 8.16588C42.9635 7.99208 42.6159 7.85304 42.1988 7.78352C41.8164 7.714 41.3646 7.67924 40.8779 7.67924Z" fill="#4B2661"/>
<path d="M53.7739 5.45459C55.8247 5.45459 57.3194 5.83695 58.2927 6.60167C59.266 7.3664 59.5788 8.51348 59.3007 10.0429C58.9531 11.9895 57.7713 13.2756 55.7552 13.9708C55.9638 14.2837 56.1723 14.666 56.4504 15.1179C56.6937 15.5698 56.9371 16.0564 57.2151 16.5778C57.4585 17.0992 57.7018 17.6554 57.9103 18.2116C58.1189 18.7677 58.3275 19.3239 58.4665 19.8453H55.5814C55.4076 19.3586 55.199 18.872 54.9905 18.3506C54.7819 17.864 54.5734 17.3773 54.33 16.8907C54.1215 16.404 53.8782 15.9869 53.6348 15.5698C53.3915 15.1527 53.183 14.7703 52.9744 14.4575C52.7658 14.4575 52.6268 14.4922 52.4878 14.4922C52.3487 14.4922 52.2097 14.4922 52.1054 14.4922H50.854L49.9155 19.8105H47.3433L49.8112 5.76743C50.4717 5.62839 51.1669 5.52411 51.8621 5.48935C52.5573 5.48935 53.2177 5.45459 53.7739 5.45459ZM53.5653 7.67924C53.0092 7.67924 52.5225 7.714 52.0359 7.74876L51.2364 12.3371H52.3835C53.0092 12.3371 53.5653 12.3023 54.052 12.2328C54.5386 12.1633 54.9557 12.0243 55.3033 11.8505C55.6509 11.6767 55.929 11.4333 56.1723 11.1205C56.3809 10.8076 56.5547 10.4253 56.6242 9.97341C56.6937 9.52152 56.6937 9.17392 56.5895 8.86108C56.4852 8.54824 56.2766 8.30492 55.9985 8.13112C55.7205 7.95732 55.3729 7.81828 54.9557 7.74876C54.5386 7.714 54.052 7.67924 53.5653 7.67924Z" fill="#4B2661"/>
<path d="M74.769 12.6845C74.5604 13.9011 74.1781 14.9787 73.6567 15.9172C73.1353 16.8557 72.5096 17.6205 71.7796 18.2461C71.0497 18.8718 70.2502 19.3237 69.3464 19.6365C68.4427 19.9494 67.5389 20.1232 66.6004 20.1232C65.6618 20.1232 64.7928 19.9494 63.9934 19.6365C63.1939 19.3237 62.5682 18.8371 62.0468 18.2461C61.5254 17.6552 61.1778 16.8557 60.9692 15.9172C60.7607 14.9787 60.7607 13.9011 60.9692 12.6845C61.1778 11.4679 61.5602 10.3903 62.0816 9.48658C62.603 8.58282 63.2634 7.78334 63.9934 7.15766C64.7581 6.53197 65.5576 6.04533 66.4613 5.73249C67.3651 5.41965 68.2689 5.24585 69.2074 5.24585C70.1459 5.24585 70.9801 5.41965 71.7796 5.73249C72.5443 6.04533 73.2048 6.53197 73.7262 7.15766C74.2476 7.78334 74.5952 8.54806 74.8038 9.48658C74.9776 10.4251 74.9776 11.4679 74.769 12.6845ZM63.6458 12.6845C63.5067 13.4492 63.472 14.1792 63.5415 14.8049C63.611 15.4306 63.8196 15.9867 64.0976 16.4386C64.3757 16.8905 64.7581 17.2381 65.2447 17.4814C65.7314 17.7247 66.2875 17.8638 66.948 17.8638C67.6084 17.8638 68.1993 17.7247 68.7555 17.4814C69.3117 17.2381 69.8331 16.8905 70.2502 16.4386C70.7021 15.9867 71.0497 15.4653 71.3625 14.8049C71.6753 14.1792 71.8839 13.4492 72.0229 12.6845C72.162 11.9198 72.1967 11.1898 72.1272 10.5641C72.0577 9.93847 71.8491 9.3823 71.5711 8.93042C71.293 8.47854 70.9106 8.13094 70.424 7.88762C69.9373 7.6443 69.3812 7.50526 68.7555 7.50526C68.0951 7.50526 67.5041 7.6443 66.9132 7.88762C66.357 8.13094 65.8356 8.47854 65.4185 8.93042C64.9666 9.3823 64.619 9.93847 64.3062 10.5641C63.9934 11.2246 63.7848 11.9198 63.6458 12.6845Z" fill="#4B2661"/>
<path d="M83.9456 15.1525C83.8066 15.8477 83.6328 16.5082 83.3895 17.0991C83.1461 17.69 82.7638 18.2114 82.3119 18.6633C81.86 19.1152 81.3039 19.4628 80.6087 19.7409C79.9135 19.9842 79.114 20.1232 78.1407 20.1232C77.2369 20.1232 76.4722 19.9842 75.8465 19.7409C75.2208 19.4976 74.769 19.2195 74.4561 18.9414L75.7422 16.9253C76.0551 17.1686 76.4374 17.3772 76.8893 17.5857C77.3412 17.7943 77.8278 17.8986 78.3492 17.8986C79.2183 17.8986 79.9135 17.69 80.3653 17.2381C80.852 16.7863 81.1648 16.0563 81.3734 14.9787L83.0419 5.59351H85.6489L83.9456 15.1525Z" fill="#4B2661"/>
<path d="M86.4136 19.8104L88.9164 5.59351H98.0583L97.6759 7.78339H91.141L90.5153 11.2942H96.355L95.9727 13.4493H90.133L89.403 17.6205H96.4593L96.0769 19.8104H86.4136Z" fill="#4B2661"/>
<path d="M110.885 5.59351L110.502 7.81815H106.123L104.002 19.8104H101.395L103.516 7.81815H99.1359L99.5182 5.59351H110.885Z" fill="#4B2661"/>
<path d="M114.152 17.8984C115.091 17.8984 115.786 17.7246 116.273 17.4118C116.759 17.099 117.037 16.6471 117.142 16.0909C117.211 15.7433 117.176 15.4652 117.072 15.2219C116.968 14.9786 116.794 14.77 116.585 14.5615C116.342 14.3529 116.064 14.1791 115.716 14.0053C115.369 13.8315 114.952 13.6577 114.5 13.5187C114.048 13.3449 113.596 13.1363 113.179 12.9277C112.762 12.7192 112.414 12.4411 112.101 12.1283C111.823 11.8154 111.58 11.4331 111.476 10.9812C111.337 10.5293 111.337 10.0079 111.441 9.41697C111.684 8.13085 112.275 7.1228 113.318 6.39284C114.326 5.66288 115.612 5.28052 117.142 5.28052C118.045 5.28052 118.81 5.3848 119.471 5.59336C120.131 5.80192 120.618 6.01048 121 6.2538L119.818 8.33941C119.401 8.09609 118.914 7.88753 118.393 7.74849C117.872 7.60945 117.315 7.53993 116.724 7.53993C116.029 7.53993 115.473 7.67897 115.021 7.95705C114.569 8.23513 114.326 8.65225 114.222 9.17365C114.152 9.48649 114.187 9.76457 114.291 9.97313C114.396 10.1817 114.535 10.3903 114.743 10.5641C114.952 10.7379 115.195 10.9117 115.508 11.0507C115.786 11.1897 116.134 11.3288 116.481 11.4678C117.107 11.7111 117.663 11.9545 118.15 12.2325C118.636 12.4759 119.019 12.7887 119.331 13.1363C119.644 13.4839 119.853 13.901 119.957 14.3529C120.061 14.8396 120.061 15.3957 119.957 16.0562C119.714 17.3423 119.088 18.3503 118.08 19.0455C117.037 19.7407 115.647 20.0883 113.909 20.0883C113.318 20.0883 112.797 20.0536 112.31 19.984C111.823 19.9145 111.406 19.8102 111.059 19.706C110.711 19.6017 110.398 19.4974 110.155 19.3584C109.911 19.2541 109.703 19.1498 109.564 19.0455L110.711 16.9252C111.059 17.1337 111.51 17.3423 112.101 17.5508C112.519 17.7942 113.248 17.8984 114.152 17.8984Z" fill="#4B2661"/>
<path d="M6.11778 23.8077H0L1.07756 17.6899C3.37173 19.1151 5.1445 21.2355 6.11778 23.8077Z" fill="#4B2661"/>
<path d="M15.8158 3.12524L6.46537 11.0506C5.28352 10.2858 3.9974 9.66015 2.60699 9.17351L9.73282 3.12524H15.8158Z" fill="#4B2661"/>
<path d="M22.8374 11.6416L21.7598 17.7246L14.634 23.7729C14.3907 22.313 14.0083 20.8878 13.4869 19.5669L22.8374 11.6416Z" fill="#4B2661"/>
<path d="M27.1825 0.692139L26.3482 5.5238L12.4094 17.3422C11.3666 15.5 10.011 13.8662 8.41199 12.5106L22.316 0.692139H27.1825Z" fill="#4B2661"/>
</svg>
