<svg width="24" height="24" viewBox="0 0 24 24" fill="none" xmlns="http://www.w3.org/2000/svg">
<path d="M5 1L2.41406 3.586C1.96575 4.03434 1.61005 4.56657 1.36743 5.15234C1.12482 5.73812 0.999977 6.36597 1 7V7C0.999977 7.63403 1.12482 8.26188 1.36743 8.84766C1.61005 9.43343 1.96575 9.96566 2.41406 10.414L13.5859 21.586C14.0343 22.0343 14.5666 22.39 15.1523 22.6326C15.7381 22.8752 16.366 23 17 23C17.634 23 18.2619 22.8752 18.8477 22.6326C19.4334 22.39 19.9657 22.0343 20.4141 21.586L23 19L18 14L15 17L7 9L10 6L5 1Z" stroke="#C5BACC" stroke-linecap="round" stroke-linejoin="round"/>
</svg>
