<svg width="59" height="42" viewBox="0 0 59 42" fill="none" xmlns="http://www.w3.org/2000/svg">
<path d="M0.591479 42C0.394319 40.605 0.246449 39.1601 0.147869 37.6655C0.0492895 36.1708 0 35.0747 0 34.3772C0 27.7011 1.18296 21.3737 3.54887 15.395C5.91479 9.31673 8.82289 4.18505 12.2732 0L27.208 3.43772C25.335 7.72242 23.807 12.605 22.6241 18.0854C21.5397 23.4662 20.9975 28.5979 20.9975 33.4804C20.9975 33.6797 20.9975 34.1281 20.9975 34.8256C20.9975 35.4235 20.9975 36.1708 20.9975 37.0676C21.0961 37.8648 21.1454 38.7117 21.1454 39.6085C21.2439 40.5053 21.3425 41.3025 21.4411 42H0.591479ZM32.3835 42C32.1863 40.605 32.0384 39.1601 31.9399 37.6655C31.8413 36.1708 31.792 35.0747 31.792 34.3772C31.792 27.7011 32.9749 21.3737 35.3409 15.395C37.7068 9.31673 40.6149 4.18505 44.0652 0L59 3.43772C57.127 7.72242 55.599 12.605 54.416 18.0854C53.3317 23.4662 52.7895 28.5979 52.7895 33.4804C52.7895 33.6797 52.7895 34.1281 52.7895 34.8256C52.7895 35.4235 52.7895 36.1708 52.7895 37.0676C52.8881 37.8648 52.9373 38.7117 52.9373 39.6085C53.0359 40.5053 53.1345 41.3025 53.2331 42H32.3835Z" fill="#F7F5F7"/>
</svg>
