<svg width="120" height="21" viewBox="0 0 120 21" fill="none" xmlns="http://www.w3.org/2000/svg">
<path d="M51.7085 10.8898C51.0854 12.9905 50.0151 14.9257 48.5736 16.5579L46.9639 14.3439C47.8151 13.3213 48.4786 12.1513 48.9227 10.8898H51.7085Z" fill="#F7F7F7"/>
<path d="M47.6618 17.488C47.6188 17.5317 47.5745 17.5768 47.5316 17.5768C45.7943 19.2404 43.5535 20.255 41.1758 20.4546L41.9169 17.7093C43.4911 17.3268 44.9256 16.4957 46.0521 15.3135L47.6618 17.488Z" fill="#F7F7F7"/>
<path d="M40.5649 17.7982L39.8722 20.4082C39.0629 20.3076 38.2824 20.0397 37.5787 19.6209C36.8749 19.2021 36.2628 18.6413 35.78 17.9729C35.6245 17.7836 35.4928 17.5753 35.388 17.3528C35.1555 16.9615 34.9656 16.5457 34.8214 16.1126C34.2419 14.4214 34.1227 12.6021 34.4765 10.8475H37.1321C36.8325 11.989 36.788 13.1842 37.0019 14.3454C37.0941 14.804 37.2402 15.2497 37.4368 15.6729L37.8289 16.3367C38.1493 16.7721 38.5612 17.1292 39.0345 17.382C39.5078 17.6349 40.0307 17.777 40.5649 17.7982Z" fill="#F7F7F7"/>
<path d="M52.0573 9.56218H49.4016C49.5717 8.87937 49.6591 8.17799 49.6621 7.47361C49.6635 7.00067 49.6199 6.52871 49.5319 6.06432C49.4396 5.60568 49.2936 5.15998 49.0969 4.73676L48.7034 4.0744C48.3885 3.64237 47.9832 3.28691 47.5167 3.03368C47.0503 2.78046 46.5344 2.63579 46.0063 2.61014H45.7015C45.3493 2.61056 44.9985 2.65505 44.657 2.74262C43.0828 3.12514 41.6484 3.95621 40.5219 5.13841C40.2171 5.44846 39.9123 5.7585 39.6103 6.11223C38.7591 7.13486 38.0956 8.30487 37.6515 9.56641H34.9072C35.5303 7.46572 36.6007 5.53047 38.0422 3.89824C38.3239 3.56748 38.6286 3.25758 38.9537 2.97092C40.6943 1.246 42.9741 0.1963 45.3967 0.00436199H45.7444C46.0807 -0.012032 46.4176 0.0178329 46.746 0.0931474C47.5549 0.193015 48.3351 0.460057 49.0388 0.877868C49.7425 1.29568 50.3549 1.85544 50.8382 2.52277C50.9937 2.71209 51.1254 2.92039 51.2302 3.14286C51.4627 3.53415 51.6527 3.94999 51.7968 4.38303C52.307 6.06028 52.3965 7.84073 52.0573 9.56218V9.56218Z" fill="#F7F7F7"/>
<path d="M3.96058 3.62915L0 16.9103H3.00333L3.69598 14.3003H7.5305L7.13846 11.8651H4.35262L5.87645 6.33076L8.83683 16.8694H11.8402L7.79093 3.62915H3.96058Z" fill="#F7F7F7"/>
<path d="M28.2917 3.62915H22.9375V16.8243H25.8106V6.19688H28.1171C28.2945 6.20197 28.4691 6.24273 28.6308 6.31681C28.7926 6.39089 28.9383 6.49682 29.0596 6.62849C29.181 6.76017 29.2755 6.91497 29.3377 7.08398C29.3999 7.253 29.4286 7.43287 29.4221 7.61322C29.4221 8.98587 29.465 12.8826 29.465 12.8826C29.4625 13.2458 29.3195 13.5935 29.067 13.8503C28.8145 14.1072 28.4728 14.2526 28.1158 14.2552H26.506L26.1583 16.7793H28.8943C29.7728 16.7707 30.6136 16.4149 31.239 15.7872C31.8644 15.1594 32.2252 14.3088 32.2453 13.4153V6.72959C32.2523 6.19688 31.8602 3.62915 28.2917 3.62915Z" fill="#F7F7F7"/>
<path d="M21.2406 10.3148H18.4977V14.2608C17.8051 14.3045 17.0154 14.3933 16.3644 14.3933C14.8405 14.3933 14.9278 12.5781 14.9278 12.5781V8.01201C14.9278 8.01201 14.8419 6.19825 16.3657 6.19825C17.7642 6.22998 19.1594 6.34811 20.5438 6.55198L20.8915 3.94338C20.8915 3.94338 18.675 3.58965 16.6262 3.50087C12.0547 3.23169 12.0547 7.12838 12.0547 7.48353V13.0629C12.0547 13.4166 12.0547 17.3133 16.6262 17.0484C18.6723 16.9159 21.2836 16.5608 21.2836 16.5608V10.3176L21.2406 10.3148Z" fill="#F7F7F7"/>
<path d="M71.9912 3.62915L67.9434 16.8694H70.9467L73.9071 6.33076L75.4309 11.8651H72.6451L72.253 14.3003H76.0834L76.8245 16.9103H79.7849L75.8673 3.62915H71.9912Z" fill="#F7F7F7"/>
<path d="M63.8064 3.62915L60.7158 12.0849L57.5393 3.67143H54.6232L54.0566 16.9089H56.8854C56.8854 16.9089 57.1029 9.33678 57.1029 9.51435C57.1029 9.69193 59.4095 15.1403 59.4095 15.1403L62.0207 15.0966L64.2843 9.51717L64.5018 16.868H67.2877L66.7238 3.62915H63.8064Z" fill="#F7F7F7"/>
<path d="M99.4991 3.67432H89.6191V6.24205H99.4991V3.67432Z" fill="#F7F7F7"/>
<path d="M103.546 16.8695H108.376V14.3018H103.894L103.546 16.8695Z" fill="#F7F7F7"/>
<path d="M93.0137 16.8695H95.9741V7.12564L93.0137 6.77332V16.8695Z" fill="#F7F7F7"/>
<path d="M101.241 3.67432H100.239V16.8695H103.2V11.2845H108.03V8.71958H103.2V6.24205H108.379V3.67432H101.241Z" fill="#F7F7F7"/>
<path d="M119.477 9.60743V6.72966C119.477 3.85189 116.342 3.67432 115.342 3.67432H113.34L113.036 6.28433H115.429C116.691 6.28433 116.604 7.34693 116.604 7.34693V9.1621C116.604 10.181 115.472 10.2247 114.951 10.2247H112.645V3.67432H109.685V16.8695H112.645V12.7079H114.909L116.693 16.8709H120L117.996 12.1301C118.434 11.8725 118.8 11.5054 119.059 11.0637C119.318 10.622 119.462 10.1202 119.477 9.60603V9.60743Z" fill="#F7F7F7"/>
<path d="M87.3547 9.6074C85.788 9.16488 84.3944 8.90275 84.3944 8.90275C83.0894 8.6378 83.2196 7.79505 83.2196 7.26374C83.2196 6.73244 83.2196 5.97988 84.4816 5.97988C85.7436 5.97988 88.4422 6.37871 88.4422 6.37871L88.7026 3.89976C87.3639 3.6796 86.0129 3.54499 84.6576 3.4967C82.9163 3.4967 80.3493 3.76165 80.3493 6.46326V8.63357C80.3764 9.11696 80.544 9.58126 80.8309 9.96763C81.1177 10.354 81.5108 10.645 81.9604 10.8039C82.927 11.1417 83.9164 11.4078 84.9208 11.6001C86.2257 11.8651 86.0955 12.6191 86.0955 13.1504C86.0955 13.6817 86.0955 14.4342 84.8335 14.4342C83.4044 14.3465 81.9807 14.1838 80.5682 13.9466L80.0459 16.3424C81.5569 16.6373 83.0832 16.8444 84.6174 16.9625C86.3587 16.9625 88.9257 16.6975 88.9257 13.9959V11.8256C88.9525 11.3289 88.8113 10.8378 88.5254 10.4342C88.2396 10.0305 87.8264 9.73875 87.3547 9.6074V9.6074Z" fill="#F7F7F7"/>
</svg>
