<svg width="120" height="50" viewBox="0 0 120 50" fill="none" xmlns="http://www.w3.org/2000/svg">
<path d="M119.691 36.2834C119.146 36.9096 118.494 37.4002 117.777 37.7245C117.06 38.0488 116.292 38.2 115.522 38.1685C106.548 39.0907 97.5371 39.4672 88.5282 39.2964C82.0013 39.2137 75.4732 39.1177 68.9475 38.9631C64.1999 38.8498 59.4558 38.6005 54.7083 38.4632C50.3725 38.3378 46.0343 38.2765 41.6962 38.1965C36.9436 38.1077 32.191 38.0277 27.4384 37.9566C27.2899 37.9566 27.1403 37.9859 26.8584 38.0152C25.9971 41.7931 25.577 45.6859 25.6092 49.5911C25.0153 49.7071 24.5061 49.8271 23.9853 49.9031C23.4985 50.0293 22.9926 50.0203 22.5095 49.8767C22.0263 49.7332 21.58 49.4593 21.2074 49.0778C20.8348 48.6962 20.5468 48.218 20.3672 47.6829C20.1877 47.1478 20.1218 46.5711 20.175 46.0009C20.4033 39.8681 21.4526 33.8125 23.2859 28.0471C23.4019 27.6379 23.5179 27.2312 23.6339 26.8206C23.6431 26.7846 23.6211 26.7366 23.5712 26.47C22.2837 26.6553 20.9649 26.7846 19.6658 27.0446C17.3761 27.5014 15.0949 28.0076 12.8222 28.5631C12.3679 28.688 11.9539 28.9589 11.6286 29.3443C9.24669 32.4289 6.49064 35.1031 3.44536 37.2846C2.72621 37.7593 0.0908575 36.802 0.00154326 35.9008C-0.0212026 35.0979 0.208119 34.3124 0.647621 33.6878C1.48973 32.4746 2.5035 31.4214 3.45464 30.3055C3.56019 30.1815 3.68662 30.0855 3.80261 29.9669C5.22584 28.4471 5.2328 28.2858 3.85597 26.634C4.47907 26.467 5.11164 26.3508 5.74897 26.286C7.82408 26.246 9.06636 24.5662 10.558 23.2851C16.0785 18.5417 21.6345 13.8534 27.2261 9.22017C29.4683 7.36174 31.2975 5.24334 31.7661 1.96775C31.7697 1.79769 31.8026 1.63015 31.8631 1.47488C31.9235 1.3196 32.0103 1.17971 32.1182 1.06333C32.2262 0.94695 32.3532 0.85642 32.4919 0.797004C32.6306 0.737587 32.7781 0.710472 32.926 0.717241C34.0361 0.583924 35.1299 0.259967 36.3026 0C33.0652 11.6132 30.0065 23.1971 27.2899 35.1436C28.9997 35.2462 30.5192 35.4102 32.0387 35.4102C38.0448 35.4462 44.0509 35.4102 50.057 35.4462C60.6633 35.5115 71.2708 35.6542 81.8783 35.6728C86.8567 35.6822 91.8375 35.5102 96.8159 35.3662C100.844 35.2502 104.875 35.1076 108.899 34.8769C111.526 34.7263 114.157 34.4957 116.764 34.113C118.368 33.8851 119.083 34.8423 119.691 36.2834ZM26.6172 13.9182L26.3678 13.6409L16.5583 23.4104L16.7056 23.7503C18.7726 23.4197 20.8431 23.1024 22.9054 22.7398C23.0248 22.7004 23.1357 22.6325 23.2308 22.5406C23.3259 22.4488 23.4032 22.3349 23.4575 22.2065C24.527 19.4496 25.564 16.6819 26.6172 13.9182Z" fill="#F7F7F7"/>
<path d="M98.4989 30.4099C98.8048 29.5781 99.1715 28.7775 99.595 28.0168C101.239 25.5372 102.966 23.1308 104.62 20.6591C104.997 19.9617 105.323 19.23 105.596 18.4714C102.409 19.1899 99.7794 20.2391 97.8725 22.9535L91.5648 31.9297L87.8496 30.5512C88.6616 29.31 89.4862 28.0182 90.3423 26.7423C92.4638 23.5894 94.5992 20.4511 96.7219 17.3022C97.2775 16.4796 97.8099 15.8584 98.8979 16.3036C99.4094 16.5129 100.105 16.1277 100.986 15.9597L99.8664 18.3754C100.605 18.0541 101.102 17.8155 101.612 17.6195C103.068 17.0609 104.512 16.4316 105.991 15.9957C106.298 15.8704 106.626 15.8275 106.95 15.8702C107.274 15.913 107.585 16.0403 107.86 16.2424C108.134 16.4444 108.365 16.716 108.534 17.0362C108.703 17.3565 108.807 17.7169 108.836 18.0901C111.074 17.3169 113.311 16.469 115.587 15.7944C116.472 15.5725 117.384 15.5363 118.28 15.6877C118.597 15.6945 118.906 15.7998 119.175 15.9924C119.444 16.1851 119.662 16.4578 119.807 16.7816C119.951 17.1054 120.017 17.4682 119.996 17.8315C119.976 18.1948 119.87 18.5449 119.691 18.8447C117.58 22.7308 115.348 26.5317 113.126 30.3365C113.027 30.5508 112.886 30.736 112.715 30.8779C112.544 31.0198 112.347 31.1145 112.139 31.1547C111.931 31.1949 111.718 31.1796 111.516 31.1098C111.314 31.0401 111.128 30.9178 110.974 30.7525C110.687 30.5524 110.365 30.431 110.031 30.3979C108.769 30.2126 108.493 29.8366 109.205 28.5848C110.335 26.5997 111.657 24.7586 112.924 22.8801C113.663 21.7843 114.473 20.7471 115.208 19.6552C115.54 19.0645 115.838 18.449 116.1 17.8128C115.329 17.9914 114.832 18.0688 114.352 18.2234C111.189 19.3224 108.477 21.6965 106.716 24.9092C105.556 26.8223 104.135 28.5234 102.856 30.3419C102.587 30.7655 102.195 31.0637 101.751 31.1815C101.307 31.2993 100.841 31.2289 100.438 30.9831C99.8012 30.7524 99.1538 30.561 98.4989 30.4099Z" fill="#F7F7F7"/>
<path d="M75.8334 32.5141C74.5552 32.2376 73.2931 31.8703 72.0544 31.4142C69.8018 30.4237 69.1546 28.3946 70.1463 25.8669C71.424 22.9374 73.4757 20.548 76.0074 19.0411C78.6961 17.22 81.4811 15.5122 84.7776 15.9135C85.5943 16.0066 86.3896 16.2686 87.1253 16.6867C89.0832 17.8399 89.5774 19.2811 88.6715 21.5888C87.7055 24.2056 86.219 26.5255 84.3315 28.3623C82.4439 30.199 80.2079 31.5014 77.803 32.1648C77.1699 32.2804 76.5283 32.3224 75.888 32.2901L75.8334 32.5141ZM75.4414 29.4478C75.6561 29.4324 75.8694 29.3976 76.0793 29.3438C77.8922 28.8188 79.5699 27.8038 80.9726 26.3832C82.3754 24.9627 83.4628 23.1778 84.1443 21.1768C84.2587 20.88 84.313 20.5572 84.3031 20.2328C84.2933 19.9083 84.2196 19.5907 84.0875 19.3037C83.772 18.9424 82.996 19.0957 82.4195 19.0651C82.2304 19.0751 82.0456 19.1339 81.879 19.2371C78.9539 20.569 76.4676 22.9248 74.7721 25.9709C74.4581 26.6041 74.2448 27.2967 74.1423 28.016C73.9926 28.9692 74.4288 29.4784 75.4402 29.4438L75.4414 29.4478Z" fill="#F7F7F7"/>
<path d="M64.6921 26.0202C65.5389 27.9867 64.597 29.1812 63.3594 30.1144C61.7267 31.4795 59.8134 32.3336 57.807 32.5928C55.8006 32.8519 53.77 32.5074 51.9144 31.5929C49.7106 30.5263 49.2918 28.9745 50.2638 26.4655C51.3006 24.0375 52.9243 22.0046 54.9407 20.6102C58.2224 18.2331 61.9229 16.7244 65.7744 16.1935C66.1484 16.1517 66.5259 16.1846 66.8902 16.2908C68.1232 16.5814 69.362 16.8574 70.573 17.2387C71.1521 17.5035 71.7076 17.8322 72.2317 18.2199C70.4859 20.0724 68.4295 21.496 66.1885 22.4034C65.8335 22.5367 65.2791 22.0221 64.8209 21.7968C64.4149 21.5955 64.0159 21.3781 63.4673 21.0915L65.6607 18.6918L65.5551 18.4079C65.1158 18.4948 64.6818 18.6146 64.256 18.7665C60.7046 20.2809 57.6038 22.9304 55.3188 26.4029C54.6843 27.3614 53.8318 28.6279 54.653 29.6331C55.4727 30.256 56.4699 30.4914 57.4368 30.2904C60.2212 29.9081 62.7948 28.3934 64.6921 26.0202V26.0202Z" fill="#F7F7F7"/>
<path d="M31.4175 31.5886C33.2362 28.389 35.0701 25.1401 36.9202 21.9085C37.2913 21.2593 37.7483 20.674 38.1288 20.0314C38.9164 18.6982 39.7527 17.685 41.4044 17.9063C42.4016 17.8048 43.3772 17.5138 44.2915 17.0451L42.5388 20.1807C44.5177 19.2475 46.2007 18.4476 47.8884 17.6597C48.3048 17.4651 48.7491 17.3504 49.1643 17.1424C50.0923 16.6758 50.7882 16.7038 51.2638 17.9423C51.4273 18.3676 51.9887 18.5903 52.3692 18.9049L52.1511 19.2848C50.3811 19.9434 48.6006 20.5687 46.8445 21.2726C45.6068 21.7685 44.3959 22.3591 43.1791 22.9257C41.264 23.876 39.6432 25.4689 38.529 27.4958C37.5303 29.1756 36.455 30.7994 35.5132 32.5178C35.4578 32.6762 35.3715 32.8179 35.2609 32.9319C35.1503 33.0459 35.0184 33.1292 34.8754 33.1753C34.7324 33.2214 34.582 33.2291 34.436 33.1979C34.29 33.1667 34.1521 33.0973 34.0331 32.9951C33.2606 32.5658 32.4835 32.1632 31.4175 31.5886Z" fill="#F7F7F7"/>
</svg>
