<svg width="85" height="12" viewBox="0 0 85 12" fill="none" xmlns="http://www.w3.org/2000/svg">
<path d="M10.0147 10.8912H5.00737C2.25331 10.8912 0 8.67961 0 5.88383C0 3.08805 2.21159 0.876465 5.00737 0.876465H7.26068C7.1355 1.00165 7.05204 1.12683 6.96859 1.29375C6.5513 1.87794 6.21748 2.50386 5.96711 3.17151H5.00737C3.50516 3.17151 2.29504 4.38162 2.29504 5.88383C2.29504 7.38604 3.50516 8.59616 5.00737 8.59616H7.92833C8.09524 8.88825 8.26215 9.18035 8.47079 9.43072C8.88808 10.0149 9.43054 10.5156 10.0147 10.8912Z" fill="#0E75BE"/>
<path d="M13.1434 0C11.975 0 10.9318 0.333824 10.0138 0.918017C9.42962 1.29357 8.88716 1.75258 8.46988 2.33677C8.26124 2.58714 8.09433 2.87924 7.92741 3.17133C7.67705 3.63034 7.51013 4.08935 7.38495 4.63181C7.34322 4.88218 7.30149 5.17428 7.25977 5.46637C7.25977 5.59156 7.25977 5.75847 7.25977 5.88366V5.92538C7.25977 6.0923 7.25977 6.21748 7.25977 6.38439C7.25977 6.67649 7.34322 6.92686 7.38495 7.21895C7.51013 7.71969 7.67705 8.22043 7.92741 8.67943C8.09433 8.97153 8.26124 9.26363 8.46988 9.514C8.88716 10.0565 9.42962 10.5572 10.0138 10.9327C10.9318 11.5169 11.975 11.8508 13.1434 11.8508C16.3982 11.8508 19.0271 9.2219 19.0271 5.96711V5.92538C19.0271 2.62887 16.3982 0 13.1434 0ZM13.1434 9.514C11.1405 9.514 9.51308 7.8866 9.51308 5.88366C9.51308 3.88071 11.1405 2.25331 13.1434 2.25331C15.1464 2.25331 16.7738 3.88071 16.7738 5.88366C16.7738 7.8866 15.1464 9.514 13.1434 9.514Z" fill="#2CA9E1"/>
<path d="M29.5016 4.17287C29.5016 4.79879 29.2512 5.34125 28.5835 5.67508C29.3346 5.96718 29.7519 6.71828 29.7519 7.42766C29.7519 7.55284 29.7519 7.67803 29.7102 7.80321C29.5016 8.9716 28.5418 9.51406 27.1231 9.51406H23.5762V2.16992H27.0396C28.4166 2.16992 29.5016 2.79584 29.5016 4.17287ZM27.9576 4.33978C27.9576 3.9225 27.6655 3.58868 27.0396 3.58868H25.1201V5.00743H27.0396C27.6655 5.00743 27.9576 4.75706 27.9576 4.33978ZM28.1245 7.21902C28.1245 6.71828 27.749 6.34273 27.0813 6.34273H25.1618V8.05358H27.0813C27.7907 8.05358 28.1245 7.71975 28.1245 7.21902Z" fill="#0E75BE"/>
<path d="M35.928 9.47254H34.6345L34.551 8.80489C34.2172 9.38908 33.5078 9.59772 33.0071 9.59772C31.5049 9.59772 30.4199 8.55452 30.4199 6.84367C30.4199 5.17455 31.5466 4.13135 32.9653 4.13135C33.633 4.13135 34.2172 4.38172 34.5093 4.84072L34.551 4.25653H35.928V9.47254ZM31.8804 6.8854C31.8804 7.76169 32.4646 8.26242 33.174 8.26242C34.0085 8.26242 34.5093 7.59478 34.5093 6.96886C34.5093 6.21775 34.0503 5.5501 33.174 5.5501C32.4646 5.5501 31.8804 6.05084 31.8804 6.8854Z" fill="#0E75BE"/>
<path d="M39.7258 5.55014C39.0582 5.55014 38.5992 6.13433 38.5992 6.80198V9.47258H37.1387V4.34003H38.4322L38.474 5.00768C38.8912 4.42348 39.4337 4.21484 40.0179 4.21484C41.1863 4.21484 42.146 4.71558 42.146 6.76026V9.51431H40.6856V6.80198C40.7273 5.96742 40.3935 5.55014 39.7258 5.55014Z" fill="#0E75BE"/>
<path d="M46.2764 4.33978H47.9873V4.42324L46.1512 6.71828L48.2794 9.34715V9.47233H46.5268L44.816 7.21902V9.47233H43.3555V2.16992H44.816V6.34273L46.2764 4.33978Z" fill="#0E75BE"/>
<path d="M51.5332 3.33845C50.8655 3.33845 50.2813 3.63055 50.2813 4.13128C50.2813 4.79893 50.9073 4.92412 51.7836 5.00757C53.2023 5.13276 54.4959 5.67522 54.4959 7.34435C54.4959 8.97174 53.0354 9.63939 51.5332 9.63939C50.3231 9.68112 49.0295 9.18038 48.4453 8.17891L49.3633 7.17743C49.9058 7.88681 50.8238 8.22063 51.4915 8.22063C52.3678 8.22063 52.9102 7.88681 52.9102 7.34435C52.9102 6.71842 52.4512 6.46806 51.4915 6.3846C49.9893 6.25942 48.654 5.84213 48.6957 4.13128C48.6957 2.6708 50.031 1.96143 51.4915 1.96143C52.5764 1.96143 53.411 2.21179 54.1203 3.04636L53.1189 3.92264C52.7433 3.54709 52.0757 3.33845 51.5332 3.33845Z" fill="#2CA9E1"/>
<path d="M57.9598 8.34592C58.3354 8.34592 58.8779 8.26246 59.2534 7.92864L60.088 8.88839C59.5455 9.43085 58.7109 9.63949 57.9598 9.63949C56.1655 9.63949 55.1641 8.51283 55.1641 6.88544C55.1641 5.3415 56.2073 4.21484 57.7929 4.21484C59.2951 4.21484 60.3383 5.0494 60.3383 6.71853C60.3383 6.92717 60.3383 7.17754 60.2966 7.4279H56.6245C56.6663 7.92864 57.1253 8.34592 57.9598 8.34592ZM57.7512 5.50841C57.167 5.50841 56.7497 5.84224 56.5828 6.34297H58.9613C58.9196 5.75878 58.3771 5.50841 57.7512 5.50841Z" fill="#2CA9E1"/>
<path d="M63.6772 9.63949C62.2167 9.63949 60.9648 8.7632 60.9648 6.92717C60.9648 5.17459 62.2167 4.21484 63.6772 4.21484C64.3865 4.21484 64.9707 4.38176 65.4715 4.96595L64.6786 5.92569C64.3865 5.67533 64.0527 5.6336 63.7606 5.6336C63.0512 5.6336 62.467 6.13433 62.467 6.9689C62.467 7.80346 63.093 8.26246 63.7606 8.26246C64.0944 8.26246 64.5117 8.13728 64.7621 7.88691L65.6801 8.88839C65.0125 9.47258 64.3031 9.63949 63.6772 9.63949Z" fill="#2CA9E1"/>
<path d="M69.1434 4.21484C69.6024 4.21484 70.0197 4.38176 70.3536 4.67385L69.7276 5.88397C69.4773 5.71705 69.2269 5.6336 68.9348 5.6336C68.3089 5.6336 67.7664 6.05088 67.7664 6.84371V9.51431H66.3477V4.34003H67.683L67.8081 4.92422C68.142 4.42348 68.601 4.21484 69.1434 4.21484Z" fill="#2CA9E1"/>
<path d="M73.3583 8.34592C73.7338 8.34592 74.2763 8.26246 74.6518 7.92864L75.4864 8.88839C74.9439 9.43085 74.1094 9.63949 73.3583 9.63949C71.564 9.63949 70.5625 8.51283 70.5625 6.88544C70.5625 5.3415 71.6057 4.21484 73.1914 4.21484C74.6936 4.21484 75.7368 5.0494 75.7368 6.71853C75.7368 6.92717 75.7368 7.17754 75.695 7.4279H72.023C72.0647 7.92864 72.5237 8.34592 73.3583 8.34592ZM73.1496 5.50841C72.5654 5.50841 72.1482 5.84224 71.9813 6.34297H74.3597C74.318 5.75878 73.7756 5.50841 73.1496 5.50841Z" fill="#2CA9E1"/>
<path d="M79.8665 4.34014V5.59198H78.6146V7.59493C78.6146 8.13739 78.9067 8.30431 79.1988 8.30431C79.3657 8.30431 79.6578 8.26258 79.8248 8.17912L80.1586 9.43096C79.783 9.59788 79.4909 9.6396 79.1154 9.68133C78.0305 9.72306 77.2376 9.22232 77.2376 7.63666V5.63371H76.3613V4.38187H77.2376V3.0883L78.6981 2.92139V4.38187H79.8665V4.34014Z" fill="#2CA9E1"/>
<path d="M82.7892 5.42469C82.3302 5.42469 82.0798 5.59161 82.0798 5.84197C82.0798 6.13407 82.3302 6.30098 82.8309 6.30098C83.7907 6.34271 85.0008 6.55135 85.0008 7.9701C85.0008 8.76294 84.4166 9.68096 82.8309 9.68096C82.1215 9.68096 81.3287 9.51404 80.4941 8.80467L81.1201 7.76146C81.746 8.2622 82.3719 8.38739 82.9144 8.38739C83.3316 8.38739 83.6237 8.22047 83.6237 7.9701C83.6237 7.71974 83.4568 7.55282 82.7892 7.5111C81.8712 7.46937 80.7028 7.05209 80.7028 5.84197C80.7028 4.67359 81.746 4.17285 82.8309 4.17285C83.582 4.17285 84.2079 4.38149 84.7504 4.8405L84.041 5.75852C83.6237 5.54988 83.2482 5.42469 82.7892 5.42469Z" fill="#2CA9E1"/>
</svg>
