<svg width="120" height="75" viewBox="0 0 120 75" fill="none" xmlns="http://www.w3.org/2000/svg">
<path d="M63.1577 68.6821H31.5788C14.2105 68.6821 0 54.7348 0 37.1033C0 19.4717 13.9473 5.52441 31.5788 5.52441H45.7893C44.9999 6.31389 44.4735 7.10336 43.9472 8.15598C41.3157 11.8402 39.2104 15.7875 37.6315 19.9981H31.5788C22.1052 19.9981 14.4736 27.6296 14.4736 37.1033C14.4736 46.5769 22.1052 54.2085 31.5788 54.2085H49.9998C51.0525 56.0506 52.1051 57.8927 53.4209 59.4716C56.0525 63.1558 59.4735 66.3137 63.1577 68.6821Z" fill="#F1F0F0"/>
<path d="M82.8942 0C75.5258 0 68.9469 2.10526 63.1574 5.78946C59.4732 8.15787 56.0522 11.0526 53.4206 14.7368C52.1048 16.3157 51.0522 18.1578 49.9996 19.9999C48.4206 22.8947 47.368 25.7894 46.5785 29.2104C46.3154 30.7894 46.0522 32.6315 45.7891 34.4736C45.7891 35.263 45.7891 36.3157 45.7891 37.1051V37.3683C45.7891 38.4209 45.7891 39.2104 45.7891 40.263C45.7891 42.1051 46.3154 43.6841 46.5785 45.5262C47.368 48.6841 48.4206 51.8419 49.9996 54.7367C51.0522 56.5788 52.1048 58.4209 53.4206 59.9998C56.0522 63.4208 59.4732 66.5787 63.1574 68.9472C68.9469 72.6313 75.5258 74.7366 82.8942 74.7366C103.42 74.7366 119.999 58.1577 119.999 37.6315V37.3683C119.999 16.5789 103.42 0 82.8942 0ZM82.8942 59.9998C70.2627 59.9998 59.9995 49.7367 59.9995 37.1051C59.9995 24.4736 70.2627 14.2105 82.8942 14.2105C95.5257 14.2105 105.789 24.4736 105.789 37.1051C105.789 49.7367 95.5257 59.9998 82.8942 59.9998Z" fill="#F7F7F7"/>
</svg>
