<svg width="189" height="47" viewBox="0 0 189 47" fill="none" xmlns="http://www.w3.org/2000/svg">
<g style="mix-blend-mode:luminosity">
<path d="M26.8613 7.81331C24.3967 7.80439 21.9918 8.57127 19.9873 10.0053L17.1363 7.15531C17.5936 6.04857 17.6532 4.81755 17.3048 3.67185C16.9565 2.52614 16.2219 1.53658 15.2259 0.871642C14.23 0.206707 13.0345 -0.0924925 11.8427 0.0249861C10.651 0.142465 9.53688 0.669358 8.68998 1.51596C7.84308 2.36256 7.31579 3.47652 7.19789 4.66819C7.07998 5.85986 7.37876 7.05555 8.04334 8.0517C8.70792 9.04784 9.69722 9.78285 10.8428 10.1316C11.9884 10.4803 13.2194 10.4212 14.3263 9.96431L17.1783 12.8163C15.8088 14.7474 15.0472 17.0433 14.9909 19.41C14.9346 21.7767 15.5862 24.1063 16.8623 26.1003L13.3423 29.6163C11.4373 28.5772 9.2216 28.2595 7.10135 28.7214C4.9811 29.1834 3.09839 30.3941 1.79834 32.1315C0.498298 33.869 -0.131973 36.0168 0.0230696 38.1812C0.178112 40.3457 1.10808 42.3817 2.64249 43.9161C4.17691 45.4506 6.21296 46.3805 8.3774 46.5356C10.5418 46.6906 12.6897 46.0603 14.4271 44.7603C16.1646 43.4602 17.3752 41.5775 17.8372 39.4573C18.2992 37.337 17.9815 35.1213 16.9423 33.2163L20.4613 29.6973C22.0153 30.692 23.7796 31.311 25.6144 31.5053C27.4492 31.6995 29.3041 31.4637 31.0319 30.8164C32.7597 30.1692 34.3129 29.1283 35.5685 27.7764C36.8241 26.4244 37.7474 24.7985 38.2654 23.0277C38.7833 21.2568 38.8816 19.3896 38.5524 17.5742C38.2232 15.7587 37.4757 14.0449 36.3689 12.5686C35.2622 11.0923 33.8268 9.89413 32.1765 9.06907C30.5262 8.24401 28.7064 7.81474 26.8613 7.81531V7.81331Z" fill="#4285F4"/>
<path d="M61.3501 18.9113C62.1696 18.6118 62.8474 18.0164 63.2501 17.2423C63.6567 16.4453 63.8626 15.561 63.8501 14.6663C63.8848 13.9347 63.7719 13.2036 63.5184 12.5164C63.2648 11.8293 62.8757 11.2001 62.3741 10.6663C61.8413 10.1518 61.2123 9.74726 60.523 9.47598C59.8337 9.2047 59.0977 9.07195 58.3571 9.08533H51.0571V30.1523H58.9921C60.1214 30.1123 61.2182 29.7645 62.1641 29.1463C63.0453 28.6032 63.7587 27.8264 64.2251 26.9023C64.6957 25.979 64.9359 24.9556 64.9251 23.9193C64.9162 22.7942 64.5707 21.6975 63.9331 20.7703C63.6482 20.304 63.2729 19.8992 62.8294 19.58C62.3858 19.2607 61.8828 19.0334 61.3501 18.9113ZM53.9301 11.9593H58.0951C58.8966 11.916 59.6841 12.1819 60.2951 12.7023C60.5721 12.9671 60.7883 13.2889 60.9287 13.6454C61.0691 14.002 61.1303 14.3848 61.1081 14.7673C61.1334 15.5372 60.8815 16.2906 60.3981 16.8903C60.152 17.1764 59.8411 17.3995 59.4913 17.5411C59.1415 17.6827 58.7629 17.7386 58.3871 17.7043H53.9301V11.9593ZM61.2701 26.2443C60.9773 26.5773 60.6155 26.8424 60.2099 27.0213C59.8042 27.2003 59.3644 27.2886 58.9211 27.2803H53.9311V20.5803H58.8311C59.2794 20.5436 59.73 20.6125 60.1468 20.7815C60.5636 20.9505 60.935 21.2148 61.2311 21.5533C61.8288 22.2086 62.1635 23.0615 62.1711 23.9483C62.1827 24.8019 61.8588 25.626 61.2691 26.2433L61.2701 26.2443Z" fill="#0E182A"/>
<path d="M78.8265 18.0323C78.8265 17.2733 77.8645 16.6893 76.9735 16.2783C76.1007 15.8688 75.1475 15.6594 74.1835 15.6653C72.9771 15.6535 71.7879 15.9513 70.7295 16.5303C69.6652 17.1212 68.7867 17.9969 68.1925 19.0593C67.5394 20.2176 67.2089 21.5299 67.2355 22.8593C67.2009 23.8208 67.3654 24.779 67.7187 25.6738C68.072 26.5686 68.6064 27.3808 69.2885 28.0593C69.9378 28.7107 70.712 29.2243 71.5647 29.5691C72.4173 29.914 73.3309 30.0831 74.2505 30.0663C75.1896 30.0701 76.1164 29.8522 76.9555 29.4303C77.8485 29.0073 78.8265 28.4143 78.8265 27.6513V30.1513H81.6995V15.7903H78.8265V18.0323ZM77.7395 26.1923C76.8583 27.0161 75.6894 27.462 74.4835 27.4343C73.8896 27.4478 73.2992 27.3394 72.7488 27.1158C72.1984 26.8922 71.6997 26.5582 71.2835 26.1343C70.8528 25.7011 70.5153 25.1843 70.2917 24.6157C70.0681 24.0472 69.9632 23.4389 69.9835 22.8283C69.9592 22.222 70.0617 21.6172 70.2845 21.0528C70.5073 20.4883 70.8455 19.9766 71.2775 19.5503C71.7 19.138 72.2009 18.8146 72.7505 18.599C73.3001 18.3835 73.8873 18.2802 74.4775 18.2953C75.2317 18.2918 75.9764 18.4629 76.6535 18.7953C77.3565 19.1495 77.9493 19.6893 78.3675 20.3563C78.8423 21.0935 79.0861 21.9557 79.0675 22.8323C79.0974 23.4546 78.9945 24.0761 78.7655 24.6554C78.5365 25.2348 78.1867 25.7587 77.7395 26.1923Z" fill="#0E182A"/>
<path d="M91.5602 21.9433L89.5292 21.4433C89.2025 21.3872 88.8912 21.263 88.6156 21.0788C88.3399 20.8947 88.1061 20.6546 87.9292 20.3743C87.7959 20.0166 87.7875 19.6244 87.9052 19.2613C87.96 19.0687 88.0529 18.8891 88.1782 18.733C88.3036 18.5769 88.459 18.4474 88.6352 18.3523C89.062 18.1087 89.5477 17.9873 90.039 18.0016C90.5303 18.0159 91.0082 18.1653 91.4202 18.4333C91.8202 18.7023 92.0592 18.6593 92.1202 19.6173H94.6102C94.6098 18.9771 94.4371 18.3488 94.1102 17.7983C93.8544 17.3081 93.4864 16.8853 93.0362 16.5643C92.5981 16.2596 92.112 16.0304 91.5982 15.8863C91.0534 15.7376 90.4909 15.6639 89.9262 15.6673C88.7572 15.6436 87.6117 15.9979 86.6602 16.6773C86.231 16.9543 85.8691 17.3237 85.6009 17.7585C85.3327 18.1933 85.1651 18.6825 85.1102 19.1903C85.0249 19.7006 85.0494 20.2232 85.182 20.7232C85.3146 21.2233 85.5523 21.6893 85.8792 22.0903C86.6776 22.896 87.6932 23.452 88.8022 23.6903L90.6932 24.1363C91.1884 24.2317 91.6533 24.4454 92.0482 24.7593C92.2138 24.8981 92.3447 25.0738 92.4303 25.2723C92.5159 25.4708 92.5539 25.6865 92.5412 25.9023C92.5416 26.1422 92.4892 26.3793 92.3878 26.5967C92.2863 26.8141 92.1383 27.0065 91.9542 27.1603C91.5243 27.5104 90.9921 27.7108 90.4382 27.7313C89.6797 27.8057 88.9174 27.635 88.2632 27.2443C87.9538 27.0295 87.6962 26.7483 87.5092 26.4213C87.3092 26.1213 87.1872 26.3323 87.1422 25.3743H84.6602C84.6661 26.2811 84.9526 27.1638 85.4802 27.9013C85.9706 28.5925 86.6327 29.144 87.4012 29.5013C88.1623 29.8451 88.987 30.0259 89.8222 30.0323C91.1848 30.0787 92.527 29.6911 93.6552 28.9253C94.1465 28.6049 94.5486 28.1651 94.8238 27.6471C95.0991 27.1291 95.2385 26.5498 95.2292 25.9633C95.1722 23.8613 93.9542 22.5273 91.5602 21.9433Z" fill="#0E182A"/>
<path d="M104.213 15.6653C103.268 15.6341 102.327 15.7987 101.449 16.1488C100.571 16.4988 99.7743 17.0267 99.1099 17.6993C98.4455 18.372 97.9273 19.1747 97.588 20.0572C97.2487 20.9397 97.0956 21.8828 97.1383 22.8273C97.1006 23.7913 97.261 24.7528 97.6097 25.6524C97.9583 26.552 98.4878 27.3705 99.1653 28.0573C99.8251 28.7149 100.611 29.2318 101.477 29.5768C102.342 29.9218 103.268 30.0876 104.199 30.0643C105.52 30.0796 106.822 29.7519 107.977 29.1133C109.099 28.5005 110 27.5517 110.554 26.4003C110.399 26.3413 110.04 26.2083 109.488 25.9883C108.936 25.7683 108.511 25.6113 108.243 25.5073C107.867 26.1796 107.299 26.7253 106.612 27.0753C105.896 27.4506 105.097 27.6432 104.288 27.6363C103.177 27.5902 102.117 27.1524 101.297 26.4003C100.815 26.0804 100.425 25.6395 100.166 25.1217C99.9075 24.6038 99.7893 24.0271 99.8233 23.4493H111.041C111.079 23.1716 111.09 22.891 111.074 22.6113C111.117 21.6755 110.968 20.7409 110.635 19.8653C110.302 18.9898 109.792 18.1919 109.138 17.5213C108.491 16.887 107.719 16.3945 106.871 16.075C106.023 15.7554 105.118 15.6159 104.213 15.6653ZM99.8243 21.5353C99.9813 20.5301 100.494 19.6147 101.268 18.9553C102.103 18.3048 103.143 17.9755 104.199 18.0273C105.217 17.9643 106.221 18.2855 107.012 18.9273C107.751 19.619 108.236 20.5389 108.388 21.5393H99.8243V21.5353Z" fill="#0E182A"/>
<path d="M117.128 9.0863H114.255V30.1523H125.748V27.2793H117.128V9.0863Z" fill="#0E182A"/>
<path d="M130.533 15.7893H127.66V30.1523H130.533V15.7893Z" fill="#0E182A"/>
<path d="M129.053 9.12228C128.571 9.11387 128.105 9.29317 127.753 9.62228C127.581 9.78196 127.443 9.97538 127.35 10.1905C127.256 10.4055 127.208 10.6377 127.208 10.8723C127.208 11.1069 127.256 11.339 127.35 11.5541C127.443 11.7692 127.581 11.9626 127.753 12.1223C128.105 12.4503 128.571 12.6294 129.053 12.6223C129.544 12.6337 130.022 12.4545 130.385 12.1223C130.556 11.9626 130.694 11.7692 130.787 11.5541C130.881 11.339 130.93 11.1069 130.93 10.8723C130.93 10.6377 130.881 10.4055 130.787 10.1905C130.694 9.97538 130.556 9.78196 130.385 9.62228C130.022 9.28939 129.545 9.11015 129.053 9.12228Z" fill="#0E182A"/>
<path d="M141.299 15.6643C140.471 15.6721 139.656 15.8796 138.924 16.2693C138.1 16.6693 137.235 17.2603 137.235 18.0313V15.7903H134.362V30.1533H137.235V22.3213C137.182 21.6955 137.25 21.0653 137.435 20.4653C137.602 19.9807 137.888 19.5457 138.266 19.2003C138.623 18.8996 139.032 18.6679 139.473 18.5173C139.929 18.3658 140.407 18.2904 140.887 18.2943C141.31 18.2727 141.732 18.3486 142.121 18.5161C142.51 18.6836 142.855 18.9382 143.13 19.2603C143.708 20.0371 143.992 20.9939 143.93 21.9603V30.1543H146.803V21.7873C146.876 20.1511 146.352 18.5441 145.327 17.2663C144.814 16.7204 144.188 16.2939 143.492 16.0171C142.795 15.7403 142.047 15.6198 141.299 15.6643Z" fill="#0E182A"/>
<path d="M161.473 15.7893H157.806L153.514 20.7763V8.12933H150.641V30.1523H153.514V23.0283L159.334 30.1523H162.886L155.549 22.0353L161.473 15.7893Z" fill="#0E182A"/>
<path d="M169.907 15.6653C168.962 15.6347 168.02 15.7996 167.142 16.1497C166.264 16.4999 165.468 17.0278 164.803 17.7003C164.138 18.3727 163.62 19.1753 163.28 20.0576C162.94 20.9398 162.787 21.8828 162.828 22.8273C162.791 23.7915 162.952 24.7532 163.301 25.6528C163.65 26.5524 164.179 27.3708 164.857 28.0573C165.516 28.7149 166.302 29.2318 167.167 29.5768C168.031 29.9218 168.957 30.0877 169.887 30.0643C171.208 30.0797 172.51 29.752 173.665 29.1133C174.788 28.5025 175.69 27.5532 176.242 26.4003C176.087 26.3413 175.732 26.2083 175.176 25.9883C174.62 25.7683 174.2 25.6113 173.931 25.5073C173.556 26.1805 172.988 26.7264 172.3 27.0753C171.583 27.4517 170.784 27.6444 169.974 27.6363C168.864 27.5901 167.805 27.1523 166.986 26.4003C166.503 26.0812 166.113 25.6404 165.855 25.1223C165.596 24.6042 165.479 24.0272 165.514 23.4493H176.733C176.768 23.1714 176.778 22.891 176.763 22.6113C176.807 21.6758 176.658 20.7413 176.325 19.8657C175.993 18.9902 175.484 18.1922 174.83 17.5213C174.183 16.8875 173.411 16.3952 172.564 16.0757C171.716 15.7562 170.811 15.6165 169.907 15.6653ZM165.519 21.5353C165.676 20.5304 166.187 19.6149 166.961 18.9553C167.796 18.3047 168.836 17.9753 169.892 18.0273C170.909 17.9646 171.912 18.2857 172.703 18.9273C173.444 19.6181 173.93 20.5383 174.082 21.5393H165.519V21.5353Z" fill="#0E182A"/>
<path d="M187.516 15.8293C187.054 15.7186 186.58 15.6629 186.104 15.6633C184.204 15.6633 183.198 16.7993 182.24 19.0703V15.7893H179.367V30.1523H182.24V24.7523C182.23 23.631 182.367 22.5132 182.646 21.4273C182.856 20.5602 183.289 19.7633 183.903 19.1163C184.183 18.8282 184.519 18.6013 184.89 18.4498C185.262 18.2983 185.661 18.2256 186.062 18.2363C186.77 18.235 187.469 18.398 188.103 18.7123L188.52 16.1983C188.206 16.0244 187.868 15.9 187.516 15.8293Z" fill="#0E182A"/>
</g>
</svg>
