<svg width="120" height="21" viewBox="0 0 120 21" fill="none" xmlns="http://www.w3.org/2000/svg">
<path d="M106.184 19.9407C106.469 17.3769 107.181 14.8843 108.249 12.6766C108.32 12.4629 108.463 12.3205 108.534 12.1068C108.677 12.1068 108.748 12.1068 108.89 12.1068C108.961 12.1068 109.033 12.1068 109.104 12.1068C112.309 12.1068 114.872 9.54303 114.872 6.33828C114.872 5.83976 114.801 5.34125 114.659 4.84273V4.77152C114.588 4.48665 114.516 4.20178 114.374 3.98813V3.91691C114.089 3.8457 113.733 3.77448 113.377 3.77448C113.306 3.77448 113.163 3.77448 113.092 3.77448C109.887 3.77448 107.323 6.26706 107.323 9.54303C107.323 10.0415 107.395 10.5401 107.537 11.0386C107.608 11.2522 107.68 11.4659 107.751 11.6795C107.751 11.7507 107.68 11.822 107.68 11.8932C106.683 13.8872 105.899 16.095 105.543 18.4451L100.629 7.40653H99.7745L105.329 19.9407H93.365C94.6469 19.2285 95.7151 18.1602 96.2849 16.8071L95.5015 16.451C94.6469 18.3027 92.9377 19.6558 90.8012 19.9407C90.5163 20.0119 90.2315 20.0119 89.9466 20.0119C89.6617 20.0119 89.3769 20.0119 89.092 19.9407C86.1009 19.5134 83.9644 17.0208 83.9644 13.8872H96.9258C96.9258 9.97033 93.8635 6.97923 90.0178 6.97923C86.1721 6.97923 83.1098 9.97033 83.1098 13.8872C83.1098 16.5223 84.5341 18.8012 86.6706 19.9407H74.9199C76.2018 19.2285 77.27 18.1602 77.8398 16.8071L77.0564 16.451C76.2018 18.3027 74.4926 19.6558 72.3561 19.9407C72.0712 20.0119 71.7863 20.0119 71.5015 20.0119C71.2166 20.0119 70.9318 20.0119 70.6469 19.9407C67.6558 19.5134 65.5193 17.0208 65.5193 13.8872H78.4807C78.4807 9.97033 75.4184 6.97923 71.5727 6.97923C67.727 6.97923 64.6647 9.97033 64.6647 13.8872C64.6647 16.5223 66.089 18.8012 68.1543 19.9407H58.184V0H57.3294V19.8694H47.2166C49.3531 18.73 50.7775 16.451 50.7775 13.816C50.7775 9.89911 47.7151 6.90801 43.8694 6.90801C40.0237 6.90801 36.9614 9.89911 36.9614 13.816C36.9614 16.451 38.3858 18.73 40.5223 19.8694H30.4807V7.40653H29.5549V19.9407H19.5133C21.6498 18.8012 23.0742 16.5223 23.0742 13.8872C23.0742 9.97033 20.0119 6.97923 16.1662 6.97923C13.5312 6.97923 11.3234 8.33235 10.1128 10.4688V0H9.25816V19.8694H0V20.724H120V19.8694H106.184V19.9407ZM113.163 4.62908C113.306 4.62908 113.448 4.62908 113.591 4.62908C113.662 4.62908 113.733 4.62908 113.804 4.62908C113.875 4.84273 113.947 5.05638 114.018 5.34125C114.089 5.69733 114.089 5.9822 114.089 6.33828C114.089 9.11573 111.881 11.3234 109.104 11.3234C109.033 11.3234 109.033 11.3234 108.961 11.3234C108.961 11.3234 108.961 11.2522 109.033 11.181C109.318 10.6825 110.243 8.97329 112.38 6.33828C111.098 7.05045 109.958 8.40356 109.246 9.4006C109.104 9.61425 108.961 9.82789 108.819 10.0415C108.677 10.2552 108.605 10.3976 108.534 10.5401C108.392 10.7537 108.32 10.8249 108.32 10.8249C108.249 10.4688 108.178 10.0415 108.178 9.68546C108.249 6.76558 110.457 4.62908 113.163 4.62908ZM90.0178 7.76261C93.1513 7.76261 95.6439 9.97033 96 13.0326H84.0356C84.3917 9.97033 86.8131 7.76261 90.0178 7.76261ZM71.5015 7.76261C74.635 7.76261 77.1276 9.97033 77.4837 13.0326H65.5193C65.9466 9.97033 68.3679 7.76261 71.5015 7.76261ZM10.1128 19.9407V17.3056C10.7537 18.4451 11.6795 19.2997 12.7478 19.9407H10.1128ZM16.095 19.9407C15.8101 19.9407 15.5252 19.9407 15.2404 19.8694C12.2493 19.4421 10.1128 16.9496 10.1128 13.816C10.1128 10.3976 12.6766 7.6914 16.1662 7.6914C19.5846 7.6914 22.2196 10.3976 22.2196 13.816C22.2196 16.9496 20.0119 19.5134 17.0208 19.8694C16.6647 19.9407 16.3798 19.9407 16.095 19.9407ZM43.7982 19.9407C43.5134 19.9407 43.2285 19.9407 42.9436 19.8694C39.9525 19.4421 37.816 16.9496 37.816 13.816C37.816 10.3976 40.3798 7.6914 43.8694 7.6914C47.2878 7.6914 49.9229 10.3976 49.9229 13.816C49.9229 16.9496 47.7151 19.5134 44.6528 19.8694C44.368 19.9407 44.0831 19.9407 43.7982 19.9407Z" fill="#F7F7F7"/>
<path d="M29.9815 3.20515C30.4928 3.20515 30.9073 2.79065 30.9073 2.27933C30.9073 1.76802 30.4928 1.35352 29.9815 1.35352C29.4702 1.35352 29.0557 1.76802 29.0557 2.27933C29.0557 2.79065 29.4702 3.20515 29.9815 3.20515Z" fill="#F7F7F7"/>
</svg>
