<svg width="68" height="18" viewBox="0 0 68 18" fill="none" xmlns="http://www.w3.org/2000/svg">
<path d="M59.3037 11.1369C59.4628 9.70497 59.8606 8.31287 60.4572 7.07986C60.497 6.96053 60.5765 6.88098 60.6163 6.76166C60.6959 6.76166 60.7356 6.76166 60.8152 6.76166C60.8549 6.76166 60.8947 6.76166 60.9345 6.76166C62.7244 6.76166 64.1562 5.32978 64.1562 3.53993C64.1562 3.26151 64.1165 2.98309 64.0369 2.70467V2.66489C63.9971 2.50579 63.9574 2.34669 63.8778 2.22737V2.1876C63.7187 2.14782 63.5198 2.10805 63.321 2.10805C63.2812 2.10805 63.2016 2.10805 63.1619 2.10805C61.372 2.10805 59.9401 3.50015 59.9401 5.32978C59.9401 5.6082 59.9799 5.88662 60.0595 6.16504C60.0992 6.28437 60.139 6.40369 60.1788 6.52301C60.1788 6.56279 60.139 6.60257 60.139 6.64234C59.5822 7.75602 59.1447 8.98903 58.9458 10.3016L56.2013 4.13655H55.724L58.8264 11.1369H52.1443C52.8603 10.7391 53.4569 10.1425 53.7751 9.38678L53.3376 9.1879C52.8603 10.222 51.9057 10.9778 50.7125 11.1369C50.5534 11.1766 50.3943 11.1766 50.2352 11.1766C50.0761 11.1766 49.917 11.1766 49.7579 11.1369C48.0873 10.8982 46.8941 9.5061 46.8941 7.75602H54.1331C54.1331 5.56843 52.4228 3.8979 50.2749 3.8979C48.1271 3.8979 46.4168 5.56843 46.4168 7.75602C46.4168 9.22768 47.2123 10.5005 48.4055 11.1369H41.8427C42.5587 10.7391 43.1553 10.1425 43.4735 9.38678L43.036 9.1879C42.5587 10.222 41.6041 10.9778 40.4109 11.1369C40.2518 11.1766 40.0927 11.1766 39.9336 11.1766C39.7745 11.1766 39.6154 11.1766 39.4563 11.1369C37.7858 10.8982 36.5925 9.5061 36.5925 7.75602H43.8315C43.8315 5.56843 42.1212 3.8979 39.9733 3.8979C37.8255 3.8979 36.1152 5.56843 36.1152 7.75602C36.1152 9.22768 36.9107 10.5005 38.0642 11.1369H32.4957V0H32.0185V11.0971H26.3705C27.5637 10.4607 28.3592 9.1879 28.3592 7.71625C28.3592 5.52865 26.6489 3.85813 24.5011 3.85813C22.3533 3.85813 20.643 5.52865 20.643 7.71625C20.643 9.1879 21.4384 10.4607 22.6317 11.0971H17.0235V4.13655H16.5064V11.1369H10.8982C12.0914 10.5005 12.8869 9.22768 12.8869 7.75602C12.8869 5.56843 11.1766 3.8979 9.02881 3.8979C7.55715 3.8979 6.32414 4.65362 5.64797 5.84685V0H5.17068V11.0971H0V11.5744H67.02V11.0971H59.3037V11.1369ZM63.2016 2.58534C63.2812 2.58534 63.3607 2.58534 63.4403 2.58534C63.4801 2.58534 63.5198 2.58534 63.5596 2.58534C63.5994 2.70466 63.6392 2.82399 63.6789 2.98309C63.7187 3.18196 63.7187 3.34106 63.7187 3.53993C63.7187 5.09113 62.4857 6.32414 60.9345 6.32414C60.8947 6.32414 60.8947 6.32414 60.855 6.32414C60.855 6.32414 60.855 6.28437 60.8947 6.24459C61.0538 5.96617 61.5709 5.01158 62.7641 3.53993C62.0482 3.93767 61.4118 4.69339 61.014 5.25023C60.9345 5.36956 60.8549 5.48888 60.7754 5.6082C60.6958 5.72752 60.6561 5.80707 60.6163 5.88662C60.5368 6.00595 60.497 6.04572 60.497 6.04572C60.4572 5.84685 60.4174 5.6082 60.4174 5.40933C60.4572 3.77857 61.6902 2.58534 63.2016 2.58534ZM50.2749 4.33542C52.025 4.33542 53.4171 5.56843 53.616 7.27873H46.9339C47.1328 5.56843 48.4851 4.33542 50.2749 4.33542ZM39.9336 4.33542C41.6837 4.33542 43.0758 5.56843 43.2746 7.27873H36.5925C36.8312 5.56843 38.1835 4.33542 39.9336 4.33542ZM5.64797 11.1369V9.6652C6.00594 10.3016 6.52301 10.7789 7.11963 11.1369H5.64797ZM8.98903 11.1369C8.82994 11.1369 8.67083 11.1369 8.51174 11.0971C6.84121 10.8584 5.64797 9.46633 5.64797 7.71625C5.64797 5.80707 7.07986 4.29564 9.02881 4.29564C10.938 4.29564 12.4096 5.80707 12.4096 7.71625C12.4096 9.46633 11.1766 10.8982 9.5061 11.0971C9.30723 11.1369 9.14813 11.1369 8.98903 11.1369ZM24.4613 11.1369C24.3022 11.1369 24.1431 11.1369 23.984 11.0971C22.3135 10.8584 21.1202 9.46633 21.1202 7.71625C21.1202 5.80707 22.5521 4.29564 24.5011 4.29564C26.4103 4.29564 27.8819 5.80707 27.8819 7.71625C27.8819 9.46633 26.6489 10.8982 24.9386 11.0971C24.7795 11.1369 24.6204 11.1369 24.4613 11.1369Z" fill="black"/>
<path d="M16.7446 1.79C17.0302 1.79 17.2617 1.5585 17.2617 1.27293C17.2617 0.98736 17.0302 0.755859 16.7446 0.755859C16.459 0.755859 16.2275 0.98736 16.2275 1.27293C16.2275 1.5585 16.459 1.79 16.7446 1.79Z" fill="black"/>
<path d="M5.52866 15.3135V17.1829H6.68213V17.4215H5.25024V15.3135H5.52866V15.3135Z" fill="black"/>
<path d="M9.18787 15.3135V17.4215H8.94922V15.3135H9.18787V15.3135Z" fill="black"/>
<path d="M12.3299 17.4215L11.4548 15.3135H11.7333L12.4492 17.1431L13.1651 15.3135H13.4436L12.5685 17.4215H12.3299V17.4215Z" fill="black"/>
<path d="M17.1426 15.3135V15.5521H15.9891V16.2283H17.063V16.4669H15.9891V17.1829H17.1823V17.4215H15.7107V15.3135H17.1426V15.3135Z" fill="black"/>
<path d="M24.8193 15.3135L24.1431 17.4215H23.8647L23.3476 15.751L22.8306 17.4215H22.5521L21.876 15.3135H22.1544L22.6715 17.1033L23.2283 15.3135H23.467L24.0238 17.1033L24.5409 15.3135H24.8193V15.3135Z" fill="black"/>
<path d="M27.3256 15.3135V17.4215H27.0869V15.3135H27.3256V15.3135Z" fill="black"/>
<path d="M31.3021 15.3135V15.5521H30.5464V17.4215H30.3077V15.5521H29.552V15.3135H31.3021V15.3135Z" fill="black"/>
<path d="M35.3197 15.3135V17.4215H35.081V16.4669H33.848V17.4215H33.6094V15.3135H33.848V16.2283H35.081V15.3135H35.3197V15.3135Z" fill="black"/>
<path d="M40.4902 17.4217V15.3137H40.7289L42.0017 16.9842C42.0017 16.9047 42.0017 16.8649 42.0017 16.7854V15.2739H42.2403V17.382H42.0017L40.7289 15.7114C40.7289 15.791 40.7289 15.8308 40.7289 15.9103V17.4217H40.4902Z" fill="black"/>
<path d="M44.5078 17.4215L45.4226 15.3135H45.701L46.6159 17.4215H46.3374L46.1386 16.9045H44.9851L44.7862 17.4215H44.5078ZM45.1044 16.6658H46.059L45.6215 15.6317C45.6215 15.5919 45.5817 15.5919 45.5817 15.5521C45.5817 15.5919 45.542 15.5919 45.542 15.6317L45.1044 16.6658Z" fill="black"/>
<path d="M50.116 15.3135V15.5521H49.3603V17.4215H49.1217V15.5521H48.366V15.3135H50.116V15.3135Z" fill="black"/>
<path d="M54.0933 15.3135V16.6658C54.0933 17.2624 53.6956 17.4613 53.2183 17.4613C52.741 17.4613 52.3433 17.2624 52.3433 16.6658V15.3135H52.5819V16.626C52.5819 17.0636 52.8603 17.2226 53.2183 17.2226C53.5763 17.2226 53.8547 17.0636 53.8547 16.626V15.3135H54.0933V15.3135Z" fill="black"/>
<path d="M56.5989 17.4215V15.3135H57.4341C57.8319 15.3135 58.2296 15.4726 58.2296 15.9499C58.2296 16.3476 57.9512 16.5067 57.6728 16.5863L58.3887 17.4215H58.0705L57.3944 16.5863H56.8773V17.4215H56.5989ZM56.8375 16.3476H57.4341C57.6728 16.3476 57.9512 16.2681 57.9512 15.9499C57.9512 15.6317 57.6728 15.5521 57.4341 15.5521H56.8375V16.3476Z" fill="black"/>
<path d="M62.0479 15.3135V15.5521H60.8944V16.2283H61.9683V16.4669H60.8944V17.1829H62.0876V17.4215H60.6558V15.3135H62.0479V15.3135Z" fill="black"/>
</svg>
