<svg width="112" height="47" viewBox="0 0 112 47" fill="none" xmlns="http://www.w3.org/2000/svg">
<g style="mix-blend-mode:luminosity">
<path fill-rule="evenodd" clip-rule="evenodd" d="M72.836 37.5209C70.5319 38.0889 68.165 38.3628 65.792 38.3359C59.802 38.3359 55.873 35.2209 55.873 29.5189C55.873 24.1039 59.563 20.6059 64.929 20.6059C66.0396 20.5575 67.1484 20.7369 68.187 21.1329V13.2739H72.835L72.836 37.5209ZM68.188 25.1579C67.2775 24.7819 66.2978 24.6023 65.313 24.6309C64.6791 24.58 64.0417 24.6682 63.4454 24.8893C62.8491 25.1103 62.3082 25.4589 61.8606 25.9107C61.413 26.3625 61.0695 26.9066 60.854 27.5049C60.6385 28.1033 60.5563 28.7415 60.613 29.3749C60.613 32.5849 62.626 34.4059 65.932 34.4059C66.6876 34.4296 67.4434 34.3652 68.184 34.2139L68.188 25.1579ZM111.027 37.5209C108.707 38.0917 106.324 38.3656 103.935 38.3359C97.993 38.3359 94.016 35.2209 94.016 29.5189C94.016 24.1039 97.706 20.6059 103.073 20.6059C104.184 20.5532 105.293 20.7327 106.331 21.1329V13.2739H111.031L111.027 37.5209ZM106.327 25.1579C105.433 24.7816 104.469 24.6019 103.5 24.6309C102.863 24.5755 102.222 24.6602 101.621 24.8791C101.02 25.0979 100.475 25.4456 100.023 25.8976C99.5707 26.3497 99.223 26.8952 99.0042 27.496C98.7854 28.0967 98.7007 28.738 98.7561 29.3749C98.7561 32.5859 100.817 34.4059 104.123 34.4059C104.861 34.4291 105.6 34.3646 106.323 34.2139L106.327 25.1579ZM80.163 25.1579C81.054 24.8408 81.9969 24.6946 82.942 24.7269C85.817 24.7269 87.782 26.3559 87.782 29.2789C87.782 32.7289 85.582 34.3099 82.655 34.3579V38.3349H82.895C88.933 38.3349 92.527 35.0289 92.527 29.1349C92.527 23.7679 88.694 20.6059 83.039 20.6059C80.4485 20.6156 77.882 21.1027 75.468 22.0429V44.8039H80.168L80.163 25.1579Z" fill="#3F3F42"/>
<path fill-rule="evenodd" clip-rule="evenodd" d="M38.7158 9.53693L39.4828 10.3999L39.9138 10.1599L38.7158 9.53693Z" fill="#DC0032"/>
<path fill-rule="evenodd" clip-rule="evenodd" d="M37.5688 8.91391L39.0538 10.6389L39.5808 10.3509L39.0058 9.67691L37.5688 8.90991V8.91391Z" fill="#DC0032"/>
<path fill-rule="evenodd" clip-rule="evenodd" d="M36.3701 8.29095L38.6221 10.879L39.1491 10.591L37.8561 9.05795L36.3711 8.29095H36.3701Z" fill="#DC0032"/>
<path fill-rule="evenodd" clip-rule="evenodd" d="M35.2202 7.6679L38.1912 11.1179L38.7182 10.8299L36.6572 8.4299L35.2192 7.6629L35.2202 7.6679ZM40.9202 13.7539L40.5852 13.9459L40.9202 14.3289V13.7539Z" fill="#DC0032"/>
<path fill-rule="evenodd" clip-rule="evenodd" d="M34.0698 7.04492L37.7598 11.3579L38.2868 11.0699L35.5078 7.81192L34.0698 7.04492ZM40.7308 13.8449L40.2038 14.1799L40.9228 15.0429V14.1339L40.7308 13.8459V13.8449Z" fill="#DC0032"/>
<path fill-rule="evenodd" clip-rule="evenodd" d="M32.8721 6.42194L37.3281 11.5969L37.9031 11.3089L34.3581 7.18594L32.8721 6.42194ZM40.3001 14.0859L39.7731 14.4209L40.9231 15.7629V14.8529L40.3001 14.0859Z" fill="#DC0032"/>
<path fill-rule="evenodd" clip-rule="evenodd" d="M31.7222 5.79895L36.9452 11.838L37.4722 11.55L33.1602 6.56595L31.7222 5.79895ZM39.8682 14.3759L39.3412 14.6639L40.9222 16.533V15.623L39.8682 14.377V14.3759Z" fill="#DC0032"/>
<path fill-rule="evenodd" clip-rule="evenodd" d="M30.5679 5.1759L36.5099 12.0759L37.0369 11.7879L32.0099 5.9429L30.5679 5.1759ZM39.4329 14.6159L38.9059 14.9039L40.9189 17.2519V16.3419L39.4339 14.6169L39.4329 14.6159Z" fill="#DC0032"/>
<path fill-rule="evenodd" clip-rule="evenodd" d="M29.374 4.55294L36.083 12.3159L36.61 12.0279L30.86 5.31894L29.375 4.55194L29.374 4.55294ZM39.006 14.8529L38.479 15.1409L40.923 17.9679V17.0579L39.006 14.8579V14.8529Z" fill="#DC0032"/>
<path fill-rule="evenodd" clip-rule="evenodd" d="M28.2242 3.93092L35.6512 12.6039L36.1782 12.2689L29.6572 4.69492L28.2192 3.92792L28.2242 3.93092ZM38.5742 15.0949L38.0472 15.3829L40.9222 18.7369V17.8269L38.5742 15.0949Z" fill="#DC0032"/>
<path fill-rule="evenodd" clip-rule="evenodd" d="M27.0259 3.30695L35.2199 12.8469L35.7469 12.5119L28.5109 4.07395L27.0259 3.30695ZM38.1879 15.3349L37.6129 15.6229L40.9189 19.4559V18.5469L38.1879 15.3349Z" fill="#DC0032"/>
<path fill-rule="evenodd" clip-rule="evenodd" d="M25.876 2.68396L34.789 13.084L35.364 12.749L27.364 3.44896L25.876 2.68396ZM37.76 15.574L37.233 15.862L40.923 20.223V19.265L37.76 15.575V15.574Z" fill="#DC0032"/>
<path fill-rule="evenodd" clip-rule="evenodd" d="M24.7261 2.06091L34.4041 13.3219L34.9311 12.9869L26.1631 2.82791L24.7261 2.06091ZM37.3261 15.8139L36.8041 16.1009L40.9251 20.9409V20.0309L37.3311 15.8139H37.3261Z" fill="#DC0032"/>
<path fill-rule="evenodd" clip-rule="evenodd" d="M23.5278 1.39093L33.9738 13.5619L34.5008 13.2269L25.0128 2.20493L23.5278 1.39093ZM36.8968 16.0539L36.3698 16.3419L40.9218 21.6609V20.7509L36.8968 16.0509V16.0539Z" fill="#DC0032"/>
<path fill-rule="evenodd" clip-rule="evenodd" d="M22.3779 0.767944L33.5429 13.8009L34.0699 13.5129L23.8629 1.58194L22.3779 0.767944ZM36.4659 16.2929L35.9389 16.5809L40.9219 22.4289V21.4709L36.4659 16.2959V16.2929Z" fill="#DC0032"/>
<path fill-rule="evenodd" clip-rule="evenodd" d="M21.228 0.192932L33.112 14.0409L33.639 13.7529L22.665 0.958932L21.228 0.192932ZM36.035 16.5329L35.508 16.8209L40.923 23.1459V22.2359L36.035 16.5359V16.5329Z" fill="#DC0032"/>
<path fill-rule="evenodd" clip-rule="evenodd" d="M20.4609 0.00093118L32.6799 14.2809L33.2069 13.9929L21.5149 0.335931L21.2229 0.192931C20.9923 0.0578087 20.728 -0.00879289 20.4609 0.00093118ZM35.6029 16.7719L35.0759 17.0599L40.9219 23.8599V22.9499L35.6029 16.7719Z" fill="#DC0032"/>
<path fill-rule="evenodd" clip-rule="evenodd" d="M20.4612 0.000915527C20.2662 0.0107333 20.0731 0.0443148 19.8862 0.100916L32.2492 14.5199L32.8242 14.2319L20.6022 0.000915527H20.4612ZM35.2202 17.0119L34.6932 17.2999L40.9222 24.6309V23.6729L35.2222 17.0119H35.2202Z" fill="#DC0032"/>
<path fill-rule="evenodd" clip-rule="evenodd" d="M20.0301 0.0489502C19.9295 0.0871437 19.833 0.135388 19.7421 0.19295L19.4551 0.33695L31.8611 14.76L32.3881 14.472L20.0301 0.0489502ZM34.7891 17.249L34.2621 17.584L40.9231 25.347V24.437L34.7891 17.249Z" fill="#DC0032"/>
<path fill-rule="evenodd" clip-rule="evenodd" d="M19.551 0.240906L19.021 0.527906L31.435 14.9999L31.962 14.7119L19.551 0.240906ZM34.358 17.4909L33.831 17.8259L40.921 26.0689V25.1589L34.356 17.4919L34.358 17.4909Z" fill="#DC0032"/>
<path fill-rule="evenodd" clip-rule="evenodd" d="M19.1198 0.480957L18.5928 0.768957L31.0028 15.24L31.5298 14.952L19.1198 0.480957ZM33.9258 17.731L33.3988 18.066L40.9218 26.835V25.925L33.9218 17.731H33.9258Z" fill="#DC0032"/>
<path fill-rule="evenodd" clip-rule="evenodd" d="M18.6881 0.718933L18.1611 1.00693L30.5721 15.4779L31.0991 15.1899L18.6881 0.718933ZM33.4951 17.9699L32.9681 18.3049L40.9221 27.5529V26.6429L33.4951 17.9699Z" fill="#DC0032"/>
<path fill-rule="evenodd" clip-rule="evenodd" d="M18.257 0.958923L17.73 1.24692L30.141 15.7179L30.668 15.4299L18.257 0.958923ZM33.063 18.2099L32.536 18.5449L40.922 28.2719V27.3619L33.063 18.2099Z" fill="#DC0032"/>
<path fill-rule="evenodd" clip-rule="evenodd" d="M17.8249 1.19891L17.2979 1.48691L29.7089 15.9579L30.2359 15.6699L17.8249 1.19891ZM32.6799 18.4499L32.1529 18.7849L40.9219 29.0399V28.1299L32.6799 18.4499Z" fill="#DC0032"/>
<path fill-rule="evenodd" clip-rule="evenodd" d="M17.3952 1.39093L16.8682 1.72593L29.3262 16.1979L29.8532 15.9099L17.3952 1.39093ZM32.2492 18.7369L31.7222 19.0249L40.9222 29.7589V28.8489L32.2492 18.7369Z" fill="#DC0032"/>
<path fill-rule="evenodd" clip-rule="evenodd" d="M16.963 1.63092L16.436 1.91892L28.895 16.4369L29.422 16.1489L16.963 1.63092ZM31.818 18.9769L31.291 19.2649L40.923 30.5259V29.5679L31.823 18.9779L31.818 18.9769Z" fill="#DC0032"/>
<path fill-rule="evenodd" clip-rule="evenodd" d="M16.5348 1.86896L16.0078 2.15696L28.4628 16.724L28.9898 16.389L16.5348 1.86896ZM31.3858 19.216L30.8588 19.504L40.9218 31.244V30.334L31.3858 19.216Z" fill="#DC0032"/>
<path fill-rule="evenodd" clip-rule="evenodd" d="M16.1002 2.10895L15.5732 2.39595L28.0322 16.9639L28.5592 16.6289L16.1002 2.10895ZM30.9552 19.4559L30.4282 19.7439L40.9222 31.9619V31.0519L30.9552 19.4519V19.4559Z" fill="#DC0032"/>
<path fill-rule="evenodd" clip-rule="evenodd" d="M15.6701 2.34894L15.1431 2.63694L27.6011 17.2039L28.1281 16.8689L15.6701 2.34894ZM30.5241 19.6959L29.9971 19.9839L40.9231 32.7289V31.7709L30.5241 19.6959Z" fill="#DC0032"/>
<path fill-rule="evenodd" clip-rule="evenodd" d="M15.2379 2.58893L14.7129 2.87693L27.1699 17.4459L27.6969 17.1109L15.2379 2.58893ZM30.1379 19.9359L29.6109 20.2239L40.9219 33.4459V32.5359L30.1399 19.9359H30.1379Z" fill="#DC0032"/>
<path fill-rule="evenodd" clip-rule="evenodd" d="M14.806 2.78094L14.231 3.06894L26.786 17.6829L27.313 17.3479L14.806 2.78094ZM29.706 20.1749L29.179 20.4629L40.919 34.1629V33.2529L29.709 20.1749H29.706Z" fill="#DC0032"/>
<path fill-rule="evenodd" clip-rule="evenodd" d="M14.3762 3.01892L13.8052 3.30692L26.4052 17.9699C26.4429 17.8841 26.5114 17.8156 26.5972 17.7779L26.8852 17.5859L14.3762 3.01892ZM29.2762 20.4129L28.7492 20.7009L40.8272 34.7859C40.8831 34.6485 40.9169 34.503 40.9272 34.3549V33.9719L29.2792 20.4139L29.2762 20.4129Z" fill="#DC0032"/>
<path fill-rule="evenodd" clip-rule="evenodd" d="M13.9441 3.25891L13.3691 3.54691L26.2591 18.5469V18.3549C26.2807 18.1813 26.3468 18.0163 26.4511 17.8759L13.9441 3.25891ZM28.8441 20.6529L28.4611 20.8929C28.4131 20.8929 28.3611 20.9409 28.3171 20.9409L40.5871 35.2689C40.7206 35.0984 40.8185 34.9029 40.8751 34.6939L28.8471 20.6539L28.8441 20.6529Z" fill="#DC0032"/>
<path fill-rule="evenodd" clip-rule="evenodd" d="M13.513 3.4989L12.938 3.7869L26.259 19.3119V18.3539L13.513 3.4989ZM27.505 20.6989L40.251 35.5989C40.4064 35.4675 40.5506 35.3233 40.682 35.1679L28.416 20.8939C28.3105 20.9413 28.1961 20.9658 28.0805 20.9658C27.9648 20.9658 27.8505 20.9413 27.745 20.8939L27.505 20.7019V20.6989Z" fill="#DC0032"/>
<path fill-rule="evenodd" clip-rule="evenodd" d="M13.0818 3.73895L12.5068 4.02695L39.8198 35.844L40.2028 35.652L40.3468 35.5079L27.7918 20.894H27.7438L26.6438 20.223C26.5438 20.175 26.4998 20.079 26.4038 19.983C26.3442 19.8766 26.296 19.7644 26.2598 19.648V19.121L13.0818 3.73895Z" fill="#DC0032"/>
<path fill-rule="evenodd" clip-rule="evenodd" d="M12.6512 3.97791L12.0762 4.26591L39.3892 36.0829L39.9162 35.7949L12.6512 3.97791Z" fill="#DC0032"/>
<path fill-rule="evenodd" clip-rule="evenodd" d="M12.219 4.16895L11.644 4.45695L39.001 36.3229L39.528 36.0349L12.219 4.16895Z" fill="#DC0032"/>
<path fill-rule="evenodd" clip-rule="evenodd" d="M11.7879 4.40894L11.2129 4.69694L38.5739 36.5619L39.1009 36.2739L11.7879 4.40894Z" fill="#DC0032"/>
<path fill-rule="evenodd" clip-rule="evenodd" d="M11.3558 4.64893L10.7808 4.93693L38.1428 36.8019L38.6698 36.5139L11.3558 4.64893Z" fill="#DC0032"/>
<path fill-rule="evenodd" clip-rule="evenodd" d="M10.8781 4.88892L10.3511 5.17692L37.7121 37.0899L38.2391 36.7539L10.8781 4.88892Z" fill="#DC0032"/>
<path fill-rule="evenodd" clip-rule="evenodd" d="M10.4469 5.12793L9.91992 5.41593L37.2809 37.3289L37.8079 36.9939L10.4469 5.12793Z" fill="#DC0032"/>
<path fill-rule="evenodd" clip-rule="evenodd" d="M10.0148 5.36792L9.48779 5.65592L36.8968 37.5689L37.4238 37.2329L10.0148 5.36792Z" fill="#DC0032"/>
<path fill-rule="evenodd" clip-rule="evenodd" d="M9.58415 5.55896L9.05615 5.84696L36.4662 37.804L36.9932 37.468L9.58415 5.55896Z" fill="#DC0032"/>
<path fill-rule="evenodd" clip-rule="evenodd" d="M9.152 5.79895L8.625 6.08695L36.034 38.048L36.561 37.7599L9.152 5.79895Z" fill="#DC0032"/>
<path fill-rule="evenodd" clip-rule="evenodd" d="M8.72182 6.03894L8.19482 6.32694L21.5158 21.8519L21.9468 22.1399C22.0543 22.1952 22.146 22.2771 22.213 22.3777C22.28 22.4783 22.3202 22.5944 22.3298 22.7149V22.7629L35.6038 38.2879L36.1308 37.9999L8.72182 6.03894Z" fill="#DC0032"/>
<path fill-rule="evenodd" clip-rule="evenodd" d="M8.29018 6.27795L7.76318 6.56595L20.2702 21.18L21.8512 22.042L8.29018 6.27795ZM22.2822 22.57C22.2822 22.618 22.3302 22.67 22.3302 22.714V23.529L35.1722 38.529L35.6992 38.241L22.2822 22.57Z" fill="#DC0032"/>
<path fill-rule="evenodd" clip-rule="evenodd" d="M7.85903 6.51794L7.33203 6.80594L19.024 20.4619L20.605 21.3249L7.85903 6.51794ZM22.33 23.3389V24.2489L34.793 38.7669L35.32 38.4789L22.33 23.3389Z" fill="#DC0032"/>
<path fill-rule="evenodd" clip-rule="evenodd" d="M7.4269 6.75696L6.8999 7.04496L17.8249 19.745L19.3579 20.608L7.4269 6.75696ZM22.3269 24.057V25.015L34.3569 39.007L34.8839 38.72L22.3299 24.056L22.3269 24.057Z" fill="#DC0032"/>
<path fill-rule="evenodd" clip-rule="evenodd" d="M6.99721 6.94891L6.47021 7.23691L16.5802 19.0249L18.1132 19.9349L6.99721 6.94891ZM22.3302 24.8229V25.7329L33.9302 39.2459L34.4572 38.9579L22.3302 24.8229Z" fill="#DC0032"/>
<path fill-rule="evenodd" clip-rule="evenodd" d="M6.56509 7.1889L6.03809 7.4769L15.3381 18.3069L16.8711 19.2169L6.56509 7.1889ZM22.3301 25.5419V26.4519L33.4951 39.4859L34.0221 39.1979L22.3301 25.5419Z" fill="#DC0032"/>
<path fill-rule="evenodd" clip-rule="evenodd" d="M6.13003 7.42896L5.60303 7.71696L14.085 17.636L15.618 18.499L6.13003 7.42896ZM22.33 26.261V27.219L33.064 39.774L33.591 39.439L22.33 26.261Z" fill="#DC0032"/>
<path fill-rule="evenodd" clip-rule="evenodd" d="M5.7018 7.66791L5.1748 7.95591L12.8418 16.9169L14.3748 17.7799L5.7018 7.66791ZM22.3298 27.0269V27.9369L32.6798 40.0119L33.2068 39.6769L22.3298 27.0269Z" fill="#DC0032"/>
<path fill-rule="evenodd" clip-rule="evenodd" d="M5.27105 7.90692L4.74805 8.19492L11.6 16.1949L13.181 17.0579L5.27105 7.90692ZM22.33 27.7459V28.6559L32.249 40.2559L32.776 39.9209L22.33 27.7459Z" fill="#DC0032"/>
<path fill-rule="evenodd" clip-rule="evenodd" d="M4.84011 8.14893L4.30811 8.43493L10.3511 15.4789L11.9321 16.3889L4.84011 8.14893ZM17.3951 23.6729L18.6411 25.1109V24.5839C18.6331 24.5245 18.6117 24.4676 18.5784 24.4177C18.5452 24.3678 18.5009 24.3261 18.4491 24.2959L17.3951 23.6729ZM22.3311 28.4649V29.4229L31.8181 40.4919L32.3451 40.1569L22.3301 28.4649H22.3311Z" fill="#DB0032"/>
<path fill-rule="evenodd" clip-rule="evenodd" d="M4.40884 8.33893L3.88184 8.62693L9.10484 14.7559L10.6858 15.6659L4.40884 8.33893ZM16.1488 22.9559L18.6408 25.8309V24.9209L17.7308 23.8669L16.1498 22.9569L16.1488 22.9559ZM22.3298 29.2329V30.1429L31.3868 40.7329L31.9138 40.4449L22.3298 29.2309V29.2329Z" fill="#DC0032"/>
<path fill-rule="evenodd" clip-rule="evenodd" d="M3.9772 8.57892L3.4502 8.86692L7.9062 14.0899L9.4392 14.9529L3.9772 8.57892ZM14.9022 22.2789L18.6402 26.5919V25.6899L16.4842 23.1499L14.9032 22.2869L14.9022 22.2789ZM22.3262 29.9499V30.8599L30.9512 40.9709L31.4782 40.6829L22.3262 29.9499Z" fill="#DC0032"/>
<path fill-rule="evenodd" clip-rule="evenodd" d="M3.54604 8.81793L3.01904 9.10593L6.66004 13.3699L8.19304 14.2329L3.54604 8.81793ZM13.704 21.5639L18.64 27.3139V26.4039L15.24 22.4269L13.707 21.5649L13.704 21.5639ZM22.329 30.7159V31.6259L30.571 41.2099L31.099 40.9229L22.33 30.7159H22.329Z" fill="#DC0032"/>
<path fill-rule="evenodd" clip-rule="evenodd" d="M3.11489 9.05695L2.58789 9.34495L5.41489 12.6509L6.94489 13.5139L3.11489 9.05695ZM12.4589 20.8449L18.6449 28.0329V27.1229L13.9929 21.7569L12.4589 20.8449ZM22.3299 31.4349V32.3449L30.1409 41.4449L30.6679 41.1569L22.3299 31.4299V31.4349Z" fill="#DC0032"/>
<path fill-rule="evenodd" clip-rule="evenodd" d="M2.68423 9.29694L2.15723 9.58494L4.16923 11.9329L5.70223 12.8429L2.68423 9.29694ZM11.2142 20.1269L18.6412 28.7999V27.8909L12.7472 21.0389L11.2142 20.1289V20.1269ZM22.3302 32.1539V33.0639L29.7102 41.6909L30.2372 41.4029L22.3302 32.1549V32.1539Z" fill="#DC0032"/>
<path fill-rule="evenodd" clip-rule="evenodd" d="M2.2521 9.53693L1.7251 9.82493L2.9251 11.2149L4.5061 12.1249L2.2521 9.53693ZM9.9631 19.4559L18.6361 29.5189V28.6089L11.4961 20.3189L9.9631 19.4559ZM22.3301 32.9249V33.8349L29.2781 41.9349L29.8051 41.6469L22.3301 32.9249Z" fill="#DC0032"/>
<path fill-rule="evenodd" clip-rule="evenodd" d="M1.82109 9.73193L1.24609 10.0159L1.67709 10.5429L3.25809 11.4059L1.82109 9.73193ZM8.72109 18.7409L18.6401 30.2889V29.3319L10.3031 19.5999L8.72209 18.7369L8.72109 18.7409ZM22.3301 33.6409V34.5509L28.8471 42.2179L29.3741 41.8829L22.3301 33.6409Z" fill="#DC0032"/>
<path fill-rule="evenodd" clip-rule="evenodd" d="M1.3892 9.9649L1.0542 10.1569L2.0122 10.6839L1.3892 9.9649ZM7.4752 18.0149L18.6412 31.0039V30.0939L9.0572 18.9279L7.4762 18.0179L7.4752 18.0149ZM22.3302 34.3549V35.3129L28.4642 42.4529L28.9912 42.1179L22.3302 34.3549Z" fill="#DC0032"/>
<path fill-rule="evenodd" clip-rule="evenodd" d="M6.27783 17.299L18.6408 31.723V30.813L7.81083 18.21L6.27783 17.299ZM22.3298 35.125V36.035L28.0298 42.6959L28.5568 42.361L22.3278 35.125H22.3298Z" fill="#DC0032"/>
<path fill-rule="evenodd" clip-rule="evenodd" d="M5.03076 16.6289L18.6398 32.4899V31.5319L6.56476 17.4909L5.03076 16.6289ZM22.3308 35.8439V36.7539L27.6018 42.9349L28.1288 42.5999L22.3288 35.8439H22.3308Z" fill="#DC0032"/>
<path fill-rule="evenodd" clip-rule="evenodd" d="M3.78516 15.9099L18.6402 33.2099V32.2999L5.31916 16.7729L3.78516 15.9099ZM22.3302 36.5629V37.5209L27.1702 43.1749L27.6972 42.8869L22.3302 36.5629Z" fill="#DC0032"/>
<path fill-rule="evenodd" clip-rule="evenodd" d="M2.54004 15.1909L18.64 33.9269V33.0169L4.07304 16.1009L2.54004 15.1909ZM22.33 37.3289V38.2389L26.739 43.4139L27.266 43.1259L22.33 37.3259V37.3289Z" fill="#DB0032"/>
<path fill-rule="evenodd" clip-rule="evenodd" d="M1.29297 14.4719L18.64 34.6939V33.7799L2.82197 15.3799L1.29297 14.4719ZM22.33 38.0479V38.9579L26.355 43.6579L26.882 43.3699L22.33 38.0509V38.0479Z" fill="#DA0032"/>
<path fill-rule="evenodd" clip-rule="evenodd" d="M0.0478516 13.8059L18.6409 35.4129V34.5059L1.62685 14.6639L0.0478516 13.8059ZM22.3269 38.7669V39.7249L25.9269 43.8949L26.4539 43.6069L22.3269 38.7669Z" fill="#D90032"/>
<path fill-rule="evenodd" clip-rule="evenodd" d="M0 13.7539V14.4249L18.64 36.1319V35.2219L0.383 13.9449L0 13.7539ZM22.33 39.5339V40.1089C22.3272 40.1984 22.2916 40.2838 22.23 40.3489L25.488 44.1349L26.015 43.8469L22.33 39.5339Z" fill="#D80032"/>
<path fill-rule="evenodd" clip-rule="evenodd" d="M0 14.2319V15.1899L18.64 36.8979V35.9879L0 14.2319ZM22.282 40.2519C22.2617 40.3442 22.2211 40.4307 22.1632 40.5053C22.1052 40.5798 22.0314 40.6405 21.947 40.6829L21.899 40.7309L25.062 44.3729L25.589 44.0849L22.283 40.2519H22.282Z" fill="#D70032"/>
<path fill-rule="evenodd" clip-rule="evenodd" d="M0 14.9989V15.9089L18.64 37.6169V36.7069L0 14.9989ZM21.995 40.6349C21.995 40.6829 21.995 40.6829 21.947 40.6829L21.468 40.9709L24.631 44.6129L25.158 44.3249L21.995 40.6349Z" fill="#D60032"/>
<path fill-rule="evenodd" clip-rule="evenodd" d="M0 15.7189V16.6289L18.64 38.3359V37.4259L0 15.7189ZM21.611 40.8759L21.036 41.2119L24.246 44.9019L24.773 44.5669L21.611 40.8759Z" fill="#D50032"/>
<path fill-rule="evenodd" clip-rule="evenodd" d="M0 16.4849V17.3949L18.64 39.1039V38.1939L0 16.4849ZM21.18 41.1149L20.845 41.3069C20.7543 41.3461 20.6555 41.3626 20.557 41.3549L23.815 45.1409L24.342 44.8059L21.179 41.1159L21.18 41.1149Z" fill="#D40032"/>
<path fill-rule="evenodd" clip-rule="evenodd" d="M0 17.205V18.115L18.64 39.821V38.911L0 17.205ZM19.694 41.115L23.384 45.38L23.911 45.044L20.7 41.355C20.652 41.355 20.556 41.403 20.508 41.403H20.46C20.3416 41.3988 20.2263 41.3644 20.125 41.303L19.694 41.111V41.115Z" fill="#D30032"/>
<path fill-rule="evenodd" clip-rule="evenodd" d="M0 17.9219V18.8799L22.953 45.6189L23.48 45.2839L20.03 41.2589L18.976 40.6839C18.8746 40.626 18.7902 40.5423 18.7314 40.4414C18.6726 40.3404 18.6414 40.2258 18.641 40.1089V39.6299L0 17.9219Z" fill="#D20032"/>
<path fill-rule="evenodd" clip-rule="evenodd" d="M0 18.6889V19.5989L22.522 45.8589L23.049 45.5709L0 18.6889Z" fill="#D10032"/>
<path fill-rule="evenodd" clip-rule="evenodd" d="M0 19.408V20.318L22.09 46.098L22.617 45.81L0 19.408Z" fill="#D00032"/>
<path fill-rule="evenodd" clip-rule="evenodd" d="M0 20.127V21.085L21.707 46.337L22.234 46.049L0 20.127Z" fill="#CF0032"/>
<path fill-rule="evenodd" clip-rule="evenodd" d="M0 20.8939V21.8039L21.276 46.5779L21.803 46.2899L0 20.8939Z" fill="#CE0032"/>
<path fill-rule="evenodd" clip-rule="evenodd" d="M0 21.6119V22.5219L20.8 46.7659L21.231 46.6219L21.375 46.5219L0 21.6119Z" fill="#CD0032"/>
<path fill-rule="evenodd" clip-rule="evenodd" d="M0 22.3309V23.2889L20.174 46.7669H20.462C20.6073 46.7747 20.7529 46.7585 20.893 46.7189L0 22.3309Z" fill="#CC0032"/>
<path fill-rule="evenodd" clip-rule="evenodd" d="M0 23.0949V24.0049L19.072 46.2419L19.743 46.6249C19.9186 46.7229 20.117 46.7725 20.318 46.7689L0 23.0949Z" fill="#CB0032"/>
<path fill-rule="evenodd" clip-rule="evenodd" d="M0 23.817V24.727L17.826 45.527L19.407 46.438L0 23.817Z" fill="#CA0032"/>
<path fill-rule="evenodd" clip-rule="evenodd" d="M0 24.5829V25.4929L16.58 44.8049L18.161 45.7159L0 24.5829Z" fill="#C90032"/>
<path fill-rule="evenodd" clip-rule="evenodd" d="M0 25.3019V26.2119L15.334 44.0859L16.867 44.9969L0 25.3019Z" fill="#C80033"/>
<path fill-rule="evenodd" clip-rule="evenodd" d="M0 26.02V26.93L14.088 43.367L15.621 44.278L0 26.02Z" fill="#C70033"/>
<path fill-rule="evenodd" clip-rule="evenodd" d="M0 26.7869V27.6969L12.794 42.5969L14.375 43.5079L0 26.7869Z" fill="#C60033"/>
<path fill-rule="evenodd" clip-rule="evenodd" d="M0 27.507V28.417L11.548 41.882L13.129 42.793L0 27.507Z" fill="#C50033"/>
<path fill-rule="evenodd" clip-rule="evenodd" d="M0 28.2249V29.1349L10.3 41.1579L11.881 42.0679L0 28.2249Z" fill="#C40033"/>
<path fill-rule="evenodd" clip-rule="evenodd" d="M0 28.9919V29.9019L9.057 40.4439L10.638 41.3549L0 28.9919Z" fill="#C30033"/>
<path fill-rule="evenodd" clip-rule="evenodd" d="M0 29.71V30.62L7.811 39.72L9.392 40.631L0 29.71Z" fill="#C20033"/>
<path fill-rule="evenodd" clip-rule="evenodd" d="M0 30.429V31.388L6.565 39.007L8.098 39.918L0 30.429Z" fill="#C10033"/>
<path fill-rule="evenodd" clip-rule="evenodd" d="M0 31.1949V32.1049L5.271 38.2869L6.852 39.1969L0 31.1949Z" fill="#C00033"/>
<path fill-rule="evenodd" clip-rule="evenodd" d="M0 31.9179V32.8279L4.025 37.5719L5.606 38.4349L0 31.9179Z" fill="#BF0033"/>
<path fill-rule="evenodd" clip-rule="evenodd" d="M0 32.6329V33.5909L2.779 36.8019L4.36 37.7129L0 32.6329Z" fill="#BE0033"/>
<path fill-rule="evenodd" clip-rule="evenodd" d="M0 33.3999V34.3099L1.533 36.0829L3.114 36.9939L0 33.3999Z" fill="#BD0033"/>
<path fill-rule="evenodd" clip-rule="evenodd" d="M0 34.119V34.359C0.015262 34.614 0.0878318 34.8624 0.212313 35.0856C0.336793 35.3087 0.509982 35.501 0.719 35.648L1.869 36.271L0 34.119Z" fill="#BC0033"/>
<path fill-rule="evenodd" clip-rule="evenodd" d="M0.288086 35.2209C0.388086 35.3209 0.432086 35.4129 0.528086 35.4609L0.288086 35.2209Z" fill="#BB0033"/>
</g>
</svg>
