<svg width="37" height="41" viewBox="0 0 37 41" fill="none" xmlns="http://www.w3.org/2000/svg">
<path d="M27.7998 14.1528H17.2358C17.2868 14.4058 17.3878 14.6578 17.4358 14.8608C17.7854 16.0984 18.0056 17.3688 18.0928 18.6518C18.1438 19.1568 18.1438 19.7128 18.1438 20.2188C18.1438 20.7248 18.1438 21.2798 18.0928 21.7858C18.0056 23.0688 17.7854 24.3393 17.4358 25.5768C17.3848 25.8298 17.2838 26.0818 17.2358 26.2848H27.7998C29.395 26.2644 30.9179 25.6163 32.0387 24.481C33.1595 23.3457 33.788 21.8146 33.788 20.2193C33.788 18.624 33.1595 17.0929 32.0387 15.9576C30.9179 14.8224 29.395 14.1743 27.7998 14.1538V14.1528Z" fill="#00A9E5"/>
<path d="M18.0998 21.7849C18.1508 21.2799 18.1508 20.7239 18.1508 20.2179C18.1508 19.7119 18.1508 19.1569 18.0998 18.6509C18.0126 17.3679 17.7925 16.0974 17.4428 14.8599C17.3918 14.6069 17.2908 14.3549 17.2428 14.1519H0.909836C-0.303279 18.1045 -0.303279 22.3302 0.909836 26.2829H17.2358C17.2868 26.0299 17.3878 25.7779 17.4358 25.5749C17.7878 24.3379 18.0103 23.0678 18.0998 21.7849Z" fill="#353535"/>
<path d="M29.6196 28.3052H16.4776C16.0836 29.1954 15.6274 30.0569 15.1126 30.8832C14.35 32.1248 13.4515 33.2775 12.4336 34.3202C12.0796 34.6742 11.7256 34.9772 11.3726 35.3312C10.6415 35.9764 9.86447 36.5676 9.04761 37.1002C12.3429 39.2872 16.2126 40.4481 20.1676 40.4362C23.4967 40.4343 26.774 39.6122 29.7098 38.0424C32.6456 36.4727 35.1493 34.2037 36.9996 31.4362C36.0409 30.4479 34.8939 29.6617 33.6264 29.1239C32.3589 28.5862 30.9965 28.3078 29.6196 28.3052Z" fill="#00BFB3"/>
<path d="M15.1127 30.8832C15.6276 30.0569 16.0837 29.1954 16.4777 28.3052H1.66772C3.22807 31.9022 5.81197 34.9608 9.09772 37.1002C9.90572 36.5552 10.682 35.9646 11.4227 35.3312C11.7767 35.0312 12.1307 34.6742 12.4837 34.3202C13.4822 33.2734 14.3638 32.1209 15.1127 30.8832Z" fill="#019B8F"/>
<path d="M12.4339 6.11594C12.0799 5.76194 11.7259 5.45894 11.3729 5.10494C10.6415 4.45965 9.86415 3.86841 9.04694 3.33594C5.78704 5.50447 3.21034 8.55455 1.61694 12.1309H16.4269C16.0329 11.2407 15.5768 10.3792 15.0619 9.55294C14.3466 8.29288 13.4625 7.13651 12.4339 6.11594Z" fill="#F9B110"/>
<path d="M20.1669 9.13281e-05C16.2119 -0.0118582 12.3422 1.14906 9.04688 3.33609C9.85486 3.8811 10.6311 4.47173 11.3719 5.10509C11.7259 5.4051 12.0799 5.76209 12.4329 6.11609C13.4507 7.15872 14.3493 8.3115 15.1119 9.55309C15.6267 10.3794 16.0828 11.2408 16.4769 12.1311H29.6189C30.996 12.1281 32.3585 11.8492 33.6261 11.311C34.8936 10.7727 36.0404 9.98592 36.9989 8.99709C35.1482 6.23012 32.6444 3.96174 29.7086 2.39253C26.7729 0.823324 23.4957 0.00162459 20.1669 9.13281e-05Z" fill="#FED10A"/>
</svg>
