<svg width="122" height="38" viewBox="0 0 122 38" fill="none" xmlns="http://www.w3.org/2000/svg">
<g style="mix-blend-mode:luminosity">
<path d="M101.377 13.143L106.413 18.693L111.261 13.143H121.614L111.496 24.52L121.752 35.99H110.982L105.994 30.397L101.051 35.991H90.6509L100.817 24.571L90.6509 13.143H101.377Z" fill="#FF5900"/>
<path d="M90.6508 13.143V20.863H79.1368V27.947H90.6508V35.99H70.6748V0H90.6508V8.022H79.1368V13.142L90.6508 13.143Z" fill="#FF5900"/>
<path d="M62.248 0V14.729H62.155C61.2996 13.7553 60.2338 12.989 59.0383 12.4883C57.8428 11.9876 56.549 11.7655 55.255 11.839C49.715 11.839 45.542 15.607 44.077 20.585C42.4 15.1 38.1 11.736 31.707 11.736C26.519 11.736 22.422 14.065 20.284 17.859V13.143H9.559V8.022H21.259V0H0V35.99H9.559V20.862H19.088C18.7944 22.0251 18.648 23.2204 18.652 24.42C18.652 31.926 24.388 37.196 31.707 37.196C37.862 37.196 41.919 34.306 44.063 29.039H35.87C34.762 30.623 33.922 31.092 31.707 31.092C30.4295 31.0562 29.216 30.5248 28.3231 29.6104C27.4303 28.6959 26.9282 27.47 26.923 26.192H43.6C44.324 32.155 48.969 37.292 55.342 37.292C56.6883 37.2939 58.0141 36.963 59.2016 36.3286C60.389 35.6942 61.4012 34.7761 62.148 33.656H62.241V35.986H70.667V0H62.248ZM27.19 20.969C27.3843 19.9111 27.9421 18.9544 28.7672 18.2643C29.5922 17.5743 30.6324 17.1942 31.708 17.19C32.803 17.1363 33.8784 17.4944 34.7227 18.1938C35.567 18.8931 36.1189 19.8831 36.27 20.969H27.19ZM57.133 30.511C54.027 30.511 52.095 27.611 52.095 24.594C52.095 21.364 53.774 18.258 57.133 18.258C60.615 18.258 62.001 21.364 62.001 24.594C62 27.657 60.532 30.511 57.133 30.511Z" fill="#2A007C"/>
</g>
</svg>
