<svg width="141" height="38" viewBox="0 0 141 38" fill="none" xmlns="http://www.w3.org/2000/svg">
<g style="mix-blend-mode:luminosity">
<path d="M107.936 6.38501L101.902 37.585H116.402L117.829 29.798H111.281L115.841 6.38901L107.936 6.38501Z" fill="#001652"/>
<path fill-rule="evenodd" clip-rule="evenodd" d="M134.666 13.284C136.125 13.3212 137.571 13.5567 138.966 13.984L140.323 6.828C138.531 6.51867 136.716 6.36209 134.897 6.35999C126.267 6.35999 122.222 11.505 122.222 17.281C122.222 24.811 129.893 24.718 129.893 27.921C129.893 29.535 128.747 30.421 126.293 30.421C124.449 30.3922 122.619 30.0847 120.867 29.509L119.394 37.226C121.417 37.5783 123.468 37.7504 125.521 37.74C133.192 37.74 138.621 32.619 138.621 26.422C138.621 19.102 130.904 18.986 130.904 15.735C130.927 14.308 131.886 13.279 134.669 13.279" fill="#001652"/>
<path fill-rule="evenodd" clip-rule="evenodd" d="M95.6592 6.38504C83.7792 6.38504 76.1782 15.248 76.1782 26.146C76.1782 32.951 79.7782 37.675 88.8072 37.675C92.37 37.718 95.9064 37.0585 99.2142 35.734L102.114 20.65H94.1632L92.4562 29.84C91.7435 30.0066 91.0131 30.0852 90.2812 30.074C86.2812 30.074 84.8552 27.852 84.8552 24.974C84.8552 19.549 88.1762 13.936 94.9552 13.936C96.9492 13.9558 98.9286 14.2792 100.825 14.895C101.012 14.942 101.225 15.012 101.433 15.059C102.111 15.293 102.649 15.574 103.093 15.759L104.683 7.59702C101.738 6.80884 98.7047 6.40022 95.6562 6.38104" fill="#001652"/>
<path fill-rule="evenodd" clip-rule="evenodd" d="M36.0942 6.455L33.9662 16.838H48.7002C36.4692 34.892 12.2642 31.851 5.85716 24.368C0.357165 17.914 5.10917 6.852 21.4572 0C5.25017 4.911 -3.79983 17.866 1.53217 26.566C7.58917 36.435 26.4382 40.55 43.1832 35.756C54.3832 31.804 59.1322 26.285 60.9102 23.315L58.1492 37.652H69.1622L75.1492 6.452L36.0942 6.455Z" fill="#FEBE10"/>
</g>
</svg>
