<svg width="101" height="100" viewBox="0 0 101 100" fill="none" xmlns="http://www.w3.org/2000/svg">
<path d="M1 74.7365C1 80.7614 5.88417 85.6456 11.9091 85.6456C17.934 85.6456 22.8182 80.7614 22.8182 74.7365C22.8182 68.7116 17.934 63.8274 11.9091 63.8274C5.88417 63.8274 1 68.7116 1 74.7365Z" fill="#E0DAE3"/>
<path d="M5.08985 70.6451C5.08985 76.67 9.97401 81.5541 15.9989 81.5541C22.0239 81.5541 26.908 76.67 26.908 70.6451C26.908 64.6201 22.0239 59.736 15.9989 59.736C9.97401 59.736 5.08985 64.6201 5.08985 70.6451Z" stroke="#4B2661" stroke-width="2" stroke-linecap="round" stroke-linejoin="round"/>
<path d="M24.3769 63.8273L78.5898 63.8273L78.5898 55.6455L99.0443 70.6455L78.5898 85.6455L78.5898 77.4637L24.3769 77.4637" stroke="#4B2661" stroke-width="2" stroke-linecap="round" stroke-linejoin="round"/>
<path d="M34.272 70.6455L61.5447 70.6455" stroke="#4B2661" stroke-linecap="round"/>
<path d="M69.7266 70.6455L76.5447 70.6455" stroke="#4B2661" stroke-linecap="round"/>
</svg>
