<svg width="143" height="135" viewBox="0 0 143 135" fill="none" xmlns="http://www.w3.org/2000/svg">
<path d="M5.59038 133C16.3274 133.131 141.858 133 141.858 133C141.858 133 143.847 112.055 119.324 121.864C109.25 109.404 100.368 113.381 96.7894 116.964C89.3244 109.382 87.1474 109.155 81.4734 116.407C80.9044 117.132 81.4404 105.163 80.8034 106.245C79.9174 103.883 70.8964 106.903 68.7104 105.102C68.4934 104.922 67.9104 115.539 67.9104 115.539C67.9104 115.539 61.9634 113.326 58.5014 115.904C55.7184 109.939 41.2524 108.481 36.7454 115.904C31.9734 112.723 23.4894 112.325 19.9104 119.483C14.2064 117.887 2.54138 125.841 5.59038 133Z" fill="#E0DAE3"/>
<path d="M110.246 106.527L103.719 100L120.719 83L103.719 66L120.719 49L103.719 32L111.73 23.989L120.719 15" stroke="#4B2661"/>
<path d="M81.4525 101C81.4525 101 83.7531 37.8989 83.7531 30C83.7531 22.1011 77.2365 2 70.7198 2C64.2032 2 57.6869 21.981 57.6869 30C57.6869 38.019 59.9865 101 59.9865 101H81.3744H81.4525ZM81.4525 103H81.3744H59.9865C58.9103 103 58.027 102.148 57.9877 101.073C57.8939 98.5 55.6869 37.9639 55.6869 30C55.6869 25.6414 57.4225 18.3374 59.9076 12.2383C61.2965 8.8291 62.7894 6.0686 64.3451 4.03296C66.3903 1.35693 68.535 0 70.7198 0C72.9056 0 75.0514 1.36377 77.0973 4.05347C78.6508 6.09546 80.1429 8.86499 81.5331 12.2849C84.0177 18.3984 85.7531 25.6831 85.7531 30C85.7531 37.8452 83.5453 98.4949 83.4513 101.073C83.412 102.148 82.5287 103 81.4525 103Z" fill="#4B2661"/>
<path d="M57.6935 65.0459L50.0194 96H58.7843L57.6935 65.0459Z" stroke="#4B2661" stroke-width="2" stroke-linecap="round" stroke-linejoin="round"/>
<path d="M71.4865 71L69.1864 93H73.7865L71.4865 71Z" fill="white" stroke="#4B2661" stroke-width="2" stroke-linecap="round" stroke-linejoin="round"/>
<path d="M83.7502 65.0757L91.4182 95.9998H82.6904L83.7502 65.0757Z" stroke="#4B2661" stroke-width="2" stroke-linecap="round" stroke-linejoin="round"/>
<path d="M120.719 110V15H103.719V110" stroke="#4B2661" stroke-width="2" stroke-linecap="round"/>
<path d="M114.192 106.527L120.719 100L103.719 83L120.719 66L103.719 49L120.719 32L103.719 15" stroke="#4B2661"/>
<path d="M63.7194 102V114.609" stroke="#4B2661" stroke-width="2" stroke-linecap="round"/>
<path d="M78.7194 102V117" stroke="#4B2661" stroke-width="2"/>
<path d="M63.7194 111.999C57.9554 99.5384 35.0334 104.34 38.7194 122.999" stroke="#4B2661" stroke-width="2" stroke-linecap="round"/>
<path d="M78.7185 111.999C84.4825 99.5384 107.405 104.34 103.719 122.999" stroke="#4B2661" stroke-width="2" stroke-linecap="round"/>
<path d="M23.7196 120C19.4112 112.092 0.416134 111.806 1.46943 130.796" stroke="#4B2661" stroke-width="2" stroke-linecap="round"/>
<path d="M118.719 120C123.027 112.092 142.022 111.807 140.969 130.797" stroke="#4B2661" stroke-width="2" stroke-linecap="round"/>
<path d="M39.4386 113.346C38.1747 102.68 20.9188 105.274 19.7193 116" stroke="#4B2661" stroke-width="2" stroke-linecap="round"/>
<path d="M102.999 113.345C104.263 102.679 121.519 105.274 122.723 115.999" stroke="#4B2661" stroke-width="2" stroke-linecap="round"/>
<path d="M81.7195 127C84.812 112.547 59.5337 107.47 59.7194 121.999" stroke="#4B2661" stroke-width="2" stroke-linecap="round"/>
<path d="M20.7193 129C19.8373 124.009 23.6953 118.273 29.4623 120" stroke="#4B2661" stroke-linecap="round"/>
<path d="M52.8126 127.005C55.4968 122.705 62.2019 121.024 65.332 126.166" stroke="#4B2661" stroke-linecap="round"/>
<path d="M95.4662 125.168C99.5128 122.116 106.375 122.949 107.455 128.872" stroke="#4B2661" stroke-linecap="round"/>
<path d="M85.8127 121.005C87.9677 108.825 102.557 116.983 97.7194 123.999" stroke="#4B2661" stroke-linecap="round"/>
<path d="M43.2973 118.55C42.5002 113.544 46.4556 107.873 52.1933 109.698" stroke="#4B2661" stroke-width="1.00014" stroke-linecap="round"/>
<path d="M72.6004 19.3979C76.2004 19.3979 79.8004 31.6869 79.8004 31.6869C79.8004 31.6869 76.2004 35.4869 72.6004 35.4869C69.0004 35.4869 65.4004 31.6869 65.4004 31.6869C65.4004 31.6869 69.0004 19.3979 72.6004 19.3979Z" fill="#E0DAE3"/>
<path d="M70.7194 16.689C74.1934 16.689 77.6704 28.051 77.6704 28.051C77.6704 28.051 74.1964 31.566 70.7214 31.566C67.2464 31.566 63.7704 28.051 63.7704 28.051C63.7704 28.051 67.2444 16.689 70.7194 16.689Z" stroke="#4B2661" stroke-width="2" stroke-linecap="round" stroke-linejoin="round"/>
</svg>
