<svg width="180" height="76" viewBox="0 0 180 76" fill="none" xmlns="http://www.w3.org/2000/svg">
<path d="M43.9241 39.5081V47.2002H17.356V7.43115H26.3081V39.5081H43.9241Z" fill="#C5BACC"/>
<path d="M86.387 27.2851C86.4463 30.3477 85.9301 33.3941 84.865 36.2661C83.9499 38.696 82.5325 40.9055 80.7051 42.7501C78.9241 44.5047 76.7792 45.8464 74.4222 46.6801C71.9087 47.5744 69.2579 48.0212 66.5901 48.0001C63.9691 48.0166 61.3655 47.5697 58.9 46.6801C56.5411 45.8331 54.3899 44.4934 52.5892 42.7501C50.7285 40.9154 49.2805 38.7049 48.3421 36.2661C47.2589 33.3983 46.7331 30.3501 46.793 27.2851C46.7314 24.2152 47.2772 21.1634 48.399 18.3051C49.3792 15.8591 50.854 13.6417 52.731 11.7921C54.5331 10.0426 56.6843 8.69352 59.044 7.83314C61.461 6.94855 64.0164 6.50156 66.5901 6.51314C69.2106 6.49663 71.8133 6.94351 74.2781 7.83314C76.6421 8.6846 78.7952 10.0348 80.5911 11.7921C82.4475 13.6414 83.894 15.8604 84.837 18.3051C85.921 21.1724 86.4472 24.2204 86.387 27.2851ZM56.0311 27.2851C56.0078 29.0706 56.2498 30.8497 56.7491 32.5641C57.1747 34.0315 57.8754 35.4046 58.814 36.6101C59.6958 37.7254 60.8259 38.6195 62.1141 39.2211C63.5235 39.8268 65.0414 40.1392 66.5755 40.1392C68.1096 40.1392 69.6277 39.8268 71.0372 39.2211C72.3366 38.625 73.4767 37.7303 74.365 36.6101C75.3036 35.4044 76.0046 34.0314 76.431 32.5641C76.9286 30.8494 77.1699 29.0705 77.147 27.2851C77.1684 25.4907 76.9271 23.7028 76.431 21.9781C76.0083 20.5005 75.3071 19.1174 74.365 17.9032C73.4762 16.7835 72.3362 15.889 71.0372 15.2921C69.6398 14.6648 68.1217 14.3517 66.5901 14.3751C65.0455 14.345 63.5144 14.6686 62.1141 15.3212C60.8288 15.9406 59.7005 16.8432 58.814 17.9611C57.8717 19.1747 57.1708 20.5577 56.7491 22.0351C56.2538 23.7405 56.0119 25.5094 56.0311 27.2851Z" fill="#C5BACC"/>
<path d="M113.24 14.3172C109.07 14.3172 106.058 15.4746 104.203 17.7892C102.348 20.1039 101.421 23.2706 101.42 27.2892C101.399 29.0821 101.63 30.869 102.108 32.5972C102.519 34.0871 103.221 35.4807 104.174 36.6972C105.094 37.8466 106.274 38.761 107.617 39.3652C109.137 40.0258 110.781 40.3489 112.438 40.3122C113.432 40.3122 114.283 40.2929 114.99 40.2542C115.617 40.2271 116.24 40.1505 116.855 40.0252V26.2002H125.807V45.8822C124.124 46.4678 122.397 46.9189 120.643 47.2312C117.747 47.7539 114.806 47.994 111.863 47.9482C109.096 47.9856 106.344 47.5187 103.744 46.5702C101.398 45.7068 99.2721 44.3354 97.5181 42.5542C95.74 40.7033 94.38 38.4921 93.5301 36.0702C92.5498 33.2488 92.0738 30.2767 92.1241 27.2902C92.0687 24.2728 92.5946 21.2729 93.6732 18.4542C94.6252 16.0139 96.0709 13.7966 97.92 11.9412C99.7229 10.1588 101.884 8.77968 104.26 7.89522C106.746 6.96697 109.381 6.50034 112.035 6.51823C113.735 6.50539 115.433 6.63012 117.113 6.89122C118.43 7.09712 119.732 7.3847 121.013 7.75224C121.938 8.01389 122.841 8.34826 123.713 8.75224C124.42 9.09624 124.927 9.3629 125.233 9.55223L122.651 16.7252C121.303 16.0256 119.891 15.4586 118.434 15.0322C116.747 14.5416 114.997 14.3006 113.24 14.3172Z" fill="#C5BACC"/>
<path d="M172 27.2851C172.059 30.3476 171.543 33.3939 170.479 36.2661C169.563 38.6959 168.145 40.9052 166.318 42.7501C164.537 44.505 162.392 45.8467 160.035 46.6801C157.521 47.5748 154.869 48.0216 152.2 48.0001C149.579 48.0167 146.976 47.5698 144.511 46.6801C142.152 45.8331 140 44.4934 138.199 42.7501C136.338 40.9154 134.89 38.7049 133.952 36.2661C132.869 33.3983 132.343 30.3501 132.403 27.2851C132.341 24.2151 132.887 21.1632 134.01 18.3051C134.99 15.8587 136.465 13.6412 138.342 11.7921C140.144 10.0426 142.295 8.69353 144.654 7.83314C147.071 6.94852 149.626 6.50153 152.2 6.51313C154.821 6.49671 157.424 6.94359 159.889 7.83314C162.253 8.68461 164.405 10.0348 166.201 11.7921C168.057 13.6414 169.504 15.8604 170.447 18.3051C171.532 21.1722 172.059 24.2202 172 27.2851ZM141.645 27.2851C141.622 29.0706 141.863 30.8496 142.362 32.5641C142.788 34.0317 143.489 35.4049 144.428 36.6101C145.309 37.7258 146.44 38.62 147.728 39.2211C149.137 39.8267 150.655 40.139 152.189 40.139C153.723 40.139 155.241 39.8267 156.65 39.2211C157.95 38.625 159.09 37.7304 159.979 36.6101C160.917 35.4041 161.618 34.0312 162.044 32.5641C162.542 30.8494 162.784 29.0705 162.761 27.2851C162.782 25.4906 162.541 23.7027 162.044 21.9781C161.621 20.5008 160.92 19.1177 159.979 17.9031C159.09 16.7834 157.949 15.8888 156.65 15.2921C155.253 14.6646 153.735 14.3516 152.203 14.3751C150.659 14.3449 149.128 14.6685 147.728 15.3211C146.442 15.94 145.314 16.8427 144.428 17.9611C143.485 19.1744 142.784 20.5574 142.362 22.0351C141.867 23.7406 141.626 25.5095 141.645 27.2851Z" fill="#C5BACC"/>
<path d="M42.158 36.3111V44.0001H15.5911V4.23413H24.542V36.3111H42.158Z" stroke="#4B2661" stroke-linecap="round" stroke-linejoin="round"/>
<path d="M84.6211 24.0881C84.6803 27.1506 84.1644 30.1969 83.1001 33.0691C82.1844 35.499 80.7664 37.7084 78.939 39.5531C77.1581 41.3079 75.0132 42.6496 72.656 43.4831C70.1426 44.3775 67.4917 44.8243 64.824 44.8031C62.2032 44.8197 59.6002 44.3728 57.135 43.4831C54.7759 42.636 52.6242 41.2963 50.823 39.5531C48.9621 37.7186 47.5141 35.508 46.5759 33.0691C45.4927 30.2013 44.9671 27.1531 45.0271 24.0881C44.9658 21.0181 45.5119 17.9663 46.634 15.1081C47.6132 12.6618 49.0882 10.4446 50.9661 8.59612C52.7676 6.84623 54.9186 5.49673 57.2781 4.63609C59.6951 3.75156 62.2502 3.30461 64.824 3.31612C67.4447 3.29957 70.0478 3.74643 72.5129 4.63609C74.8767 5.48789 77.0295 6.83849 78.825 8.59612C80.6816 10.4447 82.1284 12.6635 83.071 15.1081C84.155 17.9754 84.6811 21.0234 84.6211 24.0881ZM54.2661 24.0881C54.2426 25.8739 54.484 27.6533 54.9829 29.3681C55.4083 30.8355 56.1097 32.2083 57.0491 33.4131C57.9302 34.5291 59.0604 35.4233 60.3491 36.0241C61.7584 36.6296 63.2762 36.9419 64.8101 36.9419C66.3439 36.9419 67.8617 36.6296 69.271 36.0241C70.5709 35.4282 71.7117 34.5336 72.6001 33.4131C73.5384 32.2077 74.239 30.835 74.665 29.3681C75.1635 27.6532 75.4051 25.8739 75.3821 24.0881C75.4036 22.2936 75.1619 20.5056 74.665 18.7811C74.243 17.3038 73.5421 15.9209 72.6001 14.7071C71.711 13.5873 70.5704 12.6928 69.271 12.0961C67.8739 11.4678 66.3557 11.1544 64.824 11.1781C63.2795 11.1477 61.7488 11.4717 60.3491 12.1251C59.0633 12.7433 57.9348 13.6457 57.0491 14.7641C56.1062 15.9775 55.4047 17.3605 54.9829 18.8381C54.488 20.5436 54.2467 22.3124 54.2661 24.0881V24.0881Z" stroke="#4B2661" stroke-width="2" stroke-linecap="round" stroke-linejoin="round"/>
<path d="M111.475 11.1201C107.305 11.1201 104.293 12.2774 102.438 14.5921C100.583 16.9067 99.6554 20.0734 99.6541 24.0921C99.6331 25.885 99.865 27.6719 100.343 29.4001C100.753 30.89 101.455 32.2837 102.408 33.5001C103.329 34.6495 104.509 35.564 105.852 36.1681C107.371 36.8287 109.016 37.1518 110.672 37.1151C111.666 37.1151 112.517 37.0961 113.225 37.0581C113.852 37.0301 114.475 36.9532 115.09 36.8281V23.0001H124.041V42.6801C122.358 43.2663 120.631 43.7174 118.877 44.0291C115.981 44.5517 113.041 44.7918 110.098 44.7461C107.33 44.7835 104.579 44.3169 101.979 43.3691C99.6329 42.505 97.5065 41.1333 95.752 39.3521C93.9739 37.5013 92.6141 35.2901 91.765 32.8681C90.7837 30.0468 90.3075 27.0747 90.358 24.0881C90.3026 21.0706 90.8285 18.0707 91.907 15.2521C92.8592 12.8119 94.3052 10.5946 96.1541 8.73909C97.957 6.95651 100.118 5.57736 102.494 4.69307C104.981 3.76496 107.616 3.29834 110.27 3.31608C111.97 3.30326 113.668 3.42799 115.348 3.68907C116.664 3.89551 117.967 4.18305 119.248 4.55006C120.173 4.81152 121.076 5.14591 121.948 5.55006C122.655 5.89406 123.162 6.16308 123.469 6.35008L120.887 13.5231C119.539 12.8236 118.126 12.2566 116.669 11.8301C114.982 11.3409 113.232 11.1017 111.475 11.1201Z" stroke="#4B2661" stroke-linecap="round" stroke-linejoin="round"/>
<path d="M170.234 24.0881C170.294 27.1506 169.778 30.1971 168.713 33.0691C167.798 35.4989 166.38 37.7084 164.553 39.5531C162.772 41.3075 160.627 42.6491 158.27 43.4831C155.757 44.3773 153.106 44.8241 150.438 44.8031C147.817 44.8197 145.214 44.3728 142.748 43.4831C140.389 42.6364 138.238 41.2966 136.437 39.5531C134.576 37.7184 133.128 35.5079 132.189 33.0691C131.106 30.2012 130.581 27.153 130.641 24.0881C130.58 21.0182 131.125 17.9664 132.247 15.1081C133.226 12.6619 134.701 10.4447 136.579 8.59611C138.381 6.84601 140.532 5.49649 142.892 4.63609C145.309 3.75139 147.864 3.30443 150.438 3.31611C153.058 3.29967 155.661 3.74652 158.126 4.63609C160.49 5.48765 162.643 6.83829 164.438 8.59611C166.295 10.445 167.742 12.6637 168.685 15.1081C169.769 17.9755 170.294 21.0234 170.234 24.0881V24.0881ZM139.879 24.0881C139.855 25.874 140.097 27.6534 140.597 29.3681C141.022 30.8354 141.723 32.2082 142.662 33.4131C143.543 34.5289 144.673 35.4231 145.962 36.0241C147.371 36.6298 148.89 36.9422 150.424 36.9422C151.958 36.9422 153.476 36.6298 154.885 36.0241C156.185 35.428 157.325 34.5334 158.213 33.4131C159.151 32.2077 159.852 30.8351 160.278 29.3681C160.777 27.6532 161.018 25.8739 160.995 24.0881C161.017 22.2936 160.775 20.5056 160.278 18.7811C159.856 17.3038 159.155 15.9209 158.213 14.7071C157.324 13.5874 156.184 12.693 154.885 12.0961C153.488 11.468 151.97 11.1546 150.438 11.1781C148.893 11.1478 147.362 11.4717 145.962 12.1251C144.676 12.7435 143.548 13.6459 142.662 14.7641C141.72 15.9775 141.018 17.3605 140.597 18.8381C140.101 20.5434 139.859 22.3124 139.879 24.0881V24.0881Z" stroke="#4B2661" stroke-linecap="round" stroke-linejoin="round"/>
<path d="M1 57L1 73C1 74.1046 1.89543 75 3 75L177 75C178.105 75 179 74.1046 179 73V57C179 55.8954 178.105 55 177 55L3 55C1.89543 55 1 55.8954 1 57Z" stroke="#4B2661" stroke-width="2" stroke-linecap="round" stroke-linejoin="round"/>
<path d="M71 55V63" stroke="#4B2661" stroke-linecap="round" stroke-linejoin="round"/>
<path d="M51 55V63" stroke="#4B2661" stroke-linecap="round" stroke-linejoin="round"/>
<path d="M67 55V60" stroke="#4B2661" stroke-linecap="round" stroke-linejoin="round"/>
<path d="M63 55V60" stroke="#4B2661" stroke-linecap="round" stroke-linejoin="round"/>
<path d="M59 55V60" stroke="#4B2661" stroke-linecap="round" stroke-linejoin="round"/>
<path d="M55 55V60" stroke="#4B2661" stroke-linecap="round" stroke-linejoin="round"/>
<path d="M31 55V63" stroke="#4B2661" stroke-linecap="round" stroke-linejoin="round"/>
<path d="M47 55V60" stroke="#4B2661" stroke-linecap="round" stroke-linejoin="round"/>
<path d="M43 55V60" stroke="#4B2661" stroke-linecap="round" stroke-linejoin="round"/>
<path d="M39 55V60" stroke="#4B2661" stroke-linecap="round" stroke-linejoin="round"/>
<path d="M35 55V60" stroke="#4B2661" stroke-linecap="round" stroke-linejoin="round"/>
<path d="M11 55V63" stroke="#4B2661" stroke-linecap="round" stroke-linejoin="round"/>
<path d="M27 55V60" stroke="#4B2661" stroke-linecap="round" stroke-linejoin="round"/>
<path d="M23 55V60" stroke="#4B2661" stroke-linecap="round" stroke-linejoin="round"/>
<path d="M19 55V60" stroke="#4B2661" stroke-linecap="round" stroke-linejoin="round"/>
<path d="M15 55V60" stroke="#4B2661" stroke-linecap="round" stroke-linejoin="round"/>
<path d="M131 55V63" stroke="#4B2661" stroke-linecap="round" stroke-linejoin="round"/>
<path d="M111 55V63" stroke="#4B2661" stroke-linecap="round" stroke-linejoin="round"/>
<path d="M127 55V60" stroke="#4B2661" stroke-linecap="round" stroke-linejoin="round"/>
<path d="M123 55V60" stroke="#4B2661" stroke-linecap="round" stroke-linejoin="round"/>
<path d="M119 55V60" stroke="#4B2661" stroke-linecap="round" stroke-linejoin="round"/>
<path d="M115 55V60" stroke="#4B2661" stroke-linecap="round" stroke-linejoin="round"/>
<path d="M91 55V63" stroke="#4B2661" stroke-linecap="round" stroke-linejoin="round"/>
<path d="M107 55V60" stroke="#4B2661" stroke-linecap="round" stroke-linejoin="round"/>
<path d="M103 55V60" stroke="#4B2661" stroke-linecap="round" stroke-linejoin="round"/>
<path d="M99 55V60" stroke="#4B2661" stroke-linecap="round" stroke-linejoin="round"/>
<path d="M95 55V60" stroke="#4B2661" stroke-linecap="round" stroke-linejoin="round"/>
<path d="M171 55V63" stroke="#4B2661" stroke-linecap="round" stroke-linejoin="round"/>
<path d="M151 55V63" stroke="#4B2661" stroke-linecap="round" stroke-linejoin="round"/>
<path d="M167 55V60" stroke="#4B2661" stroke-linecap="round" stroke-linejoin="round"/>
<path d="M163 55V60" stroke="#4B2661" stroke-linecap="round" stroke-linejoin="round"/>
<path d="M159 55V60" stroke="#4B2661" stroke-linecap="round" stroke-linejoin="round"/>
<path d="M155 55V60" stroke="#4B2661" stroke-linecap="round" stroke-linejoin="round"/>
<path d="M147 55V60" stroke="#4B2661" stroke-linecap="round" stroke-linejoin="round"/>
<path d="M143 55V60" stroke="#4B2661" stroke-linecap="round" stroke-linejoin="round"/>
<path d="M139 55V60" stroke="#4B2661" stroke-linecap="round" stroke-linejoin="round"/>
<path d="M135 55V60" stroke="#4B2661" stroke-linecap="round" stroke-linejoin="round"/>
<path d="M87 55V60" stroke="#4B2661" stroke-linecap="round" stroke-linejoin="round"/>
<path d="M83 55V60" stroke="#4B2661" stroke-linecap="round" stroke-linejoin="round"/>
<path d="M79 55V60" stroke="#4B2661" stroke-linecap="round" stroke-linejoin="round"/>
<path d="M75 55V60" stroke="#4B2661" stroke-linecap="round" stroke-linejoin="round"/>
<path d="M17 3H14V6H17V3Z" fill="#F9F9F9" stroke="#4B2661" stroke-linecap="round" stroke-linejoin="round"/>
<path d="M17 42H14V45H17V42Z" fill="#F9F9F9" stroke="#4B2661" stroke-linecap="round" stroke-linejoin="round"/>
<path d="M44 35H41V38H44V35Z" fill="#F9F9F9" stroke="#4B2661" stroke-linecap="round" stroke-linejoin="round"/>
<path d="M26 35H23V38H26V35Z" fill="#F9F9F9" stroke="#4B2661" stroke-linecap="round" stroke-linejoin="round"/>
<path d="M26 3H23V6H26V3Z" fill="#F9F9F9" stroke="#4B2661" stroke-linecap="round" stroke-linejoin="round"/>
<path d="M44 42H41V45H44V42Z" fill="#F9F9F9" stroke="#4B2661" stroke-linecap="round" stroke-linejoin="round"/>
<path d="M65.992 43H63.008C63.0036 43 63 43.0036 63 43.008V45.992C63 45.9964 63.0036 46 63.008 46H65.992C65.9964 46 66 45.9964 66 45.992V43.008C66 43.0036 65.9964 43 65.992 43Z" fill="#F9F9F9" stroke="#4B2661" stroke-linecap="round" stroke-linejoin="round"/>
<path d="M65.992 35H63.008C63.0036 35 63 35.0036 63 35.008V37.992C63 37.9964 63.0036 38 63.008 38H65.992C65.9964 38 66 37.9964 66 37.992V35.008C66 35.0036 65.9964 35 65.992 35Z" fill="#F9F9F9" stroke="#4B2661" stroke-linecap="round" stroke-linejoin="round"/>
<path d="M66.992 10H64.008C64.0036 10 64 10.0036 64 10.008V12.992C64 12.9964 64.0036 13 64.008 13H66.992C66.9964 13 67 12.9964 67 12.992V10.008C67 10.0036 66.9964 10 66.992 10Z" fill="#F9F9F9" stroke="#4B2661" stroke-linecap="round" stroke-linejoin="round"/>
<path d="M124.992 41H122.008C122.004 41 122 41.0036 122 41.008V43.992C122 43.9964 122.004 44 122.008 44H124.992C124.996 44 125 43.9964 125 43.992V41.008C125 41.0036 124.996 41 124.992 41Z" fill="#F9F9F9" stroke="#4B2661" stroke-linecap="round" stroke-linejoin="round"/>
<path d="M121.992 11H119.008C119.004 11 119 11.0036 119 11.008V13.992C119 13.9964 119.004 14 119.008 14H121.992C121.996 14 122 13.9964 122 13.992V11.008C122 11.0036 121.996 11 121.992 11Z" fill="#F9F9F9" stroke="#4B2661" stroke-linecap="round" stroke-linejoin="round"/>
<path d="M116.992 22H114.008C114.004 22 114 22.0036 114 22.008V24.992C114 24.9964 114.004 25 114.008 25H116.992C116.996 25 117 24.9964 117 24.992V22.008C117 22.0036 116.996 22 116.992 22Z" fill="#F9F9F9" stroke="#4B2661" stroke-linecap="round" stroke-linejoin="round"/>
<path d="M124.992 22H122.008C122.004 22 122 22.0036 122 22.008V24.992C122 24.9964 122.004 25 122.008 25H124.992C124.996 25 125 24.9964 125 24.992V22.008C125 22.0036 124.996 22 124.992 22Z" fill="#F9F9F9" stroke="#4B2661" stroke-linecap="round" stroke-linejoin="round"/>
<path d="M124.992 4H122.008C122.004 4 122 4.00358 122 4.008V6.992C122 6.99642 122.004 7 122.008 7H124.992C124.996 7 125 6.99642 125 6.992V4.008C125 4.00358 124.996 4 124.992 4Z" fill="#F9F9F9" stroke="#4B2661" stroke-linecap="round" stroke-linejoin="round"/>
<path d="M63 3H37" stroke="#4B2661" stroke-linecap="round" stroke-linejoin="round"/>
<path d="M66 3H92" stroke="#4B2661" stroke-linecap="round" stroke-linejoin="round"/>
<path d="M67 1H63V5H67V1Z" fill="#F9F9F9" stroke="#4B2661" stroke-linecap="round" stroke-linejoin="round"/>
<path d="M151.992 43H149.008C149.004 43 149 43.0036 149 43.008V45.992C149 45.9964 149.004 46 149.008 46H151.992C151.996 46 152 45.9964 152 45.992V43.008C152 43.0036 151.996 43 151.992 43Z" fill="#F9F9F9" stroke="#4B2661" stroke-linecap="round" stroke-linejoin="round"/>
<path d="M151.992 35H149.008C149.004 35 149 35.0036 149 35.008V37.992C149 37.9964 149.004 38 149.008 38H151.992C151.996 38 152 37.9964 152 37.992V35.008C152 35.0036 151.996 35 151.992 35Z" fill="#F9F9F9" stroke="#4B2661" stroke-linecap="round" stroke-linejoin="round"/>
<path d="M151.992 10.178H149.008C149.004 10.178 149 10.1816 149 10.186V13.17C149 13.1744 149.004 13.178 149.008 13.178H151.992C151.996 13.178 152 13.1744 152 13.17V10.186C152 10.1816 151.996 10.178 151.992 10.178Z" fill="#F9F9F9" stroke="#4B2661" stroke-linecap="round" stroke-linejoin="round"/>
<path d="M151.992 2H149.008C149.004 2 149 2.00358 149 2.008V4.992C149 4.99642 149.004 5 149.008 5H151.992C151.996 5 152 4.99642 152 4.992V2.008C152 2.00358 151.996 2 151.992 2Z" fill="#F9F9F9" stroke="#4B2661" stroke-linecap="round" stroke-linejoin="round"/>
<path d="M38 2H36V4H38V2Z" fill="#F9F9F9" stroke="#4B2661" stroke-linecap="round" stroke-linejoin="round"/>
<path d="M94 2H92V4H94V2Z" fill="#F9F9F9" stroke="#4B2661" stroke-linecap="round" stroke-linejoin="round"/>
</svg>
