<svg width="100" height="100" viewBox="0 0 100 100" fill="none" xmlns="http://www.w3.org/2000/svg">
<rect x="3" y="76.7656" width="65" height="95" rx="3" transform="rotate(-90 3 76.7656)" fill="white" stroke="#4B2661" stroke-width="2" stroke-linecap="round" stroke-linejoin="round"/>
<rect x="8" y="71.7656" width="55" height="85" rx="1" transform="rotate(-90 8 71.7656)" fill="white" stroke="#4B2661" stroke-linecap="round" stroke-linejoin="round"/>
<rect x="40" y="76.7656" width="20" height="12" fill="white" stroke="#4B2661" stroke-width="2" stroke-linecap="round" stroke-linejoin="round"/>
<path d="M25 88.7656H75" stroke="#4B2661" stroke-width="2"/>
<rect x="19" y="35.7656" width="9" height="50" rx="2" transform="rotate(-90 19 35.7656)" fill="#E0DAE3"/>
<rect x="17" y="56.7656" width="32" height="50" rx="2" transform="rotate(-90 17 56.7656)" stroke="#4B2661" stroke-linecap="round" stroke-linejoin="round"/>
<path d="M23.1783 39.2656C22.9021 39.2656 22.6783 39.4895 22.6783 39.7656C22.6783 40.0418 22.9021 40.2656 23.1783 40.2656V39.2656ZM38.4503 40.2656C38.7265 40.2656 38.9503 40.0418 38.9503 39.7656C38.9503 39.4895 38.7265 39.2656 38.4503 39.2656V40.2656ZM23.1783 44.8266C22.9021 44.8266 22.6783 45.0504 22.6783 45.3266C22.6783 45.6027 22.9021 45.8266 23.1783 45.8266V44.8266ZM48.909 45.8266C49.1851 45.8266 49.409 45.6027 49.409 45.3266C49.409 45.0504 49.1851 44.8266 48.909 44.8266V45.8266ZM23.1783 41.8997C22.9021 41.8997 22.6783 42.1236 22.6783 42.3997C22.6783 42.6759 22.9021 42.8997 23.1783 42.8997V41.8997ZM28.8533 42.8997C29.1294 42.8997 29.3533 42.6759 29.3533 42.3997C29.3533 42.1236 29.1294 41.8997 28.8533 41.8997V42.8997ZM31.0223 41.8997C30.7462 41.8997 30.5223 42.1236 30.5223 42.3997C30.5223 42.6759 30.7462 42.8997 31.0223 42.8997V41.8997ZM34.5283 42.8997C34.8045 42.8997 35.0283 42.6759 35.0283 42.3997C35.0283 42.1236 34.8045 41.8997 34.5283 41.8997V42.8997ZM48.909 47.7534C48.6329 47.7534 48.409 47.9773 48.409 48.2534C48.409 48.5295 48.6329 48.7534 48.909 48.7534V47.7534ZM55 48.7534C55.2761 48.7534 55.5 48.5295 55.5 48.2534C55.5 47.9773 55.2761 47.7534 55 47.7534V48.7534ZM40.6193 39.2656C40.3432 39.2656 40.1193 39.4895 40.1193 39.7656C40.1193 40.0418 40.3432 40.2656 40.6193 40.2656V39.2656ZM44.1253 40.2656C44.4015 40.2656 44.6253 40.0418 44.6253 39.7656C44.6253 39.4895 44.4015 39.2656 44.1253 39.2656V40.2656ZM23.1783 47.7534C22.9021 47.7534 22.6783 47.9773 22.6783 48.2534C22.6783 48.5295 22.9021 48.7534 23.1783 48.7534V47.7534ZM38.4503 48.7534C38.7265 48.7534 38.9503 48.5295 38.9503 48.2534C38.9503 47.9773 38.7265 47.7534 38.4503 47.7534V48.7534ZM40.6193 47.7534C40.3432 47.7534 40.1193 47.9773 40.1193 48.2534C40.1193 48.5295 40.3432 48.7534 40.6193 48.7534V47.7534ZM46.74 48.7534C47.0161 48.7534 47.24 48.5295 47.24 48.2534C47.24 47.9773 47.0161 47.7534 46.74 47.7534V48.7534ZM33.9044 52.2656C34.1805 52.2656 34.4044 52.0418 34.4044 51.7656C34.4044 51.4895 34.1805 51.2656 33.9044 51.2656V52.2656ZM23 51.2656C22.7239 51.2656 22.5 51.4895 22.5 51.7656C22.5 52.0418 22.7239 52.2656 23 52.2656V51.2656ZM23.1783 40.2656H38.4503V39.2656H23.1783V40.2656ZM23.1783 45.8266H48.909V44.8266H23.1783V45.8266ZM23.1783 42.8997H28.8533V41.8997H23.1783V42.8997ZM31.0223 42.8997H34.5283V41.8997H31.0223V42.8997ZM48.909 48.7534H55V47.7534H48.909V48.7534ZM40.6193 40.2656H44.1253V39.2656H40.6193V40.2656ZM23.1783 48.7534H38.4503V47.7534H23.1783V48.7534ZM40.6193 48.7534H46.74V47.7534H40.6193V48.7534ZM33.9044 51.2656H23V52.2656H33.9044V51.2656Z" fill="#4B2661"/>
<path d="M17 33.7656H67" stroke="#4B2661"/>
<path d="M22.0022 30.7656C22.5557 30.7656 23.0045 30.3179 23.0045 29.7656C23.0045 29.2133 22.5557 28.7656 22.0022 28.7656C21.4487 28.7656 21 29.2133 21 29.7656C21 30.3179 21.4487 30.7656 22.0022 30.7656Z" fill="#4B2661"/>
<path d="M25.0096 30.7656C25.5631 30.7656 26.0118 30.3179 26.0118 29.7656C26.0118 29.2133 25.5631 28.7656 25.0096 28.7656C24.4561 28.7656 24.0074 29.2133 24.0074 29.7656C24.0074 30.3179 24.4561 30.7656 25.0096 30.7656Z" fill="#4B2661"/>
<path d="M28.0169 30.7656C28.5705 30.7656 29.0192 30.3179 29.0192 29.7656C29.0192 29.2133 28.5705 28.7656 28.0169 28.7656C27.4634 28.7656 27.0147 29.2133 27.0147 29.7656C27.0147 30.3179 27.4634 30.7656 28.0169 30.7656Z" fill="#4B2661"/>
<rect x="49" y="63.5348" width="22.7692" height="35.5769" rx="1.42308" transform="rotate(-90 49 63.5348)" fill="url(#paint0_linear)"/>
<rect x="50.4231" y="48.5925" width="6.40384" height="35.5769" rx="1.42308" transform="rotate(-90 50.4231 48.5925)" fill="#E0DAE3"/>
<rect x="49" y="63.5348" width="22.7692" height="35.5769" rx="1.42308" transform="rotate(-90 49 63.5348)" stroke="#4B2661" stroke-width="0.711538" stroke-linecap="round" stroke-linejoin="round"/>
<path d="M53.3961 51.0387C53.1752 51.0387 52.9961 51.2178 52.9961 51.4387C52.9961 51.6596 53.1752 51.8387 53.3961 51.8387V51.0387ZM64.2627 51.8387C64.4836 51.8387 64.6627 51.6596 64.6627 51.4387C64.6627 51.2178 64.4836 51.0387 64.2627 51.0387V51.8387ZM53.3961 54.9955C53.1752 54.9955 52.9961 55.1746 52.9961 55.3955C52.9961 55.6164 53.1752 55.7955 53.3961 55.7955V54.9955ZM71.7045 55.7955C71.9254 55.7955 72.1045 55.6164 72.1045 55.3955C72.1045 55.1746 71.9254 54.9955 71.7045 54.9955V55.7955ZM53.3961 52.913C53.1752 52.913 52.9961 53.0921 52.9961 53.313C52.9961 53.5339 53.1752 53.713 53.3961 53.713V52.913ZM57.4341 53.713C57.655 53.713 57.8341 53.5339 57.8341 53.313C57.8341 53.0921 57.655 52.913 57.4341 52.913V53.713ZM58.9774 52.913C58.7565 52.913 58.5774 53.0921 58.5774 53.313C58.5774 53.5339 58.7565 53.713 58.9774 53.713V52.913ZM61.4721 53.713C61.693 53.713 61.8721 53.5339 61.8721 53.313C61.8721 53.0921 61.693 52.913 61.4721 52.913V53.713ZM71.7045 57.0781C71.4836 57.0781 71.3045 57.2572 71.3045 57.4781C71.3045 57.699 71.4836 57.8781 71.7045 57.8781V57.0781ZM76.0385 57.8781C76.2594 57.8781 76.4385 57.699 76.4385 57.4781C76.4385 57.2572 76.2594 57.0781 76.0385 57.0781V57.8781ZM65.806 51.0387C65.5851 51.0387 65.406 51.2178 65.406 51.4387C65.406 51.6596 65.5851 51.8387 65.806 51.8387V51.0387ZM68.3007 51.8387C68.5216 51.8387 68.7007 51.6596 68.7007 51.4387C68.7007 51.2178 68.5216 51.0387 68.3007 51.0387V51.8387ZM53.3961 57.0781C53.1752 57.0781 52.9961 57.2572 52.9961 57.4781C52.9961 57.699 53.1752 57.8781 53.3961 57.8781V57.0781ZM64.2627 57.8781C64.4836 57.8781 64.6627 57.699 64.6627 57.4781C64.6627 57.2572 64.4836 57.0781 64.2627 57.0781V57.8781ZM65.806 57.0781C65.5851 57.0781 65.406 57.2572 65.406 57.4781C65.406 57.699 65.5851 57.8781 65.806 57.8781V57.0781ZM70.1611 57.8781C70.3821 57.8781 70.5611 57.699 70.5611 57.4781C70.5611 57.2572 70.3821 57.0781 70.1611 57.0781V57.8781ZM61.0281 60.3772C61.249 60.3772 61.4281 60.1981 61.4281 59.9772C61.4281 59.7563 61.249 59.5772 61.0281 59.5772V60.3772ZM53.2692 59.5772C53.0483 59.5772 52.8692 59.7563 52.8692 59.9772C52.8692 60.1981 53.0483 60.3772 53.2692 60.3772V59.5772ZM53.3961 51.8387H64.2627V51.0387H53.3961V51.8387ZM53.3961 55.7955H71.7045V54.9955H53.3961V55.7955ZM53.3961 53.713H57.4341V52.913H53.3961V53.713ZM58.9774 53.713H61.4721V52.913H58.9774V53.713ZM71.7045 57.8781H76.0385V57.0781H71.7045V57.8781ZM65.806 51.8387H68.3007V51.0387H65.806V51.8387ZM53.3961 57.8781H64.2627V57.0781H53.3961V57.8781ZM65.806 57.8781H70.1611V57.0781H65.806V57.8781ZM61.0281 59.5772H53.2692V60.3772H61.0281V59.5772Z" fill="#4B2661"/>
<path d="M49 47.1695H84.5769" stroke="#4B2661" stroke-width="0.711538"/>
<path d="M52.5593 45.0349C52.9531 45.0349 53.2724 44.7163 53.2724 44.3233C53.2724 43.9304 52.9531 43.6118 52.5593 43.6118C52.1654 43.6118 51.8461 43.9304 51.8461 44.3233C51.8461 44.7163 52.1654 45.0349 52.5593 45.0349Z" fill="#4B2661"/>
<path d="M54.6999 45.0353C55.0937 45.0353 55.413 44.7167 55.413 44.3238C55.413 43.9308 55.0937 43.6122 54.6999 43.6122C54.306 43.6122 53.9868 43.9308 53.9868 44.3238C53.9868 44.7167 54.306 45.0353 54.6999 45.0353Z" fill="#4B2661"/>
<path d="M56.8401 45.0353C57.2339 45.0353 57.5532 44.7167 57.5532 44.3238C57.5532 43.9308 57.2339 43.6122 56.8401 43.6122C56.4462 43.6122 56.127 43.9308 56.127 44.3238C56.127 44.7167 56.4462 45.0353 56.8401 45.0353Z" fill="#4B2661"/>
<defs>
<linearGradient id="paint0_linear" x1="60.3846" y1="63.5348" x2="60.3846" y2="99.1118" gradientUnits="userSpaceOnUse">
<stop stop-color="white"/>
<stop offset="1" stop-color="#F9F9F9"/>
</linearGradient>
</defs>
</svg>
