<svg width="159" height="79" viewBox="0 0 159 79" fill="none" xmlns="http://www.w3.org/2000/svg">
<path d="M106 24.812H90" stroke="#4B2661" stroke-linecap="round" stroke-linejoin="round"/>
<path d="M106 27.812H88" stroke="#4B2661" stroke-linecap="round" stroke-linejoin="round"/>
<path d="M106 30.812H92" stroke="#4B2661" stroke-linecap="round" stroke-linejoin="round"/>
<path d="M79 47H106" stroke="#4B2661" stroke-linecap="round" stroke-linejoin="round"/>
<path d="M79 43H106" stroke="#4B2661" stroke-linecap="round" stroke-linejoin="round"/>
<path d="M79 55H101" stroke="#4B2661" stroke-linecap="round" stroke-linejoin="round"/>
<path d="M79 51H106" stroke="#4B2661" stroke-linecap="round" stroke-linejoin="round"/>
<path d="M79 39H93" stroke="#4B2661" stroke-linecap="round" stroke-linejoin="round"/>
<path d="M125 52H116" stroke="#4B2661" stroke-linecap="round" stroke-linejoin="round"/>
<path d="M119.214 55H116" stroke="#4B2661" stroke-linecap="round" stroke-linejoin="round"/>
<path d="M67 45H53" stroke="#4B2661" stroke-linecap="round" stroke-linejoin="round"/>
<path d="M67 48H62" stroke="#4B2661" stroke-linecap="round" stroke-linejoin="round"/>
<path d="M34 24.999H42" stroke="#4B2661" stroke-linecap="round" stroke-linejoin="round"/>
<path d="M34 28H40.222" stroke="#4B2661" stroke-linecap="round" stroke-linejoin="round"/>
<path d="M34 31H36.222" stroke="#4B2661" stroke-linecap="round" stroke-linejoin="round"/>
<path d="M20 55.999H28" stroke="#4B2661" stroke-linecap="round" stroke-linejoin="round"/>
<path d="M20 59H33" stroke="#4B2661" stroke-linecap="round" stroke-linejoin="round"/>
<path d="M20 62H22.222" stroke="#4B2661" stroke-linecap="round" stroke-linejoin="round"/>
<path d="M12 25L2 37" stroke="#4B2661" stroke-linecap="round" stroke-linejoin="round"/>
<path d="M82 63.608V77C82 77.5304 81.7894 78.0391 81.4143 78.4142C81.0392 78.7892 80.5304 79 80 79H68C67.4696 79 66.9608 78.7892 66.5857 78.4142C66.2106 78.0391 66 77.5304 66 77V71.108C65.9993 70.7681 66.0853 70.4337 66.2498 70.1362C66.4142 69.8388 66.6517 69.5882 66.9399 69.408L78.9399 61.908C79.243 61.7186 79.5913 61.6139 79.9485 61.6047C80.3057 61.5955 80.6588 61.6821 80.9712 61.8556C81.2836 62.0292 81.5439 62.2833 81.7249 62.5915C81.9058 62.8997 82.0007 63.2506 82 63.608Z" fill="#C5BACC"/>
<path d="M79 58L63 68V77H79V58Z" stroke="#4B2661" stroke-linecap="round" stroke-linejoin="round"/>
<path d="M41.9 79.0001H63.0001C63.5305 79.0001 64.0393 78.7893 64.4144 78.4143C64.7894 78.0392 65.0001 77.5305 65.0001 77.0001V63.6341C65.0001 63.276 64.9041 62.9245 64.722 62.6163C64.5398 62.3081 64.2783 62.0544 63.9647 61.8817C63.651 61.7091 63.2966 61.6238 62.9388 61.6347C62.5809 61.6457 62.2325 61.7525 61.93 61.9441L40.8301 75.3101C40.4639 75.5418 40.1829 75.8862 40.0294 76.2915C39.8758 76.6967 39.8581 77.1409 39.9788 77.5571C40.0995 77.9733 40.352 78.339 40.6985 78.5993C41.0451 78.8595 41.4666 79.0002 41.9 79.0001Z" fill="#C5BACC"/>
<path d="M63 58L33 77H63V58Z" stroke="#4B2661" stroke-linecap="round" stroke-linejoin="round"/>
<path d="M118 36.7271H127C127.53 36.7271 128.039 36.9378 128.414 37.3128C128.789 37.6879 129 38.1966 129 38.7271V42.0001C129 42.5305 128.789 43.0392 128.414 43.4143C128.039 43.7893 127.53 44.0001 127 44.0001H118V36.7271Z" fill="#C5BACC"/>
<path d="M159 55C159 60.5695 156.787 65.911 152.849 69.8492C148.911 73.7875 143.57 76 138 76V61C139.591 61 141.117 60.3678 142.243 59.2426C143.368 58.1174 144 56.5913 144 55C144 53.4087 143.368 51.8826 142.243 50.7574C141.117 49.6322 139.591 49 138 49V34C143.57 34 148.911 36.2125 152.849 40.1508C156.787 44.089 159 49.4305 159 55Z" fill="#C5BACC"/>
<path d="M13 27V40C12.9984 40.5299 12.7871 41.0377 12.4124 41.4125C12.0376 41.7872 11.5299 41.9984 11 42H5C4.47005 41.9984 3.96238 41.7872 3.58765 41.4125C3.21292 41.0377 3.00158 40.5299 3 40V39L13 27Z" fill="#C5BACC"/>
<path d="M116 70H85C83.8954 70 83 70.8954 83 72V77C83 78.1046 83.8954 79 85 79H116C117.105 79 118 78.1046 118 77V72C118 70.8954 117.105 70 116 70Z" fill="#C5BACC"/>
<path d="M79 29V75C78.9984 75.5299 78.7871 76.0377 78.4124 76.4125C78.0376 76.7872 77.5299 76.9984 77 77H61C61.5299 76.9984 62.0376 76.7872 62.4124 76.4125C62.7871 76.0377 62.9984 75.5299 63 75V50C62.9984 49.4701 62.7871 48.9623 62.4124 48.5875C62.0376 48.2128 61.5299 48.0016 61 48H40V36H45C45.5299 35.9984 46.0376 35.7872 46.4124 35.4125C46.7871 35.0377 46.9984 34.5299 47 34V27H77C77.5299 27.0016 78.0376 27.2128 78.4124 27.5875C78.7871 27.9623 78.9984 28.4701 79 29V29Z" stroke="#4B2661" stroke-width="2" stroke-linecap="round" stroke-linejoin="round"/>
<path d="M61 48H3C1.89543 48 1 48.8954 1 50V75C1 76.1046 1.89543 77 3 77H61C62.1046 77 63 76.1046 63 75V50C63 48.8954 62.1046 48 61 48Z" stroke="#4B2661" stroke-width="2" stroke-linecap="round" stroke-linejoin="round"/>
<path d="M116 3V75C115.998 75.5299 115.787 76.0377 115.412 76.4125C115.038 76.7872 114.53 76.9984 114 77H77C77.5299 76.9984 78.0376 76.7872 78.4124 76.4125C78.7871 76.0377 78.9984 75.5299 79 75V29C78.9984 28.4701 78.7871 27.9623 78.4124 27.5875C78.0376 27.2128 77.5299 27.0016 77 27H56V3C56.0016 2.47005 56.2129 1.96225 56.5876 1.58752C56.9624 1.21279 57.4701 1.00158 58 1H114C114.53 1.00158 115.038 1.21279 115.412 1.58752C115.787 1.96225 115.998 2.47005 116 3V3Z" stroke="#4B2661" stroke-width="2" stroke-linecap="round" stroke-linejoin="round"/>
<path d="M45 21H23C21.8954 21 21 21.8954 21 23V34C21 35.1046 21.8954 36 23 36H45C46.1046 36 47 35.1046 47 34V23C47 21.8954 46.1046 21 45 21Z" stroke="#4B2661" stroke-width="2" stroke-linecap="round" stroke-linejoin="round"/>
<path d="M45 1H23C21.8954 1 21 1.89543 21 3V14C21 15.1046 21.8954 16 23 16H45C46.1046 16 47 15.1046 47 14V3C47 1.89543 46.1046 1 45 1Z" stroke="#4B2661" stroke-width="2" stroke-linecap="round" stroke-linejoin="round"/>
<path d="M10 21H4C2.89543 21 2 21.8954 2 23V38C2 39.1046 2.89543 40 4 40H10C11.1046 40 12 39.1046 12 38V23C12 21.8954 11.1046 21 10 21Z" stroke="#4B2661" stroke-width="2" stroke-linecap="round" stroke-linejoin="round"/>
<path d="M9 15H5C4.44772 15 4 15.4477 4 16V20C4 20.5523 4.44772 21 5 21H9C9.55228 21 10 20.5523 10 20V16C10 15.4477 9.55228 15 9 15Z" stroke="#4B2661" stroke-linecap="round" stroke-linejoin="round"/>
<path d="M135 29V75C134.998 75.5299 134.787 76.0377 134.412 76.4125C134.038 76.7872 133.53 76.9984 133 77H114C114.53 76.9984 115.038 76.7872 115.412 76.4125C115.787 76.0377 115.998 75.5299 116 75V27H133C133.53 27.0016 134.038 27.2128 134.412 27.5875C134.787 27.9623 134.998 28.4701 135 29Z" stroke="#4B2661" stroke-width="2" stroke-linecap="round" stroke-linejoin="round"/>
<path d="M141 52C141 53.5913 140.368 55.1174 139.243 56.2426C138.117 57.3678 136.591 58 135 58V46C136.591 46 138.117 46.6322 139.243 47.7574C140.368 48.8826 141 50.4087 141 52Z" stroke="#4B2661" stroke-width="2" stroke-linecap="round" stroke-linejoin="round"/>
<path d="M156 52C156 57.5695 153.787 62.911 149.849 66.8492C145.911 70.7875 140.57 73 135 73V31C140.57 31 145.911 33.2125 149.849 37.1508C153.787 41.089 156 46.4305 156 52V52Z" stroke="#4B2661" stroke-width="2" stroke-linecap="round" stroke-linejoin="round"/>
<path d="M106 11H90C88.8954 11 88 11.8954 88 13V19C88 20.1046 88.8954 21 90 21H106C107.105 21 108 20.1046 108 19V13C108 11.8954 107.105 11 106 11Z" fill="#C5BACC"/>
<path d="M104 10H88C86.8954 10 86 10.8954 86 12V18C86 19.1046 86.8954 20 88 20H104C105.105 20 106 19.1046 106 18V12C106 10.8954 105.105 10 104 10Z" stroke="#4B2661" stroke-linecap="round" stroke-linejoin="round"/>
<path d="M69 33.7271H54.818C53.7134 33.7271 52.818 34.6225 52.818 35.7271V39.0001C52.818 40.1046 53.7134 41.0001 54.818 41.0001H69C70.1046 41.0001 71 40.1046 71 39.0001V35.7271C71 34.6225 70.1046 33.7271 69 33.7271Z" fill="#C5BACC"/>
<path d="M67.182 33H53C51.8954 33 51 33.8954 51 35V38.273C51 39.3776 51.8954 40.273 53 40.273H67.182C68.2866 40.273 69.182 39.3776 69.182 38.273V35C69.182 33.8954 68.2866 33 67.182 33Z" stroke="#4B2661" stroke-linecap="round" stroke-linejoin="round"/>
<path d="M116 36H125.182C125.712 36 126.221 36.2107 126.596 36.5858C126.971 36.9609 127.182 37.4696 127.182 38V41.273C127.182 41.8034 126.971 42.3121 126.596 42.6872C126.221 43.0623 125.712 43.273 125.182 43.273H116V36Z" stroke="#4B2661" stroke-linecap="round" stroke-linejoin="round"/>
<path d="M39 6H31C30.4477 6 30 6.44772 30 7V11C30 11.5523 30.4477 12 31 12H39C39.5523 12 40 11.5523 40 11V7C40 6.44772 39.5523 6 39 6Z" fill="#C5BACC"/>
<path d="M38 5H30C29.4477 5 29 5.44772 29 6V10C29 10.5523 29.4477 11 30 11H38C38.5523 11 39 10.5523 39 10V6C39 5.44772 38.5523 5 38 5Z" stroke="#4B2661" stroke-linecap="round" stroke-linejoin="round"/>
<path d="M31 26H27C26.4477 26 26 26.4477 26 27V31C26 31.5523 26.4477 32 27 32H31C31.5523 32 32 31.5523 32 31V27C32 26.4477 31.5523 26 31 26Z" fill="#C5BACC"/>
<path d="M30 25H26C25.4477 25 25 25.4477 25 26V30C25 30.5523 25.4477 31 26 31H30C30.5523 31 31 30.5523 31 30V26C31 25.4477 30.5523 25 30 25Z" stroke="#4B2661" stroke-linecap="round" stroke-linejoin="round"/>
<path d="M17 57H11C10.4477 57 10 57.4477 10 58V64C10 64.5523 10.4477 65 11 65H17C17.5523 65 18 64.5523 18 64V58C18 57.4477 17.5523 57 17 57Z" fill="#C5BACC"/>
<path d="M16 55H10C9.44772 55 9 55.4477 9 56V62C9 62.5523 9.44772 63 10 63H16C16.5523 63 17 62.5523 17 62V56C17 55.4477 16.5523 55 16 55Z" stroke="#4B2661" stroke-linecap="round" stroke-linejoin="round"/>
<path d="M116 68H79V77H116V68Z" stroke="#4B2661" stroke-linecap="round" stroke-linejoin="round"/>
<path d="M141.66 10.66C141.661 12.2432 141.193 13.7911 140.314 15.1078C139.435 16.4246 138.185 17.451 136.722 18.057C135.26 18.663 133.65 18.8214 132.098 18.5122C130.545 18.203 129.119 17.4401 128 16.32L139.32 5C140.819 6.50251 141.66 8.53796 141.66 10.66Z" fill="#C5BACC"/>
<path d="M140 9.00009C140.001 10.5833 139.533 12.1312 138.654 13.4479C137.775 14.7647 136.525 15.791 135.062 16.3971C133.6 17.0031 131.99 17.1615 130.438 16.8523C128.885 16.5431 127.459 15.7802 126.34 14.6601L137.66 3.34009C139.159 4.84253 140 6.87803 140 9.00009V9.00009Z" stroke="#4B2661" stroke-linecap="round" stroke-linejoin="round"/>
<path d="M132 17C136.418 17 140 13.4183 140 9C140 4.58172 136.418 1 132 1C127.582 1 124 4.58172 124 9C124 13.4183 127.582 17 132 17Z" stroke="#4B2661" stroke-width="2" stroke-linecap="round" stroke-linejoin="round"/>
</svg>
