<svg width="171" height="104" viewBox="0 0 171 104" fill="none" xmlns="http://www.w3.org/2000/svg">
<path d="M40 93H15C13.8954 93 13 93.8954 13 95V102C13 103.105 13.8954 104 15 104H40C41.1046 104 42 103.105 42 102V95C42 93.8954 41.1046 93 40 93Z" fill="#E0DAE3"/>
<path d="M11 101V93C11 92.4696 11.2106 91.9609 11.5857 91.5858C11.9608 91.2107 12.4696 91 13 91H39C39.5304 91 40.0392 91.2107 40.4143 91.5858C40.7894 91.9609 41 92.4696 41 93V101" stroke="#4B2661" stroke-linecap="round" stroke-linejoin="round"/>
<path d="M21 101L12 92" stroke="#4B2661" stroke-linecap="round" stroke-linejoin="round"/>
<path d="M31 101L40 92" stroke="#4B2661" stroke-linecap="round" stroke-linejoin="round"/>
<path d="M80 93H55C53.8954 93 53 93.8954 53 95V102C53 103.105 53.8954 104 55 104H80C81.1046 104 82 103.105 82 102V95C82 93.8954 81.1046 93 80 93Z" fill="#E0DAE3"/>
<path d="M51 101V93C51 92.4696 51.2106 91.9609 51.5857 91.5858C51.9608 91.2107 52.4696 91 53 91H79C79.5304 91 80.0392 91.2107 80.4143 91.5858C80.7894 91.9609 81 92.4696 81 93V101" stroke="#4B2661" stroke-linecap="round" stroke-linejoin="round"/>
<path d="M61 101L52 92" stroke="#4B2661" stroke-linecap="round" stroke-linejoin="round"/>
<path d="M71 101L80 92" stroke="#4B2661" stroke-linecap="round" stroke-linejoin="round"/>
<path d="M120 93H95C93.8954 93 93 93.8954 93 95V102C93 103.105 93.8954 104 95 104H120C121.105 104 122 103.105 122 102V95C122 93.8954 121.105 93 120 93Z" fill="#E0DAE3"/>
<path d="M91 101V93C91 92.4696 91.2106 91.9609 91.5857 91.5858C91.9608 91.2107 92.4696 91 93 91H119C119.53 91 120.039 91.2107 120.414 91.5858C120.789 91.9609 121 92.4696 121 93V101" stroke="#4B2661" stroke-linecap="round" stroke-linejoin="round"/>
<path d="M101 101L92 92" stroke="#4B2661" stroke-linecap="round" stroke-linejoin="round"/>
<path d="M111 101L120 92" stroke="#4B2661" stroke-linecap="round" stroke-linejoin="round"/>
<path d="M31 27H14C12.8954 27 12 27.8954 12 29V37C12 38.1046 12.8954 39 14 39H31C32.1046 39 33 38.1046 33 37V29C33 27.8954 32.1046 27 31 27Z" fill="#E0DAE3"/>
<path d="M40 47H15C13.8954 47 13 47.8954 13 49V77C13 78.1046 13.8954 79 15 79H40C41.1046 79 42 78.1046 42 77V49C42 47.8954 41.1046 47 40 47Z" fill="#E0DAE3"/>
<path d="M80 47H55C53.8954 47 53 47.8954 53 49V77C53 78.1046 53.8954 79 55 79H80C81.1046 79 82 78.1046 82 77V49C82 47.8954 81.1046 47 80 47Z" fill="#E0DAE3"/>
<path d="M121 47H96C94.8954 47 94 47.8954 94 49V77C94 78.1046 94.8954 79 96 79H121C122.105 79 123 78.1046 123 77V49C123 47.8954 122.105 47 121 47Z" fill="#E0DAE3"/>
<path d="M126 1H5C2.79086 1 1 2.79086 1 5V97C1 99.2091 2.79086 101 5 101H126C128.209 101 130 99.2091 130 97V5C130 2.79086 128.209 1 126 1Z" stroke="#4B2661" stroke-width="2" stroke-linecap="round" stroke-linejoin="round"/>
<path d="M2 17H130" stroke="#4B2661" stroke-width="2" stroke-linecap="round" stroke-linejoin="round"/>
<path d="M10 12C11.6569 12 13 10.6569 13 9C13 7.34315 11.6569 6 10 6C8.34315 6 7 7.34315 7 9C7 10.6569 8.34315 12 10 12Z" fill="#4B2661"/>
<path d="M19 12C20.6569 12 22 10.6569 22 9C22 7.34315 20.6569 6 19 6C17.3431 6 16 7.34315 16 9C16 10.6569 17.3431 12 19 12Z" fill="#4B2661"/>
<path d="M28 12C29.6569 12 31 10.6569 31 9C31 7.34315 29.6569 6 28 6C26.3431 6 25 7.34315 25 9C25 10.6569 26.3431 12 28 12Z" fill="#4B2661"/>
<path d="M119 26H36C34.8954 26 34 26.8954 34 28V34C34 35.1046 34.8954 36 36 36H119C120.105 36 121 35.1046 121 34V28C121 26.8954 120.105 26 119 26Z" stroke="#4B2661" stroke-linecap="round" stroke-linejoin="round" stroke-dasharray="2 2"/>
<path d="M39 45H13C11.8954 45 11 45.8954 11 47V73C11 74.1046 11.8954 75 13 75H39C40.1046 75 41 74.1046 41 73V47C41 45.8954 40.1046 45 39 45Z" stroke="#4B2661" stroke-linecap="round" stroke-linejoin="round"/>
<path d="M39 77H13C11.8954 77 11 77.8954 11 79V83C11 84.1046 11.8954 85 13 85H39C40.1046 85 41 84.1046 41 83V79C41 77.8954 40.1046 77 39 77Z" stroke="#4B2661" stroke-linecap="round" stroke-linejoin="round" stroke-dasharray="2 2"/>
<path d="M14 80H26.069" stroke="#4B2661" stroke-linecap="round" stroke-linejoin="round"/>
<path d="M14 82H22" stroke="#4B2661" stroke-linecap="round" stroke-linejoin="round"/>
<path d="M32.104 80H39.001" stroke="#4B2661" stroke-linecap="round" stroke-linejoin="round"/>
<path d="M40 74L12 46" stroke="#4B2661" stroke-linecap="round" stroke-linejoin="round"/>
<path d="M12 74L40 46" stroke="#4B2661" stroke-linecap="round" stroke-linejoin="round"/>
<path d="M79 45H53C51.8954 45 51 45.8954 51 47V73C51 74.1046 51.8954 75 53 75H79C80.1046 75 81 74.1046 81 73V47C81 45.8954 80.1046 45 79 45Z" stroke="#4B2661" stroke-linecap="round" stroke-linejoin="round"/>
<path d="M79 77H53C51.8954 77 51 77.8954 51 79V83C51 84.1046 51.8954 85 53 85H79C80.1046 85 81 84.1046 81 83V79C81 77.8954 80.1046 77 79 77Z" stroke="#4B2661" stroke-linecap="round" stroke-linejoin="round" stroke-dasharray="2 2"/>
<path d="M54 80H66.069" stroke="#4B2661" stroke-linecap="round" stroke-linejoin="round"/>
<path d="M54 82H62" stroke="#4B2661" stroke-linecap="round" stroke-linejoin="round"/>
<path d="M72.104 80H79.001" stroke="#4B2661" stroke-linecap="round" stroke-linejoin="round"/>
<path d="M80 74L52 46" stroke="#4B2661" stroke-linecap="round" stroke-linejoin="round"/>
<path d="M52 74L80 46" stroke="#4B2661" stroke-linecap="round" stroke-linejoin="round"/>
<path d="M119 45H93C91.8954 45 91 45.8954 91 47V73C91 74.1046 91.8954 75 93 75H119C120.105 75 121 74.1046 121 73V47C121 45.8954 120.105 45 119 45Z" stroke="#4B2661" stroke-linecap="round" stroke-linejoin="round"/>
<path d="M119 77H93C91.8954 77 91 77.8954 91 79V83C91 84.1046 91.8954 85 93 85H119C120.105 85 121 84.1046 121 83V79C121 77.8954 120.105 77 119 77Z" stroke="#4B2661" stroke-linecap="round" stroke-linejoin="round" stroke-dasharray="2 2"/>
<path d="M94 80H106.069" stroke="#4B2661" stroke-linecap="round" stroke-linejoin="round"/>
<path d="M94 82H102" stroke="#4B2661" stroke-linecap="round" stroke-linejoin="round"/>
<path d="M112.104 80H119.001" stroke="#4B2661" stroke-linecap="round" stroke-linejoin="round"/>
<path d="M120 74L92 46" stroke="#4B2661" stroke-linecap="round" stroke-linejoin="round"/>
<path d="M92 74L120 46" stroke="#4B2661" stroke-linecap="round" stroke-linejoin="round"/>
<path d="M169 4H144C142.895 4 142 4.89543 142 6V34C142 35.1046 142.895 36 144 36H169C170.105 36 171 35.1046 171 34V6C171 4.89543 170.105 4 169 4Z" fill="#E0DAE3"/>
<path d="M167 2H141C139.895 2 139 2.89543 139 4V30C139 31.1046 139.895 32 141 32H167C168.105 32 169 31.1046 169 30V4C169 2.89543 168.105 2 167 2Z" stroke="#4B2661" stroke-linecap="round" stroke-linejoin="round"/>
<path d="M167 34H141C139.895 34 139 34.8954 139 36V40C139 41.1046 139.895 42 141 42H167C168.105 42 169 41.1046 169 40V36C169 34.8954 168.105 34 167 34Z" stroke="#4B2661" stroke-linecap="round" stroke-linejoin="round" stroke-dasharray="2 2"/>
<path d="M142 37H154.069" stroke="#4B2661" stroke-linecap="round" stroke-linejoin="round"/>
<path d="M142 39H150" stroke="#4B2661" stroke-linecap="round" stroke-linejoin="round"/>
<path d="M160.104 37H167.001" stroke="#4B2661" stroke-linecap="round" stroke-linejoin="round"/>
<path d="M168 31L140 3" stroke="#4B2661" stroke-linecap="round" stroke-linejoin="round"/>
<path d="M140 31L168 3" stroke="#4B2661" stroke-linecap="round" stroke-linejoin="round"/>
<path d="M169 54H144C142.895 54 142 54.8954 142 56V84C142 85.1046 142.895 86 144 86H169C170.105 86 171 85.1046 171 84V56C171 54.8954 170.105 54 169 54Z" fill="#E0DAE3"/>
<path d="M167 52H141C139.895 52 139 52.8954 139 54V80C139 81.1046 139.895 82 141 82H167C168.105 82 169 81.1046 169 80V54C169 52.8954 168.105 52 167 52Z" stroke="#4B2661" stroke-linecap="round" stroke-linejoin="round"/>
<path d="M167 84H141C139.895 84 139 84.8954 139 86V90C139 91.1046 139.895 92 141 92H167C168.105 92 169 91.1046 169 90V86C169 84.8954 168.105 84 167 84Z" stroke="#4B2661" stroke-linecap="round" stroke-linejoin="round" stroke-dasharray="2 2"/>
<path d="M142 87H154.069" stroke="#4B2661" stroke-linecap="round" stroke-linejoin="round"/>
<path d="M142 89H150" stroke="#4B2661" stroke-linecap="round" stroke-linejoin="round"/>
<path d="M160.104 87H167.001" stroke="#4B2661" stroke-linecap="round" stroke-linejoin="round"/>
<path d="M168 81L140 53" stroke="#4B2661" stroke-linecap="round" stroke-linejoin="round"/>
<path d="M140 81L168 53" stroke="#4B2661" stroke-linecap="round" stroke-linejoin="round"/>
<path d="M29 26H13C11.8954 26 11 26.8954 11 28V34C11 35.1046 11.8954 36 13 36H29C30.1046 36 31 35.1046 31 34V28C31 26.8954 30.1046 26 29 26Z" stroke="#4B2661" stroke-linecap="round" stroke-linejoin="round"/>
<path d="M30 35.666L11.667 26.333" stroke="#4B2661" stroke-linecap="round" stroke-linejoin="round"/>
<path d="M11.667 35.666L30 26.333" stroke="#4B2661" stroke-linecap="round" stroke-linejoin="round"/>
<path d="M135 29C132 53.286 126 59 126 59" stroke="#4B2661" stroke-linecap="round" stroke-linejoin="round"/>
<path d="M133 30L135 29L136 31" stroke="#4B2661" stroke-linecap="round" stroke-linejoin="round"/>
<path d="M136.136 71.3709C131.113 65.2539 126 65.9999 126 65.9999" stroke="#4B2661" stroke-linecap="round" stroke-linejoin="round"/>
<path d="M133.914 71.1239L136.136 71.3709L136.383 69.1489" stroke="#4B2661" stroke-linecap="round" stroke-linejoin="round"/>
</svg>
