<svg width="100" height="101" viewBox="0 0 100 101" fill="none" xmlns="http://www.w3.org/2000/svg">
<path d="M10.9763 86.8199L26.0193 58.7735C27.1507 56.6642 30.1754 56.6642 31.3067 58.7735L45.918 86.0149C46.99 88.0134 45.5422 90.4329 43.2743 90.4329H18.2062" stroke="#4B2661" stroke-width="2" stroke-linecap="round" stroke-linejoin="round"/>
<path d="M29.135 56.2162C30.7262 56.2162 32.3173 61.591 32.3173 61.591C32.3173 61.591 30.7262 63.2531 29.135 63.2531C27.5439 63.2531 25.9528 61.591 25.9528 61.591C25.9528 61.591 27.5439 56.2162 29.135 56.2162Z" fill="#E0DAE3"/>
<path d="M28.8291 55.3308C30.0012 55.3308 32.3174 60.7219 32.3174 60.7219C32.3174 60.7219 30.365 62.1604 28.8291 62.1604C27.2933 62.1604 25.1599 60.4866 25.1599 60.4866C25.1599 60.4866 27.6571 55.3308 28.8291 55.3308Z" stroke="#4B2661" stroke-width="2" stroke-linecap="round" stroke-linejoin="round"/>
<path d="M18.3437 72.1383L23.4188 77.1606L28.494 72.1383L33.5691 77.1606L38.6442 72.1383" stroke="#4B2661"/>
<path d="M55.9776 34.1845L26.3186 89.4808C25.2466 91.4794 26.6944 93.8988 28.9623 93.8988H89.3799C91.1504 93.8988 92.2806 92.01 91.4438 90.4498L89.5938 87.0008L61.265 34.1845C60.1337 32.0752 57.109 32.0752 55.9776 34.1845Z" fill="white" stroke="#4B2661" stroke-width="2" stroke-linecap="round" stroke-linejoin="round"/>
<path d="M59.456 33.4462C62.2671 33.4462 65.0782 42.9423 65.0782 42.9423C65.0782 42.9423 62.2671 45.8787 59.456 45.8787C56.6448 45.8787 53.8337 42.9423 53.8337 42.9423C53.8337 42.9423 56.6448 33.4462 59.456 33.4462Z" fill="#E0DAE3"/>
<path d="M58.9161 31.8808C60.9869 31.8808 65.079 41.4056 65.079 41.4056C65.079 41.4056 61.6296 43.9472 58.9161 43.9472C56.2025 43.9472 52.4333 40.99 52.4333 40.99C52.4333 40.99 56.8453 31.8808 58.9161 31.8808Z" stroke="#4B2661" stroke-width="2" stroke-linecap="round" stroke-linejoin="round"/>
<path d="M40.3909 61.5777L49.3576 70.4509L58.3242 61.5777L67.2909 70.4509L76.2575 61.5777" stroke="#4B2661"/>
<path d="M97.3668 99.5856C97.3668 99.5856 12.377 99.6734 5.10761 99.5856C3.04331 94.7891 10.941 89.46 14.8029 90.5293C17.226 85.7335 22.97 86.0002 26.2009 88.1314C29.2523 83.1581 39.0464 84.1349 40.9306 88.1314C43.2745 86.4042 47.3009 87.8869 47.3009 87.8869C49.4737 85.2444 54.6891 85.6465 56.4836 88.4684C60.3252 83.6096 61.7991 83.7617 66.8532 88.8416C69.2763 86.441 75.2898 83.7765 82.1104 92.1246C95.5716 79.5775 97.3668 99.5856 97.3668 99.5856Z" fill="#E0DAE3"/>
<path d="M44.4634 85.5158C40.5609 77.167 25.0418 80.3843 27.5374 92.8857" stroke="#4B2661" stroke-width="2" stroke-linecap="round"/>
<path d="M54.6188 85.5158C58.5213 77.167 74.0404 80.3843 71.5449 92.8857" stroke="#4B2661" stroke-width="2" stroke-linecap="round"/>
<path d="M17.3821 90.8761C14.4652 85.5782 1.60473 85.3864 2.31786 98.1097" stroke="#4B2661" stroke-width="2" stroke-linecap="round"/>
<path d="M81.7015 90.8763C84.6184 85.5776 97.4789 85.3864 96.7658 98.1099" stroke="#4B2661" stroke-width="2" stroke-linecap="round"/>
<path d="M28.0236 86.4175C27.1679 79.2716 15.4849 81.0093 14.6728 88.1959" stroke="#4B2661" stroke-width="2" stroke-linecap="round"/>
<path d="M71.0569 86.4168C71.9126 79.2709 83.5957 81.0093 84.4111 88.1948" stroke="#4B2661" stroke-width="2" stroke-linecap="round"/>
<path d="M56.6512 95.5656C58.7449 85.8827 41.6304 82.4809 41.7562 92.2154" stroke="#4B2661" stroke-width="2" stroke-linecap="round"/>
<path d="M15.3503 96.9052C14.7531 93.5613 17.3651 89.7182 21.2696 90.8753" stroke="#4B2661" stroke-linecap="round"/>
<path d="M37.0797 95.5693C38.897 92.6889 43.4367 91.5625 45.5559 95.0078" stroke="#4B2661" stroke-linecap="round"/>
<path d="M65.9569 94.3381C68.6965 92.2935 73.3426 92.8517 74.0734 96.8197" stroke="#4B2661" stroke-linecap="round"/>
<path d="M59.4226 91.5485C60.8817 83.3885 70.7591 88.8538 67.484 93.5546" stroke="#4B2661" stroke-linecap="round"/>
<path d="M30.6376 89.9042C30.0979 86.5502 32.7759 82.751 36.6605 83.9738" stroke="#4B2661" stroke-width="1.00014" stroke-linecap="round"/>
<path d="M58.5905 5.02429L58.5905 30.6246" stroke="#4B2661" stroke-width="2" stroke-linecap="round" stroke-linejoin="round"/>
<path d="M60.9504 17.6945L83.0596 17.6945L76.6838 12.6501L83.0596 7.6058L60.9504 7.6058L60.9504 12.6501L60.9504 17.6945Z" fill="#E0DAE3"/>
<path d="M61.2101 15.1129L83.3194 15.1129L76.9435 10.0686L83.3194 5.02428L61.2101 5.02429L61.2101 10.0686L61.2101 15.1129Z" stroke="#4B2661" stroke-width="2" stroke-linecap="round" stroke-linejoin="round"/>
</svg>
