<svg width="208" height="106" viewBox="0 0 208 106" fill="none" xmlns="http://www.w3.org/2000/svg">
<path d="M37 18H165" stroke="#4B2661" stroke-width="2" stroke-linecap="round" stroke-linejoin="round"/>
<path d="M45 13C46.6569 13 48 11.6569 48 10C48 8.34315 46.6569 7 45 7C43.3431 7 42 8.34315 42 10C42 11.6569 43.3431 13 45 13Z" fill="#4B2661"/>
<path d="M54 13C55.6569 13 57 11.6569 57 10C57 8.34315 55.6569 7 54 7C52.3431 7 51 8.34315 51 10C51 11.6569 52.3431 13 54 13Z" fill="#4B2661"/>
<path d="M63 13C64.6569 13 66 11.6569 66 10C66 8.34315 64.6569 7 63 7C61.3431 7 60 8.34315 60 10C60 11.6569 61.3431 13 63 13Z" fill="#4B2661"/>
<path d="M76 44H51C49.8954 44 49 44.8954 49 46V71C49 72.1046 49.8954 73 51 73H76C77.1046 73 78 72.1046 78 71V46C78 44.8954 77.1046 44 76 44Z" fill="#E0DAE3"/>
<path d="M18 18H5C3.89543 18 3 18.8954 3 20V29C3 30.1046 3.89543 31 5 31H18C19.1046 31 20 30.1046 20 29V20C20 18.8954 19.1046 18 18 18Z" fill="#E0DAE3"/>
<path d="M18 33H5C3.89543 33 3 33.8954 3 35V44C3 45.1046 3.89543 46 5 46H18C19.1046 46 20 45.1046 20 44V35C20 33.8954 19.1046 33 18 33Z" fill="#E0DAE3"/>
<path d="M17 50H4C2.89543 50 2 50.8954 2 52V61C2 62.1046 2.89543 63 4 63H17C18.1046 63 19 62.1046 19 61V52C19 50.8954 18.1046 50 17 50Z" fill="#E0DAE3"/>
<path d="M18 66H5C3.89543 66 3 66.8954 3 68V77C3 78.1046 3.89543 79 5 79H18C19.1046 79 20 78.1046 20 77V68C20 66.8954 19.1046 66 18 66Z" fill="#E0DAE3"/>
<path d="M75 93H50C48.8954 93 48 93.8954 48 95V104C48 105.105 48.8954 106 50 106H75C76.1046 106 77 105.105 77 104V95C77 93.8954 76.1046 93 75 93Z" fill="#E0DAE3"/>
<path d="M116 44H91C89.8954 44 89 44.8954 89 46V72C89 73.1046 89.8954 74 91 74H116C117.105 74 118 73.1046 118 72V46C118 44.8954 117.105 44 116 44Z" fill="#E0DAE3"/>
<path d="M155 44H130C128.895 44 128 44.8954 128 46V72C128 73.1046 128.895 74 130 74H155C156.105 74 157 73.1046 157 72V46C157 44.8954 156.105 44 155 44Z" fill="#E0DAE3"/>
<path d="M155 28H51C49.8954 28 49 28.8954 49 30V32C49 33.1046 49.8954 34 51 34H155C156.105 34 157 33.1046 157 32V30C157 28.8954 156.105 28 155 28Z" fill="#E0DAE3"/>
<path d="M74 41H48C46.8954 41 46 41.8954 46 43V69C46 70.1046 46.8954 71 48 71H74C75.1046 71 76 70.1046 76 69V43C76 41.8954 75.1046 41 74 41Z" stroke="#4B2661" stroke-linecap="round" stroke-linejoin="round"/>
<path d="M53 81H48C47.4696 81 46.9608 80.7893 46.5857 80.4142C46.2106 80.0391 46 79.5304 46 79V43C46 42.4696 46.2106 41.9609 46.5857 41.5858C46.9608 41.2107 47.4696 41 48 41H74C74.5304 41 75.0392 41.2107 75.4143 41.5858C75.7894 41.9609 76 42.4696 76 43V79C76 79.5304 75.7894 80.0391 75.4143 80.4142C75.0392 80.7893 74.5304 81 74 81H68" stroke="#4B2661" stroke-linecap="round" stroke-linejoin="round"/>
<path d="M49 74H61.069" stroke="#4B2661" stroke-linecap="round" stroke-linejoin="round"/>
<path d="M49 76H57" stroke="#4B2661" stroke-linecap="round" stroke-linejoin="round"/>
<path d="M67.104 74H74.001" stroke="#4B2661" stroke-linecap="round" stroke-linejoin="round"/>
<path d="M70 51L68 55L66 54V64H56V54L54 55L52 51L57 48H59C59 48.5304 59.2106 49.0391 59.5857 49.4142C59.9608 49.7893 60.4696 50 61 50C61.5304 50 62.0392 49.7893 62.4143 49.4142C62.7894 49.0391 63 48.5304 63 48H65L70 51Z" stroke="#4B2661" stroke-linecap="round" stroke-linejoin="round"/>
<path d="M63 48C63 48.5304 62.7894 49.0391 62.4143 49.4142C62.0392 49.7893 61.5304 50 61 50C60.4696 50 59.9608 49.7893 59.5857 49.4142C59.2106 49.0391 59 48.5304 59 48H63Z" stroke="#4B2661" stroke-linecap="round" stroke-linejoin="round"/>
<path d="M66 79H55C53.8954 79 53 79.8954 53 81C53 82.1046 53.8954 83 55 83H66C67.1046 83 68 82.1046 68 81C68 79.8954 67.1046 79 66 79Z" stroke="#4B2661" stroke-linecap="round" stroke-linejoin="round"/>
<path d="M46 103V93C46 92.4696 46.2106 91.9609 46.5857 91.5858C46.9608 91.2107 47.4696 91 48 91H74C74.5304 91 75.0392 91.2107 75.4143 91.5858C75.7894 91.9609 76 92.4696 76 93V103" stroke="#4B2661" stroke-linecap="round" stroke-linejoin="round"/>
<path d="M53 103L52 101L57 98H59C59 98.5304 59.2106 99.0391 59.5857 99.4142C59.9608 99.7893 60.4696 100 61 100C61.5304 100 62.0392 99.7893 62.4143 99.4142C62.7894 99.0391 63 98.5304 63 98H65L70 101L69 103" stroke="#4B2661" stroke-linecap="round" stroke-linejoin="round"/>
<path d="M63 98C63 98.5304 62.7894 99.0391 62.4143 99.4142C62.0392 99.7893 61.5304 100 61 100C60.4696 100 59.9608 99.7893 59.5857 99.4142C59.2106 99.0391 59 98.5304 59 98H63Z" stroke="#4B2661" stroke-linecap="round" stroke-linejoin="round"/>
<path d="M115 93H90C88.8954 93 88 93.8954 88 95V104C88 105.105 88.8954 106 90 106H115C116.105 106 117 105.105 117 104V95C117 93.8954 116.105 93 115 93Z" fill="#E0DAE3"/>
<path d="M86 103V93C86 92.4696 86.2106 91.9609 86.5857 91.5858C86.9608 91.2107 87.4696 91 88 91H114C114.53 91 115.039 91.2107 115.414 91.5858C115.789 91.9609 116 92.4696 116 93V103" stroke="#4B2661" stroke-linecap="round" stroke-linejoin="round"/>
<path d="M93 103L92 101L97 98H99C99 98.5304 99.2106 99.0391 99.5857 99.4142C99.9608 99.7893 100.47 100 101 100C101.53 100 102.039 99.7893 102.414 99.4142C102.789 99.0391 103 98.5304 103 98H105L110 101L109 103" stroke="#4B2661" stroke-linecap="round" stroke-linejoin="round"/>
<path d="M103 98C103 98.5304 102.789 99.0391 102.414 99.4142C102.039 99.7893 101.53 100 101 100C100.47 100 99.9608 99.7893 99.5857 99.4142C99.2106 99.0391 99 98.5304 99 98H103Z" stroke="#4B2661" stroke-linecap="round" stroke-linejoin="round"/>
<path d="M155 93H130C128.895 93 128 93.8954 128 95V104C128 105.105 128.895 106 130 106H155C156.105 106 157 105.105 157 104V95C157 93.8954 156.105 93 155 93Z" fill="#E0DAE3"/>
<path d="M126 103V93C126 92.4696 126.211 91.9609 126.586 91.5858C126.961 91.2107 127.47 91 128 91H154C154.53 91 155.039 91.2107 155.414 91.5858C155.789 91.9609 156 92.4696 156 93V103" stroke="#4B2661" stroke-linecap="round" stroke-linejoin="round"/>
<path d="M133 103L132 101L137 98H139C139 98.5304 139.211 99.0391 139.586 99.4142C139.961 99.7893 140.47 100 141 100C141.53 100 142.039 99.7893 142.414 99.4142C142.789 99.0391 143 98.5304 143 98H145L150 101L149 103" stroke="#4B2661" stroke-linecap="round" stroke-linejoin="round"/>
<path d="M143 98C143 98.5304 142.789 99.0391 142.414 99.4142C142.039 99.7893 141.53 100 141 100C140.47 100 139.961 99.7893 139.586 99.4142C139.211 99.0391 139 98.5304 139 98H143Z" stroke="#4B2661" stroke-linecap="round" stroke-linejoin="round"/>
<path d="M114 41H88C86.8954 41 86 41.8954 86 43V69C86 70.1046 86.8954 71 88 71H114C115.105 71 116 70.1046 116 69V43C116 41.8954 115.105 41 114 41Z" stroke="#4B2661" stroke-linecap="round" stroke-linejoin="round"/>
<path d="M93 81H88C87.4696 81 86.9608 80.7893 86.5857 80.4142C86.2106 80.0391 86 79.5304 86 79V43C86 42.4696 86.2106 41.9609 86.5857 41.5858C86.9608 41.2107 87.4696 41 88 41H114C114.53 41 115.039 41.2107 115.414 41.5858C115.789 41.9609 116 42.4696 116 43V79C116 79.5304 115.789 80.0391 115.414 80.4142C115.039 80.7893 114.53 81 114 81H108" stroke="#4B2661" stroke-linecap="round" stroke-linejoin="round"/>
<path d="M89 74H101.069" stroke="#4B2661" stroke-linecap="round" stroke-linejoin="round"/>
<path d="M89 76H97" stroke="#4B2661" stroke-linecap="round" stroke-linejoin="round"/>
<path d="M107.104 74H114.001" stroke="#4B2661" stroke-linecap="round" stroke-linejoin="round"/>
<path d="M110 51L108 55L106 54V64H96V54L94 55L92 51L97 48H99C99 48.5304 99.2106 49.0391 99.5857 49.4142C99.9608 49.7893 100.47 50 101 50C101.53 50 102.039 49.7893 102.414 49.4142C102.789 49.0391 103 48.5304 103 48H105L110 51Z" stroke="#4B2661" stroke-linecap="round" stroke-linejoin="round"/>
<path d="M103 48C103 48.5304 102.789 49.0391 102.414 49.4142C102.039 49.7893 101.53 50 101 50C100.47 50 99.9608 49.7893 99.5857 49.4142C99.2106 49.0391 99 48.5304 99 48H103Z" stroke="#4B2661" stroke-linecap="round" stroke-linejoin="round"/>
<path d="M106 79H95C93.8954 79 93 79.8954 93 81C93 82.1046 93.8954 83 95 83H106C107.105 83 108 82.1046 108 81C108 79.8954 107.105 79 106 79Z" stroke="#4B2661" stroke-linecap="round" stroke-linejoin="round"/>
<path d="M154 41H128C126.895 41 126 41.8954 126 43V69C126 70.1046 126.895 71 128 71H154C155.105 71 156 70.1046 156 69V43C156 41.8954 155.105 41 154 41Z" stroke="#4B2661" stroke-linecap="round" stroke-linejoin="round"/>
<path d="M133 81H128C127.47 81 126.961 80.7893 126.586 80.4142C126.211 80.0391 126 79.5304 126 79V43C126 42.4696 126.211 41.9609 126.586 41.5858C126.961 41.2107 127.47 41 128 41H154C154.53 41 155.039 41.2107 155.414 41.5858C155.789 41.9609 156 42.4696 156 43V79C156 79.5304 155.789 80.0391 155.414 80.4142C155.039 80.7893 154.53 81 154 81H148" stroke="#4B2661" stroke-linecap="round" stroke-linejoin="round"/>
<path d="M129 74H141.069" stroke="#4B2661" stroke-linecap="round" stroke-linejoin="round"/>
<path d="M129 76H137" stroke="#4B2661" stroke-linecap="round" stroke-linejoin="round"/>
<path d="M147.104 74H154.001" stroke="#4B2661" stroke-linecap="round" stroke-linejoin="round"/>
<path d="M150 51L148 55L146 54V64H136V54L134 55L132 51L137 48H139C139 48.5304 139.211 49.0391 139.586 49.4142C139.961 49.7893 140.47 50 141 50C141.53 50 142.039 49.7893 142.414 49.4142C142.789 49.0391 143 48.5304 143 48H145L150 51Z" stroke="#4B2661" stroke-linecap="round" stroke-linejoin="round"/>
<path d="M143 48C143 48.5304 142.789 49.0391 142.414 49.4142C142.039 49.7893 141.53 50 141 50C140.47 50 139.961 49.7893 139.586 49.4142C139.211 49.0391 139 48.5304 139 48H143Z" stroke="#4B2661" stroke-linecap="round" stroke-linejoin="round"/>
<path d="M146 79H135C133.895 79 133 79.8954 133 81C133 82.1046 133.895 83 135 83H146C147.105 83 148 82.1046 148 81C148 79.8954 147.105 79 146 79Z" stroke="#4B2661" stroke-linecap="round" stroke-linejoin="round"/>
<path d="M206 4H181C179.895 4 179 4.89543 179 6V32C179 33.1046 179.895 34 181 34H206C207.105 34 208 33.1046 208 32V6C208 4.89543 207.105 4 206 4Z" fill="#E0DAE3"/>
<path d="M205 1H179C177.895 1 177 1.89543 177 3V29C177 30.1046 177.895 31 179 31H205C206.105 31 207 30.1046 207 29V3C207 1.89543 206.105 1 205 1Z" stroke="#4B2661" stroke-linecap="round" stroke-linejoin="round"/>
<path d="M184 41H179C178.47 41 177.961 40.7893 177.586 40.4142C177.211 40.0391 177 39.5304 177 39V3C177 2.46957 177.211 1.96086 177.586 1.58578C177.961 1.21071 178.47 1 179 1H205C205.53 1 206.039 1.21071 206.414 1.58578C206.789 1.96086 207 2.46957 207 3V39C207 39.5304 206.789 40.0391 206.414 40.4142C206.039 40.7893 205.53 41 205 41H199" stroke="#4B2661" stroke-linecap="round" stroke-linejoin="round"/>
<path d="M180 34H192.069" stroke="#4B2661" stroke-linecap="round" stroke-linejoin="round"/>
<path d="M180 36H188" stroke="#4B2661" stroke-linecap="round" stroke-linejoin="round"/>
<path d="M198.104 34H205.001" stroke="#4B2661" stroke-linecap="round" stroke-linejoin="round"/>
<path d="M201 11L199 15L197 14V24H187V14L185 15L183 11L188 8H190C190 8.53043 190.211 9.03914 190.586 9.41422C190.961 9.78929 191.47 10 192 10C192.53 10 193.039 9.78929 193.414 9.41422C193.789 9.03914 194 8.53043 194 8H196L201 11Z" stroke="#4B2661" stroke-linecap="round" stroke-linejoin="round"/>
<path d="M194 8C194 8.53043 193.789 9.03914 193.414 9.41422C193.039 9.78929 192.53 10 192 10C191.47 10 190.961 9.78929 190.586 9.41422C190.211 9.03914 190 8.53043 190 8H194Z" stroke="#4B2661" stroke-linecap="round" stroke-linejoin="round"/>
<path d="M197 39H186C184.895 39 184 39.8954 184 41C184 42.1046 184.895 43 186 43H197C198.105 43 199 42.1046 199 41C199 39.8954 198.105 39 197 39Z" stroke="#4B2661" stroke-linecap="round" stroke-linejoin="round"/>
<path d="M206 57H181C179.895 57 179 57.8954 179 59V85C179 86.1046 179.895 87 181 87H206C207.105 87 208 86.1046 208 85V59C208 57.8954 207.105 57 206 57Z" fill="#E0DAE3"/>
<path d="M205 54H179C177.895 54 177 54.8954 177 56V82C177 83.1046 177.895 84 179 84H205C206.105 84 207 83.1046 207 82V56C207 54.8954 206.105 54 205 54Z" stroke="#4B2661" stroke-linecap="round" stroke-linejoin="round"/>
<path d="M184 94H179C178.47 94 177.961 93.7893 177.586 93.4142C177.211 93.0391 177 92.5304 177 92V56C177 55.4696 177.211 54.9609 177.586 54.5858C177.961 54.2107 178.47 54 179 54H205C205.53 54 206.039 54.2107 206.414 54.5858C206.789 54.9609 207 55.4696 207 56V92C207 92.5304 206.789 93.0391 206.414 93.4142C206.039 93.7893 205.53 94 205 94H199" stroke="#4B2661" stroke-linecap="round" stroke-linejoin="round"/>
<path d="M180 87H192.069" stroke="#4B2661" stroke-linecap="round" stroke-linejoin="round"/>
<path d="M180 89H188" stroke="#4B2661" stroke-linecap="round" stroke-linejoin="round"/>
<path d="M198.104 87H205.001" stroke="#4B2661" stroke-linecap="round" stroke-linejoin="round"/>
<path d="M201 64L199 68L197 67V77H187V67L185 68L183 64L188 61H190C190 61.5304 190.211 62.0391 190.586 62.4142C190.961 62.7893 191.47 63 192 63C192.53 63 193.039 62.7893 193.414 62.4142C193.789 62.0391 194 61.5304 194 61H196L201 64Z" stroke="#4B2661" stroke-linecap="round" stroke-linejoin="round"/>
<path d="M194 61C194 61.5304 193.789 62.0391 193.414 62.4142C193.039 62.7893 192.53 63 192 63C191.47 63 190.961 62.7893 190.586 62.4142C190.211 62.0391 190 61.5304 190 61H194Z" stroke="#4B2661" stroke-linecap="round" stroke-linejoin="round"/>
<path d="M197 92H186C184.895 92 184 92.8954 184 94C184 95.1046 184.895 96 186 96H197C198.105 96 199 95.1046 199 94C199 92.8954 198.105 92 197 92Z" stroke="#4B2661" stroke-linecap="round" stroke-linejoin="round"/>
<path d="M153 26H48C46.8954 26 46 26.8954 46 28V30C46 31.1046 46.8954 32 48 32H153C154.105 32 155 31.1046 155 30V28C155 26.8954 154.105 26 153 26Z" stroke="#4B2661" stroke-linecap="round" stroke-linejoin="round"/>
<path d="M51 29H57.897" stroke="#4B2661" stroke-linecap="round" stroke-linejoin="round"/>
<path d="M141.104 29H148.001" stroke="#4B2661" stroke-linecap="round" stroke-linejoin="round"/>
<path d="M130 29H136.897" stroke="#4B2661" stroke-linecap="round" stroke-linejoin="round"/>
<path d="M119 29H125.897" stroke="#4B2661" stroke-linecap="round" stroke-linejoin="round"/>
<path d="M171.136 74.9999C166.113 68.8839 161 69.6289 161 69.6289" stroke="#4B2661" stroke-linecap="round" stroke-linejoin="round"/>
<path d="M168.914 74.7531L171.136 75.0001L171.383 72.7781" stroke="#4B2661" stroke-linecap="round" stroke-linejoin="round"/>
<path d="M170 28C167 52.286 161 58 161 58" stroke="#4B2661" stroke-linecap="round" stroke-linejoin="round"/>
<path d="M168 29L170 28L171 30" stroke="#4B2661" stroke-linecap="round" stroke-linejoin="round"/>
<path d="M41.136 30.3999C36.113 24.2839 31 25.0299 31 25.0299" stroke="#4B2661" stroke-linecap="round" stroke-linejoin="round"/>
<path d="M38.9141 30.152L41.136 30.399L41.3831 28.177" stroke="#4B2661" stroke-linecap="round" stroke-linejoin="round"/>
<path d="M41.8369 44.2501C35.0209 40.2271 30.4741 42.6811 30.4741 42.6811" stroke="#4B2661" stroke-linecap="round" stroke-linejoin="round"/>
<path d="M39.665 44.7801L41.8369 44.2501L41.3069 42.0781" stroke="#4B2661" stroke-linecap="round" stroke-linejoin="round"/>
<path d="M161 2H40C37.7909 2 36 3.79086 36 6V98C36 100.209 37.7909 102 40 102H161C163.209 102 165 100.209 165 98V6C165 3.79086 163.209 2 161 2Z" stroke="#4B2661" stroke-width="2" stroke-linecap="round" stroke-linejoin="round"/>
<path d="M26 16H3C1.89543 16 1 16.8954 1 18V27C1 28.1046 1.89543 29 3 29H26C27.1046 29 28 28.1046 28 27V18C28 16.8954 27.1046 16 26 16Z" stroke="#4B2661" stroke-linecap="round" stroke-linejoin="round"/>
<path d="M17 16H3C1.89543 16 1 16.8954 1 18V27C1 28.1046 1.89543 29 3 29H17C18.1046 29 19 28.1046 19 27V18C19 16.8954 18.1046 16 17 16Z" stroke="#4B2661" stroke-linecap="round" stroke-linejoin="round"/>
<path d="M21 18H26" stroke="#4B2661" stroke-linecap="round" stroke-linejoin="round"/>
<path d="M21 20H24.314" stroke="#4B2661" stroke-linecap="round" stroke-linejoin="round"/>
<path d="M21 36H24.314" stroke="#4B2661" stroke-linecap="round" stroke-linejoin="round"/>
<path d="M21 52H24.314" stroke="#4B2661" stroke-linecap="round" stroke-linejoin="round"/>
<path d="M21 68H24.314" stroke="#4B2661" stroke-linecap="round" stroke-linejoin="round"/>
<path d="M21 26H24.314" stroke="#4B2661" stroke-linecap="round" stroke-linejoin="round"/>
<path d="M26 32H3C1.89543 32 1 32.8954 1 34V43C1 44.1046 1.89543 45 3 45H26C27.1046 45 28 44.1046 28 43V34C28 32.8954 27.1046 32 26 32Z" stroke="#4B2661" stroke-linecap="round" stroke-linejoin="round"/>
<path d="M17 32H3C1.89543 32 1 32.8954 1 34V43C1 44.1046 1.89543 45 3 45H17C18.1046 45 19 44.1046 19 43V34C19 32.8954 18.1046 32 17 32Z" stroke="#4B2661" stroke-linecap="round" stroke-linejoin="round"/>
<path d="M21 34H26" stroke="#4B2661" stroke-linecap="round" stroke-linejoin="round"/>
<path d="M21 42H24.314" stroke="#4B2661" stroke-linecap="round" stroke-linejoin="round"/>
<path d="M26 48H3C1.89543 48 1 48.8954 1 50V59C1 60.1046 1.89543 61 3 61H26C27.1046 61 28 60.1046 28 59V50C28 48.8954 27.1046 48 26 48Z" stroke="#4B2661" stroke-linecap="round" stroke-linejoin="round"/>
<path d="M17 48H3C1.89543 48 1 48.8954 1 50V59C1 60.1046 1.89543 61 3 61H17C18.1046 61 19 60.1046 19 59V50C19 48.8954 18.1046 48 17 48Z" stroke="#4B2661" stroke-linecap="round" stroke-linejoin="round"/>
<path d="M21 50H26" stroke="#4B2661" stroke-linecap="round" stroke-linejoin="round"/>
<path d="M21 58H24.314" stroke="#4B2661" stroke-linecap="round" stroke-linejoin="round"/>
<path d="M26 64H3C1.89543 64 1 64.8954 1 66V75C1 76.1046 1.89543 77 3 77H26C27.1046 77 28 76.1046 28 75V66C28 64.8954 27.1046 64 26 64Z" stroke="#4B2661" stroke-linecap="round" stroke-linejoin="round"/>
<path d="M17 64H3C1.89543 64 1 64.8954 1 66V75C1 76.1046 1.89543 77 3 77H17C18.1046 77 19 76.1046 19 75V66C19 64.8954 18.1046 64 17 64Z" stroke="#4B2661" stroke-linecap="round" stroke-linejoin="round"/>
<path d="M21 66H26" stroke="#4B2661" stroke-linecap="round" stroke-linejoin="round"/>
<path d="M21 74H24.314" stroke="#4B2661" stroke-linecap="round" stroke-linejoin="round"/>
<path d="M18 82H5C3.89543 82 3 82.8954 3 84V93C3 94.1046 3.89543 95 5 95H18C19.1046 95 20 94.1046 20 93V84C20 82.8954 19.1046 82 18 82Z" fill="#E0DAE3"/>
<path d="M21 84H24.314" stroke="#4B2661" stroke-linecap="round" stroke-linejoin="round"/>
<path d="M26 80H3C1.89543 80 1 80.8954 1 82V91C1 92.1046 1.89543 93 3 93H26C27.1046 93 28 92.1046 28 91V82C28 80.8954 27.1046 80 26 80Z" stroke="#4B2661" stroke-linecap="round" stroke-linejoin="round"/>
<path d="M17 80H3C1.89543 80 1 80.8954 1 82V91C1 92.1046 1.89543 93 3 93H17C18.1046 93 19 92.1046 19 91V82C19 80.8954 18.1046 80 17 80Z" stroke="#4B2661" stroke-linecap="round" stroke-linejoin="round"/>
<path d="M21 82H26" stroke="#4B2661" stroke-linecap="round" stroke-linejoin="round"/>
<path d="M21 90H24.314" stroke="#4B2661" stroke-linecap="round" stroke-linejoin="round"/>
</svg>
