<svg width="123" height="108" viewBox="0 0 123 108" fill="none" xmlns="http://www.w3.org/2000/svg">
<path d="M28.278 65.4519C28.1526 65.4519 28.027 65.4519 27.901 65.4519C25.1807 65.4539 22.4865 64.9201 19.9725 63.8809C17.4585 62.8417 15.1739 61.3174 13.2489 59.3953C11.3239 57.4731 9.79639 55.1907 8.75354 52.6782C7.71069 50.1657 7.17299 47.4723 7.17102 44.752C7.17299 42.0316 7.71069 39.3384 8.75354 36.8259C9.79639 34.3134 11.3239 32.0308 13.2489 30.1086C15.1739 28.1865 17.4585 26.6623 19.9725 25.623C22.4865 24.5838 25.1807 24.05 27.901 24.052C32.3768 24.0446 36.7339 25.4909 40.317 28.1731C42.2191 22.5799 45.8252 17.7227 50.629 14.2839C55.4329 10.8452 61.1931 8.99736 67.101 9C73.4027 8.99747 79.5246 11.1002 84.4948 14.9744C89.4649 18.8486 92.9984 24.2723 94.5341 30.384C97.0304 29.1856 99.7649 28.5655 102.534 28.5701C104.958 28.5681 107.358 29.0435 109.598 29.9692C111.838 30.8949 113.873 32.2527 115.589 33.9651C117.304 35.6775 118.665 37.711 119.594 39.9495C120.523 42.1879 121.002 44.5874 121.004 47.011C121.001 51.8403 119.104 56.4757 115.722 59.9226C112.339 63.3695 107.74 65.3533 102.912 65.448L28.278 65.4519Z" fill="#E0DAE3"/>
<path d="M103.223 58.9998L103.411 58.9961C108.13 58.9019 112.552 56.9954 115.862 53.6274C119.176 50.2561 121 45.7976 121 41.0735C121 36.2854 119.133 31.7839 115.742 28.3984C112.35 25.0117 107.84 23.1467 103.043 23.1467C100.318 23.1467 97.7017 23.7397 95.2676 24.9094L93.0547 25.9727L92.4607 23.5906C91.6985 20.5332 90.4368 17.6392 88.7107 14.9885C87.0127 12.3811 84.9121 10.0786 82.467 8.14526C79.9993 6.19385 77.2505 4.67456 74.2974 3.62939C71.2417 2.54834 68.0325 2 64.7583 2C58.668 2 52.8572 3.88745 47.9536 7.4585C45.592 9.17822 43.5144 11.2407 41.7778 13.5886C40.022 15.9626 38.6536 18.5779 37.7104 21.3613L36.8259 23.9719L34.6184 22.3213C31.0713 19.6687 26.8464 18.2666 22.4006 18.2666C19.6453 18.2666 16.9736 18.8049 14.4595 19.8667C12.0305 20.8926 9.84839 22.3616 7.97437 24.2329C6.10034 26.104 4.62939 28.282 3.60229 30.707C2.53931 33.2163 2.00024 35.8828 2.00024 38.6328C2.00024 41.3828 2.53931 44.0498 3.60229 46.5591C4.62939 48.9841 6.10034 51.1624 7.97437 53.0334C9.84839 54.9048 12.0305 56.3738 14.4595 57.3997C16.9736 58.4614 19.6453 58.9998 22.4006 58.9998C22.5244 58.9998 22.6494 58.9985 22.7725 58.9963L24.8083 58.9634V58.9998H103.223ZM103.451 60.9998H22.8083V60.9961C22.6729 60.9985 22.5364 60.9998 22.4006 60.9998C10.0293 60.9998 0.000244141 50.9861 0.000244141 38.6328C0.000244141 26.2803 10.0293 16.2666 22.4006 16.2666C27.4319 16.2666 32.0767 17.9231 35.8162 20.7195C39.8982 8.67163 51.3137 0 64.7583 0C79.075 0 91.0918 9.83472 94.4014 23.1067C97.0161 21.8503 99.9473 21.1467 103.043 21.1467C114.065 21.1467 123 30.0679 123 41.0735C123 51.9426 114.285 60.7795 103.451 60.9956V60.9998Z" fill="#4B2661"/>
<path d="M29.8431 38.024C28.9364 27.0491 42.7997 17.3295 53.6434 24.8415" stroke="#4B2661" stroke-width="1.00052" stroke-linecap="round"/>
<path d="M75.5554 41.9198C79.3342 35.1771 91.2153 34.9626 94.5789 43.5915" stroke="#4B2661" stroke-linecap="round"/>
<path d="M61.5 59.9429V106.896" stroke="#4B2661" stroke-width="2" stroke-linecap="round"/>
<path d="M53.5 59.9429V106.896" stroke="#4B2661" stroke-width="2" stroke-linecap="round"/>
<path d="M44.564 59.9429V91.1138H20.564" stroke="#4B2661" stroke-width="2" stroke-linecap="round" stroke-linejoin="round"/>
<path d="M77 59.9429V91.1138H101" stroke="#4B2661" stroke-width="2" stroke-linecap="round" stroke-linejoin="round"/>
<path d="M36.564 59.9429V83.1138H20.564" stroke="#4B2661" stroke-width="2" stroke-linecap="round" stroke-linejoin="round"/>
<path d="M84.999 59.9429V83.1138H100.999" stroke="#4B2661" stroke-width="2" stroke-linecap="round" stroke-linejoin="round"/>
<path d="M28.564 59.9429V75.1138H20.564" stroke="#4B2661" stroke-width="2" stroke-linecap="round" stroke-linejoin="round"/>
<path d="M92.999 59.9429V75.1138H100.999" stroke="#4B2661" stroke-width="2" stroke-linecap="round" stroke-linejoin="round"/>
<path d="M69.5 59.9429V106.896" stroke="#4B2661" stroke-width="2" stroke-linecap="round"/>
<path d="M19 78C20.6569 78 22 76.6569 22 75C22 73.3431 20.6569 72 19 72C17.3431 72 16 73.3431 16 75C16 76.6569 17.3431 78 19 78Z" fill="white" stroke="#4B2661"/>
<path d="M102.564 78C104.221 78 105.564 76.6569 105.564 75C105.564 73.3431 104.221 72 102.564 72C100.907 72 99.564 73.3431 99.564 75C99.564 76.6569 100.907 78 102.564 78Z" fill="white" stroke="#4B2661"/>
<path d="M19 86C20.6569 86 22 84.6569 22 83C22 81.3431 20.6569 80 19 80C17.3431 80 16 81.3431 16 83C16 84.6569 17.3431 86 19 86Z" fill="white" stroke="#4B2661"/>
<path d="M102.564 86C104.221 86 105.564 84.6569 105.564 83C105.564 81.3431 104.221 80 102.564 80C100.907 80 99.564 81.3431 99.564 83C99.564 84.6569 100.907 86 102.564 86Z" fill="white" stroke="#4B2661"/>
<path d="M19 94C20.6569 94 22 92.6569 22 91C22 89.3431 20.6569 88 19 88C17.3431 88 16 89.3431 16 91C16 92.6569 17.3431 94 19 94Z" fill="white" stroke="#4B2661"/>
<path d="M102.564 94C104.221 94 105.564 92.6569 105.564 91C105.564 89.3431 104.221 88 102.564 88C100.907 88 99.564 89.3431 99.564 91C99.564 92.6569 100.907 94 102.564 94Z" fill="white" stroke="#4B2661"/>
<path d="M56.5 80C56.5 78.3431 55.1569 77 53.5 77C51.8431 77 50.5 78.3431 50.5 80C50.5 81.6569 51.8431 83 53.5 83C55.1569 83 56.5 81.6569 56.5 80Z" fill="white" stroke="#4B2661"/>
<path d="M64.5 80C64.5 78.3431 63.1569 77 61.5 77C59.8431 77 58.5 78.3431 58.5 80C58.5 81.6569 59.8431 83 61.5 83C63.1569 83 64.5 81.6569 64.5 80Z" fill="white" stroke="#4B2661"/>
<path d="M72.5 80C72.5 78.3431 71.1569 77 69.5 77C67.8431 77 66.5 78.3431 66.5 80C66.5 81.6569 67.8431 83 69.5 83C71.1569 83 72.5 81.6569 72.5 80Z" fill="white" stroke="#4B2661"/>
</svg>
