<svg width="127" height="130" viewBox="0 0 127 130" fill="none" xmlns="http://www.w3.org/2000/svg">
<path d="M61 129V115.246C60.0629 114.497 59.3065 113.547 58.7871 112.465C58.2677 111.384 57.9988 110.2 58 109C58 108.859 58.0037 108.72 58.011 108.582L36.4189 86.99C36.2803 86.9973 36.141 87.001 36.001 87.001C33.8792 87.001 31.8445 86.1582 30.3442 84.658C28.8439 83.1577 28.001 81.1227 28.001 79.001C27.9999 77.8016 28.269 76.6173 28.7883 75.5361C29.3077 74.455 30.064 73.5049 31.001 72.7561V33H25.001L36.001 18L47.001 33H41.001V72.7561C41.9379 73.5049 42.6943 74.455 43.2136 75.5361C43.733 76.6173 44.0021 77.8016 44.001 79.001C44.0013 79.4435 43.9653 79.8854 43.8931 80.322L61.002 97.4309V81.2471C60.0648 80.4982 59.3087 79.5476 58.7893 78.4663C58.2699 77.385 58.0007 76.2006 58.002 75.001C58.0008 73.8015 58.2699 72.6173 58.7893 71.5361C59.3087 70.455 60.0649 69.5048 61.002 68.7561V48H55.002L66.002 33L77.002 48H71.002V63.429L88.1111 46.3201C88.0379 45.8839 88.0007 45.4423 88 45C87.999 43.8006 88.2682 42.6163 88.7876 41.5352C89.307 40.454 90.0631 39.5037 91 38.7549V16H85L96 1L107 16H101V38.7549C101.937 39.5037 102.693 40.454 103.213 41.5352C103.732 42.6163 104.001 43.8006 104 45C104 47.1217 103.157 49.1564 101.657 50.6567C100.156 52.157 98.1217 53 96 53C95.8593 53 95.72 52.9963 95.582 52.989L73.989 74.582C73.996 74.72 74 74.859 74 75C74.0012 76.1994 73.732 77.3837 73.2126 78.4648C72.6933 79.546 71.937 80.4964 71 81.2451V102.755C71.937 103.504 72.6933 104.454 73.2126 105.535C73.732 106.616 74.0012 107.801 74 109C74.0011 110.199 73.732 111.384 73.2126 112.465C72.6933 113.546 71.937 114.496 71 115.245V129H61Z" stroke="#4B2661" stroke-width="2" stroke-linecap="round" stroke-linejoin="round"/>
<path d="M33 127.999V107.999" stroke="#4B2661" stroke-linecap="round"/>
<path d="M126 128.999V108.999" stroke="#4B2661" stroke-linecap="round"/>
<path d="M126 90.1082V87.498" stroke="#4B2661" stroke-linecap="round"/>
<path d="M33 101.999V96.999" stroke="#4B2661" stroke-linecap="round"/>
<path d="M49 128.999V115.864" stroke="#4B2661" stroke-linecap="round"/>
<path d="M88 128.998V74.998" stroke="#4B2661" stroke-linecap="round"/>
<path d="M101 93.5002V63.8462" stroke="#4B2661" stroke-linecap="round"/>
<path d="M101 128.999V111.845" stroke="#4B2661" stroke-linecap="round"/>
<path d="M1 128.999V111.845" stroke="#4B2661" stroke-linecap="round"/>
<path d="M113 128.998V36.998" stroke="#4B2661" stroke-linecap="round"/>
<path d="M17 127.999V63.8462" stroke="#4B2661" stroke-linecap="round"/>
<path d="M39 89.999C43.4183 89.999 47 86.4173 47 81.999C47 77.5807 43.4183 73.999 39 73.999C34.5817 73.999 31 77.5807 31 81.999C31 86.4173 34.5817 89.999 39 89.999Z" fill="#E0DAE3"/>
<path d="M69 119.999C73.4183 119.999 77 116.417 77 111.999C77 107.581 73.4183 103.999 69 103.999C64.5817 103.999 61 107.581 61 111.999C61 116.417 64.5817 119.999 69 119.999Z" fill="#E0DAE3"/>
<path d="M99 55.999C103.418 55.999 107 52.4173 107 47.999C107 43.5807 103.418 39.999 99 39.999C94.5817 39.999 91 43.5807 91 47.999C91 52.4173 94.5817 55.999 99 55.999Z" fill="#E0DAE3"/>
<path d="M69 85.999C73.4183 85.999 77 82.4173 77 77.999C77 73.5807 73.4183 69.999 69 69.999C64.5817 69.999 61 73.5807 61 77.999C61 82.4173 64.5817 85.999 69 85.999Z" fill="#E0DAE3"/>
<path d="M36 86.999C40.4183 86.999 44 83.4173 44 78.999C44 74.5807 40.4183 70.999 36 70.999C31.5817 70.999 28 74.5807 28 78.999C28 83.4173 31.5817 86.999 36 86.999Z" stroke="#4B2661" stroke-width="2" stroke-linecap="round" stroke-linejoin="round"/>
<path d="M66 116.999C70.4183 116.999 74 113.417 74 108.999C74 104.581 70.4183 100.999 66 100.999C61.5817 100.999 58 104.581 58 108.999C58 113.417 61.5817 116.999 66 116.999Z" stroke="#4B2661" stroke-width="2" stroke-linecap="round" stroke-linejoin="round"/>
<path d="M96 52.999C100.418 52.999 104 49.4173 104 44.999C104 40.5807 100.418 36.999 96 36.999C91.5817 36.999 88 40.5807 88 44.999C88 49.4173 91.5817 52.999 96 52.999Z" stroke="#4B2661" stroke-width="2" stroke-linecap="round" stroke-linejoin="round"/>
<path d="M66 82.999C70.4183 82.999 74 79.4173 74 74.999C74 70.5807 70.4183 66.999 66 66.999C61.5817 66.999 58 70.5807 58 74.999C58 79.4173 61.5817 82.999 66 82.999Z" stroke="#4B2661" stroke-width="2" stroke-linecap="round" stroke-linejoin="round"/>
</svg>
