<svg width="166" height="104" viewBox="0 0 166 104" fill="none" xmlns="http://www.w3.org/2000/svg">
<path d="M41 42H16C14.8954 42 14 42.8954 14 44V69C14 70.1046 14.8954 71 16 71H41C42.1046 71 43 70.1046 43 69V44C43 42.8954 42.1046 42 41 42Z" fill="#E0DAE3"/>
<path d="M40 91H15C13.8954 91 13 91.8954 13 93V102C13 103.105 13.8954 104 15 104H40C41.1046 104 42 103.105 42 102V93C42 91.8954 41.1046 91 40 91Z" fill="#E0DAE3"/>
<path d="M81 42H56C54.8954 42 54 42.8954 54 44V70C54 71.1046 54.8954 72 56 72H81C82.1046 72 83 71.1046 83 70V44C83 42.8954 82.1046 42 81 42Z" fill="#E0DAE3"/>
<path d="M120 42H95C93.8954 42 93 42.8954 93 44V70C93 71.1046 93.8954 72 95 72H120C121.105 72 122 71.1046 122 70V44C122 42.8954 121.105 42 120 42Z" fill="#E0DAE3"/>
<path d="M120 26H16C14.8954 26 14 26.8954 14 28V30C14 31.1046 14.8954 32 16 32H120C121.105 32 122 31.1046 122 30V28C122 26.8954 121.105 26 120 26Z" fill="#E0DAE3"/>
<path d="M129 17H1" stroke="#4B2661" stroke-width="2" stroke-linecap="round" stroke-linejoin="round"/>
<path d="M10 12C11.6569 12 13 10.6569 13 9C13 7.34315 11.6569 6 10 6C8.34315 6 7 7.34315 7 9C7 10.6569 8.34315 12 10 12Z" fill="#4B2661"/>
<path d="M19 12C20.6569 12 22 10.6569 22 9C22 7.34315 20.6569 6 19 6C17.3431 6 16 7.34315 16 9C16 10.6569 17.3431 12 19 12Z" fill="#4B2661"/>
<path d="M28 12C29.6569 12 31 10.6569 31 9C31 7.34315 29.6569 6 28 6C26.3431 6 25 7.34315 25 9C25 10.6569 26.3431 12 28 12Z" fill="#4B2661"/>
<path d="M39 39H13C11.8954 39 11 39.8954 11 41V67C11 68.1046 11.8954 69 13 69H39C40.1046 69 41 68.1046 41 67V41C41 39.8954 40.1046 39 39 39Z" stroke="#4B2661" stroke-linecap="round" stroke-linejoin="round"/>
<path d="M18 79H13C12.4696 79 11.9608 78.7893 11.5857 78.4142C11.2106 78.0391 11 77.5304 11 77V41C11 40.4696 11.2106 39.9609 11.5857 39.5858C11.9608 39.2107 12.4696 39 13 39H39C39.5304 39 40.0392 39.2107 40.4143 39.5858C40.7894 39.9609 41 40.4696 41 41V77C41 77.5304 40.7894 78.0391 40.4143 78.4142C40.0392 78.7893 39.5304 79 39 79H33" stroke="#4B2661" stroke-linecap="round" stroke-linejoin="round"/>
<path d="M14 72H26.069" stroke="#4B2661" stroke-linecap="round" stroke-linejoin="round"/>
<path d="M14 74H22" stroke="#4B2661" stroke-linecap="round" stroke-linejoin="round"/>
<path d="M32.104 72H39.001" stroke="#4B2661" stroke-linecap="round" stroke-linejoin="round"/>
<path d="M35 49L33 53L31 52V62H21V52L19 53L17 49L22 46H24C24 46.5304 24.2106 47.0391 24.5857 47.4142C24.9608 47.7893 25.4696 48 26 48C26.5304 48 27.0392 47.7893 27.4143 47.4142C27.7894 47.0391 28 46.5304 28 46H30L35 49Z" stroke="#4B2661" stroke-linecap="round" stroke-linejoin="round"/>
<path d="M28 46C28 46.5304 27.7894 47.0391 27.4143 47.4142C27.0392 47.7893 26.5304 48 26 48C25.4696 48 24.9608 47.7893 24.5857 47.4142C24.2106 47.0391 24 46.5304 24 46H28Z" stroke="#4B2661" stroke-linecap="round" stroke-linejoin="round"/>
<path d="M31 77H20C18.8954 77 18 77.8954 18 79C18 80.1046 18.8954 81 20 81H31C32.1046 81 33 80.1046 33 79C33 77.8954 32.1046 77 31 77Z" stroke="#4B2661" stroke-linecap="round" stroke-linejoin="round"/>
<path d="M160 34H135C133.895 34 133 34.8954 133 36V61C133 62.1046 133.895 63 135 63H160C161.105 63 162 62.1046 162 61V36C162 34.8954 161.105 34 160 34Z" fill="#E0DAE3"/>
<path d="M158 31H132C130.895 31 130 31.8954 130 33V59C130 60.1046 130.895 61 132 61H158C159.105 61 160 60.1046 160 59V33C160 31.8954 159.105 31 158 31Z" stroke="#4B2661" stroke-linecap="round" stroke-linejoin="round"/>
<path d="M137 71H132C131.47 71 130.961 70.7893 130.586 70.4142C130.211 70.0391 130 69.5304 130 69V33C130 32.4696 130.211 31.9609 130.586 31.5858C130.961 31.2107 131.47 31 132 31H158C158.53 31 159.039 31.2107 159.414 31.5858C159.789 31.9609 160 32.4696 160 33V69C160 69.5304 159.789 70.0391 159.414 70.4142C159.039 70.7893 158.53 71 158 71H152" stroke="#4B2661" stroke-linecap="round" stroke-linejoin="round"/>
<path d="M133 64H145.069" stroke="#4B2661" stroke-linecap="round" stroke-linejoin="round"/>
<path d="M133 66H141" stroke="#4B2661" stroke-linecap="round" stroke-linejoin="round"/>
<path d="M151.104 64H158.001" stroke="#4B2661" stroke-linecap="round" stroke-linejoin="round"/>
<path d="M154 41L152 45L150 44V54H140V44L138 45L136 41L141 38H143C143 38.5304 143.211 39.0391 143.586 39.4142C143.961 39.7893 144.47 40 145 40C145.53 40 146.039 39.7893 146.414 39.4142C146.789 39.0391 147 38.5304 147 38H149L154 41Z" stroke="#4B2661" stroke-linecap="round" stroke-linejoin="round"/>
<path d="M147 38C147 38.5304 146.789 39.0391 146.414 39.4142C146.039 39.7893 145.53 40 145 40C144.47 40 143.961 39.7893 143.586 39.4142C143.211 39.0391 143 38.5304 143 38H147Z" stroke="#4B2661" stroke-linecap="round" stroke-linejoin="round"/>
<path d="M150 69H139C137.895 69 137 69.8954 137 71C137 72.1046 137.895 73 139 73H150C151.105 73 152 72.1046 152 71C152 69.8954 151.105 69 150 69Z" stroke="#4B2661" stroke-linecap="round" stroke-linejoin="round"/>
<path d="M160 81H135C133.895 81 133 81.8954 133 83V102C133 103.105 133.895 104 135 104H160C161.105 104 162 103.105 162 102V83C162 81.8954 161.105 81 160 81Z" fill="#E0DAE3"/>
<path d="M130 101V80C130 79.4696 130.211 78.9609 130.586 78.5858C130.961 78.2107 131.47 78 132 78H158C158.53 78 159.039 78.2107 159.414 78.5858C159.789 78.9609 160 79.4696 160 80V101" stroke="#4B2661" stroke-linecap="round" stroke-linejoin="round"/>
<path d="M154 88L152 92L150 91V101H140V91L138 92L136 88L141 85H143C143 85.5304 143.211 86.0391 143.586 86.4142C143.961 86.7893 144.47 87 145 87C145.53 87 146.039 86.7893 146.414 86.4142C146.789 86.0391 147 85.5304 147 85H149L154 88Z" stroke="#4B2661" stroke-linecap="round" stroke-linejoin="round"/>
<path d="M147 85C147 85.5304 146.789 86.0391 146.414 86.4142C146.039 86.7893 145.53 87 145 87C144.47 87 143.961 86.7893 143.586 86.4142C143.211 86.0391 143 85.5304 143 85H147Z" stroke="#4B2661" stroke-linecap="round" stroke-linejoin="round"/>
<path d="M11 101V91C11 90.4696 11.2106 89.9609 11.5857 89.5858C11.9608 89.2107 12.4696 89 13 89H39C39.5304 89 40.0392 89.2107 40.4143 89.5858C40.7894 89.9609 41 90.4696 41 91V101" stroke="#4B2661" stroke-linecap="round" stroke-linejoin="round"/>
<path d="M18 101L17 99L22 96H24C24 96.5304 24.2106 97.0391 24.5857 97.4142C24.9608 97.7893 25.4696 98 26 98C26.5304 98 27.0392 97.7893 27.4143 97.4142C27.7894 97.0391 28 96.5304 28 96H30L35 99L34 101" stroke="#4B2661" stroke-linecap="round" stroke-linejoin="round"/>
<path d="M28 96C28 96.5304 27.7894 97.0391 27.4143 97.4142C27.0392 97.7893 26.5304 98 26 98C25.4696 98 24.9608 97.7893 24.5857 97.4142C24.2106 97.0391 24 96.5304 24 96H28Z" stroke="#4B2661" stroke-linecap="round" stroke-linejoin="round"/>
<path d="M80 91H55C53.8954 91 53 91.8954 53 93V102C53 103.105 53.8954 104 55 104H80C81.1046 104 82 103.105 82 102V93C82 91.8954 81.1046 91 80 91Z" fill="#E0DAE3"/>
<path d="M51 101V91C51 90.4696 51.2106 89.9609 51.5857 89.5858C51.9608 89.2107 52.4696 89 53 89H79C79.5304 89 80.0392 89.2107 80.4143 89.5858C80.7894 89.9609 81 90.4696 81 91V101" stroke="#4B2661" stroke-linecap="round" stroke-linejoin="round"/>
<path d="M58 101L57 99L62 96H64C64 96.5304 64.2106 97.0391 64.5857 97.4142C64.9608 97.7893 65.4696 98 66 98C66.5304 98 67.0392 97.7893 67.4143 97.4142C67.7894 97.0391 68 96.5304 68 96H70L75 99L74 101" stroke="#4B2661" stroke-linecap="round" stroke-linejoin="round"/>
<path d="M68 96C68 96.5304 67.7894 97.0391 67.4143 97.4142C67.0392 97.7893 66.5304 98 66 98C65.4696 98 64.9608 97.7893 64.5857 97.4142C64.2106 97.0391 64 96.5304 64 96H68Z" stroke="#4B2661" stroke-linecap="round" stroke-linejoin="round"/>
<path d="M120 91H95C93.8954 91 93 91.8954 93 93V102C93 103.105 93.8954 104 95 104H120C121.105 104 122 103.105 122 102V93C122 91.8954 121.105 91 120 91Z" fill="#E0DAE3"/>
<path d="M91 101V91C91 90.4696 91.2106 89.9609 91.5857 89.5858C91.9608 89.2107 92.4696 89 93 89H119C119.53 89 120.039 89.2107 120.414 89.5858C120.789 89.9609 121 90.4696 121 91V101" stroke="#4B2661" stroke-linecap="round" stroke-linejoin="round"/>
<path d="M98 101L97 99L102 96H104C104 96.5304 104.211 97.0391 104.586 97.4142C104.961 97.7893 105.47 98 106 98C106.53 98 107.039 97.7893 107.414 97.4142C107.789 97.0391 108 96.5304 108 96H110L115 99L114 101" stroke="#4B2661" stroke-linecap="round" stroke-linejoin="round"/>
<path d="M108 96C108 96.5304 107.789 97.0391 107.414 97.4142C107.039 97.7893 106.53 98 106 98C105.47 98 104.961 97.7893 104.586 97.4142C104.211 97.0391 104 96.5304 104 96H108Z" stroke="#4B2661" stroke-linecap="round" stroke-linejoin="round"/>
<path d="M79 39H53C51.8954 39 51 39.8954 51 41V67C51 68.1046 51.8954 69 53 69H79C80.1046 69 81 68.1046 81 67V41C81 39.8954 80.1046 39 79 39Z" stroke="#4B2661" stroke-linecap="round" stroke-linejoin="round"/>
<path d="M58 79H53C52.4696 79 51.9608 78.7893 51.5857 78.4142C51.2106 78.0391 51 77.5304 51 77V41C51 40.4696 51.2106 39.9609 51.5857 39.5858C51.9608 39.2107 52.4696 39 53 39H79C79.5304 39 80.0392 39.2107 80.4143 39.5858C80.7894 39.9609 81 40.4696 81 41V77C81 77.5304 80.7894 78.0391 80.4143 78.4142C80.0392 78.7893 79.5304 79 79 79H73" stroke="#4B2661" stroke-linecap="round" stroke-linejoin="round"/>
<path d="M54 72H66.069" stroke="#4B2661" stroke-linecap="round" stroke-linejoin="round"/>
<path d="M54 74H62" stroke="#4B2661" stroke-linecap="round" stroke-linejoin="round"/>
<path d="M72.104 72H79.001" stroke="#4B2661" stroke-linecap="round" stroke-linejoin="round"/>
<path d="M75 49L73 53L71 52V62H61V52L59 53L57 49L62 46H64C64 46.5304 64.2106 47.0391 64.5857 47.4142C64.9608 47.7893 65.4696 48 66 48C66.5304 48 67.0392 47.7893 67.4143 47.4142C67.7894 47.0391 68 46.5304 68 46H70L75 49Z" stroke="#4B2661" stroke-linecap="round" stroke-linejoin="round"/>
<path d="M68 46C68 46.5304 67.7894 47.0391 67.4143 47.4142C67.0392 47.7893 66.5304 48 66 48C65.4696 48 64.9608 47.7893 64.5857 47.4142C64.2106 47.0391 64 46.5304 64 46H68Z" stroke="#4B2661" stroke-linecap="round" stroke-linejoin="round"/>
<path d="M71 77H60C58.8954 77 58 77.8954 58 79C58 80.1046 58.8954 81 60 81H71C72.1046 81 73 80.1046 73 79C73 77.8954 72.1046 77 71 77Z" stroke="#4B2661" stroke-linecap="round" stroke-linejoin="round"/>
<path d="M119 39H93C91.8954 39 91 39.8954 91 41V67C91 68.1046 91.8954 69 93 69H119C120.105 69 121 68.1046 121 67V41C121 39.8954 120.105 39 119 39Z" stroke="#4B2661" stroke-linecap="round" stroke-linejoin="round"/>
<path d="M98 79H93C92.4696 79 91.9608 78.7893 91.5857 78.4142C91.2106 78.0391 91 77.5304 91 77V41C91 40.4696 91.2106 39.9609 91.5857 39.5858C91.9608 39.2107 92.4696 39 93 39H119C119.53 39 120.039 39.2107 120.414 39.5858C120.789 39.9609 121 40.4696 121 41V77C121 77.5304 120.789 78.0391 120.414 78.4142C120.039 78.7893 119.53 79 119 79H113" stroke="#4B2661" stroke-linecap="round" stroke-linejoin="round"/>
<path d="M94 72H106.069" stroke="#4B2661" stroke-linecap="round" stroke-linejoin="round"/>
<path d="M94 74H102" stroke="#4B2661" stroke-linecap="round" stroke-linejoin="round"/>
<path d="M112.104 72H119.001" stroke="#4B2661" stroke-linecap="round" stroke-linejoin="round"/>
<path d="M115 49L113 53L111 52V62H101V52L99 53L97 49L102 46H104C104 46.5304 104.211 47.0391 104.586 47.4142C104.961 47.7893 105.47 48 106 48C106.53 48 107.039 47.7893 107.414 47.4142C107.789 47.0391 108 46.5304 108 46H110L115 49Z" stroke="#4B2661" stroke-linecap="round" stroke-linejoin="round"/>
<path d="M108 46C108 46.5304 107.789 47.0391 107.414 47.4142C107.039 47.7893 106.53 48 106 48C105.47 48 104.961 47.7893 104.586 47.4142C104.211 47.0391 104 46.5304 104 46H108Z" stroke="#4B2661" stroke-linecap="round" stroke-linejoin="round"/>
<path d="M111 77H100C98.8954 77 98 77.8954 98 79C98 80.1046 98.8954 81 100 81H111C112.105 81 113 80.1046 113 79C113 77.8954 112.105 77 111 77Z" stroke="#4B2661" stroke-linecap="round" stroke-linejoin="round"/>
<path d="M118 24H13C11.8954 24 11 24.8954 11 26V28C11 29.1046 11.8954 30 13 30H118C119.105 30 120 29.1046 120 28V26C120 24.8954 119.105 24 118 24Z" stroke="#4B2661" stroke-linecap="round" stroke-linejoin="round"/>
<path d="M16 27H22.897" stroke="#4B2661" stroke-linecap="round" stroke-linejoin="round"/>
<path d="M106.104 27H113.001" stroke="#4B2661" stroke-linecap="round" stroke-linejoin="round"/>
<path d="M95 27H101.897" stroke="#4B2661" stroke-linecap="round" stroke-linejoin="round"/>
<path d="M84 27H90.897" stroke="#4B2661" stroke-linecap="round" stroke-linejoin="round"/>
<path d="M130 23V5C130 3.93913 129.579 2.92172 128.828 2.17157C128.078 1.42142 127.061 1 126 1H5C3.93913 1 2.92178 1.42142 2.17163 2.17157C1.42149 2.92172 1 3.93913 1 5V97C1 98.0609 1.42149 99.0783 2.17163 99.8284C2.92178 100.579 3.93913 101 5 101H126" stroke="#4B2661" stroke-width="2" stroke-linecap="round" stroke-linejoin="round"/>
<path d="M161 23H129C126.791 23 125 24.7909 125 27V97C125 99.2091 126.791 101 129 101H161C163.209 101 165 99.2091 165 97V27C165 24.7909 163.209 23 161 23Z" stroke="#4B2661" stroke-width="2" stroke-linecap="round" stroke-linejoin="round"/>
<path d="M155 23H136C135.448 23 135 23.4477 135 24C135 24.5523 135.448 25 136 25H155C155.552 25 156 24.5523 156 24C156 23.4477 155.552 23 155 23Z" stroke="#4B2661" stroke-width="2" stroke-miterlimit="10"/>
</svg>
