<svg width="212" height="126" viewBox="0 0 212 126" fill="none" xmlns="http://www.w3.org/2000/svg">
<path d="M53 42H39C38.4696 42 37.9608 41.7893 37.5857 41.4142C37.2106 41.0391 37 40.5304 37 40V28H55V40C55 40.5304 54.7894 41.0391 54.4143 41.4142C54.0392 41.7893 53.5304 42 53 42Z" stroke="#4B2661" stroke-linecap="round" stroke-linejoin="round"/>
<path d="M40 25L37 28H55L52 25H40Z" stroke="#4B2661" stroke-linecap="round" stroke-linejoin="round"/>
<path d="M45 25L44 28V34H48V28L47 25H45Z" stroke="#4B2661" stroke-linecap="round" stroke-linejoin="round"/>
<path d="M40 37H46" stroke="#4B2661" stroke-linecap="round" stroke-linejoin="round"/>
<path d="M40 39H44" stroke="#4B2661" stroke-linecap="round" stroke-linejoin="round"/>
<path d="M111 13H97C96.4477 13 96 13.4477 96 14V22C96 22.5523 96.4477 23 97 23H111C111.552 23 112 22.5523 112 22V14C112 13.4477 111.552 13 111 13Z" stroke="#4B2661" stroke-linecap="round" stroke-linejoin="round"/>
<path d="M104 21C105.657 21 107 19.6569 107 18C107 16.3431 105.657 15 104 15C102.343 15 101 16.3431 101 18C101 19.6569 102.343 21 104 21Z" stroke="#4B2661" stroke-linecap="round" stroke-linejoin="round"/>
<path d="M112 16C111.204 16 110.441 15.6839 109.879 15.1213C109.316 14.5587 109 13.7956 109 13" stroke="#4B2661" stroke-linecap="round" stroke-linejoin="round"/>
<path d="M112 20C111.204 20 110.441 20.3161 109.879 20.8787C109.316 21.4413 109 22.2044 109 23" stroke="#4B2661" stroke-linecap="round" stroke-linejoin="round"/>
<path d="M96 16C96.919 16 99 14.657 99 13" stroke="#4B2661" stroke-linecap="round" stroke-linejoin="round"/>
<path d="M96 20C96.7956 20 97.5587 20.3161 98.1213 20.8787C98.6839 21.4413 99 22.2044 99 23" stroke="#4B2661" stroke-linecap="round" stroke-linejoin="round"/>
<path d="M100 13V9C100 8.73478 100.105 8.48043 100.293 8.29289C100.481 8.10536 100.735 8 101 8H115C115.265 8 115.519 8.10536 115.707 8.29289C115.895 8.48043 116 8.73478 116 9V17C116 17.2652 115.895 17.5196 115.707 17.7071C115.519 17.8946 115.265 18 115 18H112" stroke="#4B2661" stroke-linecap="round" stroke-linejoin="round"/>
<path d="M105 13C105 12.2044 105.316 11.4413 105.879 10.8787C106.441 10.3161 107.204 10 108 10C108.796 10 109.559 10.3161 110.121 10.8787C110.684 11.4413 111 12.2044 111 13" stroke="#4B2661" stroke-linecap="round" stroke-linejoin="round"/>
<path d="M116 11C115.204 11 114.441 10.6839 113.879 10.1213C113.316 9.55871 113 8.79565 113 8" stroke="#4B2661" stroke-linecap="round" stroke-linejoin="round"/>
<path d="M116 15C115.204 15 114.441 15.3161 113.879 15.8787C113.316 16.4413 113 17.2044 113 18" stroke="#4B2661" stroke-linecap="round" stroke-linejoin="round"/>
<path d="M100 11C100.919 11 103 9.657 103 8" stroke="#4B2661" stroke-linecap="round" stroke-linejoin="round"/>
<path d="M15.598 91.4429C18.9239 91.4429 21.62 88.7468 21.62 85.4209C21.62 82.0951 18.9239 79.3989 15.598 79.3989C12.2722 79.3989 9.57605 82.0951 9.57605 85.4209C9.57605 88.7468 12.2722 91.4429 15.598 91.4429Z" stroke="#4B2661" stroke-linecap="round" stroke-linejoin="round"/>
<path d="M13.408 91.4431H17.788V93.9961C17.788 94.1642 17.7548 94.3306 17.6905 94.4858C17.6262 94.641 17.5319 94.7821 17.413 94.9009C17.2941 95.0196 17.153 95.1138 16.9977 95.178C16.8424 95.2423 16.676 95.2752 16.508 95.2751H14.687C14.3477 95.2751 14.0224 95.1404 13.7826 94.9005C13.5427 94.6606 13.408 94.3353 13.408 93.9961V91.4431Z" stroke="#4B2661" stroke-linecap="round" stroke-linejoin="round"/>
<path d="M14.5031 95.2759H16.6931C16.6931 95.5663 16.5777 95.8448 16.3723 96.0502C16.167 96.2555 15.8885 96.3709 15.5981 96.3709V96.3709C15.3076 96.3709 15.0291 96.2555 14.8238 96.0502C14.6184 95.8448 14.5031 95.5663 14.5031 95.2759V95.2759Z" stroke="#4B2661" stroke-linecap="round" stroke-linejoin="round"/>
<path d="M23.2629 85.4209H25.9999" stroke="#4B2661" stroke-linecap="round" stroke-linejoin="round"/>
<path d="M5.19604 85.4209H7.93304" stroke="#4B2661" stroke-linecap="round" stroke-linejoin="round"/>
<path d="M15.598 77.757V75.02" stroke="#4B2661" stroke-linecap="round" stroke-linejoin="round"/>
<path d="M21.0179 80.001L22.9889 78.03" stroke="#4B2661" stroke-linecap="round" stroke-linejoin="round"/>
<path d="M8.20703 92.8121L10.178 90.8411" stroke="#4B2661" stroke-linecap="round" stroke-linejoin="round"/>
<path d="M21.0179 90.8411L22.9889 92.8121" stroke="#4B2661" stroke-linecap="round" stroke-linejoin="round"/>
<path d="M7.93298 77.7561L10.178 80.0011" stroke="#4B2661" stroke-linecap="round" stroke-linejoin="round"/>
<path d="M13.997 87.0639C14.4394 87.0639 14.798 86.451 14.798 85.6949C14.798 84.9388 14.4394 84.3259 13.997 84.3259C13.5547 84.3259 13.196 84.9388 13.196 85.6949C13.196 86.451 13.5547 87.0639 13.997 87.0639Z" stroke="#4B2661" stroke-linecap="round" stroke-linejoin="round"/>
<path d="M15.598 87.0639C16.0404 87.0639 16.399 86.451 16.399 85.6949C16.399 84.9388 16.0404 84.3259 15.598 84.3259C15.1556 84.3259 14.797 84.9388 14.797 85.6949C14.797 86.451 15.1556 87.0639 15.598 87.0639Z" stroke="#4B2661" stroke-linecap="round" stroke-linejoin="round"/>
<path d="M17.2 87.0639C17.6424 87.0639 18.001 86.451 18.001 85.6949C18.001 84.9388 17.6424 84.3259 17.2 84.3259C16.7577 84.3259 16.399 84.9388 16.399 85.6949C16.399 86.451 16.7577 87.0639 17.2 87.0639Z" stroke="#4B2661" stroke-linecap="round" stroke-linejoin="round"/>
<path d="M14.5031 87.064V90.896" stroke="#4B2661" stroke-linecap="round" stroke-linejoin="round"/>
<path d="M16.693 87.064V90.896" stroke="#4B2661" stroke-linecap="round" stroke-linejoin="round"/>
<path d="M196 89.5999C197.988 89.5999 199.6 87.9881 199.6 85.9999C199.6 84.0117 197.988 82.3999 196 82.3999C194.012 82.3999 192.4 84.0117 192.4 85.9999C192.4 87.9881 194.012 89.5999 196 89.5999Z" stroke="#4B2661" stroke-linecap="round" stroke-linejoin="round"/>
<path d="M201.544 89.0001V89.0091L202.96 90.4181C203.118 90.5792 203.212 90.7934 203.222 91.0192C203.232 91.245 203.158 91.4665 203.014 91.6411C202.607 92.1497 202.145 92.6115 201.636 93.0181C201.462 93.1615 201.241 93.2354 201.015 93.2257C200.79 93.2159 200.576 93.123 200.415 92.9651L199 91.5441C198.618 91.7497 198.216 91.9156 197.8 92.0391V94.0461C197.8 94.2693 197.717 94.4846 197.568 94.6506C197.419 94.8167 197.214 94.9219 196.992 94.9461C196.333 95.0181 195.667 95.0181 195.008 94.9461C194.786 94.9219 194.581 94.8167 194.432 94.6506C194.283 94.4846 194.2 94.2693 194.2 94.0461V92.0391C193.784 91.9156 193.382 91.7497 193 91.5441L191.582 92.9621C191.421 93.1201 191.207 93.2129 190.982 93.2227C190.756 93.2324 190.535 93.1585 190.361 93.0151C189.852 92.6085 189.39 92.1467 188.983 91.6381C188.839 91.4635 188.765 91.242 188.775 91.0162C188.785 90.7904 188.879 90.5763 189.037 90.4151L190.453 89.0061V89.0001C190.245 88.6183 190.078 88.2162 189.953 87.8001H187.946C187.723 87.7999 187.507 87.7174 187.341 87.5682C187.175 87.4191 187.07 87.214 187.046 86.9921C186.974 86.3327 186.974 85.6674 187.046 85.0081C187.07 84.7862 187.175 84.581 187.341 84.4319C187.507 84.2828 187.723 84.2002 187.946 84.2001H189.953C190.078 83.784 190.245 83.3818 190.453 83.0001L189.035 81.5821C188.877 81.4211 188.784 81.2072 188.774 80.9818C188.764 80.7563 188.838 80.5351 188.982 80.3611C189.389 79.8522 189.85 79.39 190.359 78.9831C190.533 78.8394 190.755 78.7655 190.981 78.7754C191.207 78.7854 191.421 78.8786 191.582 79.0371L192.991 80.4531H193C193.382 80.2474 193.784 80.0815 194.2 79.9581V77.9511C194.2 77.7279 194.283 77.5126 194.432 77.3465C194.581 77.1804 194.786 77.0752 195.008 77.0511C195.667 76.9791 196.333 76.9791 196.992 77.0511C197.214 77.0752 197.419 77.1804 197.568 77.3465C197.717 77.5126 197.8 77.7279 197.8 77.9511V79.9581C198.216 80.0815 198.618 80.2474 199 80.4531H199.009L200.418 79.0371C200.579 78.8786 200.793 78.7854 201.019 78.7754C201.245 78.7655 201.467 78.8394 201.641 78.9831C202.15 79.39 202.611 79.8522 203.018 80.3611C203.162 80.5351 203.236 80.7563 203.226 80.9818C203.216 81.2072 203.123 81.4211 202.965 81.5821L201.544 83.0001C201.751 83.3818 201.919 83.784 202.044 84.2001H204.051C204.274 84.2002 204.489 84.2828 204.656 84.4319C204.822 84.581 204.927 84.7862 204.951 85.0081C205.023 85.6674 205.023 86.3327 204.951 86.9921C204.927 87.214 204.822 87.4191 204.656 87.5682C204.489 87.7174 204.274 87.7999 204.051 87.8001H202.044C201.919 88.2162 201.751 88.6183 201.544 89.0001V89.0001Z" stroke="#4B2661" stroke-linecap="round" stroke-linejoin="round"/>
<path d="M142.353 56H79.647C77.6328 56 76 57.6328 76 59.647V122.353C76 124.367 77.6328 126 79.647 126H142.353C144.367 126 146 124.367 146 122.353V59.647C146 57.6328 144.367 56 142.353 56Z" fill="#E0DAE3"/>
<path d="M93.5979 103C95.807 103 97.5979 101.209 97.5979 99C97.5979 96.7909 95.807 95 93.5979 95C91.3888 95 89.5979 96.7909 89.5979 99C89.5979 101.209 91.3888 103 93.5979 103Z" stroke="#4B2661" stroke-width="2" stroke-linecap="round" stroke-linejoin="round"/>
<path d="M119.598 103C121.807 103 123.598 101.209 123.598 99C123.598 96.7909 121.807 95 119.598 95C117.389 95 115.598 96.7909 115.598 99C115.598 101.209 117.389 103 119.598 103Z" stroke="#4B2661" stroke-width="2" stroke-linecap="round" stroke-linejoin="round"/>
<path d="M78.6499 63L84.6499 66L91.6499 95" stroke="#4B2661" stroke-width="2" stroke-linecap="round" stroke-linejoin="round"/>
<path d="M97.5979 99H115.598" stroke="#4B2661" stroke-width="2" stroke-linecap="round" stroke-linejoin="round"/>
<path d="M90.6499 90H121.142C121.577 90 121.999 89.8583 122.346 89.5965C122.693 89.3347 122.946 88.967 123.065 88.549L127.922 71.549C128.007 71.2515 128.022 70.9383 127.965 70.6341C127.908 70.3299 127.782 70.043 127.596 69.7959C127.409 69.5488 127.168 69.3484 126.892 69.2103C126.615 69.0722 126.309 69.0002 126 69H85.6499" stroke="#4B2661" stroke-linecap="round" stroke-linejoin="round"/>
<path d="M92.6499 69V90.033" stroke="#4B2661" stroke-linecap="round" stroke-linejoin="round"/>
<path d="M99.657 69V90.033" stroke="#4B2661" stroke-linecap="round" stroke-linejoin="round"/>
<path d="M106.664 69V90.033" stroke="#4B2661" stroke-linecap="round" stroke-linejoin="round"/>
<path d="M113.671 69V90.033" stroke="#4B2661" stroke-linecap="round" stroke-linejoin="round"/>
<path d="M120.671 69V90.033" stroke="#4B2661" stroke-linecap="round" stroke-linejoin="round"/>
<path d="M87.6499 75.9419H125.65" stroke="#4B2661" stroke-linecap="round" stroke-linejoin="round"/>
<path d="M88.6499 83H124.65" stroke="#4B2661" stroke-linecap="round" stroke-linejoin="round"/>
<path d="M137 51H75C72.7909 51 71 52.7909 71 55V117C71 119.209 72.7909 121 75 121H137C139.209 121 141 119.209 141 117V55C141 52.7909 139.209 51 137 51Z" stroke="#4B2661" stroke-width="2" stroke-linecap="round" stroke-linejoin="round"/>
<path d="M117 1H95C92.7909 1 91 2.79086 91 5V27C91 29.2091 92.7909 31 95 31H117C119.209 31 121 29.2091 121 27V5C121 2.79086 119.209 1 117 1Z" stroke="#4B2661" stroke-width="2" stroke-linecap="round" stroke-linejoin="round"/>
<path d="M57 19H35C32.7909 19 31 20.7909 31 23V45C31 47.2091 32.7909 49 35 49H57C59.2091 49 61 47.2091 61 45V23C61 20.7909 59.2091 19 57 19Z" stroke="#4B2661" stroke-width="2" stroke-linecap="round" stroke-linejoin="round"/>
<path d="M27 71H5C2.79086 71 1 72.7909 1 75V97C1 99.2091 2.79086 101 5 101H27C29.2091 101 31 99.2091 31 97V75C31 72.7909 29.2091 71 27 71Z" stroke="#4B2661" stroke-width="2" stroke-linecap="round" stroke-linejoin="round"/>
<path d="M106 32V50" stroke="#4B2661" stroke-linecap="round" stroke-linejoin="round"/>
<path d="M46 50V71H70" stroke="#4B2661" stroke-linecap="round" stroke-linejoin="round"/>
<path d="M46 122V101H70" stroke="#4B2661" stroke-linecap="round" stroke-linejoin="round"/>
<path d="M165 122V101H141" stroke="#4B2661" stroke-linecap="round" stroke-linejoin="round"/>
<path d="M32 86H70" stroke="#4B2661" stroke-linecap="round" stroke-linejoin="round"/>
<path d="M155 49H177C179.209 49 181 47.2091 181 45V23C181 20.7909 179.209 19 177 19L155 19C152.791 19 151 20.7909 151 23V45C151 47.2091 152.791 49 155 49Z" stroke="#4B2661" stroke-width="2" stroke-linecap="round" stroke-linejoin="round"/>
<path d="M185 101H207C209.209 101 211 99.2091 211 97V75C211 72.7909 209.209 71 207 71H185C182.791 71 181 72.7909 181 75V97C181 99.2091 182.791 101 185 101Z" stroke="#4B2661" stroke-width="2" stroke-linecap="round" stroke-linejoin="round"/>
<path d="M166 50V71H142" stroke="#4B2661" stroke-linecap="round" stroke-linejoin="round"/>
<path d="M180 86H142" stroke="#4B2661" stroke-linecap="round" stroke-linejoin="round"/>
<path d="M172.56 42.56C172.295 43.0017 171.92 43.3668 171.471 43.6193C171.022 43.8718 170.515 44.003 170 44H162C161.204 44 160.441 43.6839 159.879 43.1213C159.316 42.5587 159 41.7956 159 41V25H170V41.5C170 41.7965 170.088 42.0862 170.253 42.3327C170.418 42.5791 170.652 42.7711 170.926 42.8846C171.2 42.998 171.501 43.0277 171.792 42.9699C172.083 42.9122 172.35 42.7695 172.56 42.56V42.56Z" stroke="#4B2661" stroke-linecap="round" stroke-linejoin="round"/>
<path d="M173 36V41C173.003 41.1004 172.997 41.2009 172.98 41.3V41.31C172.938 41.7489 172.798 42.1727 172.57 42.55C172.57 42.5527 172.569 42.5552 172.567 42.5571C172.565 42.5589 172.563 42.56 172.56 42.56C172.35 42.7695 172.083 42.9122 171.792 42.9699C171.501 43.0277 171.2 42.998 170.926 42.8846C170.652 42.7711 170.418 42.5791 170.253 42.3327C170.088 42.0862 170 41.7965 170 41.5V36H173Z" stroke="#4B2661" stroke-linecap="round" stroke-linejoin="round"/>
<path d="M161 28H167" stroke="#4B2661" stroke-linecap="round" stroke-linejoin="round"/>
<path d="M161 30H165" stroke="#4B2661" stroke-linecap="round" stroke-linejoin="round"/>
<path d="M161 32H167" stroke="#4B2661" stroke-linecap="round" stroke-linejoin="round"/>
<path d="M161 34H165" stroke="#4B2661" stroke-linecap="round" stroke-linejoin="round"/>
<path d="M161 39H166" stroke="#4B2661" stroke-linecap="round" stroke-linejoin="round"/>
<path d="M161 37H164" stroke="#4B2661" stroke-linecap="round" stroke-linejoin="round"/>
</svg>
