<svg width="186" height="104" viewBox="0 0 186 104" fill="none" xmlns="http://www.w3.org/2000/svg">
<path d="M71 42H46C44.8954 42 44 42.8954 44 44V69C44 70.1046 44.8954 71 46 71H71C72.1046 71 73 70.1046 73 69V44C73 42.8954 72.1046 42 71 42Z" fill="#E0DAE3"/>
<path d="M70 91H45C43.8954 91 43 91.8954 43 93V102C43 103.105 43.8954 104 45 104H70C71.1046 104 72 103.105 72 102V93C72 91.8954 71.1046 91 70 91Z" fill="#E0DAE3"/>
<path d="M111 42H86C84.8954 42 84 42.8954 84 44V70C84 71.1046 84.8954 72 86 72H111C112.105 72 113 71.1046 113 70V44C113 42.8954 112.105 42 111 42Z" fill="#E0DAE3"/>
<path d="M150 42H125C123.895 42 123 42.8954 123 44V70C123 71.1046 123.895 72 125 72H150C151.105 72 152 71.1046 152 70V44C152 42.8954 151.105 42 150 42Z" fill="#E0DAE3"/>
<path d="M150 26H46C44.8954 26 44 26.8954 44 28V30C44 31.1046 44.8954 32 46 32H150C151.105 32 152 31.1046 152 30V28C152 26.8954 151.105 26 150 26Z" fill="#E0DAE3"/>
<path d="M69 39H43C41.8954 39 41 39.8954 41 41V67C41 68.1046 41.8954 69 43 69H69C70.1046 69 71 68.1046 71 67V41C71 39.8954 70.1046 39 69 39Z" stroke="#4B2661" stroke-linecap="round" stroke-linejoin="round"/>
<path d="M48 79H43C42.4696 79 41.9608 78.7893 41.5857 78.4142C41.2106 78.0391 41 77.5304 41 77V41C41 40.4696 41.2106 39.9609 41.5857 39.5858C41.9608 39.2107 42.4696 39 43 39H69C69.5304 39 70.0392 39.2107 70.4143 39.5858C70.7894 39.9609 71 40.4696 71 41V77C71 77.5304 70.7894 78.0391 70.4143 78.4142C70.0392 78.7893 69.5304 79 69 79H63" stroke="#4B2661" stroke-linecap="round" stroke-linejoin="round"/>
<path d="M44 72H56.069" stroke="#4B2661" stroke-linecap="round" stroke-linejoin="round"/>
<path d="M44 74H52" stroke="#4B2661" stroke-linecap="round" stroke-linejoin="round"/>
<path d="M62.104 72H69.001" stroke="#4B2661" stroke-linecap="round" stroke-linejoin="round"/>
<path d="M65 49L63 53L61 52V62H51V52L49 53L47 49L52 46H54C54 46.5304 54.2106 47.0391 54.5857 47.4142C54.9608 47.7893 55.4696 48 56 48C56.5304 48 57.0392 47.7893 57.4143 47.4142C57.7894 47.0391 58 46.5304 58 46H60L65 49Z" stroke="#4B2661" stroke-linecap="round" stroke-linejoin="round"/>
<path d="M58 46C58 46.5304 57.7894 47.0391 57.4143 47.4142C57.0392 47.7893 56.5304 48 56 48C55.4696 48 54.9608 47.7893 54.5857 47.4142C54.2106 47.0391 54 46.5304 54 46H58Z" stroke="#4B2661" stroke-linecap="round" stroke-linejoin="round"/>
<path d="M61 77H50C48.8954 77 48 77.8954 48 79C48 80.1046 48.8954 81 50 81H61C62.1046 81 63 80.1046 63 79C63 77.8954 62.1046 77 61 77Z" stroke="#4B2661" stroke-linecap="round" stroke-linejoin="round"/>
<path d="M41 101V91C41 90.4696 41.2106 89.9609 41.5857 89.5858C41.9608 89.2107 42.4696 89 43 89H69C69.5304 89 70.0392 89.2107 70.4143 89.5858C70.7894 89.9609 71 90.4696 71 91V101" stroke="#4B2661" stroke-linecap="round" stroke-linejoin="round"/>
<path d="M48 101L47 99L52 96H54C54 96.5304 54.2106 97.0391 54.5857 97.4142C54.9608 97.7893 55.4696 98 56 98C56.5304 98 57.0392 97.7893 57.4143 97.4142C57.7894 97.0391 58 96.5304 58 96H60L65 99L64 101" stroke="#4B2661" stroke-linecap="round" stroke-linejoin="round"/>
<path d="M58 96C58 96.5304 57.7894 97.0391 57.4143 97.4142C57.0392 97.7893 56.5304 98 56 98C55.4696 98 54.9608 97.7893 54.5857 97.4142C54.2106 97.0391 54 96.5304 54 96H58Z" stroke="#4B2661" stroke-linecap="round" stroke-linejoin="round"/>
<path d="M110 91H85C83.8954 91 83 91.8954 83 93V102C83 103.105 83.8954 104 85 104H110C111.105 104 112 103.105 112 102V93C112 91.8954 111.105 91 110 91Z" fill="#E0DAE3"/>
<path d="M81 101V91C81 90.4696 81.2106 89.9609 81.5857 89.5858C81.9608 89.2107 82.4696 89 83 89H109C109.53 89 110.039 89.2107 110.414 89.5858C110.789 89.9609 111 90.4696 111 91V101" stroke="#4B2661" stroke-linecap="round" stroke-linejoin="round"/>
<path d="M88 101L87 99L92 96H94C94 96.5304 94.2106 97.0391 94.5857 97.4142C94.9608 97.7893 95.4696 98 96 98C96.5304 98 97.0392 97.7893 97.4143 97.4142C97.7894 97.0391 98 96.5304 98 96H100L105 99L104 101" stroke="#4B2661" stroke-linecap="round" stroke-linejoin="round"/>
<path d="M98 96C98 96.5304 97.7894 97.0391 97.4143 97.4142C97.0392 97.7893 96.5304 98 96 98C95.4696 98 94.9608 97.7893 94.5857 97.4142C94.2106 97.0391 94 96.5304 94 96H98Z" stroke="#4B2661" stroke-linecap="round" stroke-linejoin="round"/>
<path d="M150 91H125C123.895 91 123 91.8954 123 93V102C123 103.105 123.895 104 125 104H150C151.105 104 152 103.105 152 102V93C152 91.8954 151.105 91 150 91Z" fill="#E0DAE3"/>
<path d="M121 101V91C121 90.4696 121.211 89.9609 121.586 89.5858C121.961 89.2107 122.47 89 123 89H149C149.53 89 150.039 89.2107 150.414 89.5858C150.789 89.9609 151 90.4696 151 91V101" stroke="#4B2661" stroke-linecap="round" stroke-linejoin="round"/>
<path d="M128 101L127 99L132 96H134C134 96.5304 134.211 97.0391 134.586 97.4142C134.961 97.7893 135.47 98 136 98C136.53 98 137.039 97.7893 137.414 97.4142C137.789 97.0391 138 96.5304 138 96H140L145 99L144 101" stroke="#4B2661" stroke-linecap="round" stroke-linejoin="round"/>
<path d="M138 96C138 96.5304 137.789 97.0391 137.414 97.4142C137.039 97.7893 136.53 98 136 98C135.47 98 134.961 97.7893 134.586 97.4142C134.211 97.0391 134 96.5304 134 96H138Z" stroke="#4B2661" stroke-linecap="round" stroke-linejoin="round"/>
<path d="M109 39H83C81.8954 39 81 39.8954 81 41V67C81 68.1046 81.8954 69 83 69H109C110.105 69 111 68.1046 111 67V41C111 39.8954 110.105 39 109 39Z" stroke="#4B2661" stroke-linecap="round" stroke-linejoin="round"/>
<path d="M88 79H83C82.4696 79 81.9608 78.7893 81.5857 78.4142C81.2106 78.0391 81 77.5304 81 77V41C81 40.4696 81.2106 39.9609 81.5857 39.5858C81.9608 39.2107 82.4696 39 83 39H109C109.53 39 110.039 39.2107 110.414 39.5858C110.789 39.9609 111 40.4696 111 41V77C111 77.5304 110.789 78.0391 110.414 78.4142C110.039 78.7893 109.53 79 109 79H103" stroke="#4B2661" stroke-linecap="round" stroke-linejoin="round"/>
<path d="M84 72H96.069" stroke="#4B2661" stroke-linecap="round" stroke-linejoin="round"/>
<path d="M84 74H92" stroke="#4B2661" stroke-linecap="round" stroke-linejoin="round"/>
<path d="M102.104 72H109.001" stroke="#4B2661" stroke-linecap="round" stroke-linejoin="round"/>
<path d="M105 49L103 53L101 52V62H91V52L89 53L87 49L92 46H94C94 46.5304 94.2106 47.0391 94.5857 47.4142C94.9608 47.7893 95.4696 48 96 48C96.5304 48 97.0392 47.7893 97.4143 47.4142C97.7894 47.0391 98 46.5304 98 46H100L105 49Z" stroke="#4B2661" stroke-linecap="round" stroke-linejoin="round"/>
<path d="M98 46C98 46.5304 97.7894 47.0391 97.4143 47.4142C97.0392 47.7893 96.5304 48 96 48C95.4696 48 94.9608 47.7893 94.5857 47.4142C94.2106 47.0391 94 46.5304 94 46H98Z" stroke="#4B2661" stroke-linecap="round" stroke-linejoin="round"/>
<path d="M101 77H90C88.8954 77 88 77.8954 88 79C88 80.1046 88.8954 81 90 81H101C102.105 81 103 80.1046 103 79C103 77.8954 102.105 77 101 77Z" stroke="#4B2661" stroke-linecap="round" stroke-linejoin="round"/>
<path d="M149 39H123C121.895 39 121 39.8954 121 41V67C121 68.1046 121.895 69 123 69H149C150.105 69 151 68.1046 151 67V41C151 39.8954 150.105 39 149 39Z" stroke="#4B2661" stroke-linecap="round" stroke-linejoin="round"/>
<path d="M128 79H123C122.47 79 121.961 78.7893 121.586 78.4142C121.211 78.0391 121 77.5304 121 77V41C121 40.4696 121.211 39.9609 121.586 39.5858C121.961 39.2107 122.47 39 123 39H149C149.53 39 150.039 39.2107 150.414 39.5858C150.789 39.9609 151 40.4696 151 41V77C151 77.5304 150.789 78.0391 150.414 78.4142C150.039 78.7893 149.53 79 149 79H143" stroke="#4B2661" stroke-linecap="round" stroke-linejoin="round"/>
<path d="M124 72H136.069" stroke="#4B2661" stroke-linecap="round" stroke-linejoin="round"/>
<path d="M124 74H132" stroke="#4B2661" stroke-linecap="round" stroke-linejoin="round"/>
<path d="M142.104 72H149.001" stroke="#4B2661" stroke-linecap="round" stroke-linejoin="round"/>
<path d="M145 49L143 53L141 52V62H131V52L129 53L127 49L132 46H134C134 46.5304 134.211 47.0391 134.586 47.4142C134.961 47.7893 135.47 48 136 48C136.53 48 137.039 47.7893 137.414 47.4142C137.789 47.0391 138 46.5304 138 46H140L145 49Z" stroke="#4B2661" stroke-linecap="round" stroke-linejoin="round"/>
<path d="M138 46C138 46.5304 137.789 47.0391 137.414 47.4142C137.039 47.7893 136.53 48 136 48C135.47 48 134.961 47.7893 134.586 47.4142C134.211 47.0391 134 46.5304 134 46H138Z" stroke="#4B2661" stroke-linecap="round" stroke-linejoin="round"/>
<path d="M141 77H130C128.895 77 128 77.8954 128 79C128 80.1046 128.895 81 130 81H141C142.105 81 143 80.1046 143 79C143 77.8954 142.105 77 141 77Z" stroke="#4B2661" stroke-linecap="round" stroke-linejoin="round"/>
<path d="M148 24H43C41.8954 24 41 24.8954 41 26V28C41 29.1046 41.8954 30 43 30H148C149.105 30 150 29.1046 150 28V26C150 24.8954 149.105 24 148 24Z" stroke="#4B2661" stroke-linecap="round" stroke-linejoin="round"/>
<path d="M46 27H52.897" stroke="#4B2661" stroke-linecap="round" stroke-linejoin="round"/>
<path d="M136.104 27H143.001" stroke="#4B2661" stroke-linecap="round" stroke-linejoin="round"/>
<path d="M125 27H131.897" stroke="#4B2661" stroke-linecap="round" stroke-linejoin="round"/>
<path d="M114 27H120.897" stroke="#4B2661" stroke-linecap="round" stroke-linejoin="round"/>
<path d="M156 1H35C32.7909 1 31 2.79086 31 5V97C31 99.2091 32.7909 101 35 101H156C158.209 101 160 99.2091 160 97V5C160 2.79086 158.209 1 156 1Z" stroke="#4B2661" stroke-width="2" stroke-linecap="round" stroke-linejoin="round"/>
<path d="M32 17H160" stroke="#4B2661" stroke-width="2" stroke-linecap="round" stroke-linejoin="round"/>
<path d="M40 12C41.6569 12 43 10.6569 43 9C43 7.34315 41.6569 6 40 6C38.3431 6 37 7.34315 37 9C37 10.6569 38.3431 12 40 12Z" fill="#4B2661"/>
<path d="M49 12C50.6569 12 52 10.6569 52 9C52 7.34315 50.6569 6 49 6C47.3431 6 46 7.34315 46 9C46 10.6569 47.3431 12 49 12Z" fill="#4B2661"/>
<path d="M58 12C59.6569 12 61 10.6569 61 9C61 7.34315 59.6569 6 58 6C56.3431 6 55 7.34315 55 9C55 10.6569 56.3431 12 58 12Z" fill="#4B2661"/>
<path d="M169 99H181C182.105 99 183 98.1046 183 97V85C183 83.8954 182.105 83 181 83H169C167.895 83 167 83.8954 167 85V97C167 98.1046 167.895 99 169 99Z" fill="#E0DAE3"/>
<path d="M169 34L171 35L173 34L175 35L177 34L179 35L181 34L183 35L185 34V86H169V34Z" stroke="#4B2661" stroke-width="2" stroke-linecap="round" stroke-linejoin="round"/>
<path d="M182 101H172C171.204 101 170.441 100.684 169.879 100.121C169.316 99.5587 169 98.7956 169 98V86H185V98C185 98.7956 184.684 99.5587 184.121 100.121C183.559 100.684 182.796 101 182 101V101Z" stroke="#4B2661" stroke-width="2" stroke-linecap="round" stroke-linejoin="round"/>
<path d="M177 86V34" stroke="#4B2661" stroke-linecap="round" stroke-linejoin="round"/>
<path d="M181 86V34" stroke="#4B2661" stroke-linecap="round" stroke-linejoin="round"/>
<path d="M169 89.5H185" stroke="#4B2661" stroke-linecap="round" stroke-linejoin="round"/>
<path d="M173 86V34" stroke="#4B2661" stroke-linecap="round" stroke-linejoin="round"/>
<path d="M185 34L177 19L169 34" stroke="#4B2661" stroke-width="2" stroke-linecap="round" stroke-linejoin="round"/>
<path d="M179 23H175" stroke="#4B2661" stroke-width="2" stroke-linecap="round" stroke-linejoin="round"/>
<path d="M19 21H3C1.89543 21 1 21.8954 1 23V99C1 100.105 1.89543 101 3 101H19C20.1046 101 21 100.105 21 99V23C21 21.8954 20.1046 21 19 21Z" stroke="#4B2661" stroke-width="2" stroke-linecap="round" stroke-linejoin="round"/>
<path d="M21 91H13" stroke="#4B2661" stroke-linecap="round" stroke-linejoin="round"/>
<path d="M21 71H13" stroke="#4B2661" stroke-linecap="round" stroke-linejoin="round"/>
<path d="M21 87H16" stroke="#4B2661" stroke-linecap="round" stroke-linejoin="round"/>
<path d="M21 83H16" stroke="#4B2661" stroke-linecap="round" stroke-linejoin="round"/>
<path d="M21 79H16" stroke="#4B2661" stroke-linecap="round" stroke-linejoin="round"/>
<path d="M21 75H16" stroke="#4B2661" stroke-linecap="round" stroke-linejoin="round"/>
<path d="M21 51H13" stroke="#4B2661" stroke-linecap="round" stroke-linejoin="round"/>
<path d="M21 67H16" stroke="#4B2661" stroke-linecap="round" stroke-linejoin="round"/>
<path d="M21 63H16" stroke="#4B2661" stroke-linecap="round" stroke-linejoin="round"/>
<path d="M21 59H16" stroke="#4B2661" stroke-linecap="round" stroke-linejoin="round"/>
<path d="M21 55H16" stroke="#4B2661" stroke-linecap="round" stroke-linejoin="round"/>
<path d="M21 31H13" stroke="#4B2661" stroke-linecap="round" stroke-linejoin="round"/>
<path d="M21 47H16" stroke="#4B2661" stroke-linecap="round" stroke-linejoin="round"/>
<path d="M21 43H16" stroke="#4B2661" stroke-linecap="round" stroke-linejoin="round"/>
<path d="M21 39H16" stroke="#4B2661" stroke-linecap="round" stroke-linejoin="round"/>
<path d="M21 35H16" stroke="#4B2661" stroke-linecap="round" stroke-linejoin="round"/>
</svg>
