<svg width="25" height="16" viewBox="0 0 25 16" fill="none" xmlns="http://www.w3.org/2000/svg">
<path d="M24 16.0001H0.421C0.309344 16.0001 0.202261 15.9557 0.123308 15.8767C0.0443552 15.7978 0 15.6907 0 15.5791L0 0.424049C0 0.312393 0.0443552 0.205311 0.123308 0.126358C0.202261 0.0474052 0.309344 0.00305176 0.421 0.00305176H24C24.1117 0.00305176 24.2187 0.0474052 24.2977 0.126358C24.3766 0.205311 24.421 0.312393 24.421 0.424049V15.5821C24.4202 15.6932 24.3755 15.7995 24.2966 15.8778C24.2178 15.9561 24.1111 16.0001 24 16.0001Z" fill="#F5F5F5"/>
<path d="M24.421 1.23106H0V0.424049C0 0.312393 0.0443552 0.205311 0.123308 0.126358C0.202261 0.0474052 0.309344 0.00305176 0.421 0.00305176H24C24.1117 0.00305176 24.2187 0.0474052 24.2977 0.126358C24.3766 0.205311 24.421 0.312393 24.421 0.424049V1.23405V1.23106Z" fill="#FF4B55"/>
<path d="M24.421 4.9231H0V6.1541H24.421V4.9231Z" fill="#FF4B55"/>
<path d="M24.421 2.46106H0V3.69206H24.421V2.46106Z" fill="#FF4B55"/>
<path d="M24.421 8.616H0.421C0.309344 8.616 0.202261 8.57164 0.123308 8.49269C0.0443552 8.41374 0 8.30666 0 8.19501L0 7.38501H24.421V8.616Z" fill="#FF4B55"/>
<path d="M24.421 12.3081H0V13.5391H24.421V12.3081Z" fill="#FF4B55"/>
<path d="M24 16.0001H0.421C0.309344 16.0001 0.202261 15.9557 0.123308 15.8767C0.0443552 15.7978 0 15.6907 0 15.579L0 14.769H24.421V15.579C24.421 15.6907 24.3766 15.7978 24.2977 15.8767C24.2187 15.9557 24.1117 16.0001 24 16.0001Z" fill="#FF4B55"/>
<path d="M24.421 9.84607H0V11.0771H24.421V9.84607Z" fill="#FF4B55"/>
<path d="M10.947 0H0.421005C0.36555 -6.25737e-07 0.310641 0.010952 0.259432 0.0322342C0.208223 0.0535164 0.161723 0.0847103 0.122603 0.124016C0.0834837 0.163321 0.0525149 0.209967 0.0314756 0.261276C0.0104364 0.312585 -0.000258694 0.367542 4.75103e-06 0.422997V8.196C4.75103e-06 8.25129 0.0108942 8.30603 0.0320515 8.35711C0.0532087 8.40819 0.0842193 8.4546 0.123313 8.49369C0.162406 8.53278 0.208817 8.5638 0.259895 8.58495C0.310973 8.60611 0.365718 8.617 0.421005 8.617H10.947C11.0023 8.617 11.057 8.60611 11.1081 8.58495C11.1592 8.5638 11.2056 8.53278 11.2447 8.49369C11.2838 8.4546 11.3148 8.40819 11.336 8.35711C11.3571 8.30603 11.368 8.25129 11.368 8.196V0.422997C11.3683 0.367542 11.3576 0.312585 11.3365 0.261276C11.3155 0.209967 11.2845 0.163321 11.2454 0.124016C11.2063 0.0847103 11.1598 0.0535164 11.1086 0.0322342C11.0574 0.010952 11.0025 -6.25737e-07 10.947 0Z" fill="#41479B"/>
<path d="M1.182 0.970035L1.275 1.24903H1.57C1.57831 1.24924 1.58635 1.25203 1.593 1.25701C1.59966 1.262 1.60459 1.26893 1.60712 1.27685C1.60965 1.28477 1.60965 1.29328 1.60712 1.3012C1.60459 1.30912 1.59965 1.31605 1.593 1.32103L1.356 1.49604L1.445 1.77703C1.44725 1.78494 1.44701 1.79334 1.44431 1.80111C1.44162 1.80887 1.43659 1.81562 1.42993 1.82042C1.42326 1.82523 1.41528 1.82787 1.40706 1.82798C1.39884 1.82809 1.39079 1.82566 1.384 1.82103L1.144 1.65004L0.904002 1.82103C0.897211 1.82566 0.889159 1.82809 0.880941 1.82798C0.872724 1.82787 0.86474 1.82523 0.858075 1.82042C0.85141 1.81562 0.846387 1.80887 0.84369 1.80111C0.840993 1.79334 0.840753 1.78494 0.843002 1.77703L0.932002 1.49604L0.695001 1.32103C0.688348 1.31605 0.683414 1.30912 0.680884 1.3012C0.678354 1.29328 0.678353 1.28477 0.680882 1.27685C0.683412 1.26893 0.688346 1.262 0.694998 1.25701C0.701651 1.25203 0.709692 1.24924 0.718002 1.24903H1.013L1.106 0.969036C1.10874 0.961066 1.11392 0.954165 1.12081 0.949314C1.12769 0.944462 1.13594 0.941909 1.14436 0.94202C1.15279 0.942131 1.16096 0.944901 1.16772 0.949932C1.17448 0.954963 1.17948 0.961996 1.182 0.970035V0.970035Z" fill="#F5F5F5"/>
<path d="M1.18201 2.42905L1.27501 2.70905H1.57001C1.57832 2.70925 1.58636 2.71204 1.59301 2.71703C1.59966 2.72201 1.6046 2.72894 1.60713 2.73686C1.60966 2.74478 1.60966 2.7533 1.60713 2.76122C1.6046 2.76914 1.59966 2.77607 1.59301 2.78105L1.35601 2.95604L1.44501 3.23705C1.44726 3.24495 1.44702 3.25336 1.44432 3.26113C1.44162 3.26889 1.4366 3.27562 1.42994 3.28043C1.42327 3.28524 1.41529 3.28789 1.40707 3.288C1.39885 3.28811 1.3908 3.28568 1.38401 3.28105L1.14401 3.11005L0.904009 3.28105C0.897218 3.28568 0.889166 3.28811 0.880948 3.288C0.872731 3.28789 0.864747 3.28524 0.858082 3.28043C0.851417 3.27562 0.846394 3.26889 0.843697 3.26113C0.841 3.25336 0.84076 3.24495 0.843009 3.23705L0.932009 2.95604L0.696009 2.77805C0.689356 2.77306 0.684421 2.76613 0.681891 2.75821C0.67936 2.75029 0.67936 2.74178 0.68189 2.73386C0.684419 2.72594 0.689354 2.71901 0.696006 2.71402C0.702658 2.70904 0.710698 2.70625 0.719009 2.70604H1.01401L1.10701 2.42604C1.11014 2.41849 1.11552 2.41208 1.12241 2.40767C1.1293 2.40326 1.13738 2.40107 1.14555 2.4014C1.15373 2.40173 1.16161 2.40456 1.16812 2.4095C1.17464 2.41444 1.17949 2.42127 1.18201 2.42905V2.42905Z" fill="#F5F5F5"/>
<path d="M1.182 3.88603L1.275 4.16603H1.57C1.57831 4.16624 1.58635 4.16903 1.593 4.17401C1.59966 4.179 1.60459 4.18593 1.60712 4.19385C1.60965 4.20177 1.60965 4.21027 1.60712 4.21819C1.60459 4.2261 1.59965 4.23304 1.593 4.23802L1.356 4.41302L1.445 4.69403C1.44725 4.70194 1.44701 4.71035 1.44431 4.71811C1.44162 4.72587 1.43659 4.7326 1.42993 4.73741C1.42326 4.74222 1.41528 4.74486 1.40706 4.74496C1.39884 4.74507 1.39079 4.74265 1.384 4.73802L1.144 4.56703L0.904002 4.73802C0.897211 4.74265 0.889159 4.74507 0.880941 4.74496C0.872724 4.74486 0.86474 4.74222 0.858075 4.73741C0.85141 4.7326 0.846387 4.72587 0.84369 4.71811C0.840993 4.71035 0.840753 4.70194 0.843002 4.69403L0.932002 4.41302L0.695001 4.23802C0.688348 4.23304 0.683414 4.2261 0.680884 4.21819C0.678354 4.21027 0.678353 4.20177 0.680882 4.19385C0.683412 4.18593 0.688346 4.179 0.694998 4.17401C0.701651 4.16903 0.709692 4.16624 0.718002 4.16603H1.013L1.106 3.88603C1.10863 3.87803 1.11372 3.87106 1.12055 3.86612C1.12737 3.86118 1.13558 3.85852 1.144 3.85852C1.15243 3.85852 1.16063 3.86118 1.16746 3.86612C1.17428 3.87106 1.17937 3.87803 1.182 3.88603V3.88603Z" fill="#F5F5F5"/>
<path d="M1.182 5.35197L1.275 5.63197H1.57C1.57831 5.63218 1.58635 5.63497 1.593 5.63995C1.59966 5.64494 1.60459 5.65187 1.60712 5.65979C1.60965 5.66771 1.60965 5.67622 1.60712 5.68414C1.60459 5.69206 1.59965 5.699 1.593 5.70398L1.356 5.87897L1.445 6.15997C1.44725 6.16788 1.44701 6.17629 1.44431 6.18405C1.44162 6.19181 1.43659 6.19856 1.42993 6.20337C1.42326 6.20818 1.41528 6.21081 1.40706 6.21092C1.39884 6.21103 1.39079 6.20861 1.384 6.20398L1.144 6.03297L0.904002 6.20398C0.897211 6.20861 0.889159 6.21103 0.880941 6.21092C0.872724 6.21081 0.86474 6.20818 0.858075 6.20337C0.85141 6.19856 0.846387 6.19181 0.84369 6.18405C0.840993 6.17629 0.840753 6.16788 0.843002 6.15997L0.932002 5.87897L0.695001 5.70398C0.688348 5.699 0.683414 5.69206 0.680884 5.68414C0.678354 5.67622 0.678353 5.66771 0.680882 5.65979C0.683412 5.65187 0.688346 5.64494 0.694998 5.63995C0.701651 5.63497 0.709692 5.63218 0.718002 5.63197H1.013L1.106 5.35197C1.10863 5.34397 1.11372 5.337 1.12055 5.33206C1.12737 5.32712 1.13558 5.32446 1.144 5.32446C1.15243 5.32446 1.16063 5.32712 1.16746 5.33206C1.17428 5.337 1.17937 5.34397 1.182 5.35197V5.35197Z" fill="#F5F5F5"/>
<path d="M1.182 6.81401L1.275 7.09401H1.57C1.57831 7.09421 1.58635 7.097 1.593 7.10199C1.59966 7.10697 1.60459 7.11391 1.60712 7.12183C1.60965 7.12974 1.60965 7.13826 1.60712 7.14618C1.60459 7.1541 1.59965 7.16103 1.593 7.16602L1.356 7.34102L1.445 7.62201C1.44725 7.62991 1.44701 7.63832 1.44431 7.64609C1.44162 7.65385 1.43659 7.6606 1.42993 7.66541C1.42326 7.67021 1.41528 7.67285 1.40706 7.67296C1.39884 7.67307 1.39079 7.67064 1.384 7.66602L1.144 7.49501L0.904002 7.66602C0.897211 7.67064 0.889159 7.67307 0.880941 7.67296C0.872724 7.67285 0.86474 7.67021 0.858075 7.66541C0.85141 7.6606 0.846387 7.65385 0.84369 7.64609C0.840993 7.63832 0.840753 7.62991 0.843002 7.62201L0.932002 7.34102L0.695001 7.16602C0.688348 7.16103 0.683414 7.1541 0.680884 7.14618C0.678354 7.13826 0.678353 7.12974 0.680882 7.12183C0.683412 7.11391 0.688346 7.10697 0.694998 7.10199C0.701651 7.097 0.709692 7.09421 0.718002 7.09401H1.013L1.106 6.81401C1.10863 6.80601 1.11372 6.79904 1.12055 6.7941C1.12737 6.78916 1.13558 6.7865 1.144 6.7865C1.15243 6.7865 1.16063 6.78916 1.16746 6.7941C1.17428 6.79904 1.17937 6.80601 1.182 6.81401V6.81401Z" fill="#F5F5F5"/>
<path d="M2.31701 1.68303L2.41001 1.96203H2.70501C2.71332 1.96223 2.72136 1.96502 2.72801 1.97001C2.73467 1.97499 2.7396 1.98193 2.74213 1.98985C2.74466 1.99776 2.74466 2.00627 2.74213 2.01419C2.7396 2.02211 2.73466 2.02904 2.72801 2.03403L2.49101 2.20903L2.58001 2.49003C2.58226 2.49793 2.58202 2.50634 2.57932 2.5141C2.57662 2.52186 2.5716 2.52861 2.56494 2.53342C2.55827 2.53822 2.55029 2.54086 2.54207 2.54097C2.53385 2.54108 2.5258 2.53866 2.51901 2.53403L2.27901 2.36303L2.03901 2.53403C2.03222 2.53866 2.02417 2.54108 2.01595 2.54097C2.00773 2.54086 1.99975 2.53822 1.99308 2.53342C1.98642 2.52861 1.98139 2.52186 1.9787 2.5141C1.976 2.50634 1.97576 2.49793 1.97801 2.49003L2.06701 2.20903L1.83001 2.03403C1.82336 2.02904 1.81842 2.02211 1.81589 2.01419C1.81336 2.00627 1.81336 1.99776 1.81589 1.98985C1.81842 1.98193 1.82335 1.97499 1.83001 1.97001C1.83666 1.96502 1.8447 1.96223 1.85301 1.96203H2.14801L2.24101 1.68303C2.24364 1.67503 2.24873 1.66806 2.25556 1.66312C2.26238 1.65818 2.27058 1.65552 2.27901 1.65552C2.28743 1.65552 2.29564 1.65818 2.30247 1.66312C2.30929 1.66806 2.31438 1.67503 2.31701 1.68303V1.68303Z" fill="#F5F5F5"/>
<path d="M2.31701 3.14505L2.41001 3.42506H2.70501C2.71332 3.42527 2.72136 3.42804 2.72801 3.43303C2.73467 3.43801 2.7396 3.44496 2.74213 3.45288C2.74466 3.4608 2.74466 3.4693 2.74213 3.47722C2.7396 3.48514 2.73466 3.49207 2.72801 3.49706L2.49101 3.67206L2.58001 3.95306C2.58226 3.96097 2.58202 3.96936 2.57932 3.97713C2.57662 3.98489 2.5716 3.99164 2.56494 3.99644C2.55827 4.00125 2.55029 4.00389 2.54207 4.004C2.53385 4.00411 2.5258 4.00168 2.51901 3.99706L2.27901 3.82605L2.03901 3.99706C2.03222 4.00168 2.02417 4.00411 2.01595 4.004C2.00773 4.00389 1.99975 4.00125 1.99308 3.99644C1.98642 3.99164 1.98139 3.98489 1.9787 3.97713C1.976 3.96936 1.97576 3.96097 1.97801 3.95306L2.06701 3.67206L1.83001 3.49706C1.82336 3.49207 1.81842 3.48514 1.81589 3.47722C1.81336 3.4693 1.81336 3.4608 1.81589 3.45288C1.81842 3.44496 1.82335 3.43801 1.83001 3.43303C1.83666 3.42804 1.8447 3.42527 1.85301 3.42506H2.14801L2.24101 3.14505C2.24364 3.13705 2.24873 3.13009 2.25556 3.12515C2.26238 3.12021 2.27058 3.11755 2.27901 3.11755C2.28743 3.11755 2.29564 3.12021 2.30247 3.12515C2.30929 3.13009 2.31438 3.13705 2.31701 3.14505V3.14505Z" fill="#F5F5F5"/>
<path d="M2.31701 4.60698L2.41001 4.88599H2.70501C2.71332 4.88619 2.72136 4.88897 2.72801 4.89395C2.73467 4.89894 2.7396 4.90588 2.74213 4.9138C2.74466 4.92172 2.74466 4.93022 2.74213 4.93814C2.7396 4.94606 2.73466 4.95299 2.72801 4.95798L2.49101 5.13298L2.58001 5.41399C2.58226 5.42189 2.58202 5.43029 2.57932 5.43805C2.57662 5.44581 2.5716 5.45256 2.56494 5.45737C2.55827 5.46217 2.55029 5.46481 2.54207 5.46492C2.53385 5.46503 2.5258 5.46261 2.51901 5.45798L2.27901 5.28699L2.03901 5.45798C2.03222 5.46261 2.02417 5.46503 2.01595 5.46492C2.00773 5.46481 1.99975 5.46217 1.99308 5.45737C1.98642 5.45256 1.98139 5.44581 1.9787 5.43805C1.976 5.43029 1.97576 5.42189 1.97801 5.41399L2.06701 5.13298L1.83001 4.95798C1.82336 4.95299 1.81842 4.94606 1.81589 4.93814C1.81336 4.93022 1.81336 4.92172 1.81589 4.9138C1.81842 4.90588 1.82335 4.89894 1.83001 4.89395C1.83666 4.88897 1.8447 4.88619 1.85301 4.88599H2.14801L2.24101 4.60698C2.24364 4.59898 2.24873 4.59201 2.25556 4.58707C2.26238 4.58213 2.27058 4.57947 2.27901 4.57947C2.28743 4.57947 2.29564 4.58213 2.30247 4.58707C2.30929 4.59201 2.31438 4.59898 2.31701 4.60698Z" fill="#F5F5F5"/>
<path d="M2.31701 6.06999L2.41001 6.349H2.70501C2.71332 6.3492 2.72136 6.35199 2.72801 6.35698C2.73467 6.36196 2.7396 6.3689 2.74213 6.37682C2.74466 6.38473 2.74466 6.39324 2.74213 6.40115C2.7396 6.40907 2.73466 6.41601 2.72801 6.42099L2.49101 6.59599L2.58001 6.877C2.58226 6.8849 2.58202 6.8933 2.57932 6.90106C2.57662 6.90883 2.5716 6.91557 2.56494 6.92038C2.55827 6.92519 2.55029 6.92782 2.54207 6.92793C2.53385 6.92804 2.5258 6.92562 2.51901 6.92099L2.27901 6.75L2.03901 6.92099C2.03222 6.92562 2.02417 6.92804 2.01595 6.92793C2.00773 6.92782 1.99975 6.92519 1.99308 6.92038C1.98642 6.91557 1.98139 6.90883 1.9787 6.90106C1.976 6.8933 1.97576 6.8849 1.97801 6.877L2.06701 6.59599L1.83001 6.42099C1.82336 6.41601 1.81842 6.40907 1.81589 6.40115C1.81336 6.39324 1.81336 6.38473 1.81589 6.37682C1.81842 6.3689 1.82335 6.36196 1.83001 6.35698C1.83666 6.35199 1.8447 6.3492 1.85301 6.349H2.14801L2.24101 6.06999C2.24364 6.06199 2.24873 6.05502 2.25556 6.05008C2.26238 6.04514 2.27058 6.04248 2.27901 6.04248C2.28743 6.04248 2.29564 6.04514 2.30247 6.05008C2.30929 6.05502 2.31438 6.06199 2.31701 6.06999Z" fill="#F5F5F5"/>
<path d="M3.45201 0.970016L3.545 1.25002H3.84001C3.84832 1.25022 3.85636 1.25301 3.86301 1.258C3.86966 1.26298 3.8746 1.26991 3.87713 1.27783C3.87966 1.28575 3.87965 1.29426 3.87712 1.30218C3.87459 1.3101 3.86966 1.31703 3.863 1.32201L3.626 1.49702L3.71501 1.77802C3.71725 1.78592 3.71702 1.79432 3.71432 1.80209C3.71162 1.80985 3.7066 1.8166 3.69993 1.8214C3.69327 1.82621 3.68528 1.82885 3.67706 1.82896C3.66885 1.82907 3.6608 1.82664 3.654 1.82201L3.41401 1.65102L3.17401 1.82201C3.16721 1.82664 3.15916 1.82907 3.15095 1.82896C3.14273 1.82885 3.13475 1.82621 3.12808 1.8214C3.12141 1.8166 3.11639 1.80985 3.11369 1.80209C3.111 1.79432 3.11076 1.78592 3.113 1.77802L3.20201 1.49702L2.96501 1.32201C2.95835 1.31703 2.95342 1.3101 2.95089 1.30218C2.94836 1.29426 2.94836 1.28575 2.95089 1.27783C2.95342 1.26991 2.95835 1.26298 2.965 1.258C2.97165 1.25301 2.97969 1.25022 2.988 1.25002H3.28301L3.376 0.970016C3.37864 0.962014 3.38373 0.955044 3.39055 0.950104C3.39737 0.945164 3.40558 0.942505 3.41401 0.942505C3.42243 0.942505 3.43064 0.945164 3.43746 0.950104C3.44429 0.955044 3.44937 0.962014 3.45201 0.970016V0.970016Z" fill="#F5F5F5"/>
<path d="M3.452 2.42905L3.545 2.70905H3.84C3.84831 2.70925 3.85635 2.71204 3.863 2.71703C3.86965 2.72201 3.87459 2.72894 3.87712 2.73686C3.87965 2.74478 3.87965 2.7533 3.87711 2.76122C3.87458 2.76914 3.86965 2.77607 3.863 2.78105L3.626 2.95604L3.715 3.23705C3.71725 3.24495 3.71701 3.25336 3.71431 3.26113C3.71161 3.26889 3.70659 3.27562 3.69993 3.28043C3.69326 3.28524 3.68527 3.28789 3.67706 3.288C3.66884 3.28811 3.66079 3.28568 3.654 3.28105L3.414 3.11005L3.174 3.28105C3.16731 3.2863 3.15912 3.28928 3.15063 3.28957C3.14213 3.28985 3.13377 3.28742 3.12675 3.28262C3.11973 3.27783 3.11441 3.27093 3.11158 3.26291C3.10875 3.2549 3.10855 3.24619 3.111 3.23805L3.2 2.95705L2.966 2.77805C2.95934 2.77306 2.95441 2.76613 2.95188 2.75821C2.94935 2.75029 2.94935 2.74178 2.95188 2.73386C2.95441 2.72594 2.95934 2.71901 2.96599 2.71402C2.97265 2.70904 2.98069 2.70625 2.989 2.70604H3.284L3.377 2.42604C3.38013 2.41849 3.38551 2.41208 3.3924 2.40767C3.39929 2.40326 3.40737 2.40107 3.41554 2.4014C3.42372 2.40173 3.43159 2.40456 3.43811 2.4095C3.44463 2.41444 3.44948 2.42127 3.452 2.42905Z" fill="#F5F5F5"/>
<path d="M3.45201 3.88603L3.545 4.16603H3.84001C3.84832 4.16624 3.85636 4.16903 3.86301 4.17401C3.86966 4.179 3.8746 4.18593 3.87713 4.19385C3.87966 4.20177 3.87965 4.21027 3.87712 4.21819C3.87459 4.2261 3.86966 4.23304 3.863 4.23802L3.626 4.41302L3.71501 4.69403C3.71725 4.70194 3.71702 4.71035 3.71432 4.71811C3.71162 4.72587 3.7066 4.7326 3.69993 4.73741C3.69327 4.74222 3.68528 4.74486 3.67706 4.74496C3.66885 4.74507 3.6608 4.74265 3.654 4.73802L3.41401 4.56703L3.17401 4.73802C3.16721 4.74265 3.15916 4.74507 3.15095 4.74496C3.14273 4.74486 3.13475 4.74222 3.12808 4.73741C3.12141 4.7326 3.11639 4.72587 3.11369 4.71811C3.111 4.71035 3.11076 4.70194 3.113 4.69403L3.20201 4.41302L2.96501 4.23802C2.95835 4.23304 2.95342 4.2261 2.95089 4.21819C2.94836 4.21027 2.94836 4.20177 2.95089 4.19385C2.95342 4.18593 2.95835 4.179 2.965 4.17401C2.97165 4.16903 2.97969 4.16624 2.988 4.16603H3.28301L3.376 3.88603C3.37864 3.87803 3.38373 3.87106 3.39055 3.86612C3.39737 3.86118 3.40558 3.85852 3.41401 3.85852C3.42243 3.85852 3.43064 3.86118 3.43746 3.86612C3.44429 3.87106 3.44937 3.87803 3.45201 3.88603V3.88603Z" fill="#F5F5F5"/>
<path d="M3.45201 5.35307L3.545 5.63208H3.84001C3.84832 5.63228 3.85636 5.63506 3.86301 5.64005C3.86966 5.64503 3.8746 5.65198 3.87713 5.6599C3.87966 5.66782 3.87965 5.67632 3.87712 5.68423C3.87459 5.69215 3.86966 5.69909 3.863 5.70407L3.626 5.87907L3.71501 6.16008C3.71725 6.16798 3.71702 6.17638 3.71432 6.18414C3.71162 6.19191 3.7066 6.19865 3.69993 6.20346C3.69327 6.20827 3.68528 6.2109 3.67706 6.21101C3.66885 6.21112 3.6608 6.2087 3.654 6.20407L3.41401 6.03308L3.17401 6.20407C3.16721 6.2087 3.15916 6.21112 3.15095 6.21101C3.14273 6.2109 3.13475 6.20827 3.12808 6.20346C3.12141 6.19865 3.11639 6.19191 3.11369 6.18414C3.111 6.17638 3.11076 6.16798 3.113 6.16008L3.20201 5.87907L2.96501 5.70407C2.95835 5.69909 2.95342 5.69215 2.95089 5.68423C2.94836 5.67632 2.94836 5.66782 2.95089 5.6599C2.95342 5.65198 2.95835 5.64503 2.965 5.64005C2.97165 5.63506 2.97969 5.63228 2.988 5.63208H3.28301L3.376 5.35307C3.37864 5.34507 3.38373 5.3381 3.39055 5.33316C3.39737 5.32822 3.40558 5.32556 3.41401 5.32556C3.42243 5.32556 3.43064 5.32822 3.43746 5.33316C3.44429 5.3381 3.44937 5.34507 3.45201 5.35307V5.35307Z" fill="#F5F5F5"/>
<path d="M3.45201 6.81401L3.545 7.09302H3.84001C3.84832 7.09322 3.85636 7.096 3.86301 7.10098C3.86966 7.10597 3.8746 7.11292 3.87713 7.12083C3.87966 7.12875 3.87965 7.13725 3.87712 7.14517C3.87459 7.15309 3.86966 7.16002 3.863 7.16501L3.626 7.34001L3.71501 7.62102C3.71725 7.62892 3.71702 7.63732 3.71432 7.64508C3.71162 7.65284 3.7066 7.65959 3.69993 7.6644C3.69327 7.66921 3.68528 7.67184 3.67706 7.67195C3.66885 7.67206 3.6608 7.66964 3.654 7.66501L3.41401 7.49402L3.17401 7.66501C3.16721 7.66964 3.15916 7.67206 3.15095 7.67195C3.14273 7.67184 3.13475 7.66921 3.12808 7.6644C3.12141 7.65959 3.11639 7.65284 3.11369 7.64508C3.111 7.63732 3.11076 7.62892 3.113 7.62102L3.20201 7.34001L2.96501 7.16501C2.95835 7.16002 2.95342 7.15309 2.95089 7.14517C2.94836 7.13725 2.94836 7.12875 2.95089 7.12083C2.95342 7.11292 2.95835 7.10597 2.965 7.10098C2.97165 7.096 2.97969 7.09322 2.988 7.09302H3.28301L3.376 6.81401C3.37864 6.80601 3.38373 6.79904 3.39055 6.7941C3.39737 6.78916 3.40558 6.7865 3.41401 6.7865C3.42243 6.7865 3.43064 6.78916 3.43746 6.7941C3.44429 6.79904 3.44937 6.80601 3.45201 6.81401V6.81401Z" fill="#F5F5F5"/>
<path d="M4.587 1.68303L4.68 1.96203H4.975C4.98331 1.96223 4.99135 1.96502 4.99801 1.97001C5.00466 1.97499 5.00959 1.98193 5.01212 1.98985C5.01465 1.99776 5.01465 2.00627 5.01212 2.01419C5.00959 2.02211 5.00465 2.02904 4.998 2.03403L4.761 2.20903L4.85 2.49003C4.85225 2.49793 4.85201 2.50634 4.84931 2.5141C4.84661 2.52186 4.84159 2.52861 4.83493 2.53342C4.82826 2.53822 4.82028 2.54086 4.81206 2.54097C4.80385 2.54108 4.79579 2.53866 4.789 2.53403L4.549 2.36303L4.309 2.53403C4.30221 2.53866 4.29416 2.54108 4.28594 2.54097C4.27772 2.54086 4.26974 2.53822 4.26307 2.53342C4.25641 2.52861 4.25139 2.52186 4.24869 2.5141C4.246 2.50634 4.24575 2.49793 4.248 2.49003L4.337 2.20903L4.1 2.03403C4.09335 2.02904 4.08841 2.02211 4.08588 2.01419C4.08335 2.00627 4.08335 1.99776 4.08588 1.98985C4.08841 1.98193 4.09334 1.97499 4.1 1.97001C4.10665 1.96502 4.11469 1.96223 4.123 1.96203H4.418L4.511 1.68303C4.51363 1.67503 4.51873 1.66806 4.52555 1.66312C4.53237 1.65818 4.54058 1.65552 4.549 1.65552C4.55743 1.65552 4.56563 1.65818 4.57245 1.66312C4.57928 1.66806 4.58437 1.67503 4.587 1.68303V1.68303Z" fill="#F5F5F5"/>
<path d="M4.587 3.14505L4.68 3.42506H4.975C4.98331 3.42527 4.99135 3.42804 4.99801 3.43303C5.00466 3.43801 5.00959 3.44496 5.01212 3.45288C5.01465 3.4608 5.01465 3.4693 5.01212 3.47722C5.00959 3.48514 5.00465 3.49207 4.998 3.49706L4.761 3.67206L4.85 3.95306C4.85225 3.96097 4.85201 3.96936 4.84931 3.97713C4.84661 3.98489 4.84159 3.99164 4.83493 3.99644C4.82826 4.00125 4.82028 4.00389 4.81206 4.004C4.80385 4.00411 4.79579 4.00168 4.789 3.99706L4.549 3.82605L4.309 3.99706C4.30221 4.00168 4.29416 4.00411 4.28594 4.004C4.27772 4.00389 4.26974 4.00125 4.26307 3.99644C4.25641 3.99164 4.25139 3.98489 4.24869 3.97713C4.246 3.96936 4.24575 3.96097 4.248 3.95306L4.337 3.67206L4.1 3.49706C4.09335 3.49207 4.08841 3.48514 4.08588 3.47722C4.08335 3.4693 4.08335 3.4608 4.08588 3.45288C4.08841 3.44496 4.09334 3.43801 4.1 3.43303C4.10665 3.42804 4.11469 3.42527 4.123 3.42506H4.418L4.511 3.14505C4.51363 3.13705 4.51873 3.13009 4.52555 3.12515C4.53237 3.12021 4.54058 3.11755 4.549 3.11755C4.55743 3.11755 4.56563 3.12021 4.57245 3.12515C4.57928 3.13009 4.58437 3.13705 4.587 3.14505Z" fill="#F5F5F5"/>
<path d="M4.587 4.60698L4.68 4.88599H4.975C4.98331 4.88619 4.99135 4.88897 4.99801 4.89395C5.00466 4.89894 5.00959 4.90588 5.01212 4.9138C5.01465 4.92172 5.01465 4.93022 5.01212 4.93814C5.00959 4.94606 5.00465 4.95299 4.998 4.95798L4.761 5.13298L4.85 5.41399C4.85225 5.42189 4.85201 5.43029 4.84931 5.43805C4.84661 5.44581 4.84159 5.45256 4.83493 5.45737C4.82826 5.46217 4.82028 5.46481 4.81206 5.46492C4.80385 5.46503 4.79579 5.46261 4.789 5.45798L4.549 5.28699L4.309 5.45798C4.30221 5.46261 4.29416 5.46503 4.28594 5.46492C4.27772 5.46481 4.26974 5.46217 4.26307 5.45737C4.25641 5.45256 4.25139 5.44581 4.24869 5.43805C4.246 5.43029 4.24575 5.42189 4.248 5.41399L4.337 5.13298L4.1 4.95798C4.09335 4.95299 4.08841 4.94606 4.08588 4.93814C4.08335 4.93022 4.08335 4.92172 4.08588 4.9138C4.08841 4.90588 4.09334 4.89894 4.1 4.89395C4.10665 4.88897 4.11469 4.88619 4.123 4.88599H4.418L4.511 4.60698C4.51363 4.59898 4.51873 4.59201 4.52555 4.58707C4.53237 4.58213 4.54058 4.57947 4.549 4.57947C4.55743 4.57947 4.56563 4.58213 4.57245 4.58707C4.57928 4.59201 4.58437 4.59898 4.587 4.60698Z" fill="#F5F5F5"/>
<path d="M4.587 6.06999L4.68 6.349H4.975C4.98331 6.3492 4.99135 6.35199 4.99801 6.35698C5.00466 6.36196 5.00959 6.3689 5.01212 6.37682C5.01465 6.38473 5.01465 6.39324 5.01212 6.40115C5.00959 6.40907 5.00465 6.41601 4.998 6.42099L4.761 6.59599L4.85 6.877C4.85225 6.8849 4.85201 6.8933 4.84931 6.90106C4.84661 6.90883 4.84159 6.91557 4.83493 6.92038C4.82826 6.92519 4.82028 6.92782 4.81206 6.92793C4.80385 6.92804 4.79579 6.92562 4.789 6.92099L4.549 6.75L4.309 6.92099C4.30221 6.92562 4.29416 6.92804 4.28594 6.92793C4.27772 6.92782 4.26974 6.92519 4.26307 6.92038C4.25641 6.91557 4.25139 6.90883 4.24869 6.90106C4.246 6.8933 4.24575 6.8849 4.248 6.877L4.337 6.59599L4.1 6.42099C4.09335 6.41601 4.08841 6.40907 4.08588 6.40115C4.08335 6.39324 4.08335 6.38473 4.08588 6.37682C4.08841 6.3689 4.09334 6.36196 4.1 6.35698C4.10665 6.35199 4.11469 6.3492 4.123 6.349H4.418L4.511 6.06999C4.51363 6.06199 4.51873 6.05502 4.52555 6.05008C4.53237 6.04514 4.54058 6.04248 4.549 6.04248C4.55743 6.04248 4.56563 6.04514 4.57245 6.05008C4.57928 6.05502 4.58437 6.06199 4.587 6.06999Z" fill="#F5F5F5"/>
<path d="M5.722 0.970016L5.81499 1.25002H6.11C6.11831 1.25022 6.12635 1.25301 6.133 1.258C6.13965 1.26298 6.14459 1.26991 6.14712 1.27783C6.14965 1.28575 6.14965 1.29426 6.14712 1.30218C6.14458 1.3101 6.13965 1.31703 6.13299 1.32201L5.89599 1.49702L5.985 1.77802C5.98725 1.78592 5.987 1.79432 5.9843 1.80209C5.98161 1.80985 5.97659 1.8166 5.96992 1.8214C5.96326 1.82621 5.95527 1.82885 5.94706 1.82896C5.93884 1.82907 5.93078 1.82664 5.92399 1.82201L5.684 1.65102L5.444 1.82201C5.43721 1.82664 5.42915 1.82907 5.42093 1.82896C5.41272 1.82885 5.40473 1.82621 5.39807 1.8214C5.3914 1.8166 5.38638 1.80985 5.38369 1.80209C5.38099 1.79432 5.38074 1.78592 5.38299 1.77802L5.472 1.49702L5.235 1.32201C5.22835 1.31703 5.22341 1.3101 5.22088 1.30218C5.21835 1.29426 5.21835 1.28575 5.22088 1.27783C5.22341 1.26991 5.22834 1.26298 5.23499 1.258C5.24164 1.25301 5.24968 1.25022 5.25799 1.25002H5.553L5.64599 0.970016C5.64862 0.962014 5.65372 0.955044 5.66054 0.950104C5.66737 0.945164 5.67557 0.942505 5.684 0.942505C5.69242 0.942505 5.70063 0.945164 5.70745 0.950104C5.71427 0.955044 5.71937 0.962014 5.722 0.970016Z" fill="#F5F5F5"/>
<path d="M5.722 2.429L5.81499 2.709H6.11C6.11831 2.7092 6.12635 2.71199 6.133 2.71698C6.13965 2.72197 6.14459 2.7289 6.14712 2.73682C6.14965 2.74474 6.14965 2.75325 6.14712 2.76117C6.14458 2.76909 6.13965 2.77602 6.13299 2.78101L5.89599 2.95599L5.985 3.237C5.98725 3.2449 5.987 3.25331 5.9843 3.26108C5.98161 3.26884 5.97659 3.27557 5.96992 3.28038C5.96326 3.28519 5.95527 3.28784 5.94706 3.28795C5.93884 3.28806 5.93078 3.28563 5.92399 3.28101L5.684 3.11L5.444 3.28101C5.43721 3.28563 5.42915 3.28806 5.42093 3.28795C5.41272 3.28784 5.40473 3.28519 5.39807 3.28038C5.3914 3.27557 5.38638 3.26884 5.38369 3.26108C5.38099 3.25331 5.38074 3.2449 5.38299 3.237L5.472 2.95599L5.235 2.78101C5.22835 2.77602 5.22341 2.76909 5.22088 2.76117C5.21835 2.75325 5.21835 2.74474 5.22088 2.73682C5.22341 2.7289 5.22834 2.72197 5.23499 2.71698C5.24164 2.71199 5.24968 2.7092 5.25799 2.709H5.553L5.64599 2.429C5.64862 2.421 5.65372 2.41403 5.66054 2.40909C5.66737 2.40415 5.67557 2.40149 5.684 2.40149C5.69242 2.40149 5.70063 2.40415 5.70745 2.40909C5.71427 2.41403 5.71937 2.421 5.722 2.429Z" fill="#F5F5F5"/>
<path d="M5.722 3.88603L5.81499 4.16603H6.11C6.11831 4.16624 6.12635 4.16903 6.133 4.17401C6.13965 4.179 6.14459 4.18593 6.14712 4.19385C6.14965 4.20177 6.14965 4.21027 6.14712 4.21819C6.14458 4.2261 6.13965 4.23304 6.13299 4.23802L5.89599 4.41302L5.985 4.69403C5.98725 4.70194 5.987 4.71035 5.9843 4.71811C5.98161 4.72587 5.97659 4.7326 5.96992 4.73741C5.96326 4.74222 5.95527 4.74486 5.94706 4.74496C5.93884 4.74507 5.93078 4.74265 5.92399 4.73802L5.684 4.56703L5.444 4.73802C5.43721 4.74265 5.42915 4.74507 5.42093 4.74496C5.41272 4.74486 5.40473 4.74222 5.39807 4.73741C5.3914 4.7326 5.38638 4.72587 5.38369 4.71811C5.38099 4.71035 5.38074 4.70194 5.38299 4.69403L5.472 4.41302L5.235 4.23802C5.22835 4.23304 5.22341 4.2261 5.22088 4.21819C5.21835 4.21027 5.21835 4.20177 5.22088 4.19385C5.22341 4.18593 5.22834 4.179 5.23499 4.17401C5.24164 4.16903 5.24968 4.16624 5.25799 4.16603H5.553L5.64599 3.88603C5.64862 3.87803 5.65372 3.87106 5.66054 3.86612C5.66737 3.86118 5.67557 3.85852 5.684 3.85852C5.69242 3.85852 5.70063 3.86118 5.70745 3.86612C5.71427 3.87106 5.71937 3.87803 5.722 3.88603V3.88603Z" fill="#F5F5F5"/>
<path d="M5.722 5.35307L5.81499 5.63208H6.11C6.11831 5.63228 6.12635 5.63506 6.133 5.64005C6.13965 5.64503 6.14459 5.65198 6.14712 5.6599C6.14965 5.66782 6.14965 5.67632 6.14712 5.68423C6.14458 5.69215 6.13965 5.69909 6.13299 5.70407L5.89599 5.87907L5.985 6.16008C5.98725 6.16798 5.987 6.17638 5.9843 6.18414C5.98161 6.19191 5.97659 6.19865 5.96992 6.20346C5.96326 6.20827 5.95527 6.2109 5.94706 6.21101C5.93884 6.21112 5.93078 6.2087 5.92399 6.20407L5.684 6.03308L5.444 6.20407C5.43721 6.2087 5.42915 6.21112 5.42093 6.21101C5.41272 6.2109 5.40473 6.20827 5.39807 6.20346C5.3914 6.19865 5.38638 6.19191 5.38369 6.18414C5.38099 6.17638 5.38074 6.16798 5.38299 6.16008L5.472 5.87907L5.235 5.70407C5.22835 5.69909 5.22341 5.69215 5.22088 5.68423C5.21835 5.67632 5.21835 5.66782 5.22088 5.6599C5.22341 5.65198 5.22834 5.64503 5.23499 5.64005C5.24164 5.63506 5.24968 5.63228 5.25799 5.63208H5.553L5.64599 5.35307C5.64862 5.34507 5.65372 5.3381 5.66054 5.33316C5.66737 5.32822 5.67557 5.32556 5.684 5.32556C5.69242 5.32556 5.70063 5.32822 5.70745 5.33316C5.71427 5.3381 5.71937 5.34507 5.722 5.35307Z" fill="#F5F5F5"/>
<path d="M5.722 6.81401L5.81499 7.09302H6.11C6.11831 7.09322 6.12635 7.096 6.133 7.10098C6.13965 7.10597 6.14459 7.11292 6.14712 7.12083C6.14965 7.12875 6.14965 7.13725 6.14712 7.14517C6.14458 7.15309 6.13965 7.16002 6.13299 7.16501L5.89599 7.34001L5.985 7.62102C5.98725 7.62892 5.987 7.63732 5.9843 7.64508C5.98161 7.65284 5.97659 7.65959 5.96992 7.6644C5.96326 7.66921 5.95527 7.67184 5.94706 7.67195C5.93884 7.67206 5.93078 7.66964 5.92399 7.66501L5.684 7.49402L5.444 7.66501C5.43721 7.66964 5.42915 7.67206 5.42093 7.67195C5.41272 7.67184 5.40473 7.66921 5.39807 7.6644C5.3914 7.65959 5.38638 7.65284 5.38369 7.64508C5.38099 7.63732 5.38074 7.62892 5.38299 7.62102L5.472 7.34001L5.235 7.16501C5.22835 7.16002 5.22341 7.15309 5.22088 7.14517C5.21835 7.13725 5.21835 7.12875 5.22088 7.12083C5.22341 7.11292 5.22834 7.10597 5.23499 7.10098C5.24164 7.096 5.24968 7.09322 5.25799 7.09302H5.553L5.64599 6.81401C5.64862 6.80601 5.65372 6.79904 5.66054 6.7941C5.66737 6.78916 5.67557 6.7865 5.684 6.7865C5.69242 6.7865 5.70063 6.78916 5.70745 6.7941C5.71427 6.79904 5.71937 6.80601 5.722 6.81401Z" fill="#F5F5F5"/>
<path d="M6.857 1.68303L6.95 1.96203H7.245C7.25331 1.96223 7.26136 1.96502 7.26801 1.97001C7.27466 1.97499 7.2796 1.98193 7.28213 1.98985C7.28465 1.99776 7.28466 2.00627 7.28213 2.01419C7.27959 2.02211 7.27466 2.02904 7.26801 2.03403L7.03101 2.20903L7.12 2.49003C7.12225 2.49793 7.12201 2.50634 7.11931 2.5141C7.11662 2.52186 7.11161 2.52861 7.10494 2.53342C7.09827 2.53822 7.09028 2.54086 7.08207 2.54097C7.07385 2.54108 7.0658 2.53866 7.05901 2.53403L6.81901 2.36303L6.579 2.53403C6.57221 2.53866 6.56416 2.54108 6.55594 2.54097C6.54773 2.54086 6.53975 2.53822 6.53309 2.53342C6.52642 2.52861 6.52139 2.52186 6.5187 2.5141C6.516 2.50634 6.51576 2.49793 6.51801 2.49003L6.607 2.20903L6.37 2.03403C6.36335 2.02904 6.35842 2.02211 6.35589 2.01419C6.35336 2.00627 6.35336 1.99776 6.35589 1.98985C6.35842 1.98193 6.36335 1.97499 6.37 1.97001C6.37665 1.96502 6.3847 1.96223 6.39301 1.96203H6.68801L6.78101 1.68303C6.78364 1.67503 6.78873 1.66806 6.79555 1.66312C6.80238 1.65818 6.81058 1.65552 6.81901 1.65552C6.82743 1.65552 6.83563 1.65818 6.84246 1.66312C6.84928 1.66806 6.85437 1.67503 6.857 1.68303V1.68303Z" fill="#F5F5F5"/>
<path d="M6.857 3.14505L6.95 3.42506H7.245C7.25331 3.42527 7.26136 3.42804 7.26801 3.43303C7.27466 3.43801 7.2796 3.44496 7.28213 3.45288C7.28465 3.4608 7.28466 3.4693 7.28213 3.47722C7.27959 3.48514 7.27466 3.49207 7.26801 3.49706L7.03101 3.67206L7.12 3.95306C7.12225 3.96097 7.12201 3.96936 7.11931 3.97713C7.11662 3.98489 7.11161 3.99164 7.10494 3.99644C7.09827 4.00125 7.09028 4.00389 7.08207 4.004C7.07385 4.00411 7.0658 4.00168 7.05901 3.99706L6.81901 3.82605L6.579 3.99706C6.57221 4.00168 6.56416 4.00411 6.55594 4.004C6.54773 4.00389 6.53975 4.00125 6.53309 3.99644C6.52642 3.99164 6.52139 3.98489 6.5187 3.97713C6.516 3.96936 6.51576 3.96097 6.51801 3.95306L6.607 3.67206L6.37 3.49706C6.36335 3.49207 6.35842 3.48514 6.35589 3.47722C6.35336 3.4693 6.35336 3.4608 6.35589 3.45288C6.35842 3.44496 6.36335 3.43801 6.37 3.43303C6.37665 3.42804 6.3847 3.42527 6.39301 3.42506H6.68801L6.78101 3.14505C6.78364 3.13705 6.78873 3.13009 6.79555 3.12515C6.80238 3.12021 6.81058 3.11755 6.81901 3.11755C6.82743 3.11755 6.83563 3.12021 6.84246 3.12515C6.84928 3.13009 6.85437 3.13705 6.857 3.14505Z" fill="#F5F5F5"/>
<path d="M6.857 4.60698L6.95 4.88599H7.245C7.25331 4.88619 7.26136 4.88897 7.26801 4.89395C7.27466 4.89894 7.2796 4.90588 7.28213 4.9138C7.28465 4.92172 7.28466 4.93022 7.28213 4.93814C7.27959 4.94606 7.27466 4.95299 7.26801 4.95798L7.03101 5.13298L7.12 5.41399C7.12225 5.42189 7.12201 5.43029 7.11931 5.43805C7.11662 5.44581 7.11161 5.45256 7.10494 5.45737C7.09827 5.46217 7.09028 5.46481 7.08207 5.46492C7.07385 5.46503 7.0658 5.46261 7.05901 5.45798L6.81901 5.28699L6.579 5.45798C6.57221 5.46261 6.56416 5.46503 6.55594 5.46492C6.54773 5.46481 6.53975 5.46217 6.53309 5.45737C6.52642 5.45256 6.52139 5.44581 6.5187 5.43805C6.516 5.43029 6.51576 5.42189 6.51801 5.41399L6.607 5.13298L6.37 4.95798C6.36335 4.95299 6.35842 4.94606 6.35589 4.93814C6.35336 4.93022 6.35336 4.92172 6.35589 4.9138C6.35842 4.90588 6.36335 4.89894 6.37 4.89395C6.37665 4.88897 6.3847 4.88619 6.39301 4.88599H6.68801L6.78101 4.60698C6.78364 4.59898 6.78873 4.59201 6.79555 4.58707C6.80238 4.58213 6.81058 4.57947 6.81901 4.57947C6.82743 4.57947 6.83563 4.58213 6.84246 4.58707C6.84928 4.59201 6.85437 4.59898 6.857 4.60698V4.60698Z" fill="#F5F5F5"/>
<path d="M6.857 6.06999L6.95 6.349H7.245C7.25331 6.3492 7.26136 6.35199 7.26801 6.35698C7.27466 6.36196 7.2796 6.3689 7.28213 6.37682C7.28465 6.38473 7.28466 6.39324 7.28213 6.40115C7.27959 6.40907 7.27466 6.41601 7.26801 6.42099L7.03101 6.59599L7.12 6.877C7.12225 6.8849 7.12201 6.8933 7.11931 6.90106C7.11662 6.90883 7.11161 6.91557 7.10494 6.92038C7.09827 6.92519 7.09028 6.92782 7.08207 6.92793C7.07385 6.92804 7.0658 6.92562 7.05901 6.92099L6.81901 6.75L6.579 6.92099C6.57221 6.92562 6.56416 6.92804 6.55594 6.92793C6.54773 6.92782 6.53975 6.92519 6.53309 6.92038C6.52642 6.91557 6.52139 6.90883 6.5187 6.90106C6.516 6.8933 6.51576 6.8849 6.51801 6.877L6.607 6.59599L6.37 6.42099C6.36335 6.41601 6.35842 6.40907 6.35589 6.40115C6.35336 6.39324 6.35336 6.38473 6.35589 6.37682C6.35842 6.3689 6.36335 6.36196 6.37 6.35698C6.37665 6.35199 6.3847 6.3492 6.39301 6.349H6.68801L6.78101 6.06999C6.78364 6.06199 6.78873 6.05502 6.79555 6.05008C6.80238 6.04514 6.81058 6.04248 6.81901 6.04248C6.82743 6.04248 6.83563 6.04514 6.84246 6.05008C6.84928 6.05502 6.85437 6.06199 6.857 6.06999V6.06999Z" fill="#F5F5F5"/>
<path d="M7.99201 0.970016L8.08501 1.25002H8.38001C8.38832 1.25022 8.39637 1.25301 8.40302 1.258C8.40967 1.26298 8.41461 1.26991 8.41713 1.27783C8.41966 1.28575 8.41967 1.29426 8.41713 1.30218C8.4146 1.3101 8.40966 1.31703 8.40301 1.32201L8.16601 1.49702L8.25501 1.77802C8.25726 1.78592 8.25702 1.79432 8.25432 1.80209C8.25163 1.80985 8.2466 1.8166 8.23993 1.8214C8.23327 1.82621 8.22529 1.82885 8.21708 1.82896C8.20886 1.82907 8.2008 1.82664 8.19401 1.82201L7.95402 1.65102L7.71401 1.82201C7.70722 1.82664 7.69917 1.82907 7.69095 1.82896C7.68274 1.82885 7.67475 1.82621 7.66808 1.8214C7.66142 1.8166 7.65639 1.80985 7.65369 1.80209C7.651 1.79432 7.65076 1.78592 7.65301 1.77802L7.74201 1.49702L7.50501 1.32201C7.49836 1.31703 7.49343 1.3101 7.4909 1.30218C7.48837 1.29426 7.48837 1.28575 7.4909 1.27783C7.49343 1.26991 7.49836 1.26298 7.50501 1.258C7.51166 1.25301 7.51969 1.25022 7.52801 1.25002H7.823L7.91601 0.970016C7.91864 0.962014 7.92372 0.955044 7.93055 0.950104C7.93737 0.945164 7.94559 0.942505 7.95402 0.942505C7.96244 0.942505 7.97064 0.945164 7.97747 0.950104C7.98429 0.955044 7.98938 0.962014 7.99201 0.970016Z" fill="#F5F5F5"/>
<path d="M7.99201 2.429L8.08501 2.709H8.38001C8.38832 2.7092 8.39637 2.71199 8.40302 2.71698C8.40967 2.72197 8.41461 2.7289 8.41713 2.73682C8.41966 2.74474 8.41967 2.75325 8.41713 2.76117C8.4146 2.76909 8.40966 2.77602 8.40301 2.78101L8.16601 2.95599L8.25501 3.237C8.25726 3.2449 8.25702 3.25331 8.25432 3.26108C8.25163 3.26884 8.2466 3.27557 8.23993 3.28038C8.23327 3.28519 8.22529 3.28784 8.21708 3.28795C8.20886 3.28806 8.2008 3.28563 8.19401 3.28101L7.95402 3.11L7.71401 3.28101C7.70722 3.28563 7.69917 3.28806 7.69095 3.28795C7.68274 3.28784 7.67475 3.28519 7.66808 3.28038C7.66142 3.27557 7.65639 3.26884 7.65369 3.26108C7.651 3.25331 7.65076 3.2449 7.65301 3.237L7.74201 2.95599L7.50501 2.78101C7.49836 2.77602 7.49343 2.76909 7.4909 2.76117C7.48837 2.75325 7.48837 2.74474 7.4909 2.73682C7.49343 2.7289 7.49836 2.72197 7.50501 2.71698C7.51166 2.71199 7.51969 2.7092 7.52801 2.709H7.823L7.91601 2.429C7.91864 2.421 7.92372 2.41403 7.93055 2.40909C7.93737 2.40415 7.94559 2.40149 7.95402 2.40149C7.96244 2.40149 7.97064 2.40415 7.97747 2.40909C7.98429 2.41403 7.98938 2.421 7.99201 2.429Z" fill="#F5F5F5"/>
<path d="M7.99201 3.88603L8.08501 4.16603H8.38001C8.38832 4.16624 8.39637 4.16903 8.40302 4.17401C8.40967 4.179 8.41461 4.18593 8.41713 4.19385C8.41966 4.20177 8.41967 4.21027 8.41713 4.21819C8.4146 4.2261 8.40966 4.23304 8.40301 4.23802L8.16601 4.41302L8.25501 4.69403C8.25726 4.70194 8.25702 4.71035 8.25432 4.71811C8.25163 4.72587 8.2466 4.7326 8.23993 4.73741C8.23327 4.74222 8.22529 4.74486 8.21708 4.74496C8.20886 4.74507 8.2008 4.74265 8.19401 4.73802L7.95402 4.56703L7.71401 4.73802C7.70722 4.74265 7.69917 4.74507 7.69095 4.74496C7.68274 4.74486 7.67475 4.74222 7.66808 4.73741C7.66142 4.7326 7.65639 4.72587 7.65369 4.71811C7.651 4.71035 7.65076 4.70194 7.65301 4.69403L7.74201 4.41302L7.50501 4.23802C7.49836 4.23304 7.49343 4.2261 7.4909 4.21819C7.48837 4.21027 7.48837 4.20177 7.4909 4.19385C7.49343 4.18593 7.49836 4.179 7.50501 4.17401C7.51166 4.16903 7.51969 4.16624 7.52801 4.16603H7.823L7.91601 3.88603C7.91864 3.87803 7.92372 3.87106 7.93055 3.86612C7.93737 3.86118 7.94559 3.85852 7.95402 3.85852C7.96244 3.85852 7.97064 3.86118 7.97747 3.86612C7.98429 3.87106 7.98938 3.87803 7.99201 3.88603Z" fill="#F5F5F5"/>
<path d="M7.99201 5.35307L8.08501 5.63208H8.38001C8.38832 5.63228 8.39637 5.63506 8.40302 5.64005C8.40967 5.64503 8.41461 5.65198 8.41713 5.6599C8.41966 5.66782 8.41967 5.67632 8.41713 5.68423C8.4146 5.69215 8.40966 5.69909 8.40301 5.70407L8.16601 5.87907L8.25501 6.16008C8.25726 6.16798 8.25702 6.17638 8.25432 6.18414C8.25163 6.19191 8.2466 6.19865 8.23993 6.20346C8.23327 6.20827 8.22529 6.2109 8.21708 6.21101C8.20886 6.21112 8.2008 6.2087 8.19401 6.20407L7.95402 6.03308L7.71401 6.20407C7.70722 6.2087 7.69917 6.21112 7.69095 6.21101C7.68274 6.2109 7.67475 6.20827 7.66808 6.20346C7.66142 6.19865 7.65639 6.19191 7.65369 6.18414C7.651 6.17638 7.65076 6.16798 7.65301 6.16008L7.74201 5.87907L7.50501 5.70407C7.49836 5.69909 7.49343 5.69215 7.4909 5.68423C7.48837 5.67632 7.48837 5.66782 7.4909 5.6599C7.49343 5.65198 7.49836 5.64503 7.50501 5.64005C7.51166 5.63506 7.51969 5.63228 7.52801 5.63208H7.823L7.91601 5.35307C7.91864 5.34507 7.92372 5.3381 7.93055 5.33316C7.93737 5.32822 7.94559 5.32556 7.95402 5.32556C7.96244 5.32556 7.97064 5.32822 7.97747 5.33316C7.98429 5.3381 7.98938 5.34507 7.99201 5.35307V5.35307Z" fill="#F5F5F5"/>
<path d="M7.99201 6.81401L8.08501 7.09302H8.38001C8.38832 7.09322 8.39637 7.096 8.40302 7.10098C8.40967 7.10597 8.41461 7.11292 8.41713 7.12083C8.41966 7.12875 8.41967 7.13725 8.41713 7.14517C8.4146 7.15309 8.40966 7.16002 8.40301 7.16501L8.16601 7.34001L8.25501 7.62102C8.25726 7.62892 8.25702 7.63732 8.25432 7.64508C8.25163 7.65284 8.2466 7.65959 8.23993 7.6644C8.23327 7.66921 8.22529 7.67184 8.21708 7.67195C8.20886 7.67206 8.2008 7.66964 8.19401 7.66501L7.95402 7.49402L7.71401 7.66501C7.70722 7.66964 7.69917 7.67206 7.69095 7.67195C7.68274 7.67184 7.67475 7.66921 7.66808 7.6644C7.66142 7.65959 7.65639 7.65284 7.65369 7.64508C7.651 7.63732 7.65076 7.62892 7.65301 7.62102L7.74201 7.34001L7.50501 7.16501C7.49836 7.16002 7.49343 7.15309 7.4909 7.14517C7.48837 7.13725 7.48837 7.12875 7.4909 7.12083C7.49343 7.11292 7.49836 7.10597 7.50501 7.10098C7.51166 7.096 7.51969 7.09322 7.52801 7.09302H7.823L7.91601 6.81401C7.91864 6.80601 7.92372 6.79904 7.93055 6.7941C7.93737 6.78916 7.94559 6.7865 7.95402 6.7865C7.96244 6.7865 7.97064 6.78916 7.97747 6.7941C7.98429 6.79904 7.98938 6.80601 7.99201 6.81401V6.81401Z" fill="#F5F5F5"/>
<path d="M9.12601 1.68303L9.21901 1.96203H9.51401C9.52232 1.96223 9.53037 1.96502 9.53702 1.97001C9.54368 1.97499 9.54861 1.98193 9.55114 1.98985C9.55367 1.99776 9.55367 2.00627 9.55114 2.01419C9.54861 2.02211 9.54366 2.02904 9.53701 2.03403L9.30001 2.20903L9.38901 2.49003C9.39126 2.49793 9.39102 2.50634 9.38833 2.5141C9.38563 2.52186 9.3806 2.52861 9.37394 2.53342C9.36727 2.53822 9.3593 2.54086 9.35108 2.54097C9.34286 2.54108 9.3348 2.53866 9.32801 2.53403L9.08802 2.36303L8.84801 2.53403C8.84122 2.53866 8.83317 2.54108 8.82496 2.54097C8.81674 2.54086 8.80875 2.53822 8.80208 2.53342C8.79542 2.52861 8.79039 2.52186 8.78769 2.5141C8.785 2.50634 8.78476 2.49793 8.78701 2.49003L8.87601 2.20903L8.63901 2.03403C8.63236 2.02904 8.62743 2.02211 8.6249 2.01419C8.62237 2.00627 8.62237 1.99776 8.6249 1.98985C8.62743 1.98193 8.63236 1.97499 8.63901 1.97001C8.64567 1.96502 8.6537 1.96223 8.66201 1.96203H8.95702L9.05001 1.68303C9.05264 1.67503 9.05773 1.66806 9.06455 1.66312C9.07137 1.65818 9.07959 1.65552 9.08802 1.65552C9.09644 1.65552 9.10465 1.65818 9.11147 1.66312C9.11829 1.66806 9.12338 1.67503 9.12601 1.68303V1.68303Z" fill="#F5F5F5"/>
<path d="M9.12601 3.14505L9.21901 3.42506H9.51401C9.52232 3.42527 9.53037 3.42804 9.53702 3.43303C9.54368 3.43801 9.54861 3.44496 9.55114 3.45288C9.55367 3.4608 9.55367 3.4693 9.55114 3.47722C9.54861 3.48514 9.54366 3.49207 9.53701 3.49706L9.30001 3.67206L9.38901 3.95306C9.39126 3.96097 9.39102 3.96936 9.38833 3.97713C9.38563 3.98489 9.3806 3.99164 9.37394 3.99644C9.36727 4.00125 9.3593 4.00389 9.35108 4.004C9.34286 4.00411 9.3348 4.00168 9.32801 3.99706L9.08802 3.82605L8.84801 3.99706C8.84122 4.00168 8.83317 4.00411 8.82496 4.004C8.81674 4.00389 8.80875 4.00125 8.80208 3.99644C8.79542 3.99164 8.79039 3.98489 8.78769 3.97713C8.785 3.96936 8.78476 3.96097 8.78701 3.95306L8.87601 3.67206L8.63901 3.49706C8.63236 3.49207 8.62743 3.48514 8.6249 3.47722C8.62237 3.4693 8.62237 3.4608 8.6249 3.45288C8.62743 3.44496 8.63236 3.43801 8.63901 3.43303C8.64567 3.42804 8.6537 3.42527 8.66201 3.42506H8.95702L9.05001 3.14505C9.05264 3.13705 9.05773 3.13009 9.06455 3.12515C9.07137 3.12021 9.07959 3.11755 9.08802 3.11755C9.09644 3.11755 9.10465 3.12021 9.11147 3.12515C9.11829 3.13009 9.12338 3.13705 9.12601 3.14505V3.14505Z" fill="#F5F5F5"/>
<path d="M9.12601 4.60698L9.21901 4.88599H9.51401C9.52232 4.88619 9.53037 4.88897 9.53702 4.89395C9.54368 4.89894 9.54861 4.90588 9.55114 4.9138C9.55367 4.92172 9.55367 4.93022 9.55114 4.93814C9.54861 4.94606 9.54366 4.95299 9.53701 4.95798L9.30001 5.13298L9.38901 5.41399C9.39126 5.42189 9.39102 5.43029 9.38833 5.43805C9.38563 5.44581 9.3806 5.45256 9.37394 5.45737C9.36727 5.46217 9.3593 5.46481 9.35108 5.46492C9.34286 5.46503 9.3348 5.46261 9.32801 5.45798L9.08802 5.28699L8.84801 5.45798C8.84122 5.46261 8.83317 5.46503 8.82496 5.46492C8.81674 5.46481 8.80875 5.46217 8.80208 5.45737C8.79542 5.45256 8.79039 5.44581 8.78769 5.43805C8.785 5.43029 8.78476 5.42189 8.78701 5.41399L8.87601 5.13298L8.63901 4.95798C8.63236 4.95299 8.62743 4.94606 8.6249 4.93814C8.62237 4.93022 8.62237 4.92172 8.6249 4.9138C8.62743 4.90588 8.63236 4.89894 8.63901 4.89395C8.64567 4.88897 8.6537 4.88619 8.66201 4.88599H8.95702L9.05001 4.60698C9.05264 4.59898 9.05773 4.59201 9.06455 4.58707C9.07137 4.58213 9.07959 4.57947 9.08802 4.57947C9.09644 4.57947 9.10465 4.58213 9.11147 4.58707C9.11829 4.59201 9.12338 4.59898 9.12601 4.60698V4.60698Z" fill="#F5F5F5"/>
<path d="M9.12601 6.06999L9.21901 6.349H9.51401C9.52232 6.3492 9.53037 6.35199 9.53702 6.35698C9.54368 6.36196 9.54861 6.3689 9.55114 6.37682C9.55367 6.38473 9.55367 6.39324 9.55114 6.40115C9.54861 6.40907 9.54366 6.41601 9.53701 6.42099L9.30001 6.59599L9.38901 6.877C9.39126 6.8849 9.39102 6.8933 9.38833 6.90106C9.38563 6.90883 9.3806 6.91557 9.37394 6.92038C9.36727 6.92519 9.3593 6.92782 9.35108 6.92793C9.34286 6.92804 9.3348 6.92562 9.32801 6.92099L9.08802 6.75L8.84801 6.92099C8.84122 6.92562 8.83317 6.92804 8.82496 6.92793C8.81674 6.92782 8.80875 6.92519 8.80208 6.92038C8.79542 6.91557 8.79039 6.90883 8.78769 6.90106C8.785 6.8933 8.78476 6.8849 8.78701 6.877L8.87601 6.59599L8.63901 6.42099C8.63236 6.41601 8.62743 6.40907 8.6249 6.40115C8.62237 6.39324 8.62237 6.38473 8.6249 6.37682C8.62743 6.3689 8.63236 6.36196 8.63901 6.35698C8.64567 6.35199 8.6537 6.3492 8.66201 6.349H8.95702L9.05001 6.06999C9.05264 6.06199 9.05773 6.05502 9.06455 6.05008C9.07137 6.04514 9.07959 6.04248 9.08802 6.04248C9.09644 6.04248 9.10465 6.04514 9.11147 6.05008C9.11829 6.05502 9.12338 6.06199 9.12601 6.06999V6.06999Z" fill="#F5F5F5"/>
<path d="M10.259 0.970016L10.352 1.25002H10.647C10.6553 1.25022 10.6634 1.25301 10.67 1.258C10.6767 1.26298 10.6816 1.26991 10.6841 1.27783C10.6866 1.28575 10.6866 1.29426 10.6841 1.30218C10.6816 1.3101 10.6767 1.31703 10.67 1.32201L10.433 1.49702L10.522 1.77802C10.5243 1.78592 10.524 1.79432 10.5213 1.80209C10.5186 1.80985 10.5136 1.8166 10.5069 1.8214C10.5003 1.82621 10.4923 1.82885 10.4841 1.82896C10.4758 1.82907 10.4678 1.82664 10.461 1.82201L10.221 1.65102L9.98101 1.82201C9.97422 1.82664 9.96615 1.82907 9.95794 1.82896C9.94972 1.82885 9.94174 1.82621 9.93508 1.8214C9.92841 1.8166 9.92339 1.80985 9.92069 1.80209C9.91799 1.79432 9.91775 1.78592 9.92 1.77802L10.009 1.49702L9.77201 1.32201C9.76536 1.31703 9.76041 1.3101 9.75788 1.30218C9.75535 1.29426 9.75535 1.28575 9.75788 1.27783C9.76041 1.26991 9.76534 1.26298 9.77199 1.258C9.77865 1.25301 9.78669 1.25022 9.795 1.25002H10.09L10.183 0.970016C10.1856 0.962014 10.1907 0.955044 10.1975 0.950104C10.2044 0.945164 10.2126 0.942505 10.221 0.942505C10.2294 0.942505 10.2376 0.945164 10.2445 0.950104C10.2513 0.955044 10.2564 0.962014 10.259 0.970016V0.970016Z" fill="#F5F5F5"/>
<path d="M10.259 2.429L10.352 2.709H10.647C10.6553 2.7092 10.6634 2.71199 10.67 2.71698C10.6767 2.72197 10.6816 2.7289 10.6841 2.73682C10.6866 2.74474 10.6866 2.75325 10.6841 2.76117C10.6816 2.76909 10.6767 2.77602 10.67 2.78101L10.433 2.95599L10.522 3.237C10.5243 3.2449 10.524 3.25331 10.5213 3.26108C10.5186 3.26884 10.5136 3.27557 10.5069 3.28038C10.5003 3.28519 10.4923 3.28784 10.4841 3.28795C10.4758 3.28806 10.4678 3.28563 10.461 3.28101L10.221 3.11L9.98101 3.28101C9.97422 3.28563 9.96615 3.28806 9.95794 3.28795C9.94972 3.28784 9.94174 3.28519 9.93508 3.28038C9.92841 3.27557 9.92339 3.26884 9.92069 3.26108C9.91799 3.25331 9.91775 3.2449 9.92 3.237L10.009 2.95599L9.77201 2.78101C9.76536 2.77602 9.76041 2.76909 9.75788 2.76117C9.75535 2.75325 9.75535 2.74474 9.75788 2.73682C9.76041 2.7289 9.76534 2.72197 9.77199 2.71698C9.77865 2.71199 9.78669 2.7092 9.795 2.709H10.09L10.183 2.429C10.1856 2.421 10.1907 2.41403 10.1975 2.40909C10.2044 2.40415 10.2126 2.40149 10.221 2.40149C10.2294 2.40149 10.2376 2.40415 10.2445 2.40909C10.2513 2.41403 10.2564 2.421 10.259 2.429V2.429Z" fill="#F5F5F5"/>
<path d="M10.259 3.88603L10.352 4.16603H10.647C10.6553 4.16624 10.6634 4.16903 10.67 4.17401C10.6767 4.179 10.6816 4.18593 10.6841 4.19385C10.6866 4.20177 10.6866 4.21027 10.6841 4.21819C10.6816 4.2261 10.6767 4.23304 10.67 4.23802L10.433 4.41302L10.522 4.69403C10.5243 4.70194 10.524 4.71035 10.5213 4.71811C10.5186 4.72587 10.5136 4.7326 10.5069 4.73741C10.5003 4.74222 10.4923 4.74486 10.4841 4.74496C10.4758 4.74507 10.4678 4.74265 10.461 4.73802L10.221 4.56703L9.98101 4.73802C9.97422 4.74265 9.96615 4.74507 9.95794 4.74496C9.94972 4.74486 9.94174 4.74222 9.93508 4.73741C9.92841 4.7326 9.92339 4.72587 9.92069 4.71811C9.91799 4.71035 9.91775 4.70194 9.92 4.69403L10.009 4.41302L9.77201 4.23802C9.76536 4.23304 9.76041 4.2261 9.75788 4.21819C9.75535 4.21027 9.75535 4.20177 9.75788 4.19385C9.76041 4.18593 9.76534 4.179 9.77199 4.17401C9.77865 4.16903 9.78669 4.16624 9.795 4.16603H10.09L10.183 3.88603C10.1856 3.87803 10.1907 3.87106 10.1975 3.86612C10.2044 3.86118 10.2126 3.85852 10.221 3.85852C10.2294 3.85852 10.2376 3.86118 10.2445 3.86612C10.2513 3.87106 10.2564 3.87803 10.259 3.88603V3.88603Z" fill="#F5F5F5"/>
<path d="M10.259 5.35307L10.352 5.63208H10.647C10.6553 5.63228 10.6634 5.63506 10.67 5.64005C10.6767 5.64503 10.6816 5.65198 10.6841 5.6599C10.6866 5.66782 10.6866 5.67632 10.6841 5.68423C10.6816 5.69215 10.6767 5.69909 10.67 5.70407L10.433 5.87907L10.522 6.16008C10.5243 6.16798 10.524 6.17638 10.5213 6.18414C10.5186 6.19191 10.5136 6.19865 10.5069 6.20346C10.5003 6.20827 10.4923 6.2109 10.4841 6.21101C10.4758 6.21112 10.4678 6.2087 10.461 6.20407L10.221 6.03308L9.98101 6.20407C9.97422 6.2087 9.96615 6.21112 9.95794 6.21101C9.94972 6.2109 9.94174 6.20827 9.93508 6.20346C9.92841 6.19865 9.92339 6.19191 9.92069 6.18414C9.91799 6.17638 9.91775 6.16798 9.92 6.16008L10.009 5.87907L9.77201 5.70407C9.76536 5.69909 9.76041 5.69215 9.75788 5.68423C9.75535 5.67632 9.75535 5.66782 9.75788 5.6599C9.76041 5.65198 9.76534 5.64503 9.77199 5.64005C9.77865 5.63506 9.78669 5.63228 9.795 5.63208H10.09L10.183 5.35307C10.1856 5.34507 10.1907 5.3381 10.1975 5.33316C10.2044 5.32822 10.2126 5.32556 10.221 5.32556C10.2294 5.32556 10.2376 5.32822 10.2445 5.33316C10.2513 5.3381 10.2564 5.34507 10.259 5.35307V5.35307Z" fill="#F5F5F5"/>
<path d="M10.259 6.81401L10.352 7.09302H10.647C10.6553 7.09322 10.6634 7.096 10.67 7.10098C10.6767 7.10597 10.6816 7.11292 10.6841 7.12083C10.6866 7.12875 10.6866 7.13725 10.6841 7.14517C10.6816 7.15309 10.6767 7.16002 10.67 7.16501L10.433 7.34001L10.522 7.62102C10.5243 7.62892 10.524 7.63732 10.5213 7.64508C10.5186 7.65284 10.5136 7.65959 10.5069 7.6644C10.5003 7.66921 10.4923 7.67184 10.4841 7.67195C10.4758 7.67206 10.4678 7.66964 10.461 7.66501L10.221 7.49402L9.98101 7.66501C9.97422 7.66964 9.96615 7.67206 9.95794 7.67195C9.94972 7.67184 9.94174 7.66921 9.93508 7.6644C9.92841 7.65959 9.92339 7.65284 9.92069 7.64508C9.91799 7.63732 9.91775 7.62892 9.92 7.62102L10.009 7.34001L9.77201 7.16501C9.76536 7.16002 9.76041 7.15309 9.75788 7.14517C9.75535 7.13725 9.75535 7.12875 9.75788 7.12083C9.76041 7.11292 9.76534 7.10597 9.77199 7.10098C9.77865 7.096 9.78669 7.09322 9.795 7.09302H10.09L10.183 6.81401C10.1856 6.80601 10.1907 6.79904 10.1975 6.7941C10.2044 6.78916 10.2126 6.7865 10.221 6.7865C10.2294 6.7865 10.2376 6.78916 10.2445 6.7941C10.2513 6.79904 10.2564 6.80601 10.259 6.81401V6.81401Z" fill="#F5F5F5"/>
</svg>
