<svg width="43" height="43" viewBox="0 0 43 43" fill="none" xmlns="http://www.w3.org/2000/svg">
<path d="M1 16.5C1 13.4344 1.90914 10.4376 3.6123 7.88866C5.31547 5.3397 7.7361 3.35302 10.5684 2.17986C13.4006 1.0067 16.5172 0.699769 19.5239 1.29784C22.5306 1.89591 25.2925 3.37213 27.4602 5.53984C29.6279 7.70756 31.1041 10.4694 31.7021 13.4761C32.3002 16.4828 31.9932 19.5993 30.8201 22.4316C29.6469 25.2638 27.6603 27.6846 25.1113 29.3877C22.5624 31.0909 19.5656 32 16.5 32C12.3891 32 8.44661 30.3669 5.53979 27.4601C2.63298 24.5533 1 20.6108 1 16.5" stroke="#4B2661" stroke-width="2" stroke-linecap="round" stroke-linejoin="round"/>
<path d="M4 16.5C4 14.0278 4.73317 11.611 6.10669 9.55538C7.48021 7.49977 9.43248 5.89759 11.7166 4.9515C14.0006 4.0054 16.514 3.75788 18.9387 4.24019C21.3635 4.72251 23.5907 5.91306 25.3389 7.66121C27.087 9.40937 28.2775 11.6367 28.7598 14.0614C29.2421 16.4862 28.9947 18.9995 28.0486 21.2836C27.1025 23.5677 25.5002 25.5199 23.4446 26.8934C21.389 28.2669 18.9723 29 16.5 29C13.1848 29 10.0053 27.683 7.66113 25.3388C5.31693 22.9946 4 19.8152 4 16.5" stroke="#4B2661" stroke-linecap="round" stroke-linejoin="round"/>
<path d="M30.5859 29.4141L29.4142 30.5858C28.6332 31.3668 28.6332 32.6332 29.4142 33.4142L35.5858 39.5858C36.3669 40.3669 37.6332 40.3669 38.4143 39.5858L39.5859 38.4142C40.367 37.6331 40.367 36.3668 39.5859 35.5857L33.4143 29.4141C32.6333 28.6331 31.3669 28.6331 30.5859 29.4141Z" stroke="#4B2661" stroke-width="2" stroke-linecap="round" stroke-linejoin="round"/>
<path d="M28.9997 27.0003L27 29L28.9997 30.9997L30.9994 29L28.9997 27.0003Z" stroke="#4B2661" stroke-linecap="round" stroke-linejoin="round"/>
</svg>
