<svg width="37" height="42" viewBox="0 0 37 42" fill="none" xmlns="http://www.w3.org/2000/svg">
<path d="M24.9999 41H32.9999C33.5592 40.969 34.0834 40.7179 34.4582 40.3015C34.8329 39.8852 35.0277 39.3375 34.9999 38.778V3.22198C35.0277 2.66252 34.8329 2.11483 34.4582 1.69849C34.0834 1.28215 33.5592 1.03102 32.9999 1H24.9999C24.4406 1.03102 23.9164 1.28215 23.5417 1.69849C23.1669 2.11483 22.9721 2.66252 22.9999 3.22198V38.778C22.9721 39.3375 23.1669 39.8852 23.5417 40.3015C23.9164 40.7179 24.4406 40.969 24.9999 41V41Z" stroke="#4B2661" stroke-width="2" stroke-linecap="round" stroke-linejoin="round"/>
<path d="M24 4.0708L35 15.0708L23 27.0708L34 38.0708" stroke="#4B2661" stroke-linecap="round" stroke-linejoin="round"/>
<path d="M24 38.0708L35 27.0708L23 15.0708L34 4.0708" stroke="#4B2661" stroke-linecap="round" stroke-linejoin="round"/>
<path d="M7.39987 2.50916C3.90703 8.60916 2.58541 15.7132 3.65084 22.6612L5.99996 38.0002H14L16.354 22.6612C17.4194 15.7132 16.0978 8.60916 12.6049 2.50916V2.50916C12.3422 2.05102 11.9633 1.67037 11.5063 1.40564C11.0493 1.14091 10.5305 1.00146 10.0024 1.00146C9.47429 1.00146 8.95571 1.14091 8.49874 1.40564C8.04177 1.67037 7.66257 2.05102 7.39987 2.50916Z" stroke="#4B2661" stroke-width="2" stroke-linecap="round" stroke-linejoin="round"/>
<path d="M10 17C11.6569 17 13 15.6569 13 14C13 12.3431 11.6569 11 10 11C8.34315 11 7 12.3431 7 14C7 15.6569 8.34315 17 10 17Z" stroke="#4B2661" stroke-linecap="round" stroke-linejoin="round"/>
<path d="M17 12.0708H23" stroke="#4B2661" stroke-width="2" stroke-linecap="round" stroke-linejoin="round"/>
<path d="M4 28L1 36H6" stroke="#4B2661" stroke-linecap="round" stroke-linejoin="round"/>
<path d="M16 28L19 36H14" stroke="#4B2661" stroke-linecap="round" stroke-linejoin="round"/>
<path d="M10 28L9 36H11L10 28Z" stroke="#4B2661" stroke-linecap="round" stroke-linejoin="round"/>
<path d="M28 41H1" stroke="#4B2661" stroke-width="2" stroke-linecap="round" stroke-linejoin="round"/>
</svg>
