<svg width="42" height="42" viewBox="0 0 42 42" fill="none" xmlns="http://www.w3.org/2000/svg">
<path d="M34 22.1719L16 40.1719L15 36.1719L11 35.1719L10 31.1719L6 30.1719L5 26.1719L1 25.1719L19 7.17188L34 22.1719Z" stroke="#4B2661" stroke-width="2" stroke-linecap="round" stroke-linejoin="round"/>
<path d="M16 40.1719H1V25.1719L5 26.1719L6 30.1719L10 31.1719L11 35.1719L15 36.1719L16 40.1719Z" stroke="#4B2661" stroke-width="2" stroke-linecap="round" stroke-linejoin="round"/>
<path d="M1 40.1719H7L1 34.1719V40.1719Z" stroke="#4B2661" stroke-linecap="round" stroke-linejoin="round"/>
<path d="M19 7.17206L24.5862 1.58606C24.7719 1.40026 24.9924 1.25284 25.2351 1.15228C25.4778 1.05172 25.738 1 26.0007 1C26.2634 1 26.5234 1.05172 26.7661 1.15228C27.0088 1.25284 27.2293 1.40026 27.415 1.58606L39.5862 13.7581C39.9611 14.1331 40.1716 14.6417 40.1716 15.1721C40.1716 15.7024 39.9611 16.211 39.5862 16.5861L34 22.1721L19 7.17206Z" stroke="#4B2661" stroke-width="2" stroke-linecap="round" stroke-linejoin="round"/>
<path d="M5.00012 26.1719L21.0001 10.1719" stroke="#4B2661" stroke-miterlimit="10"/>
<path d="M10.0001 31.1719L26.0001 15.1719" stroke="#4B2661" stroke-miterlimit="10"/>
<path d="M15.0001 36.1719L31.0001 20.1719" stroke="#4B2661" stroke-miterlimit="10"/>
</svg>
