<svg width="42" height="44" viewBox="0 0 42 44" fill="none" xmlns="http://www.w3.org/2000/svg">
<path d="M31 13C34.3137 13 37 10.3137 37 7C37 3.68629 34.3137 1 31 1C27.6863 1 25 3.68629 25 7C25 10.3137 27.6863 13 31 13Z" stroke="#4B2661" stroke-width="2" stroke-linecap="round" stroke-linejoin="round"/>
<path d="M12 28C15.3137 28 18 25.3137 18 22C18 18.6863 15.3137 16 12 16C8.68629 16 6 18.6863 6 22C6 25.3137 8.68629 28 12 28Z" stroke="#4B2661" stroke-width="2" stroke-linecap="round" stroke-linejoin="round"/>
<path d="M26 43C29.3137 43 32 40.3137 32 37C32 33.6863 29.3137 31 26 31C22.6863 31 20 33.6863 20 37C20 40.3137 22.6863 43 26 43Z" stroke="#4B2661" stroke-width="2" stroke-linecap="round" stroke-linejoin="round"/>
<path d="M26 10H4C3.20435 10 2.44127 9.68395 1.87866 9.12134C1.31605 8.55873 1 7.79565 1 7V7C1 6.20435 1.31605 5.44127 1.87866 4.87866C2.44127 4.31605 3.20435 4 4 4H26" stroke="#4B2661" stroke-width="2" stroke-linejoin="round"/>
<path d="M7 25H4C3.20435 25 2.44127 24.6839 1.87866 24.1213C1.31605 23.5587 1 22.7956 1 22V22C1 21.2044 1.31605 20.4413 1.87866 19.8787C2.44127 19.3161 3.20435 19 4 19H7" stroke="#4B2661" stroke-width="2" stroke-linejoin="round"/>
<path d="M17 19H38C38.7956 19 39.5587 19.3161 40.1213 19.8787C40.6839 20.4413 41 21.2044 41 22C41 22.7956 40.6839 23.5587 40.1213 24.1213C39.5587 24.6839 38.7956 25 38 25H17" stroke="#4B2661" stroke-width="2" stroke-linejoin="round"/>
<path d="M31 34H38C38.7956 34 39.5587 34.3161 40.1213 34.8787C40.6839 35.4413 41 36.2044 41 37C41 37.7956 40.6839 38.5587 40.1213 39.1213C39.5587 39.6839 38.7956 40 38 40H31" stroke="#4B2661" stroke-width="2" stroke-linejoin="round"/>
<path d="M36 4H38C38.7956 4 39.5587 4.31605 40.1213 4.87866C40.6839 5.44127 41 6.20435 41 7C41 7.79565 40.6839 8.55873 40.1213 9.12134C39.5587 9.68395 38.7956 10 38 10H36" stroke="#4B2661" stroke-width="2" stroke-linejoin="round"/>
<path d="M21 40H4C3.20435 40 2.44127 39.6839 1.87866 39.1213C1.31605 38.5587 1 37.7956 1 37V37C1 36.2044 1.31605 35.4413 1.87866 34.8787C2.44127 34.3161 3.20435 34 4 34H21" stroke="#4B2661" stroke-width="2" stroke-linejoin="round"/>
<path d="M31 9C32.1046 9 33 8.10457 33 7C33 5.89543 32.1046 5 31 5C29.8954 5 29 5.89543 29 7C29 8.10457 29.8954 9 31 9Z" stroke="#4B2661" stroke-linecap="round" stroke-linejoin="round"/>
<path d="M12 24C13.1046 24 14 23.1046 14 22C14 20.8954 13.1046 20 12 20C10.8954 20 10 20.8954 10 22C10 23.1046 10.8954 24 12 24Z" stroke="#4B2661" stroke-linecap="round" stroke-linejoin="round"/>
<path d="M26 39C27.1046 39 28 38.1046 28 37C28 35.8954 27.1046 35 26 35C24.8954 35 24 35.8954 24 37C24 38.1046 24.8954 39 26 39Z" stroke="#4B2661" stroke-linecap="round" stroke-linejoin="round"/>
</svg>
