<svg width="52" height="35" viewBox="0 0 52 35" fill="none" xmlns="http://www.w3.org/2000/svg">
<path d="M42 23.042C42.5523 23.042 43 22.5943 43 22.042C43 21.4897 42.5523 21.042 42 21.042C41.4477 21.042 41 21.4897 41 22.042C41 22.5943 41.4477 23.042 42 23.042Z" stroke="#4B2661" stroke-linecap="round" stroke-linejoin="round"/>
<path d="M3 2H19V33H3C2.46957 33 1.96086 32.7893 1.58579 32.4142C1.21071 32.0391 1 31.5304 1 31V4C1 3.46957 1.21071 2.96086 1.58579 2.58579C1.96086 2.21071 2.46957 2 3 2V2Z" stroke="#4B2661" stroke-linecap="round" stroke-linejoin="round"/>
<path d="M21 34L49 34C50.1046 34 51 33.1046 51 32L51 3C51 1.89543 50.1046 1 49 1L21 1C19.8954 1 19 1.89543 19 3L19 32C19 33.1046 19.8954 34 21 34Z" stroke="#4B2661" stroke-width="2" stroke-linecap="round" stroke-linejoin="round"/>
<path d="M5.94897 7H11.955" stroke="#4B2661" stroke-width="2" stroke-linecap="round" stroke-linejoin="round"/>
<path d="M5.99194 13H10.9969" stroke="#4B2661" stroke-width="2" stroke-linecap="round" stroke-linejoin="round"/>
<path d="M42.002 26V23.042" stroke="#4B2661" stroke-linecap="round" stroke-linejoin="round"/>
<path d="M42.002 21.043V20" stroke="#4B2661" stroke-linecap="round" stroke-linejoin="round"/>
<path d="M38 24.979C38.5523 24.979 39 24.5313 39 23.979C39 23.4267 38.5523 22.979 38 22.979C37.4477 22.979 37 23.4267 37 23.979C37 24.5313 37.4477 24.979 38 24.979Z" stroke="#4B2661" stroke-linecap="round" stroke-linejoin="round"/>
<path d="M37.998 20V22.979" stroke="#4B2661" stroke-linecap="round" stroke-linejoin="round"/>
<path d="M37.998 24.978V26" stroke="#4B2661" stroke-linecap="round" stroke-linejoin="round"/>
<path d="M5.99194 10H13.9999" stroke="#4B2661" stroke-width="2" stroke-linecap="round" stroke-linejoin="round"/>
<path d="M5.99194 16.0361H10.9969" stroke="#4B2661" stroke-width="2" stroke-linecap="round" stroke-linejoin="round"/>
<path d="M39 9H43" stroke="#4B2661" stroke-linecap="round" stroke-linejoin="round"/>
<path d="M39 11H43" stroke="#4B2661" stroke-linecap="round" stroke-linejoin="round"/>
<path d="M5.99194 19H13.0349" stroke="#4B2661" stroke-width="2" stroke-linecap="round" stroke-linejoin="round"/>
<path d="M26.957 20H31.962" stroke="#4B2661" stroke-linecap="round" stroke-linejoin="round"/>
<path d="M26.957 23.0361H31.962" stroke="#4B2661" stroke-linecap="round" stroke-linejoin="round"/>
<path d="M26.957 26H34" stroke="#4B2661" stroke-linecap="round" stroke-linejoin="round"/>
<path d="M13.5 26H6.5C5.67157 26 5 26.6716 5 27.5C5 28.3284 5.67157 29 6.5 29H13.5C14.3284 29 15 28.3284 15 27.5C15 26.6716 14.3284 26 13.5 26Z" stroke="#4B2661" stroke-linecap="round" stroke-linejoin="round"/>
<path d="M31.5 6H25.5C24.6716 6 24 6.67157 24 7.5C24 8.32843 24.6716 9 25.5 9H31.5C32.3284 9 33 8.32843 33 7.5C33 6.67157 32.3284 6 31.5 6Z" stroke="#4B2661" stroke-linecap="round" stroke-linejoin="round"/>
<path d="M31.5 11H25.5C24.6716 11 24 11.6716 24 12.5C24 13.3284 24.6716 14 25.5 14H31.5C32.3284 14 33 13.3284 33 12.5C33 11.6716 32.3284 11 31.5 11Z" stroke="#4B2661" stroke-linecap="round" stroke-linejoin="round"/>
<path d="M44 6H38.021C36.9164 6 36.021 6.89543 36.021 8V12C36.021 13.1046 36.9164 14 38.021 14H44C45.1046 14 46 13.1046 46 12V8C46 6.89543 45.1046 6 44 6Z" stroke="#4B2661" stroke-linecap="round" stroke-linejoin="round"/>
<path d="M44 17H26C24.8954 17 24 17.8954 24 19V27C24 28.1046 24.8954 29 26 29H44C45.1046 29 46 28.1046 46 27V19C46 17.8954 45.1046 17 44 17Z" stroke="#4B2661" stroke-linecap="round" stroke-linejoin="round"/>
</svg>
