<svg width="22" height="21" viewBox="0 0 22 21" fill="none" xmlns="http://www.w3.org/2000/svg">
<path d="M11.9546 1.51593L14.7715 6.47589L20.3594 7.62292C20.5326 7.65836 20.6934 7.73905 20.8252 7.85681C20.9571 7.97457 21.0552 8.12517 21.1099 8.29327C21.1646 8.46138 21.1738 8.64099 21.1365 8.81378C21.0992 8.98657 21.0167 9.14638 20.8975 9.27692L17.0506 13.4889L17.6866 19.1579C17.7064 19.3336 17.6795 19.5114 17.6082 19.6733C17.5369 19.8351 17.4238 19.9752 17.2808 20.0792C17.1378 20.1831 16.9699 20.2473 16.794 20.2652C16.6181 20.2831 16.4406 20.254 16.2796 20.1809L11.0796 17.8239L5.87944 20.1809C5.71843 20.254 5.54095 20.2831 5.36504 20.2652C5.18912 20.2473 5.02124 20.1831 4.87822 20.0792C4.7352 19.9752 4.62232 19.8351 4.55107 19.6733C4.47982 19.5114 4.45258 19.3336 4.47246 19.1579L5.10845 13.4889L1.26152 9.27692C1.14232 9.14638 1.05984 8.98657 1.02251 8.81378C0.985179 8.64099 0.994439 8.46138 1.04912 8.29327C1.1038 8.12517 1.20195 7.97457 1.33379 7.85681C1.46562 7.73905 1.62642 7.65836 1.79961 7.62292L7.3875 6.47589L10.2046 1.51593C10.2911 1.35963 10.4177 1.22933 10.5716 1.13861C10.7255 1.04789 10.901 1 11.0796 1C11.2583 1 11.4336 1.04789 11.5874 1.13861C11.7413 1.22933 11.8682 1.35963 11.9546 1.51593Z" stroke="#2A1A33" stroke-linecap="round" stroke-linejoin="round"/>
</svg>
