<svg width="42" height="42" viewBox="0 0 42 42" fill="none" xmlns="http://www.w3.org/2000/svg">
<path d="M17 31L15 30L13 31L11 30L9 31L7 30L5 31L3 30L1 31V10H17V31Z" stroke="#4B2661" stroke-width="2" stroke-linecap="round" stroke-linejoin="round"/>
<path d="M4 1H14C14.7956 1 15.5587 1.31607 16.1213 1.87868C16.6839 2.44129 17 3.20435 17 4V10H1V4C1 3.20435 1.31607 2.44129 1.87868 1.87868C2.44129 1.31607 3.20435 1 4 1V1Z" stroke="#4B2661" stroke-width="2" stroke-linecap="round" stroke-linejoin="round"/>
<path d="M9 10V31" stroke="#4B2661" stroke-linecap="round" stroke-linejoin="round"/>
<path d="M5 10V31" stroke="#4B2661" stroke-linecap="round" stroke-linejoin="round"/>
<path d="M17 6.5H1" stroke="#4B2661" stroke-linecap="round" stroke-linejoin="round"/>
<path d="M13 10V31" stroke="#4B2661" stroke-linecap="round" stroke-linejoin="round"/>
<path d="M1 31L9 41L17 31" stroke="#4B2661" stroke-width="2" stroke-linecap="round" stroke-linejoin="round"/>
<path d="M8 39H10" stroke="#4B2661" stroke-width="2" stroke-linecap="round" stroke-linejoin="round"/>
<path d="M21 1V41H41L21 1Z" stroke="#4B2661" stroke-width="2" stroke-linecap="round" stroke-linejoin="round"/>
<path d="M27 35V26L32 35H27Z" stroke="#4B2661" stroke-width="2" stroke-linecap="round" stroke-linejoin="round"/>
<path d="M21 38H24" stroke="#4B2661" stroke-linecap="round" stroke-linejoin="round"/>
<path d="M21 36H23" stroke="#4B2661" stroke-linecap="round" stroke-linejoin="round"/>
<path d="M21 34H23" stroke="#4B2661" stroke-linecap="round" stroke-linejoin="round"/>
<path d="M21 32H23" stroke="#4B2661" stroke-linecap="round" stroke-linejoin="round"/>
<path d="M21 30H24" stroke="#4B2661" stroke-linecap="round" stroke-linejoin="round"/>
<path d="M21 28H23" stroke="#4B2661" stroke-linecap="round" stroke-linejoin="round"/>
<path d="M21 26H23" stroke="#4B2661" stroke-linecap="round" stroke-linejoin="round"/>
<path d="M21 24H23" stroke="#4B2661" stroke-linecap="round" stroke-linejoin="round"/>
<path d="M21 22H24" stroke="#4B2661" stroke-linecap="round" stroke-linejoin="round"/>
<path d="M21 20H23" stroke="#4B2661" stroke-linecap="round" stroke-linejoin="round"/>
<path d="M21 18H23" stroke="#4B2661" stroke-linecap="round" stroke-linejoin="round"/>
<path d="M21 16H23" stroke="#4B2661" stroke-linecap="round" stroke-linejoin="round"/>
<path d="M21 14H24" stroke="#4B2661" stroke-linecap="round" stroke-linejoin="round"/>
</svg>
