<svg width="25" height="16" viewBox="0 0 25 16" fill="none" xmlns="http://www.w3.org/2000/svg">
<path d="M0 7.99792H24.421V15.5769C24.421 15.6886 24.3766 15.7957 24.2977 15.8746C24.2187 15.9536 24.1117 15.9979 24 15.9979H0.421C0.309344 15.9979 0.202261 15.9536 0.123308 15.8746C0.0443552 15.7957 0 15.6886 0 15.5769L0 7.99792Z" fill="#FF4B55"/>
<path d="M24.421 7.99796H0V0.422951C0 0.311295 0.0443552 0.204212 0.123308 0.125259C0.202261 0.0463066 0.309344 0.00195313 0.421 0.00195312H24C24.1117 0.00195312 24.2187 0.0463066 24.2977 0.125259C24.3766 0.204212 24.421 0.311295 24.421 0.422951V8.00195V7.99796Z" fill="#F5F5F5"/>
</svg>
