<svg width="30" height="42" viewBox="0 0 30 42" fill="none" xmlns="http://www.w3.org/2000/svg">
<path d="M5 1H8C8.26522 1 8.51949 1.10537 8.70703 1.29291C8.89457 1.48044 9 1.73478 9 2V7H12V2C12 1.73478 12.1054 1.48044 12.293 1.29291C12.4805 1.10537 12.7348 1 13 1H17C17.2652 1 17.5195 1.10537 17.707 1.29291C17.8946 1.48044 18 1.73478 18 2V7H21V2C21 1.73478 21.1054 1.48044 21.293 1.29291C21.4805 1.10537 21.7348 1 22 1H25C25.2652 1 25.5195 1.10537 25.707 1.29291C25.8946 1.48044 26 1.73478 26 2V15C26 15.5304 25.7894 16.0391 25.4143 16.4142C25.0392 16.7893 24.5304 17 24 17H6C5.46957 17 4.96077 16.7893 4.58569 16.4142C4.21062 16.0391 4 15.5304 4 15V2C4 1.73478 4.10543 1.48044 4.29297 1.29291C4.48051 1.10537 4.73478 1 5 1Z" stroke="#4B2661" stroke-width="2" stroke-linecap="round" stroke-linejoin="round"/>
<path d="M8 17L6 31H24L22 17H8Z" stroke="#4B2661" stroke-width="2" stroke-linecap="round" stroke-linejoin="round"/>
<path d="M6 31H24C24.5304 31 25.0391 31.2107 25.4142 31.5858C25.7893 31.9609 26 32.4696 26 33V36H4V33C4 32.4696 4.21071 31.9609 4.58579 31.5858C4.96086 31.2107 5.46957 31 6 31V31Z" stroke="#4B2661" stroke-width="2" stroke-linecap="round" stroke-linejoin="round"/>
<path d="M3 36H27C27.5304 36 28.0391 36.2107 28.4142 36.5858C28.7893 36.9609 29 37.4696 29 38V41H1V38C1 37.4696 1.21071 36.9609 1.58579 36.5858C1.96086 36.2107 2.46957 36 3 36V36Z" stroke="#4B2661" stroke-width="2" stroke-linecap="round" stroke-linejoin="round"/>
<path d="M7 26H23" stroke="#4B2661" stroke-linecap="round" stroke-linejoin="round"/>
<path d="M24 12H6" stroke="#4B2661" stroke-linecap="round" stroke-linejoin="round"/>
</svg>
