<svg width="46" height="42" viewBox="0 0 46 42" fill="none" xmlns="http://www.w3.org/2000/svg">
<path d="M36 12V8H1V36H27" stroke="#4B2661" stroke-width="2" stroke-linecap="round" stroke-linejoin="round"/>
<path d="M6.25 1L1 8H36L30.75 1H6.25Z" stroke="#4B2661" stroke-width="2" stroke-linecap="round" stroke-linejoin="round"/>
<path d="M15.95 1L14 8V18.5H23.75V8L21.8 1H15.95Z" stroke="#4B2661" stroke-linecap="round" stroke-linejoin="round"/>
<path d="M8 25.5H18.5" stroke="#4B2661" stroke-linecap="round" stroke-linejoin="round"/>
<path d="M8 29H15" stroke="#4B2661" stroke-linecap="round" stroke-linejoin="round"/>
<path d="M43 13H29.182C28.0774 13 27.182 13.8954 27.182 15V39C27.182 40.1046 28.0774 41 29.182 41H43C44.1046 41 45 40.1046 45 39V15C45 13.8954 44.1046 13 43 13Z" stroke="#4B2661" stroke-width="2" stroke-linecap="round" stroke-linejoin="round"/>
<path d="M36.091 32.0912C38.9027 32.0912 41.182 29.8119 41.182 27.0002C41.182 24.1885 38.9027 21.9092 36.091 21.9092C33.2793 21.9092 31 24.1885 31 27.0002C31 29.8119 33.2793 32.0912 36.091 32.0912Z" stroke="#4B2661" stroke-linecap="round" stroke-linejoin="round"/>
<path d="M32.2729 13C32.2729 14.3502 31.7367 15.6451 30.782 16.5999C29.8272 17.5546 28.5321 18.091 27.1819 18.091" stroke="#4B2661" stroke-linecap="round" stroke-linejoin="round"/>
<path d="M39.9089 13C39.9089 14.3502 40.4454 15.6451 41.4001 16.5999C42.3549 17.5546 43.6498 18.091 45 18.091" stroke="#4B2661" stroke-linecap="round" stroke-linejoin="round"/>
<path d="M32.2729 41.0002C32.2729 39.65 31.7367 38.3551 30.782 37.4003C29.8272 36.4456 28.5321 35.9092 27.1819 35.9092" stroke="#4B2661" stroke-linecap="round" stroke-linejoin="round"/>
<path d="M39.9089 41.0002C39.9089 39.65 40.4454 38.3551 41.4001 37.4003C42.3549 36.4456 43.6498 35.9092 45 35.9092" stroke="#4B2661" stroke-linecap="round" stroke-linejoin="round"/>
</svg>
