<svg width="52" height="42" viewBox="0 0 52 42" fill="none" xmlns="http://www.w3.org/2000/svg">
<path d="M49 1H3C1.89543 1 1 1.89543 1 3V39C1 40.1046 1.89543 41 3 41H49C50.1046 41 51 40.1046 51 39V3C51 1.89543 50.1046 1 49 1Z" stroke="#4B2661" stroke-width="2" stroke-linecap="round" stroke-linejoin="round"/>
<path d="M1 9H50.149" stroke="#4B2661" stroke-linecap="round" stroke-linejoin="round"/>
<path d="M6.5 5.5C6.5 6.05228 6.05228 6.5 5.5 6.5C4.94772 6.5 4.5 6.05228 4.5 5.5C4.5 4.94772 4.94772 4.5 5.5 4.5C6.05228 4.5 6.5 4.94772 6.5 5.5Z" stroke="#4B2661"/>
<path d="M10.5 5.5C10.5 6.05228 10.0523 6.5 9.5 6.5C8.94772 6.5 8.5 6.05228 8.5 5.5C8.5 4.94772 8.94772 4.5 9.5 4.5C10.0523 4.5 10.5 4.94772 10.5 5.5Z" stroke="#4B2661"/>
<path d="M14.5 5.5C14.5 6.05228 14.0523 6.5 13.5 6.5C12.9477 6.5 12.5 6.05228 12.5 5.5C12.5 4.94772 12.9477 4.5 13.5 4.5C14.0523 4.5 14.5 4.94772 14.5 5.5Z" stroke="#4B2661"/>
<path d="M31 21H6V41H31V21Z" stroke="#4B2661" stroke-linecap="round" stroke-linejoin="round"/>
<path d="M31 13H6V18H31V13Z" stroke="#4B2661" stroke-linecap="round" stroke-linejoin="round"/>
<path d="M46 13H34V24H46V13Z" stroke="#4B2661" stroke-linecap="round" stroke-linejoin="round"/>
<path d="M46 27H34V41H46V27Z" stroke="#4B2661" stroke-linecap="round" stroke-linejoin="round"/>
</svg>
