<svg width="51" height="42" viewBox="0 0 51 42" fill="none" xmlns="http://www.w3.org/2000/svg">
<path d="M15.948 41C18.1571 41 19.948 39.2091 19.948 37C19.948 34.7909 18.1571 33 15.948 33C13.7389 33 11.948 34.7909 11.948 37C11.948 39.2091 13.7389 41 15.948 41Z" stroke="#4B2661" stroke-width="2" stroke-linecap="round" stroke-linejoin="round"/>
<path d="M41.948 41C44.1571 41 45.948 39.2091 45.948 37C45.948 34.7909 44.1571 33 41.948 33C39.7389 33 37.948 34.7909 37.948 37C37.948 39.2091 39.7389 41 41.948 41Z" stroke="#4B2661" stroke-width="2" stroke-linecap="round" stroke-linejoin="round"/>
<path d="M1 1L7 4L14 33" stroke="#4B2661" stroke-width="2" stroke-linecap="round" stroke-linejoin="round"/>
<path d="M19.948 37H37.948" stroke="#4B2661" stroke-width="2" stroke-linecap="round" stroke-linejoin="round"/>
<path d="M13 28H43.491C43.9256 28 44.3486 27.8583 44.6956 27.5965C45.0425 27.3347 45.2947 26.967 45.4141 26.549L50.272 9.54901C50.3569 9.25139 50.3716 8.93813 50.3149 8.63385C50.2583 8.32957 50.132 8.04255 49.9456 7.79547C49.7592 7.54839 49.5177 7.34794 49.2407 7.2099C48.9637 7.07186 48.6586 7.00003 48.3491 7H8" stroke="#4B2661" stroke-linecap="round" stroke-linejoin="round"/>
<path d="M15 7V28.033" stroke="#4B2661" stroke-linecap="round" stroke-linejoin="round"/>
<path d="M22.007 7V28.033" stroke="#4B2661" stroke-linecap="round" stroke-linejoin="round"/>
<path d="M29.014 7V28.033" stroke="#4B2661" stroke-linecap="round" stroke-linejoin="round"/>
<path d="M36.021 7V28.033" stroke="#4B2661" stroke-linecap="round" stroke-linejoin="round"/>
<path d="M43.021 7V28.033" stroke="#4B2661" stroke-linecap="round" stroke-linejoin="round"/>
<path d="M10 13.9419H48" stroke="#4B2661" stroke-linecap="round" stroke-linejoin="round"/>
<path d="M11 21H47" stroke="#4B2661" stroke-linecap="round" stroke-linejoin="round"/>
</svg>
