<svg width="42" height="42" viewBox="0 0 42 42" fill="none" xmlns="http://www.w3.org/2000/svg">
<path d="M14 11C14.0012 11.812 14.2493 12.6044 14.7117 13.2719C15.174 13.9394 15.8286 14.4504 16.5884 14.7369C17.3481 15.0235 18.1771 15.072 18.9651 14.876C19.7531 14.6801 20.4629 14.249 21 13.64V21H13.6399C14.2508 21.5367 14.6838 22.2467 14.8809 23.0356C15.0779 23.8245 15.0297 24.6548 14.7429 25.4157C14.4562 26.1766 13.9444 26.832 13.2756 27.2946C12.6069 27.7572 11.8131 28.0051 11 28.0051C10.1869 28.0051 9.39308 27.7572 8.72437 27.2946C8.05565 26.832 7.54384 26.1766 7.25708 25.4157C6.97032 24.6548 6.92208 23.8245 7.11914 23.0356C7.3162 22.2467 7.74922 21.5367 8.36011 21H1V3C1.00158 2.47005 1.21292 1.96225 1.58765 1.58752C1.96238 1.21279 2.47005 1.00158 3 1H21V8.35999C20.4629 7.75099 19.7531 7.3199 18.9651 7.12396C18.1771 6.92803 17.3481 6.97652 16.5884 7.26306C15.8286 7.5496 15.174 8.06059 14.7117 8.72809C14.2493 9.39559 14.0012 10.188 14 11Z" stroke="#4B2661" stroke-width="2" stroke-linecap="round" stroke-linejoin="round"/>
<path d="M41 3V21H34.6399C35.2508 20.4633 35.6838 19.7533 35.8809 18.9644C36.0779 18.1755 36.0297 17.3452 35.7429 16.5843C35.4562 15.8234 34.9444 15.168 34.2756 14.7054C33.6069 14.2428 32.8131 13.9949 32 13.9949C31.1869 13.9949 30.3931 14.2428 29.7244 14.7054C29.0556 15.168 28.5438 15.8234 28.2571 16.5843C27.9703 17.3452 27.9221 18.1755 28.1191 18.9644C28.3162 19.7533 28.7492 20.4633 29.3601 21H21V13.64C20.4633 14.2509 19.7533 14.6837 18.9644 14.8807C18.1755 15.0778 17.3451 15.0297 16.5842 14.743C15.8233 14.4562 15.1679 13.9444 14.7053 13.2757C14.2427 12.607 13.9949 11.8131 13.9949 11C13.9949 10.1869 14.2427 9.39302 14.7053 8.7243C15.1679 8.05559 15.8233 7.54378 16.5842 7.25702C17.3451 6.97026 18.1755 6.9222 18.9644 7.11926C19.7533 7.31632 20.4633 7.7491 21 8.35999V1H39C39.5299 1.00158 40.0376 1.21279 40.4124 1.58752C40.7871 1.96225 40.9984 2.47005 41 3Z" stroke="#4B2661" stroke-width="2" stroke-linecap="round" stroke-linejoin="round"/>
<path d="M28 31C27.9988 31.812 27.7507 32.6044 27.2883 33.2719C26.826 33.9394 26.1714 34.4504 25.4116 34.7369C24.6519 35.0235 23.8229 35.072 23.0349 34.876C22.2469 34.6801 21.5371 34.249 21 33.64V41H3C2.47005 40.9984 1.96238 40.7872 1.58765 40.4125C1.21292 40.0377 1.00158 39.5299 1 39V21H8.36011C7.74922 21.5367 7.3162 22.2467 7.11914 23.0356C6.92208 23.8245 6.97032 24.6548 7.25708 25.4157C7.54384 26.1766 8.05565 26.832 8.72437 27.2946C9.39308 27.7572 10.1869 28.0051 11 28.0051C11.8131 28.0051 12.6069 27.7572 13.2756 27.2946C13.9444 26.832 14.4562 26.1766 14.7429 25.4157C15.0297 24.6548 15.0779 23.8245 14.8809 23.0356C14.6838 22.2467 14.2508 21.5367 13.6399 21H21V28.36C21.5371 27.751 22.2469 27.3199 23.0349 27.124C23.8229 26.928 24.6519 26.9765 25.4116 27.2631C26.1714 27.5496 26.826 28.0606 27.2883 28.7281C27.7507 29.3956 27.9988 30.188 28 31Z" stroke="#4B2661" stroke-width="2" stroke-linecap="round" stroke-linejoin="round"/>
<path d="M41 21.0002V39.0002C40.9984 39.5301 40.7871 40.0379 40.4124 40.4127C40.0376 40.7874 39.5299 40.9986 39 41.0002H21V33.6402C21.5367 34.2511 22.2467 34.6839 23.0356 34.8809C23.8245 35.078 24.6549 35.0299 25.4158 34.7432C26.1767 34.4564 26.8321 33.9446 27.2947 33.2759C27.7573 32.6072 28.0051 31.8133 28.0051 31.0002C28.0051 30.187 27.7573 29.3932 27.2947 28.7245C26.8321 28.0558 26.1767 27.544 25.4158 27.2572C24.6549 26.9704 23.8245 26.9224 23.0356 27.1194C22.2467 27.3165 21.5367 27.7493 21 28.3602V21.0002H29.3601C28.7492 20.4635 28.3162 19.7534 28.1191 18.9645C27.9221 18.1756 27.9703 17.3454 28.2571 16.5845C28.5438 15.8236 29.0556 15.1682 29.7244 14.7056C30.3931 14.243 31.1869 13.9951 32 13.9951C32.8131 13.9951 33.6069 14.243 34.2756 14.7056C34.9444 15.1682 35.4562 15.8236 35.7429 16.5845C36.0297 17.3454 36.0779 18.1756 35.8809 18.9645C35.6838 19.7534 35.2508 20.4635 34.6399 21.0002H41Z" stroke="#4B2661" stroke-width="2" stroke-linecap="round" stroke-linejoin="round"/>
</svg>
