<svg width="52" height="42" viewBox="0 0 52 42" fill="none" xmlns="http://www.w3.org/2000/svg">
<path d="M49 1H3C1.89543 1 1 1.89543 1 3V39C1 40.1046 1.89543 41 3 41H49C50.1046 41 51 40.1046 51 39V3C51 1.89543 50.1046 1 49 1Z" stroke="#4B2661" stroke-width="2" stroke-linecap="round" stroke-linejoin="round"/>
<path d="M1 9H50.149" stroke="#4B2661" stroke-linecap="round" stroke-linejoin="round"/>
<path d="M6.5 5.5C6.5 6.05228 6.05228 6.5 5.5 6.5C4.94772 6.5 4.5 6.05228 4.5 5.5C4.5 4.94772 4.94772 4.5 5.5 4.5C6.05228 4.5 6.5 4.94772 6.5 5.5Z" stroke="#4B2661"/>
<path d="M10.5 5.5C10.5 6.05228 10.0523 6.5 9.5 6.5C8.94772 6.5 8.5 6.05228 8.5 5.5C8.5 4.94772 8.94772 4.5 9.5 4.5C10.0523 4.5 10.5 4.94772 10.5 5.5Z" stroke="#4B2661"/>
<path d="M14.5 5.5C14.5 6.05228 14.0523 6.5 13.5 6.5C12.9477 6.5 12.5 6.05228 12.5 5.5C12.5 4.94772 12.9477 4.5 13.5 4.5C14.0523 4.5 14.5 4.94772 14.5 5.5Z" stroke="#4B2661"/>
<path d="M36 32C37.1046 32 38 31.1046 38 30C38 28.8954 37.1046 28 36 28C34.8954 28 34 28.8954 34 30C34 31.1046 34.8954 32 36 32Z" stroke="#4B2661" stroke-linecap="round" stroke-linejoin="round"/>
<path d="M21 27C23.2091 27 25 25.2091 25 23C25 20.7909 23.2091 19 21 19C18.7909 19 17 20.7909 17 23C17 25.2091 18.7909 27 21 27Z" stroke="#4B2661" stroke-width="2" stroke-linecap="round" stroke-linejoin="round"/>
<path d="M27.16 26.33V26.34L29.3401 28.51C28.6018 29.6382 27.6383 30.6017 26.5101 31.34L24.3301 29.16C23.9068 29.3883 23.461 29.5726 23 29.71V32.8C21.68 33.0666 20.32 33.0666 19 32.8V29.71C18.5391 29.5726 18.0933 29.3883 17.67 29.16L15.49 31.34C14.3618 30.6017 13.3983 29.6382 12.66 28.51L14.8401 26.34V26.33C14.6118 25.9067 14.4274 25.461 14.2901 25H11.2C10.9333 23.68 10.9333 22.32 11.2 21H14.2901C14.4274 20.539 14.6118 20.0933 14.8401 19.67L12.66 17.49C13.3983 16.3618 14.3618 15.3983 15.49 14.66L17.66 16.84H17.67C18.0933 16.6117 18.5391 16.4274 19 16.29V13.2C20.32 12.9333 21.68 12.9333 23 13.2V16.29C23.461 16.4274 23.9068 16.6117 24.3301 16.84H24.3401L26.5101 14.66C27.6383 15.3983 28.6018 16.3618 29.3401 17.49L27.16 19.67C27.3883 20.0933 27.5727 20.539 27.71 21H30.8001C31.0668 22.32 31.0668 23.68 30.8001 25H27.71C27.5727 25.461 27.3883 25.9067 27.16 26.33Z" stroke="#4B2661" stroke-width="2" stroke-linecap="round" stroke-linejoin="round"/>
<path d="M39.7 32L41.0081 33.3C40.5648 33.9779 39.986 34.5567 39.3081 35L38 33.7C37.7454 33.8372 37.4772 33.9478 37.2 34.03V35.884C36.408 36.044 35.5921 36.044 34.8001 35.884V34.03C34.5228 33.9478 34.2546 33.8372 34 33.7L32.6941 35C32.0162 34.5567 31.4372 33.9779 30.9939 33.3L32.302 32C32.1649 31.7453 32.0542 31.4773 31.9719 31.2H30.1179C29.9578 30.408 29.9578 29.592 30.1179 28.8H31.9719C32.0542 28.5227 32.1649 28.2547 32.302 28L31 26.694C31.4433 26.0161 32.0221 25.4373 32.7 24.994L34 26.302C34.2546 26.1648 34.5228 26.0542 34.8001 25.972V24.12C35.5921 23.96 36.408 23.96 37.2 24.12V25.974C37.4772 26.0563 37.7454 26.1669 38 26.304L39.3001 24.996C39.978 25.4393 40.5567 26.0181 41 26.696L39.7 28C39.8371 28.2547 39.9477 28.5227 40.03 28.8H41.884C42.0442 29.592 42.0442 30.408 41.884 31.2H40.03C39.9477 31.4773 39.8371 31.7453 39.7 32Z" stroke="#4B2661" stroke-linecap="round" stroke-linejoin="round"/>
</svg>
