<svg width="20" height="20" viewBox="0 0 20 20" fill="none" xmlns="http://www.w3.org/2000/svg">
<path d="M2 12H4C4.26522 12 4.51957 12.1054 4.70711 12.2929C4.89464 12.4804 5 12.7348 5 13V19H1V13C1 12.7348 1.10536 12.4804 1.29289 12.2929C1.48043 12.1054 1.73478 12 2 12V12Z" stroke="#2A1A33" stroke-linecap="round" stroke-linejoin="round"/>
<path d="M9 10H11C11.2652 10 11.5196 10.1054 11.7071 10.2929C11.8946 10.4804 12 10.7348 12 11V19H8V11C8 10.7348 8.10536 10.4804 8.29289 10.2929C8.48043 10.1054 8.73478 10 9 10V10Z" stroke="#2A1A33" stroke-linecap="round" stroke-linejoin="round"/>
<path d="M16 1H18C18.2652 1 18.5196 1.10536 18.7071 1.29289C18.8946 1.48043 19 1.73478 19 2V19H15V2C15 1.73478 15.1054 1.48043 15.2929 1.29289C15.4804 1.10536 15.7348 1 16 1Z" stroke="#2A1A33" stroke-linecap="round" stroke-linejoin="round"/>
</svg>
