<svg width="28" height="51" viewBox="0 0 28 51" fill="none" xmlns="http://www.w3.org/2000/svg">
<path d="M4.24962 7.3125H20.4996C21.2176 7.3125 21.7996 7.8695 21.7996 8.55659V24.1077C21.7996 24.7948 21.2176 25.3518 20.4996 25.3518H4.24962C3.53165 25.3518 2.94962 24.7948 2.94962 24.1077V8.55659C2.94962 7.8695 3.53165 7.3125 4.24962 7.3125Z" fill="#E0DAE3"/>
<path d="M5.54999 5.97656H22.45C23.168 5.97656 23.75 6.53356 23.75 7.22065V23.3938C23.75 24.0809 23.168 24.6379 22.45 24.6379H5.54999C4.83202 24.6379 4.24999 24.0809 4.24999 23.3938V7.22065C4.24999 6.53356 4.83202 5.97656 5.54999 5.97656Z" stroke="#4B2661" stroke-width="0.884626" stroke-linecap="round" stroke-linejoin="round"/>
<path d="M19.2 30.8583H22.45C22.7948 30.8583 23.1255 30.7272 23.3693 30.4939C23.6131 30.2606 23.75 29.9442 23.75 29.6142V7.22065C23.75 6.8907 23.6131 6.57426 23.3693 6.34095C23.1255 6.10763 22.7948 5.97656 22.45 5.97656H5.54999C5.20521 5.97656 4.87449 6.10763 4.63069 6.34095C4.3869 6.57426 4.24999 6.8907 4.24999 7.22065V29.6142C4.24999 29.9442 4.3869 30.2606 4.63069 30.4939C4.87449 30.7272 5.20521 30.8583 5.54999 30.8583H9.45" stroke="#4B2661" stroke-width="0.884626" stroke-linecap="round" stroke-linejoin="round"/>
<path d="M21.7999 26.5036H13.9551" stroke="#4B2661" stroke-width="0.884626" stroke-linecap="round" stroke-linejoin="round"/>
<path d="M21.7999 27.7482H16.5999" stroke="#4B2661" stroke-width="0.884626" stroke-linecap="round" stroke-linejoin="round"/>
<path d="M10.0332 26.5036H5.55015" stroke="#4B2661" stroke-width="0.884626" stroke-linecap="round" stroke-linejoin="round"/>
<path d="M10.7508 29.6136H17.9008C18.6188 29.6136 19.2008 30.1706 19.2008 30.8577C19.2008 31.5448 18.6188 32.1018 17.9008 32.1018H10.7508C10.0328 32.1018 9.45081 31.5448 9.45081 30.8577C9.45081 30.1706 10.0328 29.6136 10.7508 29.6136Z" stroke="#4B2661" stroke-width="0.884626" stroke-linecap="round" stroke-linejoin="round"/>
<path d="M9.14258 49.1717L9.14258 41.3268" stroke="#4B2661" stroke-width="0.884626" stroke-linecap="round" stroke-linejoin="round"/>
<path d="M13.9182 49.1717L13.9182 41.3268" stroke="#4B2661" stroke-width="0.884626" stroke-linecap="round" stroke-linejoin="round"/>
<path d="M18.6936 49.1717L18.6936 41.3268" stroke="#4B2661" stroke-width="0.884626" stroke-linecap="round" stroke-linejoin="round"/>
<path d="M7.89795 49.1717L7.89795 43.9717" stroke="#4B2661" stroke-width="0.884626" stroke-linecap="round" stroke-linejoin="round"/>
<path d="M12.6735 49.1717L12.6735 43.9717" stroke="#4B2661" stroke-width="0.884626" stroke-linecap="round" stroke-linejoin="round"/>
<path d="M17.449 49.1717L17.449 43.9717" stroke="#4B2661" stroke-width="0.884626" stroke-linecap="round" stroke-linejoin="round"/>
<path d="M23.75 49.5201V36.4572C23.75 36.1272 23.6131 35.8108 23.3693 35.5775C23.1255 35.3441 22.7948 35.2131 22.45 35.2131H5.54999C5.20521 35.2131 4.87449 35.3441 4.63069 35.5775C4.3869 35.8108 4.24999 36.1272 4.24999 36.4572V49.5201" stroke="#4B2661" stroke-width="0.884626" stroke-linecap="round" stroke-linejoin="round"/>
<path d="M3.6 1H24.4C25.8359 1 27 2.11399 27 3.48817V47.0312C27 48.4054 25.8359 49.5194 24.4 49.5194H3.6C2.16406 49.5194 1 48.4054 1 47.0312V3.48817C1 2.11399 2.16406 1 3.6 1Z" stroke="#4B2661" stroke-width="1.76925" stroke-linecap="round" stroke-linejoin="round"/>
<path d="M8.16326 1H20.5133C20.8723 1 21.1633 1.35634 21.1633 1.79592C21.1633 2.23549 20.8723 2.59184 20.5133 2.59184H8.16326C7.80428 2.59184 7.51326 2.23549 7.51326 1.79592C7.51326 1.35634 7.80428 1 8.16326 1Z" stroke="#4B2661" stroke-width="1.76925" stroke-miterlimit="10"/>
<path d="M5.77545 21.1634L9.22443 17.7144L11.3469 19.8368L15.3265 15.8572L17.1836 17.7144L21.1632 13.4695" stroke="#4B2661" stroke-width="0.884626" stroke-linecap="round" stroke-linejoin="round"/>
</svg>
