<svg width="52" height="42" viewBox="0 0 52 42" fill="none" xmlns="http://www.w3.org/2000/svg">
<path d="M23 1H3C1.89543 1 1 1.89543 1 3V39C1 40.1046 1.89543 41 3 41H23C24.1046 41 25 40.1046 25 39V3C25 1.89543 24.1046 1 23 1Z" stroke="#4B2661" stroke-width="2" stroke-linecap="round" stroke-linejoin="round"/>
<path d="M49 29H33C31.8954 29 31 29.8954 31 31V39C31 40.1046 31.8954 41 33 41H49C50.1046 41 51 40.1046 51 39V31C51 29.8954 50.1046 29 49 29Z" stroke="#4B2661" stroke-width="2" stroke-linecap="round" stroke-linejoin="round"/>
<path d="M49 12H33C31.8954 12 31 12.8954 31 14V22C31 23.1046 31.8954 24 33 24H49C50.1046 24 51 23.1046 51 22V14C51 12.8954 50.1046 12 49 12Z" stroke="#4B2661" stroke-width="2" stroke-linecap="round" stroke-linejoin="round"/>
<path d="M13 13C14.6569 13 16 11.6569 16 10C16 8.34315 14.6569 7 13 7C11.3431 7 10 8.34315 10 10C10 11.6569 11.3431 13 13 13Z" stroke="#4B2661" stroke-linecap="round" stroke-linejoin="round"/>
<path d="M41 21C42.6569 21 44 19.6569 44 18C44 16.3431 42.6569 15 41 15C39.3431 15 38 16.3431 38 18C38 19.6569 39.3431 21 41 21Z" stroke="#4B2661" stroke-linecap="round" stroke-linejoin="round"/>
<path d="M37 37C38.1046 37 39 36.1046 39 35C39 33.8954 38.1046 33 37 33C35.8954 33 35 33.8954 35 35C35 36.1046 35.8954 37 37 37Z" stroke="#4B2661" stroke-linecap="round" stroke-linejoin="round"/>
<path d="M8 20H18" stroke="#4B2661" stroke-linecap="round" stroke-linejoin="round"/>
<path d="M11 15H15" stroke="#4B2661" stroke-linecap="round" stroke-linejoin="round"/>
<path d="M31 7H51" stroke="#4B2661" stroke-linecap="round" stroke-linejoin="round"/>
<path d="M31 4H51" stroke="#4B2661" stroke-linecap="round" stroke-linejoin="round"/>
<path d="M31 1H51" stroke="#4B2661" stroke-linecap="round" stroke-linejoin="round"/>
<path d="M8 23H18" stroke="#4B2661" stroke-linecap="round" stroke-linejoin="round"/>
<path d="M8 26H18" stroke="#4B2661" stroke-linecap="round" stroke-linejoin="round"/>
<path d="M8 29H13" stroke="#4B2661" stroke-linecap="round" stroke-linejoin="round"/>
<path d="M16 37H21" stroke="#4B2661" stroke-linecap="round" stroke-linejoin="round"/>
<path d="M2 34H24" stroke="#4B2661" stroke-linecap="round" stroke-linejoin="round"/>
<path d="M41 34H47" stroke="#4B2661" stroke-linecap="round" stroke-linejoin="round"/>
<path d="M41 36H47" stroke="#4B2661" stroke-linecap="round" stroke-linejoin="round"/>
</svg>
