<svg width="90" height="16" viewBox="0 0 90 16" fill="none" xmlns="http://www.w3.org/2000/svg">
<path d="M5.26053 7.49406C4.68403 8.17865 4.25166 8.82721 3.96341 9.5118C3.63913 10.1964 3.45898 10.8449 3.38692 11.5295C3.27882 12.5384 3.45898 13.5112 3.92738 14.448C2.01774 14.2319 0 13.187 0 9.80005C0 7.96247 1.36918 5.80061 2.70233 3.71081C3.53104 2.41369 4.28769 1.18864 4.79212 0.0356445C4.93625 0.431986 5.18847 0.828327 5.40465 1.2607C6.34146 2.99019 7.42239 4.89983 5.26053 7.49406Z" fill="url(#paint0_linear)"/>
<path d="M9.54824 9.80034C9.54824 12.6468 8.17906 14.2322 5.44071 14.4483C5.18849 14.088 5.00834 13.7277 4.86421 13.3314C4.32375 11.746 4.79215 10.0526 6.23339 8.32307C6.84592 7.56642 7.31432 6.80977 7.56654 6.01709C7.67463 5.72884 7.71066 5.44059 7.74669 5.15234C8.75556 6.77374 9.54824 8.3591 9.54824 9.80034Z" fill="url(#paint1_linear)"/>
<path d="M3.92738 14.4124C2.01774 14.2323 0 13.1874 0 9.80044C0 9.72837 0 9.62028 0 9.51219C0 9.44013 0 9.36806 0.036031 9.33203C0.036031 9.296 0.036031 9.296 0.036031 9.25997C0.036031 9.22394 0.036031 9.18791 0.036031 9.15188C0.036031 9.07981 0.036031 9.04378 0.072062 8.97172C0.108093 8.86363 0.108093 8.79157 0.144124 8.68347C0.180155 8.61141 0.180155 8.50332 0.216186 8.43126C0.324279 8.10698 0.432372 7.74667 0.576496 7.42239C0.648558 7.27826 0.684589 7.17017 0.756651 7.02605C0.972837 6.59368 1.18902 6.1613 1.44124 5.72893C1.47727 5.65687 1.54933 5.54878 1.58536 5.47671C1.65743 5.36862 1.72949 5.2245 1.80155 5.1164C2.0898 4.648 2.37805 4.1796 2.70233 3.67516C3.53104 2.37805 4.28769 1.15299 4.79212 0C6.84589 5.44068 -1.08093 7.96285 3.92738 14.4124Z" fill="url(#paint2_linear)"/>
<path d="M5.44071 14.4483C5.18849 14.088 5.00834 13.7277 4.86421 13.3314C4.32375 11.746 4.79215 10.0526 6.23339 8.32307C6.84592 7.56642 7.31432 6.80977 7.56654 6.01709C7.67463 5.72884 7.71066 5.44059 7.74669 5.15234C10.0887 10.4849 5.40468 11.2056 5.44071 14.4483Z" fill="url(#paint3_linear)"/>
<path d="M14.2057 3.46777C14.8266 3.46777 15.4919 3.86692 15.4919 4.62088C15.4919 5.37483 14.8266 5.77398 14.2057 5.77398C13.5405 5.77398 12.9196 5.37483 12.9196 4.62088C12.9196 3.82257 13.5848 3.46777 14.2057 3.46777ZM15.3588 12.2934V6.26183H13.0526V12.2934H15.3588Z" fill="url(#paint4_linear)"/>
<path d="M20.8582 12.2935V8.92289C20.8582 8.16894 20.4147 7.90284 20.0156 7.90284C19.4834 7.90284 18.9512 8.25764 18.9512 9.1003V12.3379H16.6893V6.17319H18.6851L18.7738 6.83844C19.306 6.21754 20.0599 5.99579 20.7252 6.04014C22.0113 6.04014 23.1201 6.74974 23.1201 8.92289V12.3379H20.8582V12.2935Z" fill="url(#paint5_linear)"/>
<path d="M24.6724 9.98712C25.6037 10.608 26.3577 10.6524 26.8455 10.6524C27.2447 10.6524 27.4664 10.5637 27.4664 10.3419C27.4664 10.1645 27.289 10.0315 26.8012 9.98712C25.6037 9.94277 24.1845 9.45491 24.1845 7.99136C24.1845 6.52781 25.5594 5.99561 27.0229 5.99561C27.9986 5.99561 28.93 6.30606 29.5509 6.74956L28.5752 8.12441C28.2204 7.90266 27.5108 7.72526 27.0229 7.76961C26.7125 7.76961 26.4907 7.85831 26.4907 8.08006C26.4907 8.21311 26.5794 8.34616 26.9342 8.39051C28.2204 8.43486 29.7726 8.78966 29.7726 10.4306C29.7726 11.9385 28.3978 12.5151 26.9342 12.5151C25.8698 12.5151 24.6724 12.2046 23.9628 11.7168L24.6724 9.98712Z" fill="url(#paint6_linear)"/>
<path d="M33.4981 4.44336V6.21736H34.8729V7.94702H33.4981V9.94277C33.4981 10.3863 33.7642 10.5193 34.119 10.5193C34.3407 10.5193 34.6068 10.4306 34.7842 10.2976L35.2721 11.9829C34.7399 12.2933 34.1633 12.382 33.4981 12.382C32.3006 12.382 31.1919 11.8055 31.2362 9.89842V7.90267H30.2162V6.17301H31.1919V4.66511L33.4981 4.44336Z" fill="url(#paint7_linear)"/>
<path d="M40.5054 6.17309H42.6342V12.2934H40.5054L40.4167 11.6725C39.8845 12.2491 39.0862 12.4708 38.3766 12.4265C36.5582 12.2934 35.5825 11.0516 35.5825 9.23325C35.5825 7.41489 36.78 6.04004 38.554 6.04004C39.441 6.04004 40.0175 6.35049 40.3723 6.83834L40.5054 6.17309ZM37.8887 9.23325C37.8887 10.0759 38.4209 10.5638 39.1305 10.5638C39.8845 10.5638 40.4167 9.94285 40.4167 9.23325C40.4167 8.43495 39.9732 7.85839 39.1305 7.85839C38.4209 7.90274 37.8887 8.3906 37.8887 9.23325Z" fill="url(#paint8_linear)"/>
<path d="M46.2266 3.60059V12.2932H43.9647V3.60059H46.2266Z" fill="url(#paint9_linear)"/>
<path d="M49.4197 12.737C49.3753 13.7127 49.9519 13.8901 50.5728 13.8901C51.1493 13.8901 51.6816 13.624 51.6816 13.0031C51.6816 12.5596 51.4155 12.2048 50.5728 12.2048C48.5327 12.2048 47.1578 11.0074 47.1578 9.10033C47.1578 7.19327 48.6657 5.95147 50.5728 5.95147C51.0163 5.95147 51.4155 6.04017 51.859 6.17322C52.0807 5.90712 52.3025 5.59667 52.5242 5.33057L54.1652 6.57237L53.3669 7.50372C53.8104 7.99157 53.9878 8.61247 53.9434 9.14468C53.9434 9.89863 53.5443 10.6526 52.8347 11.1848C53.9434 11.85 54.0321 12.6927 54.0321 13.0475C54.0321 15.0432 52.3025 15.7972 50.5728 15.7972C48.3553 15.7972 47.1578 14.6441 47.2909 12.7814H49.4197V12.737ZM49.4197 9.10033C49.4197 9.85428 49.9519 10.2978 50.6171 10.2978C51.238 10.2978 51.7702 9.89863 51.7702 9.10033C51.7702 8.39072 51.2824 7.81417 50.6171 7.81417C49.9519 7.81417 49.4197 8.30202 49.4197 9.10033Z" fill="url(#paint10_linear)"/>
<path d="M57.314 6.17317V9.54378C57.314 10.2977 57.7575 10.5638 58.1566 10.5638C58.6888 10.5638 59.221 10.209 59.221 9.41073V6.12882H61.4829V12.2491H59.4871L59.3984 11.5839C58.8662 12.2048 58.1123 12.4265 57.447 12.3822C56.1609 12.3822 55.0521 11.6726 55.0521 9.49943V6.08447H57.314V6.17317Z" fill="url(#paint11_linear)"/>
<path d="M64.8536 6.17309L64.9867 6.83834C65.2971 6.26179 65.8737 6.04004 66.4946 6.04004C67.1155 6.04004 67.692 6.26179 68.0912 6.70529L67.1598 8.34625C66.805 8.03579 66.4946 7.99144 66.1398 7.99144C65.5632 7.99144 65.0754 8.34625 65.0754 9.14455V12.3378H62.7692V6.17309H64.8536Z" fill="url(#paint12_linear)"/>
<path d="M70.8409 6.17317V9.54378C70.8409 10.2977 71.2844 10.5638 71.6835 10.5638C72.2157 10.5638 72.7479 10.209 72.7479 9.41073V6.12882H75.0098V12.2491H72.9697L72.881 11.5839C72.3488 12.2048 71.5948 12.4265 70.9296 12.3822C69.6434 12.3822 68.5347 11.6726 68.5347 9.49943V6.08447H70.8409V6.17317Z" fill="url(#paint13_linear)"/>
<path d="M77.4046 10.1646C79.0899 10.1646 79.0456 12.4264 77.4046 12.4264C75.7637 12.4264 75.7193 10.1646 77.4046 10.1646Z" fill="url(#paint14_linear)"/>
<path d="M82.0613 14.8659H79.7551V6.1733H81.7952L81.8839 6.83855C82.4161 6.262 83.2144 6.04024 83.924 6.0846C85.7424 6.21765 86.7181 7.3264 86.7181 9.2778C86.7181 11.1405 85.5206 12.471 83.7466 12.471C82.9483 12.471 82.3718 12.2049 82.0613 11.8058V14.8659ZM84.5006 9.23345C84.5006 8.3908 83.9684 7.90295 83.2588 7.90295C82.5048 7.90295 82.017 8.52385 82.017 9.1891C82.017 9.94306 82.4605 10.6083 83.2588 10.6083C83.924 10.6083 84.5006 10.1205 84.5006 9.23345Z" fill="url(#paint15_linear)"/>
<path d="M90 3.60059V12.2932H87.7382V3.60059H90Z" fill="url(#paint16_linear)"/>
<defs>
<linearGradient id="paint0_linear" x1="0" y1="7.23205" x2="6.51163" y2="7.23205" gradientUnits="userSpaceOnUse">
<stop stop-color="#009BA9"/>
<stop offset="1" stop-color="#3EB8C3"/>
</linearGradient>
<linearGradient id="paint1_linear" x1="4.67119" y1="9.81342" x2="9.56449" y2="9.81342" gradientUnits="userSpaceOnUse">
<stop stop-color="#F7AA12"/>
<stop offset="1" stop-color="#FCC44F"/>
</linearGradient>
<linearGradient id="paint2_linear" x1="0" y1="7.23323" x2="5.12271" y2="7.23323" gradientUnits="userSpaceOnUse">
<stop stop-color="#039BA9"/>
<stop offset="1" stop-color="#71C5D0"/>
</linearGradient>
<linearGradient id="paint3_linear" x1="4.67119" y1="9.81342" x2="8.42317" y2="9.81342" gradientUnits="userSpaceOnUse">
<stop stop-color="#F7AA12"/>
<stop offset="1" stop-color="#FDD47C"/>
</linearGradient>
<linearGradient id="paint4_linear" x1="12.931" y1="7.88039" x2="15.5015" y2="7.88039" gradientUnits="userSpaceOnUse">
<stop stop-color="#009BA9"/>
<stop offset="1" stop-color="#3EB8C3"/>
</linearGradient>
<linearGradient id="paint5_linear" x1="16.6688" y1="9.17161" x2="23.1264" y2="9.17161" gradientUnits="userSpaceOnUse">
<stop stop-color="#009BA9"/>
<stop offset="1" stop-color="#3EB8C3"/>
</linearGradient>
<linearGradient id="paint6_linear" x1="23.9212" y1="9.25232" x2="29.7451" y2="9.25232" gradientUnits="userSpaceOnUse">
<stop stop-color="#009BA9"/>
<stop offset="1" stop-color="#3EB8C3"/>
</linearGradient>
<linearGradient id="paint7_linear" x1="30.2294" y1="8.45141" x2="35.2461" y2="8.45141" gradientUnits="userSpaceOnUse">
<stop stop-color="#009BA9"/>
<stop offset="1" stop-color="#3EB8C3"/>
</linearGradient>
<linearGradient id="paint8_linear" x1="35.6059" y1="9.23586" x2="42.647" y2="9.23586" gradientUnits="userSpaceOnUse">
<stop stop-color="#009BA9"/>
<stop offset="1" stop-color="#3EB8C3"/>
</linearGradient>
<linearGradient id="paint9_linear" x1="43.9507" y1="7.96082" x2="46.211" y2="7.96082" gradientUnits="userSpaceOnUse">
<stop stop-color="#009BA9"/>
<stop offset="1" stop-color="#3EB8C3"/>
</linearGradient>
<linearGradient id="paint10_linear" x1="47.1793" y1="10.569" x2="54.1706" y2="10.569" gradientUnits="userSpaceOnUse">
<stop stop-color="#F7AA12"/>
<stop offset="1" stop-color="#FCC44F"/>
</linearGradient>
<linearGradient id="paint11_linear" x1="55.0398" y1="9.32106" x2="61.4974" y2="9.32106" gradientUnits="userSpaceOnUse">
<stop stop-color="#F7AA12"/>
<stop offset="1" stop-color="#FCC44F"/>
</linearGradient>
<linearGradient id="paint12_linear" x1="62.8012" y1="9.17173" x2="68.0911" y2="9.17173" gradientUnits="userSpaceOnUse">
<stop stop-color="#F7AA12"/>
<stop offset="1" stop-color="#FCC44F"/>
</linearGradient>
<linearGradient id="paint13_linear" x1="68.5506" y1="9.32106" x2="75.0083" y2="9.32106" gradientUnits="userSpaceOnUse">
<stop stop-color="#F7AA12"/>
<stop offset="1" stop-color="#FCC44F"/>
</linearGradient>
<linearGradient id="paint14_linear" x1="76.1625" y1="11.289" x2="78.6353" y2="11.289" gradientUnits="userSpaceOnUse">
<stop stop-color="#009BA9"/>
<stop offset="1" stop-color="#3EB8C3"/>
</linearGradient>
<linearGradient id="paint15_linear" x1="79.7883" y1="10.4676" x2="86.7549" y2="10.4676" gradientUnits="userSpaceOnUse">
<stop stop-color="#009BA9"/>
<stop offset="1" stop-color="#3EB8C3"/>
</linearGradient>
<linearGradient id="paint16_linear" x1="87.7359" y1="7.96082" x2="89.9962" y2="7.96082" gradientUnits="userSpaceOnUse">
<stop stop-color="#009BA9"/>
<stop offset="1" stop-color="#3EB8C3"/>
</linearGradient>
</defs>
</svg>
