<svg width="58" height="22" viewBox="0 0 58 22" fill="none" xmlns="http://www.w3.org/2000/svg">
<path d="M55.8195 0H2.18045C0.976221 0 0 0.820811 0 1.83333V20.1667C0 21.1792 0.976221 22 2.18045 22H55.8195C57.0238 22 58 21.1792 58 20.1667V1.83333C58 0.820811 57.0238 0 55.8195 0Z" fill="#FFDA1E"/>
<path d="M51.541 14.5595C51.3361 14.763 51.0912 14.9225 50.8215 15.0279C50.5519 15.1333 50.2633 15.1824 49.9737 15.1722C46.5997 15.4719 43.2121 15.5943 39.825 15.5388C37.3712 15.5119 34.9169 15.4807 32.4634 15.4305C30.6785 15.3936 28.8949 15.3126 27.11 15.268C25.4799 15.2272 23.8489 15.2073 22.2179 15.1813C20.4311 15.1524 18.6443 15.1264 16.8575 15.1033C16.8017 15.1033 16.7454 15.1128 16.6394 15.1224C16.3156 16.3503 16.1577 17.6156 16.1698 18.885C15.9465 18.9227 15.755 18.9617 15.5592 18.9864C15.3762 19.0274 15.186 19.0245 15.0044 18.9779C14.8227 18.9312 14.6549 18.8422 14.5148 18.7181C14.3748 18.5941 14.2665 18.4387 14.199 18.2648C14.1315 18.0908 14.1067 17.9034 14.1267 17.718C14.2125 15.7246 14.607 13.7563 15.2963 11.8823C15.3399 11.7493 15.3835 11.6171 15.4271 11.4837C15.4306 11.472 15.4223 11.4564 15.4036 11.3697C14.9195 11.4299 14.4237 11.472 13.9352 11.5565C13.0744 11.705 12.2168 11.8695 11.3623 12.05C11.1915 12.0906 11.0359 12.1787 10.9136 12.304C10.018 13.3066 8.98187 14.1758 7.83696 14.8849C7.56658 15.0392 6.57579 14.728 6.54221 14.4351C6.53365 14.1741 6.61987 13.9188 6.78511 13.7158C7.10171 13.3214 7.48285 12.9791 7.84045 12.6164C7.88013 12.5761 7.92766 12.5449 7.97127 12.5063C8.50636 12.0123 8.50897 11.9599 7.99133 11.423C8.2256 11.3687 8.46342 11.3309 8.70303 11.3099C9.4832 11.2969 9.95025 10.7509 10.5111 10.3345C12.5866 8.79267 14.6754 7.26878 16.7777 5.7628C17.6206 5.15874 18.3084 4.47017 18.4845 3.40547C18.4859 3.35019 18.4983 3.29573 18.521 3.24526C18.5437 3.19479 18.5763 3.14932 18.6169 3.11149C18.6575 3.07367 18.7053 3.04424 18.7574 3.02493C18.8095 3.00562 18.865 2.9968 18.9206 2.999C19.338 2.95567 19.7492 2.85037 20.1901 2.76587C18.973 6.54064 17.823 10.3059 16.8017 14.189C17.4445 14.2223 18.0157 14.2756 18.587 14.2756C20.8451 14.2873 23.1032 14.2756 25.3612 14.2873C29.3489 14.3086 33.3369 14.3549 37.3249 14.361C39.1966 14.364 41.0692 14.3081 42.9409 14.2613C44.4555 14.2236 45.9709 14.1773 47.4837 14.1023C48.4714 14.0533 49.4605 13.9784 50.4408 13.854C51.0439 13.7799 51.3125 14.091 51.541 14.5595ZM16.5487 7.28987L16.455 7.19974L12.767 10.3752L12.8223 10.4857C13.5995 10.3782 14.3779 10.2751 15.1532 10.1572C15.1981 10.1444 15.2398 10.1224 15.2756 10.0925C15.3113 10.0626 15.3404 10.0256 15.3608 9.9839C15.7629 9.08777 16.1528 8.18817 16.5487 7.28987Z" fill="#122462"/>
<path d="M43.5737 12.6501C43.6887 12.3797 43.8266 12.1195 43.9858 11.8723C44.6037 11.0663 45.2531 10.2841 45.8749 9.48069C46.0166 9.25401 46.1395 9.01618 46.2421 8.76959C45.0437 9.00316 44.0551 9.34419 43.3382 10.2265L40.9667 13.1441L39.5699 12.696C39.8752 12.2926 40.1853 11.8727 40.5071 11.458C41.3047 10.4332 42.1075 9.41309 42.9056 8.38956C43.1145 8.12219 43.3146 7.92026 43.7237 8.06499C43.916 8.13302 44.1777 8.00779 44.5087 7.95319L44.0878 8.73839C44.3656 8.63396 44.5523 8.55639 44.7442 8.49269C45.2914 8.31112 45.8344 8.10659 46.3904 7.96489C46.5059 7.92417 46.6293 7.91022 46.751 7.92412C46.8728 7.93802 46.9897 7.97939 47.093 8.04507C47.1962 8.11075 47.2829 8.19901 47.3466 8.30311C47.4102 8.4072 47.449 8.52437 47.4601 8.64566C48.3013 8.39433 49.1426 8.11872 49.9982 7.89946C50.3308 7.82733 50.6739 7.81559 51.0108 7.86479C51.1298 7.86701 51.246 7.90123 51.3471 7.96384C51.4481 8.02645 51.5302 8.11509 51.5846 8.22034C51.639 8.3256 51.6637 8.44353 51.656 8.56161C51.6483 8.67969 51.6086 8.79349 51.5411 8.89092C50.7474 10.1541 49.9083 11.3895 49.0728 12.6263C49.0356 12.6959 48.9829 12.7561 48.9186 12.8022C48.8542 12.8483 48.7801 12.8791 48.7019 12.8922C48.6237 12.9053 48.5435 12.9003 48.4675 12.8776C48.3916 12.8549 48.3219 12.8152 48.2638 12.7615C48.1562 12.6964 48.0348 12.657 47.9093 12.6462C47.4348 12.586 47.331 12.4638 47.5988 12.0569C48.0236 11.4116 48.5207 10.8132 48.9969 10.2026C49.2747 9.84642 49.5795 9.50929 49.8556 9.15439C49.9806 8.96237 50.0926 8.76231 50.1909 8.55553C49.9014 8.61359 49.7143 8.63873 49.5337 8.68899C48.3447 9.04621 47.3253 9.81788 46.663 10.8622C46.2269 11.484 45.6927 12.0369 45.2116 12.628C45.1108 12.7657 44.9634 12.8626 44.7964 12.9009C44.6294 12.9392 44.4542 12.9163 44.3028 12.8364C44.0633 12.7614 43.8199 12.6992 43.5737 12.6501Z" fill="#122462"/>
<path d="M35.0525 13.334C34.5719 13.2442 34.0974 13.1248 33.6317 12.9765C32.7848 12.6546 32.5415 11.995 32.9143 11.1734C33.3947 10.2212 34.166 9.44457 35.1179 8.95476C36.1287 8.36282 37.1758 7.80772 38.4152 7.93816C38.7222 7.96844 39.0212 8.05358 39.2978 8.18949C40.0339 8.56432 40.2197 9.03276 39.8791 9.78286C39.5159 10.6334 38.9571 11.3875 38.2474 11.9845C37.5378 12.5815 36.6971 13.0049 35.7929 13.2205C35.5549 13.2581 35.3137 13.2717 35.073 13.2612L35.0525 13.334ZM34.9051 12.3374C34.9858 12.3324 35.066 12.3211 35.1449 12.3036C35.8265 12.1329 36.4572 11.803 36.9846 11.3413C37.512 10.8795 37.9208 10.2993 38.1771 9.64896C38.2201 9.55248 38.2405 9.44756 38.2368 9.3421C38.2331 9.23664 38.2054 9.13339 38.1557 9.04012C38.0371 8.92269 37.7453 8.97252 37.5286 8.96256C37.4575 8.96582 37.388 8.98493 37.3254 9.01846C36.2257 9.45138 35.2909 10.2171 34.6534 11.2072C34.5354 11.4131 34.4552 11.6382 34.4166 11.872C34.3604 12.1818 34.5244 12.3473 34.9046 12.3361L34.9051 12.3374Z" fill="#122462"/>
<path d="M30.8638 11.2235C31.1822 11.8627 30.8281 12.2509 30.3628 12.5543C29.7489 12.998 29.0296 13.2756 28.2753 13.3598C27.5209 13.4441 26.7575 13.3321 26.0599 13.0348C25.2313 12.6882 25.0739 12.1838 25.4393 11.3682C25.8291 10.579 26.4396 9.91824 27.1976 9.46502C28.4314 8.69236 29.8227 8.20198 31.2707 8.02939C31.4113 8.01581 31.5533 8.02651 31.6902 8.06102C32.1538 8.15549 32.6195 8.24519 33.0748 8.36912C33.2925 8.45522 33.5014 8.56203 33.6984 8.68806C33.0421 9.29021 32.269 9.75292 31.4264 10.0479C31.293 10.0912 31.0845 9.92392 30.9123 9.85069C30.7596 9.78526 30.6096 9.71462 30.4033 9.62146L31.228 8.84146L31.1883 8.74916C31.0231 8.77742 30.86 8.81635 30.6999 8.86572C29.3647 9.35799 28.1989 10.2192 27.3398 11.3479C27.1013 11.6594 26.7807 12.0711 27.0895 12.3978C27.3977 12.6003 27.7726 12.6768 28.1361 12.6115C29.1829 12.4872 30.1505 11.9949 30.8638 11.2235V11.2235Z" fill="#122462"/>
<path d="M18.3538 13.0332C19.0375 11.9932 19.727 10.9372 20.4226 9.88678C20.5621 9.67574 20.7339 9.48551 20.877 9.27664C21.1731 8.84331 21.4875 8.51397 22.1085 8.58591C22.4834 8.55291 22.8502 8.45832 23.1939 8.30598L22.535 9.32517C23.279 9.02184 23.9117 8.76184 24.5462 8.50574C24.7028 8.44248 24.8698 8.40521 25.0259 8.33761C25.3748 8.18594 25.6365 8.19504 25.8153 8.59761C25.8768 8.73584 26.0878 8.80821 26.2309 8.91047L26.1489 9.03398C25.4834 9.24804 24.814 9.45127 24.1538 9.68007C23.6885 9.84127 23.2332 10.0332 22.7757 10.2174C22.0557 10.5263 21.4463 11.0441 21.0274 11.7029C20.652 12.2489 20.2477 12.7767 19.8936 13.3352C19.8728 13.3867 19.8403 13.4328 19.7987 13.4698C19.7572 13.5069 19.7076 13.5339 19.6538 13.5489C19.6 13.5639 19.5435 13.5664 19.4886 13.5563C19.4337 13.5461 19.3819 13.5236 19.3371 13.4904C19.0467 13.3508 18.7545 13.22 18.3538 13.0332Z" fill="#122462"/>
</svg>
