<svg width="87" height="15" viewBox="0 0 87 15" fill="none" xmlns="http://www.w3.org/2000/svg">
<path d="M37.326 7.72705C36.8762 9.21765 36.1036 10.5909 35.063 11.7491L33.901 10.178C34.5154 9.45242 34.9944 8.62221 35.315 7.72705H37.326Z" fill="#E63331"/>
<path d="M34.405 12.4092C34.374 12.4402 34.342 12.4722 34.311 12.4722C33.057 13.6527 31.4394 14.3726 29.723 14.5142L30.258 12.5662C31.3944 12.2948 32.4299 11.7051 33.243 10.8662L34.405 12.4092Z" fill="#EA7534"/>
<path d="M29.282 12.629L28.782 14.481C28.1978 14.4097 27.6344 14.2196 27.1264 13.9224C26.6184 13.6252 26.1765 13.2273 25.828 12.753C25.7158 12.6187 25.6207 12.4709 25.545 12.313C25.3772 12.0354 25.2401 11.7403 25.136 11.433C24.7177 10.2329 24.6317 8.94203 24.887 7.69702H26.804C26.5877 8.50695 26.5556 9.35505 26.71 10.179C26.7766 10.5045 26.882 10.8207 27.024 11.121L27.307 11.592C27.5383 11.9009 27.8356 12.1544 28.1773 12.3338C28.519 12.5132 28.8964 12.614 29.282 12.629Z" fill="#FFC41D"/>
<path d="M37.578 6.7851H35.661C35.7838 6.30059 35.8469 5.80291 35.849 5.3031C35.85 4.96751 35.8185 4.63261 35.755 4.3031C35.6884 3.97766 35.583 3.6614 35.441 3.3611L35.157 2.8911C34.9297 2.58454 34.6371 2.33231 34.3003 2.15263C33.9636 1.97295 33.5912 1.8703 33.21 1.8521H32.99C32.7358 1.85239 32.4825 1.88396 32.236 1.9461C31.0996 2.21753 30.0642 2.80723 29.251 3.6461C29.031 3.8661 28.811 4.0861 28.593 4.3371C27.9786 5.06273 27.4996 5.89294 27.179 6.7881H25.198C25.6478 5.2975 26.4204 3.92429 27.461 2.7661C27.6644 2.5314 27.8843 2.3115 28.119 2.1081C29.3755 0.884134 31.0212 0.13929 32.77 0.00309517H33.021C33.2637 -0.00853761 33.5069 0.0126538 33.744 0.0660952C34.3279 0.136959 34.8911 0.326445 35.3991 0.622914C35.9071 0.919384 36.3491 1.31658 36.698 1.7901C36.8102 1.92444 36.9053 2.07224 36.981 2.2301C37.1488 2.50775 37.2859 2.80282 37.39 3.1101C37.7583 4.30023 37.8229 5.56359 37.578 6.7851Z" fill="#4DBED6"/>
<path d="M2.859 2.57495L0 11.999H2.168L2.668 10.147H5.436L5.153 8.41895H3.142L4.242 4.49195L6.379 11.97H8.547L5.624 2.57495H2.859Z" fill="#223B4E"/>
<path d="M20.423 2.57495H16.558V11.938H18.632V4.39695H20.297C20.425 4.40056 20.551 4.42948 20.6678 4.48205C20.7846 4.53461 20.8898 4.60978 20.9773 4.70321C21.0649 4.79664 21.1331 4.90649 21.178 5.02642C21.2229 5.14635 21.2437 5.27398 21.239 5.40195C21.239 6.37595 21.27 9.14095 21.27 9.14095C21.2681 9.39871 21.1649 9.64538 20.9827 9.82765C20.8004 10.0099 20.5537 10.1131 20.296 10.115H19.134L18.883 11.906H20.858C21.4922 11.8999 22.0991 11.6474 22.5505 11.202C23.002 10.7565 23.2625 10.153 23.277 9.51895V4.77495C23.282 4.39695 22.999 2.57495 20.423 2.57495Z" fill="#223B4E"/>
<path d="M15.333 7.31906H13.353V10.1191C12.853 10.1501 12.283 10.2131 11.813 10.2131C10.713 10.2131 10.776 8.92506 10.776 8.92506V5.68506C10.776 5.68506 10.714 4.39806 11.814 4.39806C12.8235 4.42057 13.8307 4.5044 14.83 4.64906L15.081 2.79806C15.081 2.79806 13.481 2.54706 12.002 2.48406C8.70203 2.29306 8.70203 5.05806 8.70203 5.31006V9.26906C8.70203 9.52006 8.70203 12.2851 12.002 12.0971C13.479 12.0031 15.364 11.7511 15.364 11.7511V7.32106L15.333 7.31906Z" fill="#223B4E"/>
<path d="M51.968 2.5752L49.046 11.9702H51.214L53.351 4.4922L54.451 8.4192H52.44L52.157 10.1472H54.922L55.457 11.9992H57.594L54.766 2.5752H51.968Z" fill="#223B4E"/>
<path d="M46.06 2.5752L43.829 8.5752L41.536 2.6052H39.431L39.022 11.9982H41.064C41.064 11.9982 41.221 6.6252 41.221 6.75119C41.221 6.87719 42.886 10.7432 42.886 10.7432L44.771 10.7122L46.405 6.75319L46.562 11.9692H48.573L48.166 2.5752H46.06Z" fill="#223B4E"/>
<path d="M71.825 2.60718H64.693V4.42918H71.825V2.60718Z" fill="#223B4E"/>
<path d="M74.7469 11.9702H78.2339V10.1482H74.998L74.7469 11.9702Z" fill="#223B4E"/>
<path d="M67.1439 11.9702H69.2809V5.05615L67.1439 4.80615V11.9702Z" fill="#223B4E"/>
<path d="M73.083 2.60718H72.36V11.9702H74.497V8.00718H77.984V6.18718H74.497V4.42918H78.236V2.60718H73.083Z" fill="#223B4E"/>
<path d="M86.247 6.81718V4.77518C86.247 2.73318 83.984 2.60718 83.262 2.60718H81.817L81.597 4.45918H83.325C84.236 4.45918 84.173 5.21318 84.173 5.21318V6.50118C84.173 7.22418 83.356 7.25518 82.98 7.25518H81.315V2.60718H79.178V11.9702H81.315V9.01718H82.949L84.237 11.9712H86.624L85.178 8.60718C85.4939 8.4244 85.758 8.16395 85.9451 7.85051C86.1322 7.53707 86.2361 7.18104 86.247 6.81618V6.81718Z" fill="#223B4E"/>
<path d="M63.059 6.8172C61.928 6.5032 60.922 6.3172 60.922 6.3172C59.98 6.1292 60.074 5.5312 60.074 5.1542C60.074 4.7772 60.074 4.2432 60.985 4.2432C61.896 4.2432 63.844 4.5262 63.844 4.5262L64.032 2.7672C63.0656 2.61098 62.0903 2.51546 61.112 2.4812C59.855 2.4812 58.002 2.6692 58.002 4.5862V6.1262C58.0216 6.4692 58.1425 6.79866 58.3496 7.07282C58.5566 7.34698 58.8404 7.5535 59.165 7.6662C59.8627 7.90592 60.5769 8.09474 61.302 8.2312C62.244 8.4192 62.15 8.9542 62.15 9.3312C62.15 9.7082 62.15 10.2422 61.239 10.2422C60.2074 10.18 59.1797 10.0645 58.16 9.8962L57.783 11.5962C58.8737 11.8055 59.9755 11.9524 61.083 12.0362C62.34 12.0362 64.193 11.8482 64.193 9.9312V8.3912C64.2123 8.03874 64.1104 7.69027 63.904 7.40387C63.6977 7.11746 63.3994 6.91041 63.059 6.8172Z" fill="#223B4E"/>
</svg>
