<svg width="85" height="10" viewBox="0 0 85 10" fill="none" xmlns="http://www.w3.org/2000/svg">
<path d="M30.853 0.13208H32.243L34.543 6.93708L36.985 0.13208H37.768L40.249 7.21508L42.705 0.13208H43.488L40.343 9.25808H39.643L37.106 2.00808L34.574 9.25108H33.996L30.853 0.13208Z" fill="black"/>
<path d="M48.59 0.00305831C47.3178 -0.0417569 46.0798 0.420656 45.1485 1.28857C44.2172 2.15649 43.6689 3.35882 43.624 4.63106C43.7158 5.88624 44.2794 7.06014 45.2015 7.91667C46.1236 8.77321 47.3358 9.24886 48.5943 9.24798C49.8528 9.24709 51.0643 8.76973 51.9852 7.91189C52.9061 7.05406 53.468 5.87937 53.558 4.62406C53.5114 3.35269 52.9619 2.15184 52.0304 1.28537C51.0989 0.418893 49.8614 -0.0423244 48.59 0.00305831ZM48.59 8.64206C47.5955 8.56947 46.6698 8.10714 46.0144 7.35564C45.359 6.60413 45.0268 5.62423 45.09 4.62906C45.0201 4.12851 45.0583 3.61879 45.2022 3.13428C45.346 2.64977 45.5921 2.20175 45.9238 1.82044C46.2555 1.43914 46.6652 1.13342 47.1251 0.923926C47.5851 0.714429 48.0846 0.606023 48.59 0.606023C49.0954 0.606023 49.595 0.714429 50.0549 0.923926C50.5148 1.13342 50.9245 1.43914 51.2562 1.82044C51.588 2.20175 51.834 2.64977 51.9779 3.13428C52.1217 3.61879 52.16 4.12851 52.09 4.62906C52.1538 5.62435 51.8218 6.60455 51.1663 7.35617C50.5107 8.1078 49.5848 8.56998 48.59 8.64206Z" fill="black"/>
<path d="M64.97 0.132104V9.1321H63.633V1.5731L60.143 9.1321H59.503L55.753 1.4681V9.1311H54.953V0.131104H56.483L60.069 7.5311L63.501 0.131104L64.97 0.132104Z" fill="black"/>
<path d="M76.886 0.13208H78.237L83.713 7.11208V0.13208H84.844V9.13208H84.176L78.02 1.30208V9.13208H76.886V0.13208Z" fill="black"/>
<path d="M74.393 9.12929H75.833L71.423 0.144287H70.729L66.047 9.12929H66.947L68.099 6.86929H71.92L71.63 6.25129H68.414L70.792 1.58329L74.393 9.12929Z" fill="black"/>
<path d="M10.014 0.132104V9.1321H8.678V1.5731L5.188 9.1331H4.551L0.8 1.4691V9.1311H0V0.131104H1.53L5.116 7.5311L8.55 0.132104H10.014Z" fill="black"/>
<path d="M21.931 0.13208H23.282L28.758 7.11208V0.13208H29.889V9.13208H29.221L23.063 1.30208V9.13208H21.931V0.13208Z" fill="black"/>
<path d="M19.369 8.98817H20.807L16.465 0.00317383H15.771L11.171 8.98817H18.318L18.028 8.37217H12.376L15.836 1.44317L19.369 8.98817Z" fill="black"/>
</svg>
