<svg width="1736" height="829" viewBox="0 0 1736 829" fill="none" xmlns="http://www.w3.org/2000/svg">
<path d="M413.057 12.6113L0.328125 817.591H640.684L614.896 762.247H108.51L418.843 141.589L735.268 817.591H864.089L475.28 12.6113H413.057Z" fill="#F7F7F7"/>
<path d="M1290.26 0.416626C1044.35 0.416626 844.547 185.989 844.547 415.022C844.547 644.055 1044.35 829 1290.26 829C1536.18 829 1735.67 644.054 1735.67 415.022C1735.67 185.991 1536.02 0.416626 1290.26 0.416626ZM1290.26 774.44C1117.04 774.44 976.494 613.569 976.494 414.866C976.494 216.163 1117.2 55.2902 1290.26 55.2902C1463.33 55.2902 1603.87 216 1603.87 414.866C1603.87 613.732 1463.49 774.44 1290.26 774.44Z" fill="#F7F7F7"/>
</svg>
