<svg width="129" height="62" viewBox="0 0 129 62" fill="none" xmlns="http://www.w3.org/2000/svg">
<path d="M30.939 1.33984L0.467773 60.7703H47.7443L45.8404 56.6844H8.45468L31.3661 10.8621L54.7273 60.7703H64.238L35.5328 1.33984H30.939Z" fill="#F7F7F7"/>
<path d="M95.7015 0.439453C77.5458 0.439453 62.7949 14.14 62.7949 31.0492C62.7949 47.9584 77.5458 61.6126 95.7015 61.6126C113.857 61.6126 128.585 47.9583 128.585 31.0492C128.585 14.1401 113.846 0.439453 95.7015 0.439453ZM95.7015 57.5845C82.9128 57.5845 72.5364 45.7076 72.5364 31.0377C72.5364 16.3677 82.9245 4.49069 95.7015 4.49069C108.479 4.49069 118.855 16.3557 118.855 31.0377C118.855 45.7196 108.49 57.5845 95.7015 57.5845Z" fill="#F7F7F7"/>
</svg>
