<svg width="120" height="44" viewBox="0 0 120 44" fill="none" xmlns="http://www.w3.org/2000/svg">
<path d="M36.8096 34.9594L19.4788 43.0412C18.9378 43.2936 18.3524 43.4371 17.756 43.4633C17.1596 43.4895 16.5639 43.3979 16.0029 43.1939C15.4419 42.9898 14.9266 42.6772 14.4864 42.274C14.0462 41.8707 13.6898 41.3847 13.4374 40.8437L9.14746 31.6441L10.7409 30.9003L13.7577 25.6339L17.3611 23.9529L14.3418 29.227L17.9088 27.5633L20.9308 22.2891L24.5238 20.6158L21.507 25.8822L25.0741 24.2167L28.0908 18.9504L31.6422 17.2944L28.6307 22.5582L32.1951 20.8953L33.8866 17.9445L39.0071 28.9267C39.5138 30.0184 39.567 31.2664 39.1551 32.3972C38.7432 33.528 37.8997 34.4494 36.8096 34.9594V34.9594Z" fill="#F7F7F7"/>
<path d="M10.1847 27.2944L8.49322 30.2452L7.66699 28.4704V28.4652L10.1847 27.2944Z" fill="#F7F7F7"/>
<path d="M7.66992 28.4692H7.67684V28.4762L7.66992 28.4692Z" fill="#F7F7F7"/>
<path d="M23.8827 5.31732L7.67575 28.4674V28.4726L0.396784 23.3251C0.262654 23.2313 0.155675 23.1038 0.0866614 22.9553C0.0176479 22.8069 -0.0109467 22.6429 0.00376079 22.4799C0.0184683 22.3169 0.0759592 22.1606 0.170423 22.027C0.264887 21.8933 0.392974 21.787 0.541728 21.7187L6.26978 18.8208L7.11944 11.3483C7.13215 11.183 7.18892 11.0242 7.28387 10.8883C7.37881 10.7525 7.50844 10.6446 7.65926 10.5759L14.3871 7.22321L15.1543 0.853771C15.1675 0.690619 15.2236 0.533876 15.3169 0.39938C15.4102 0.264884 15.5374 0.157421 15.6856 0.0879066C15.8338 0.0183926 15.9977 -0.010721 16.1608 0.00352274C16.3238 0.0177665 16.4802 0.0748783 16.6141 0.169033L23.8827 5.31732Z" fill="#F7F7F7"/>
<path d="M60.8626 9.09059L56.2741 14.869H55.6787L51.2395 9.04805V19.0105C51.2395 19.1232 51.1948 19.2312 51.1152 19.3109C51.0357 19.3907 50.9277 19.4356 50.8151 19.4358H48.3512C48.2385 19.4356 48.1306 19.3907 48.051 19.3109C47.9714 19.2312 47.9268 19.1232 47.9268 19.0105V4.99069C47.9268 4.87805 47.9714 4.77001 48.051 4.69028C48.1306 4.61056 48.2385 4.56566 48.3512 4.56543H51.5172C51.5828 4.56543 51.6475 4.58061 51.7062 4.60982C51.765 4.63903 51.8161 4.68146 51.8557 4.73377L56.0623 10.2805L60.2898 4.73293C60.3294 4.68094 60.3805 4.63876 60.4391 4.60971C60.4976 4.58066 60.5621 4.56553 60.6274 4.56543H63.7518C63.8076 4.56543 63.8629 4.57641 63.9144 4.5978C63.966 4.61918 64.0128 4.65052 64.0522 4.69002C64.0916 4.72952 64.1229 4.77642 64.1442 4.82801C64.1654 4.8796 64.1763 4.93488 64.1762 4.99069V19.0105C64.1763 19.0663 64.1654 19.1216 64.1442 19.1732C64.1229 19.2248 64.0916 19.2717 64.0522 19.3112C64.0128 19.3507 63.966 19.382 63.9144 19.4034C63.8629 19.4248 63.8076 19.4358 63.7518 19.4358H61.2879C61.1751 19.4358 61.0669 19.391 60.9872 19.3113C60.9074 19.2315 60.8626 19.1233 60.8626 19.0105V9.09059Z" fill="#F7F7F7"/>
<path d="M75.0932 19.7995C70.3354 19.7995 67.0635 16.8487 67.0635 12.0033C67.0635 7.15788 70.3345 4.20703 75.0932 4.20703C79.8518 4.20703 83.1237 7.15788 83.1237 12.0033C83.1237 16.8487 79.8518 19.7995 75.0932 19.7995ZM75.0932 7.18128C74.4576 7.16555 73.8256 7.27986 73.2358 7.51718C72.646 7.75449 72.1109 8.10982 71.6633 8.56135C71.2158 9.01288 70.8652 9.55111 70.6331 10.143C70.4011 10.7349 70.2924 11.3679 70.3137 12.0033C70.3219 12.947 70.6093 13.8671 71.1396 14.6477C71.6699 15.4284 72.4193 16.0346 73.2936 16.39C74.1678 16.7454 75.1277 16.8341 76.0522 16.6449C76.9768 16.4557 77.8247 15.9971 78.489 15.3268C79.1533 14.6566 79.6044 13.8047 79.7854 12.8785C79.9664 11.9523 79.8692 10.9932 79.5061 10.1222C79.143 9.25111 78.5301 8.50704 77.7448 7.9837C76.9595 7.46035 76.0369 7.18115 75.0932 7.18128Z" fill="#F7F7F7"/>
<path d="M93.1641 19.5017H90.3114C90.2276 19.5019 90.1456 19.4772 90.0758 19.4309C90.006 19.3846 89.9515 19.3186 89.9191 19.2414L84.0687 5.15726C84.0418 5.09267 84.0314 5.0225 84.0381 4.95289C84.0449 4.88328 84.0688 4.81641 84.1076 4.75822C84.1464 4.70003 84.1989 4.65231 84.2605 4.61928C84.3222 4.58624 84.391 4.56892 84.461 4.56885H87.2495C87.3355 4.56897 87.4194 4.59515 87.4902 4.64396C87.5611 4.69277 87.6154 4.76191 87.6461 4.84223L91.7252 15.5511L95.8043 4.84223C95.835 4.76191 95.8893 4.69277 95.9601 4.64396C96.0309 4.59515 96.1149 4.56897 96.2009 4.56885H98.9903C99.0601 4.56898 99.1288 4.58629 99.1904 4.61928C99.2519 4.65226 99.3044 4.69988 99.3432 4.75796C99.3819 4.81603 99.4058 4.88277 99.4127 4.95226C99.4196 5.02174 99.4092 5.09187 99.3826 5.15641L93.553 19.2405C93.5209 19.3174 93.467 19.3832 93.3979 19.4296C93.3287 19.4761 93.2474 19.5011 93.1641 19.5017V19.5017Z" fill="#F7F7F7"/>
<path d="M101.646 19.014V4.99416C101.645 4.93835 101.656 4.88307 101.678 4.83148C101.699 4.77989 101.73 4.73299 101.77 4.69349C101.809 4.65399 101.856 4.62265 101.907 4.60127C101.959 4.57988 102.014 4.56885 102.07 4.56885H104.51C104.622 4.56908 104.73 4.61403 104.81 4.69375C104.889 4.77348 104.934 4.88152 104.934 4.99416V19.0149C104.934 19.1273 104.889 19.2352 104.809 19.3147C104.73 19.3943 104.622 19.439 104.51 19.4393H102.066C101.954 19.4383 101.847 19.3931 101.768 19.3134C101.689 19.2337 101.645 19.1261 101.646 19.014V19.014Z" fill="#F7F7F7"/>
<path d="M119.574 19.4393H109.097C108.985 19.439 108.877 19.3943 108.797 19.3147C108.718 19.2352 108.673 19.1273 108.673 19.0149V4.99416C108.673 4.88152 108.718 4.77348 108.797 4.69375C108.877 4.61403 108.985 4.56908 109.097 4.56885H119.272C119.385 4.56885 119.493 4.61368 119.573 4.69344C119.653 4.77319 119.698 4.88137 119.698 4.99416V7.1821C119.698 7.29489 119.653 7.40301 119.573 7.48277C119.493 7.56252 119.385 7.60735 119.272 7.60735H111.927V10.4714H118.831C118.943 10.4714 119.051 10.5161 119.131 10.5957C119.21 10.6753 119.255 10.7832 119.255 10.8958V12.957C119.255 13.0696 119.21 13.1775 119.131 13.2571C119.051 13.3367 118.943 13.3814 118.831 13.3814H111.927V16.3765H119.574C119.687 16.3767 119.795 16.4215 119.874 16.501C119.954 16.5806 119.999 16.6884 119.999 16.8009V19.0105C119.999 19.0666 119.989 19.1224 119.967 19.1744C119.946 19.2263 119.915 19.2736 119.875 19.3135C119.836 19.3533 119.789 19.385 119.737 19.4066C119.685 19.4282 119.63 19.4393 119.574 19.4393V19.4393Z" fill="#F7F7F7"/>
<path d="M56.9973 31.3331L62.9588 38.2762C63.0118 38.3378 63.046 38.4134 63.0574 38.4938C63.0687 38.5743 63.0567 38.6563 63.0228 38.7302C62.9889 38.8041 62.9345 38.8666 62.8661 38.9105C62.7976 38.9543 62.7181 38.9775 62.6368 38.9775H59.7624C59.7014 38.9775 59.6412 38.9644 59.5858 38.9391C59.5304 38.9138 59.4811 38.8769 59.4412 38.8308L54.0664 32.6263V38.5531C54.0662 38.6658 54.0213 38.7737 53.9416 38.8533C53.8618 38.9328 53.7538 38.9775 53.6412 38.9775H51.1763C51.0638 38.9775 50.9558 38.9328 50.8763 38.8532C50.7967 38.7736 50.752 38.6657 50.752 38.5531V24.5367C50.752 24.4242 50.7967 24.3162 50.8763 24.2366C50.9558 24.157 51.0638 24.1123 51.1763 24.1123H53.6403C53.6961 24.1122 53.7514 24.1231 53.803 24.1444C53.8545 24.1656 53.9014 24.1969 53.9409 24.2363C53.9804 24.2757 54.0118 24.3225 54.0332 24.3741C54.0545 24.4256 54.0655 24.4809 54.0655 24.5367V30.2509L58.8875 24.2703C58.9274 24.221 58.9778 24.1812 59.035 24.1538C59.0922 24.1265 59.1548 24.1123 59.2182 24.1123H62.1213C62.2016 24.1127 62.2801 24.1359 62.3478 24.1791C62.4154 24.2223 62.4694 24.2839 62.5035 24.3566C62.5376 24.4293 62.5503 24.5102 62.5403 24.5898C62.5302 24.6695 62.4978 24.7446 62.4467 24.8066L56.9973 31.3331Z" fill="#F7F7F7"/>
<path d="M65.4707 38.5557V24.5367C65.4707 24.4242 65.5154 24.3162 65.595 24.2366C65.6746 24.157 65.7825 24.1123 65.8951 24.1123H68.3382C68.4508 24.1123 68.5587 24.157 68.6383 24.2366C68.7179 24.3162 68.7626 24.4242 68.7626 24.5367V38.5575C68.7626 38.67 68.7179 38.778 68.6383 38.8575C68.5587 38.9371 68.4508 38.9818 68.3382 38.9818H65.8951C65.8393 38.9817 65.784 38.9706 65.7324 38.9491C65.6809 38.9277 65.6341 38.8962 65.5946 38.8566C65.5552 38.8171 65.524 38.7701 65.5028 38.7185C65.4815 38.6669 65.4706 38.6116 65.4707 38.5557Z" fill="#F7F7F7"/>
<path d="M82.8472 33.7754L82.6345 29.1027V24.5367C82.6345 24.4809 82.6455 24.4256 82.6669 24.3741C82.6883 24.3225 82.7196 24.2757 82.7591 24.2363C82.7986 24.1969 82.8455 24.1656 82.8971 24.1444C82.9487 24.1231 83.004 24.1122 83.0598 24.1123H85.5454C85.658 24.1123 85.7659 24.157 85.8455 24.2366C85.9251 24.3162 85.9698 24.4242 85.9698 24.5367V38.5575C85.9696 38.6699 85.9248 38.7777 85.8453 38.8573C85.7657 38.9368 85.6579 38.9816 85.5454 38.9818H83.3315C83.2667 38.9818 83.2028 38.967 83.1446 38.9386C83.0864 38.9102 83.0354 38.8689 82.9956 38.8178L75.7305 29.4655L75.8581 34.3517V38.5575C75.8581 38.67 75.8134 38.778 75.7338 38.8575C75.6542 38.9371 75.5462 38.9818 75.4337 38.9818H72.9272C72.8146 38.9818 72.7065 38.9372 72.6268 38.8576C72.5471 38.778 72.5022 38.6701 72.502 38.5575V24.5367C72.502 24.4809 72.5129 24.4256 72.5343 24.3741C72.5557 24.3225 72.5871 24.2757 72.6266 24.2363C72.6661 24.1969 72.7129 24.1656 72.7645 24.1444C72.8161 24.1231 72.8714 24.1122 72.9272 24.1123H75.1412C75.206 24.1123 75.2699 24.127 75.3281 24.1555C75.3863 24.1839 75.4373 24.2252 75.4771 24.2764L82.8472 33.7754Z" fill="#F7F7F7"/>
<path d="M100.543 27.7404C100.471 27.8134 100.375 27.8576 100.273 27.8646C100.171 27.8716 100.069 27.8411 99.9883 27.7786C99.0626 27.0817 97.9358 26.7038 96.7771 26.7015C93.9521 26.7015 92.1035 28.3158 92.1035 31.5617C92.1035 33.6854 93.2717 36.342 96.7771 36.342C97.9229 36.3857 99.0463 36.0161 99.9423 35.3006V32.9295H96.8179C96.7053 32.9295 96.5972 32.8848 96.5175 32.8052C96.4378 32.7257 96.3929 32.6177 96.3926 32.5051V30.5957C96.3926 30.5399 96.4036 30.4846 96.425 30.4331C96.4464 30.3815 96.4777 30.3347 96.5172 30.2953C96.5567 30.2559 96.6036 30.2247 96.6552 30.2034C96.7068 30.1821 96.7621 30.1712 96.8179 30.1713H102.383C102.439 30.1712 102.494 30.1821 102.545 30.2034C102.597 30.2247 102.644 30.2559 102.683 30.2953C102.723 30.3347 102.754 30.3815 102.776 30.4331C102.797 30.4846 102.808 30.5399 102.808 30.5957V36.6501C101.533 38.4727 99.4945 39.4117 96.7545 39.4117C91.0187 39.4117 88.8516 35.4394 88.8516 31.573C88.8516 27.388 91.3155 23.6708 96.7754 23.6708C97.7373 23.6375 98.6961 23.7969 99.5955 24.1397C100.495 24.4826 101.317 25.0018 102.012 25.667C102.053 25.7064 102.085 25.7536 102.107 25.8058C102.13 25.858 102.141 25.9141 102.141 25.9708C102.141 26.0274 102.13 26.0835 102.107 26.1357C102.085 26.1879 102.053 26.2351 102.012 26.2745L100.543 27.7404Z" fill="#F7F7F7"/>
<path d="M114.973 27.4535C114.899 27.5196 114.805 27.5574 114.706 27.5603C114.608 27.5631 114.511 27.5308 114.434 27.4691C113.512 26.7892 112.391 26.4317 111.245 26.452C109.779 26.452 108.59 27.0682 108.59 28.0871C108.59 29.4471 109.885 29.7013 111.801 29.8714C114.732 30.1257 117.515 31.2523 117.515 34.6934C117.515 38.007 114.456 39.4512 111.248 39.4738C108.798 39.4937 106.251 38.5868 104.932 36.6965C104.879 36.6161 104.854 36.5197 104.863 36.4234C104.872 36.3272 104.914 36.237 104.982 36.168L106.401 34.6873C106.44 34.6464 106.487 34.6138 106.539 34.5915C106.592 34.5693 106.648 34.5578 106.704 34.5578C106.761 34.5578 106.817 34.5693 106.87 34.5915C106.922 34.6138 106.969 34.6464 107.008 34.6873C107.567 35.2475 108.23 35.692 108.961 35.9954C109.692 36.2987 110.475 36.455 111.266 36.4552C113.03 36.4552 114.239 35.754 114.239 34.6917C114.261 33.4385 113.263 32.8648 111.244 32.6956C108.101 32.3979 105.297 31.6124 105.343 28.107C105.364 25.1562 108.169 23.5827 111.228 23.5827C112.191 23.5053 113.16 23.6404 114.065 23.9786C114.97 24.3168 115.79 24.8497 116.466 25.5398C116.507 25.5815 116.538 25.6309 116.559 25.685C116.58 25.7392 116.59 25.7969 116.588 25.855C116.587 25.913 116.573 25.9701 116.549 26.0228C116.525 26.0756 116.49 26.1229 116.447 26.1621L114.973 27.4535Z" fill="#F7F7F7"/>
</svg>
