<svg width="68" height="26" viewBox="0 0 68 26" fill="none" xmlns="http://www.w3.org/2000/svg">
<path d="M20.5579 20.3748L10.8785 24.8885C10.5764 25.0295 10.2494 25.1096 9.91633 25.1242C9.58324 25.1388 9.25052 25.0877 8.9372 24.9737C8.62387 24.8598 8.33606 24.6852 8.09021 24.46C7.84436 24.2348 7.64529 23.9633 7.50436 23.6612L5.1084 18.5231L5.99834 18.1077L7.68322 15.1664L9.69578 14.2276L8.00944 17.1732L10.0016 16.244L11.6894 13.2984L13.6962 12.3638L12.0113 15.3051L14.0035 14.3749L15.6884 11.4336L17.6718 10.5088L15.9899 13.4486L17.9806 12.5199L18.9253 10.8718L21.7852 17.0055C22.0681 17.6152 22.0979 18.3122 21.8678 18.9438C21.6377 19.5753 21.1667 20.0899 20.5579 20.3748Z" fill="black"/>
<path d="M5.6884 16.0938L4.74368 17.7418L4.28223 16.7505V16.7476L5.6884 16.0938Z" fill="black"/>
<path d="M4.28418 16.75H4.28805V16.7539L4.28418 16.75Z" fill="black"/>
<path d="M13.3386 3.81936L4.28694 16.7488V16.7517L0.221606 13.8768C0.146694 13.8244 0.0869452 13.7532 0.0484008 13.6703C0.00985642 13.5874 -0.00611381 13.4958 0.00210042 13.4047C0.0103146 13.3137 0.0424236 13.2264 0.095182 13.1518C0.14794 13.0771 0.219478 13.0177 0.302557 12.9796L3.5017 11.3611L3.97624 7.18767C3.98334 7.09538 4.01505 7.00668 4.06807 6.9308C4.1211 6.85493 4.1935 6.79467 4.27773 6.75628L8.03528 4.88381L8.46377 1.32644C8.47114 1.23532 8.50246 1.14778 8.55457 1.07266C8.60667 0.997548 8.6777 0.937529 8.76047 0.898706C8.84324 0.859882 8.9348 0.843622 9.02587 0.851577C9.11694 0.859532 9.20429 0.891429 9.27907 0.944015L13.3386 3.81936Z" fill="black"/>
<path d="M33.9923 5.92625L31.4296 9.15352H31.0971L28.6178 5.90249V11.4666C28.6178 11.5295 28.5928 11.5898 28.5484 11.6344C28.5039 11.6789 28.4436 11.704 28.3807 11.7041H27.0046C26.9417 11.704 26.8814 11.6789 26.837 11.6344C26.7925 11.5898 26.7676 11.5295 26.7676 11.4666V3.63643C26.7676 3.57353 26.7925 3.51319 26.837 3.46866C26.8814 3.42413 26.9417 3.39905 27.0046 3.39893H28.7729C28.8095 3.39893 28.8456 3.4074 28.8784 3.42372C28.9112 3.44003 28.9398 3.46373 28.9619 3.49295L31.3113 6.59081L33.6724 3.49247C33.6945 3.46344 33.7231 3.43988 33.7558 3.42366C33.7885 3.40743 33.8245 3.39898 33.861 3.39893H35.6059C35.6371 3.39893 35.668 3.40506 35.6968 3.417C35.7256 3.42894 35.7517 3.44645 35.7737 3.46851C35.7957 3.49057 35.8132 3.51676 35.8251 3.54558C35.837 3.57439 35.843 3.60527 35.843 3.63643V11.4666C35.843 11.4978 35.837 11.5286 35.8251 11.5574C35.8132 11.5863 35.7957 11.6124 35.7737 11.6345C35.7517 11.6566 35.7256 11.6741 35.6968 11.686C35.668 11.698 35.6371 11.7041 35.6059 11.7041H34.2298C34.1668 11.7041 34.1064 11.6791 34.0619 11.6345C34.0173 11.59 33.9923 11.5296 33.9923 11.4666V5.92625Z" fill="black"/>
<path d="M41.9407 11.9077C39.2834 11.9077 37.4561 10.2597 37.4561 7.55347C37.4561 4.84728 39.283 3.19922 41.9407 3.19922C44.5984 3.19922 46.4258 4.84728 46.4258 7.55347C46.4258 10.2597 44.5984 11.9077 41.9407 11.9077ZM41.9407 4.86035C41.5857 4.85157 41.2327 4.91541 40.9033 5.04795C40.5739 5.18049 40.275 5.37895 40.0251 5.63113C39.7751 5.88331 39.5793 6.18391 39.4497 6.51447C39.3201 6.84504 39.2594 7.1986 39.2713 7.55347C39.2759 8.08052 39.4364 8.59441 39.7326 9.0304C40.0287 9.4664 40.4473 9.80496 40.9356 10.0035C41.4239 10.2019 41.9599 10.2515 42.4763 10.1458C42.9927 10.0401 43.4662 9.78402 43.8373 9.40968C44.2083 9.03534 44.4602 8.55955 44.5613 8.04227C44.6624 7.52499 44.6081 6.98933 44.4053 6.50285C44.2025 6.01636 43.8602 5.6008 43.4216 5.3085C42.983 5.01621 42.4677 4.86028 41.9407 4.86035Z" fill="black"/>
<path d="M52.0326 11.7414H50.4393C50.3925 11.7415 50.3468 11.7278 50.3078 11.7019C50.2688 11.676 50.2383 11.6392 50.2202 11.596L46.9527 3.73C46.9378 3.69393 46.9319 3.65473 46.9357 3.61586C46.9395 3.57698 46.9528 3.53963 46.9745 3.50713C46.9961 3.47463 47.0255 3.44798 47.0599 3.42953C47.0943 3.41108 47.1328 3.40141 47.1718 3.40137H48.7292C48.7773 3.40143 48.8242 3.41606 48.8637 3.44332C48.9033 3.47058 48.9336 3.50919 48.9508 3.55405L51.2289 9.535L53.5071 3.55405C53.5243 3.50919 53.5546 3.47058 53.5942 3.44332C53.6337 3.41606 53.6806 3.40143 53.7286 3.40137H55.2865C55.3255 3.40144 55.3639 3.41111 55.3983 3.42953C55.4327 3.44795 55.462 3.47455 55.4836 3.50699C55.5053 3.53942 55.5186 3.57669 55.5224 3.6155C55.5263 3.65431 55.5205 3.69348 55.5056 3.72952L52.2498 11.5955C52.2319 11.6385 52.2018 11.6752 52.1631 11.7012C52.1245 11.7271 52.0791 11.7411 52.0326 11.7414Z" fill="black"/>
<path d="M56.7695 11.4686V3.63842C56.7695 3.60725 56.7756 3.57637 56.7874 3.54756C56.7993 3.51875 56.8168 3.49255 56.8388 3.47049C56.8608 3.44843 56.887 3.43093 56.9157 3.41898C56.9445 3.40704 56.9754 3.40088 57.0066 3.40088H58.3691C58.432 3.40101 58.4923 3.42611 58.5367 3.47064C58.5812 3.51517 58.6061 3.57551 58.6061 3.63842V11.469C58.606 11.5319 58.581 11.5921 58.5366 11.6365C58.4921 11.6809 58.4319 11.7059 58.3691 11.7061H57.0046C56.942 11.7056 56.8821 11.6803 56.8381 11.6358C56.794 11.5913 56.7694 11.5312 56.7695 11.4686Z" fill="black"/>
<path d="M66.7824 11.7061H60.9314C60.8685 11.7059 60.8083 11.6809 60.7639 11.6365C60.7195 11.5921 60.6945 11.5319 60.6943 11.469V3.63842C60.6943 3.57551 60.7193 3.51517 60.7637 3.47064C60.8082 3.42611 60.8685 3.40101 60.9314 3.40088H66.6142C66.6772 3.40088 66.7376 3.42592 66.7822 3.47046C66.8267 3.515 66.8517 3.57542 66.8517 3.63842V4.86039C66.8517 4.92338 66.8267 4.98377 66.7822 5.02832C66.7376 5.07286 66.6772 5.0979 66.6142 5.0979H62.5116V6.69747H66.3675C66.4303 6.69747 66.4906 6.72245 66.5351 6.7669C66.5795 6.81135 66.6045 6.87164 66.6045 6.9345V8.08571C66.6045 8.14857 66.5795 8.20886 66.5351 8.25331C66.4906 8.29776 66.4303 8.32274 66.3675 8.32274H62.5116V9.9955H66.7829C66.8457 9.99563 66.9059 10.0206 66.9504 10.0651C66.9948 10.1095 67.0198 10.1697 67.0199 10.2325V11.4666C67.0202 11.498 67.0142 11.5291 67.0024 11.5581C66.9906 11.5872 66.9731 11.6135 66.951 11.6358C66.929 11.6581 66.9027 11.6758 66.8737 11.6878C66.8448 11.6999 66.8138 11.7061 66.7824 11.7061Z" fill="black"/>
<path d="M31.8337 18.3498L35.1633 22.2275C35.1929 22.2619 35.212 22.3041 35.2183 22.3491C35.2247 22.394 35.218 22.4398 35.199 22.4811C35.1801 22.5223 35.1497 22.5573 35.1115 22.5817C35.0733 22.6062 35.0288 22.6192 34.9834 22.6192H33.3781C33.344 22.6192 33.3104 22.6119 33.2795 22.5977C33.2485 22.5836 33.221 22.563 33.1987 22.5372L30.1968 19.072V22.3822C30.1967 22.4451 30.1716 22.5053 30.1271 22.5498C30.0826 22.5942 30.0222 22.6192 29.9593 22.6192H28.5827C28.5199 22.6192 28.4596 22.5942 28.4151 22.5498C28.3707 22.5053 28.3457 22.445 28.3457 22.3822V14.5539C28.3457 14.4911 28.3707 14.4308 28.4151 14.3863C28.4596 14.3419 28.5199 14.3169 28.5827 14.3169H29.9588C29.99 14.3168 30.0209 14.3229 30.0497 14.3348C30.0785 14.3467 30.1047 14.3641 30.1268 14.3862C30.1488 14.4082 30.1663 14.4343 30.1783 14.4631C30.1902 14.4919 30.1964 14.5228 30.1964 14.5539V17.7453L32.8895 14.4051C32.9117 14.3776 32.9399 14.3554 32.9718 14.3401C33.0038 14.3248 33.0387 14.3169 33.0741 14.3169H34.6955C34.7404 14.3171 34.7842 14.3301 34.822 14.3542C34.8598 14.3783 34.89 14.4127 34.909 14.4533C34.928 14.4939 34.9352 14.5391 34.9295 14.5836C34.9239 14.6281 34.9058 14.6701 34.8773 14.7047L31.8337 18.3498Z" fill="black"/>
<path d="M36.5664 22.3836V14.5539C36.5664 14.4911 36.5914 14.4308 36.6358 14.3863C36.6803 14.3419 36.7406 14.3169 36.8034 14.3169H38.1679C38.2308 14.3169 38.2911 14.3419 38.3355 14.3863C38.38 14.4308 38.4049 14.4911 38.4049 14.5539V22.3846C38.4049 22.4474 38.38 22.5077 38.3355 22.5522C38.2911 22.5966 38.2308 22.6216 38.1679 22.6216H36.8034C36.7722 22.6215 36.7414 22.6153 36.7126 22.6033C36.6838 22.5913 36.6576 22.5738 36.6356 22.5517C36.6136 22.5296 36.5962 22.5034 36.5843 22.4745C36.5724 22.4457 36.5663 22.4148 36.5664 22.3836Z" fill="black"/>
<path d="M46.271 19.7138L46.1523 17.104V14.5539C46.1523 14.5228 46.1584 14.4919 46.1703 14.4631C46.1823 14.4343 46.1998 14.4082 46.2219 14.3862C46.2439 14.3641 46.2701 14.3467 46.2989 14.3348C46.3277 14.3229 46.3586 14.3168 46.3898 14.3169H47.778C47.8409 14.3169 47.9012 14.3419 47.9456 14.3863C47.9901 14.4308 48.015 14.4911 48.015 14.5539V22.3846C48.0149 22.4474 47.9899 22.5076 47.9455 22.552C47.901 22.5965 47.8408 22.6215 47.778 22.6216H46.5415C46.5053 22.6216 46.4696 22.6133 46.4371 22.5974C46.4046 22.5816 46.3762 22.5585 46.3539 22.53L42.2963 17.3067L42.3676 20.0356V22.3846C42.3676 22.4474 42.3426 22.5077 42.2981 22.5522C42.2537 22.5966 42.1934 22.6216 42.1305 22.6216H40.7307C40.6678 22.6216 40.6074 22.5966 40.5629 22.5522C40.5184 22.5078 40.4933 22.4475 40.4932 22.3846V14.5539C40.4932 14.5228 40.4993 14.4919 40.5112 14.4631C40.5232 14.4343 40.5407 14.4082 40.5628 14.3862C40.5848 14.3641 40.611 14.3467 40.6398 14.3348C40.6686 14.3229 40.6995 14.3168 40.7307 14.3169H41.9672C42.0034 14.3169 42.0391 14.3251 42.0716 14.341C42.1041 14.3569 42.1326 14.38 42.1548 14.4085L46.271 19.7138Z" fill="black"/>
<path d="M56.1546 16.3432C56.1145 16.3839 56.0609 16.4086 56.0038 16.4125C55.9468 16.4165 55.8902 16.3994 55.8449 16.3645C55.3279 15.9753 54.6986 15.7642 54.0515 15.7629C52.4737 15.7629 51.4412 16.6645 51.4412 18.4774C51.4412 19.6635 52.0937 21.1472 54.0515 21.1472C54.6914 21.1716 55.3188 20.9652 55.8192 20.5655V19.2413H54.0742C54.0113 19.2413 53.951 19.2163 53.9065 19.1719C53.8619 19.1274 53.8369 19.0672 53.8367 19.0043V17.9379C53.8367 17.9067 53.8429 17.8758 53.8548 17.847C53.8668 17.8183 53.8843 17.7921 53.9063 17.7701C53.9284 17.7481 53.9546 17.7306 53.9834 17.7188C54.0122 17.7069 54.0431 17.7008 54.0742 17.7008H57.1823C57.2134 17.7008 57.2443 17.7069 57.2731 17.7188C57.3019 17.7306 57.3281 17.7481 57.3502 17.7701C57.3722 17.7921 57.3897 17.8183 57.4017 17.847C57.4136 17.8758 57.4198 17.9067 57.4198 17.9379V21.3193C56.7077 22.3372 55.5691 22.8617 54.0389 22.8617C50.8353 22.8617 49.625 20.6431 49.625 18.4837C49.625 16.1464 51.0011 14.0703 54.0505 14.0703C54.5877 14.0517 55.1232 14.1407 55.6255 14.3322C56.1278 14.5236 56.5868 14.8136 56.9753 15.1851C56.998 15.2072 57.0161 15.2335 57.0285 15.2627C57.0408 15.2918 57.0472 15.3232 57.0472 15.3548C57.0472 15.3865 57.0408 15.4178 57.0285 15.4469C57.0161 15.4761 56.998 15.5024 56.9753 15.5244L56.1546 16.3432Z" fill="black"/>
<path d="M64.2137 16.1825C64.1727 16.2194 64.12 16.2405 64.0648 16.2421C64.0097 16.2437 63.9558 16.2257 63.9127 16.1912C63.3976 15.8114 62.7718 15.6118 62.1319 15.6231C61.3132 15.6231 60.6486 15.9673 60.6486 16.5363C60.6486 17.2959 61.3723 17.4379 62.4421 17.5329C64.0795 17.6749 65.6335 18.3041 65.6335 20.226C65.6335 22.0767 63.9248 22.8832 62.1333 22.8958C60.765 22.907 59.3423 22.4005 58.606 21.3447C58.576 21.2998 58.5624 21.246 58.5674 21.1922C58.5725 21.1385 58.5958 21.0881 58.6336 21.0495L59.4262 20.2226C59.4481 20.1997 59.4744 20.1815 59.5036 20.1691C59.5327 20.1567 59.5641 20.1502 59.5958 20.1502C59.6275 20.1502 59.6589 20.1567 59.688 20.1691C59.7172 20.1815 59.7435 20.1997 59.7655 20.2226C60.0774 20.5355 60.4481 20.7837 60.8561 20.9532C61.2642 21.1226 61.7017 21.2099 62.1435 21.21C63.1284 21.21 63.8041 20.8183 63.8041 20.225C63.8163 19.5251 63.2588 19.2047 62.1314 19.1102C60.3757 18.9439 58.8096 18.5052 58.8353 16.5475C58.8474 14.8994 60.4135 14.0206 62.1222 14.0206C62.6601 13.9774 63.201 14.0528 63.7066 14.2417C64.2122 14.4306 64.6701 14.7283 65.0479 15.1137C65.0705 15.1369 65.0881 15.1645 65.0998 15.1948C65.1115 15.225 65.1171 15.2573 65.1161 15.2897C65.1151 15.3221 65.1076 15.354 65.094 15.3834C65.0805 15.4129 65.0612 15.4394 65.0373 15.4612L64.2137 16.1825Z" fill="black"/>
</svg>
