<svg width="169" height="42" viewBox="0 0 169 42" fill="none" xmlns="http://www.w3.org/2000/svg">
<g style="mix-blend-mode:luminosity">
<path d="M62.8169 9.17499H53.5169C53.2091 9.17457 52.9112 9.28419 52.677 9.48405C52.4429 9.68392 52.2878 9.96089 52.2399 10.265L48.4859 34.106C48.4686 34.2167 48.4754 34.3298 48.506 34.4376C48.5366 34.5454 48.5902 34.6452 48.6631 34.7303C48.736 34.8154 48.8265 34.8836 48.9283 34.9304C49.0301 34.9771 49.1409 35.0012 49.2529 35.001H53.6919C54.0001 35.0013 54.2982 34.8914 54.5324 34.6912C54.7666 34.4909 54.9214 34.2135 54.9689 33.909L55.9829 27.479C56.0304 27.1749 56.1849 26.8977 56.4187 26.6975C56.6525 26.4972 56.9501 26.3871 57.2579 26.387H60.2009C66.3249 26.387 69.8599 23.423 70.7829 17.551C71.1989 14.982 70.8009 12.963 69.5979 11.551C68.2759 9.99599 65.9319 9.17499 62.8169 9.17499ZM63.8899 17.882C63.3819 21.218 60.8329 21.218 58.3679 21.218H56.9679L57.9519 14.988C57.9807 14.8058 58.0736 14.6398 58.2138 14.5199C58.354 14.4 58.5324 14.3341 58.7169 14.334H59.3599C61.0389 14.334 62.6229 14.334 63.4409 15.291C63.7014 15.6634 63.8769 16.0885 63.9548 16.5363C64.0327 16.984 64.0113 17.4435 63.8919 17.882H63.8899ZM90.6089 17.775H86.1599C85.9754 17.7751 85.797 17.841 85.6568 17.9609C85.5166 18.0808 85.4237 18.2468 85.3949 18.429L85.1949 19.674L84.8839 19.223C83.9199 17.823 81.7709 17.356 79.6259 17.356C77.1707 17.4081 74.8161 18.341 72.9914 19.9845C71.1667 21.628 69.9936 23.8726 69.6859 26.309C69.4514 27.5011 69.4783 28.7299 69.7647 29.9106C70.0511 31.0913 70.5902 32.1958 71.3449 33.148C72.0493 33.9227 72.9194 34.5287 73.8903 34.9209C74.8612 35.313 75.908 35.4812 76.9529 35.413C78.0989 35.4247 79.2355 35.2051 80.2946 34.7673C81.3538 34.3295 82.3137 33.6825 83.1169 32.865L82.9169 34.102C82.8988 34.2128 82.905 34.3262 82.935 34.4344C82.9651 34.5426 83.0183 34.6429 83.0909 34.7285C83.1636 34.8141 83.254 34.8829 83.3559 34.9301C83.4577 34.9773 83.5686 35.0019 83.6809 35.002H87.6909C87.9991 35.0023 88.2972 34.8924 88.5314 34.6922C88.7656 34.4919 88.9204 34.2145 88.9679 33.91L91.3739 18.672C91.3917 18.5616 91.3853 18.4486 91.3552 18.3409C91.325 18.2331 91.2718 18.1333 91.1993 18.0481C91.1267 17.963 91.0365 17.8947 90.9349 17.8479C90.8333 17.801 90.7228 17.7769 90.6109 17.777L90.6089 17.775ZM84.4029 26.44C84.2295 27.6398 83.6228 28.7347 82.6974 29.5179C81.772 30.3011 80.5919 30.7184 79.3799 30.691C78.8232 30.7491 78.2607 30.6708 77.741 30.4628C77.2212 30.2549 76.7599 29.9236 76.3969 29.4976C76.0338 29.0715 75.7799 28.5635 75.6571 28.0174C75.5343 27.4713 75.5462 26.9035 75.6919 26.363C75.8616 25.1648 76.4613 24.0693 77.3793 23.2808C78.2973 22.4924 79.4709 22.0648 80.6809 22.078C81.2346 22.0485 81.7881 22.1419 82.3014 22.3517C82.8147 22.5614 83.2753 22.8822 83.6499 23.291C83.9965 23.73 84.2433 24.2391 84.3734 24.7831C84.5034 25.327 84.5135 25.8927 84.4029 26.441V26.44ZM114.32 17.775H109.849C109.638 17.7756 109.43 17.8275 109.244 17.9263C109.057 18.0251 108.898 18.1677 108.779 18.342L102.608 27.431L99.9919 18.697C99.911 18.4309 99.747 18.1977 99.5238 18.0318C99.3006 17.8658 99.03 17.7758 98.7519 17.775H94.3519C94.2286 17.7748 94.1069 17.804 93.9971 17.8602C93.8873 17.9165 93.7926 17.9981 93.7207 18.0984C93.6488 18.1986 93.6019 18.3146 93.5838 18.4366C93.5658 18.5586 93.5771 18.6832 93.6169 18.8L98.5449 33.262L93.9169 39.802C93.8345 39.9179 93.7856 40.0544 93.7755 40.1963C93.7655 40.3382 93.7947 40.4801 93.86 40.6066C93.9252 40.733 94.0241 40.839 94.1456 40.913C94.2671 40.9869 94.4066 41.026 94.5489 41.026H99.0169C99.2256 41.0263 99.4313 40.976 99.6163 40.8793C99.8012 40.7826 99.96 40.6425 100.079 40.471L114.96 18.992C115.041 18.8758 115.088 18.7397 115.097 18.5985C115.106 18.4573 115.076 18.3164 115.01 18.191C114.945 18.0657 114.846 17.9606 114.725 17.8873C114.604 17.8139 114.465 17.7751 114.324 17.775H114.32Z" fill="#253B80"/>
<path d="M129.136 9.17498H119.836C119.528 9.17504 119.231 9.28487 118.997 9.4847C118.763 9.68452 118.608 9.96122 118.561 10.265L114.802 34.106C114.784 34.2164 114.791 34.3294 114.821 34.437C114.851 34.5447 114.905 34.6444 114.977 34.7295C115.05 34.8146 115.14 34.8829 115.242 34.9297C115.343 34.9766 115.454 35.0009 115.566 35.001H120.338C120.553 35.0015 120.762 34.9247 120.925 34.7845C121.089 34.6443 121.197 34.45 121.23 34.237L122.297 27.479C122.344 27.1749 122.499 26.8977 122.732 26.6975C122.966 26.4972 123.264 26.3871 123.572 26.387H126.514C132.64 26.387 136.173 23.423 137.097 17.551C137.514 14.982 137.113 12.963 135.91 11.551C134.59 9.99898 132.248 9.17698 129.136 9.17698V9.17498ZM130.209 17.882C129.702 21.218 127.153 21.218 124.687 21.218H123.287L124.273 14.988C124.301 14.8057 124.393 14.6395 124.533 14.5195C124.674 14.3995 124.852 14.3337 125.037 14.334H125.68C127.358 14.334 128.943 14.334 129.761 15.291C130.021 15.6635 130.196 16.0887 130.274 16.5364C130.352 16.9842 130.33 17.4435 130.211 17.882H130.209ZM156.926 17.775H152.477C152.292 17.7745 152.113 17.8403 151.973 17.9603C151.833 18.0803 151.741 18.2466 151.713 18.429L151.513 19.674L151.2 19.223C150.236 17.823 148.088 17.356 145.943 17.356C143.487 17.4081 141.133 18.3411 139.308 19.9846C137.484 21.6281 136.311 23.8727 136.004 26.309C135.769 27.501 135.796 28.7295 136.082 29.9102C136.368 31.0908 136.907 32.1954 137.661 33.148C138.365 33.9225 139.235 34.5283 140.206 34.9205C141.177 35.3126 142.224 35.4809 143.269 35.413C144.414 35.4243 145.551 35.2044 146.609 34.7665C147.668 34.3285 148.628 33.6814 149.431 32.864L149.231 34.101C149.212 34.212 149.219 34.3257 149.249 34.4341C149.279 34.5425 149.333 34.643 149.406 34.7287C149.479 34.8143 149.569 34.883 149.672 34.9301C149.774 34.9771 149.885 35.0013 149.998 35.001H154.007C154.314 35.0008 154.612 34.8907 154.846 34.6905C155.08 34.4903 155.234 34.2131 155.282 33.909L157.69 18.671C157.707 18.5602 157.7 18.4471 157.669 18.3393C157.638 18.2315 157.585 18.1317 157.512 18.0466C157.439 17.9616 157.348 17.8934 157.246 17.8466C157.144 17.7999 157.034 17.7758 156.922 17.776L156.926 17.775ZM150.72 26.44C150.547 27.64 149.94 28.7351 149.014 29.5184C148.089 30.3017 146.909 30.7188 145.697 30.691C145.14 30.7491 144.577 30.6708 144.057 30.4628C143.537 30.2549 143.076 29.9235 142.713 29.4973C142.35 29.0711 142.096 28.563 141.973 28.0167C141.851 27.4704 141.863 26.9025 142.009 26.362C142.179 25.164 142.778 24.0687 143.696 23.2803C144.614 22.4919 145.788 22.0642 146.998 22.077C147.551 22.0475 148.105 22.1409 148.618 22.3507C149.131 22.5604 149.592 22.8812 149.967 23.29C150.314 23.7283 150.562 24.2374 150.692 24.7816C150.822 25.3257 150.831 25.8918 150.72 26.44ZM162.174 9.82598L158.358 34.106C158.34 34.2164 158.347 34.3294 158.377 34.437C158.407 34.5447 158.461 34.6444 158.533 34.7295C158.606 34.8146 158.696 34.8829 158.798 34.9297C158.899 34.9766 159.01 35.0009 159.122 35.001H162.958C163.266 35.0015 163.564 34.8917 163.798 34.6914C164.032 34.4911 164.187 34.2135 164.235 33.909L167.998 10.07C168.016 9.95918 168.009 9.84576 167.979 9.73757C167.949 9.62939 167.896 9.52903 167.823 9.44344C167.751 9.35784 167.66 9.28906 167.559 9.24184C167.457 9.19462 167.346 9.17011 167.234 9.16998H162.934C162.749 9.17058 162.571 9.23683 162.431 9.35685C162.291 9.47687 162.198 9.64283 162.17 9.82498L162.174 9.82598Z" fill="#179BD7"/>
<path d="M9.87992 39.633L10.5909 35.117L9.00692 35.08H1.44092L6.69692 1.75597C6.71272 1.65423 6.76451 1.56153 6.84287 1.49473C6.92123 1.42793 7.02095 1.39147 7.12392 1.39197H19.8799C24.1129 1.39197 27.0349 2.27297 28.5599 4.01197C29.2327 4.75101 29.7092 5.64704 29.9459 6.61797C30.1801 7.8042 30.1835 9.02446 29.9559 10.212L29.9399 10.312V11.231L30.6549 11.636C31.2006 11.9114 31.6913 12.2841 32.1029 12.736C32.7402 13.4861 33.1487 14.4034 33.2799 15.379C33.4451 16.6534 33.3886 17.9468 33.1129 19.202C32.8431 20.7235 32.3134 22.1872 31.5469 23.529C30.9184 24.5983 30.0733 25.5244 29.0659 26.248C28.0536 26.951 26.9208 27.4622 25.7239 27.756C24.3579 28.0926 22.9547 28.2549 21.5479 28.239H20.5559C19.8446 28.2384 19.1564 28.4918 18.6153 28.9536C18.0743 29.4155 17.716 30.0553 17.6049 30.758L17.5299 31.164L16.2739 39.124L16.2169 39.416C16.2135 39.4807 16.1852 39.5416 16.1379 39.586C16.101 39.6164 16.0548 39.6333 16.0069 39.634L9.87992 39.633Z" fill="#253B80"/>
<path d="M31.331 10.423C31.293 10.6663 31.2493 10.9156 31.2 11.171C29.523 19.805 23.766 22.787 16.423 22.787H12.677C12.2425 22.7859 11.822 22.9406 11.4918 23.2229C11.1616 23.5053 10.9434 23.8966 10.877 24.326L8.96596 36.474L8.42296 39.918C8.40128 40.0546 8.40948 40.1943 8.44699 40.3275C8.48451 40.4607 8.55045 40.5841 8.64027 40.6893C8.7301 40.7945 8.84167 40.879 8.96729 40.937C9.09292 40.9949 9.22961 41.025 9.36796 41.025H16.003C16.3828 41.0243 16.75 40.8886 17.039 40.642C17.3279 40.3954 17.5197 40.054 17.58 39.679L17.645 39.342L18.894 31.414L18.974 30.979C19.0336 30.6034 19.2251 30.2613 19.5141 30.0141C19.8031 29.7669 20.1707 29.6307 20.551 29.63H21.543C27.972 29.63 33.005 27.02 34.475 19.467C35.089 16.312 34.775 13.677 33.145 11.824C32.6297 11.2509 32.0143 10.7765 31.329 10.424L31.331 10.423Z" fill="#179BD7"/>
<path d="M29.5759 9.72197C29.039 9.56665 28.493 9.44541 27.9409 9.35897C26.849 9.19104 25.7455 9.11046 24.6409 9.11797H14.6439C14.2633 9.11754 13.8952 9.25333 13.6062 9.50077C13.3171 9.74821 13.1261 10.091 13.0679 10.467L10.9419 23.933L10.8809 24.326C10.9471 23.8965 11.1652 23.5051 11.4955 23.2227C11.8258 22.9403 12.2463 22.7857 12.6809 22.787H16.4219C23.7699 22.787 29.5219 19.803 31.2049 11.17C31.2549 10.914 31.2969 10.67 31.3359 10.422C30.892 10.1893 30.4293 9.9943 29.9529 9.83897C29.8282 9.79764 29.7025 9.75831 29.5759 9.72097V9.72197Z" fill="#222D65"/>
<path d="M13.0688 10.466C13.1267 10.09 13.3176 9.74725 13.6068 9.50007C13.896 9.25289 14.2643 9.11768 14.6448 9.119H24.6388C25.7434 9.11148 26.8469 9.19207 27.9388 9.36C28.6212 9.46733 29.2943 9.62782 29.9518 9.84C30.428 9.99592 30.8906 10.1909 31.3348 10.423C31.8348 7.232 31.3348 5.06 29.6058 3.093C27.6988 0.927 24.2688 0 19.8768 0H7.12475C6.69041 1.05949e-05 6.27036 0.155185 5.94032 0.437549C5.61029 0.719914 5.39198 1.11089 5.32475 1.54L0.0127535 35.207C-0.0112437 35.3632 -0.00129567 35.5228 0.0419203 35.6748C0.0851362 35.8268 0.160605 35.9677 0.263188 36.088C0.365771 36.2082 0.493059 36.3049 0.636385 36.3715C0.77971 36.4382 0.935707 36.4731 1.09375 36.474H8.96575L10.9428 23.933L13.0688 10.466Z" fill="#253B80"/>
</g>
</svg>
