<svg width="104" height="52" viewBox="0 0 104 52" fill="none" xmlns="http://www.w3.org/2000/svg">
<g style="mix-blend-mode:luminosity">
<path d="M102.948 10.8754H98.4028C98.271 10.8835 98.139 10.8634 98.0155 10.8166C97.8919 10.7698 97.7798 10.6973 97.6864 10.6039C97.593 10.5105 97.5205 10.3983 97.4736 10.2748C97.4268 10.1513 97.4068 10.0193 97.4148 9.88743V5.14543C97.4068 5.01359 97.4268 4.88155 97.4736 4.75804C97.5205 4.63453 97.593 4.52237 97.6864 4.42897C97.7798 4.33557 97.8919 4.26307 98.0155 4.21626C98.139 4.16945 98.271 4.1494 98.4028 4.15743H102.948C103.08 4.1494 103.212 4.16945 103.335 4.21626C103.459 4.26307 103.571 4.33557 103.664 4.42897C103.758 4.52237 103.83 4.63453 103.877 4.75804C103.924 4.88155 103.944 5.01359 103.936 5.14543V9.88743C103.739 10.4804 103.344 10.8754 102.948 10.8754Z" fill="#B8CB00"/>
<path d="M96.8218 4.35545H93.6648C93.5842 4.36699 93.5021 4.3596 93.4249 4.33388C93.3477 4.30816 93.2775 4.26481 93.22 4.20727C93.1624 4.14972 93.1191 4.07956 93.0933 4.00236C93.0676 3.92515 93.0603 3.84301 93.0718 3.76245V0.605449C93.059 0.524363 93.0655 0.441413 93.0907 0.363286C93.1159 0.285158 93.159 0.214038 93.2167 0.155656C93.2744 0.097275 93.345 0.0532657 93.4229 0.027175C93.5007 0.00108438 93.5836 -0.00635771 93.6648 0.00544866H96.8258C96.9064 -0.0060896 96.9885 0.00129428 97.0657 0.027015C97.1429 0.0527358 97.2131 0.0960865 97.2706 0.153631C97.3282 0.211176 97.3715 0.281333 97.3972 0.358542C97.4229 0.435751 97.4303 0.51789 97.4188 0.598449V3.76245C97.4099 3.9175 97.344 4.06379 97.2338 4.17323C97.1237 4.28268 96.9769 4.34757 96.8218 4.35545Z" fill="#B8CB00"/>
<path d="M11.856 13.0494H5.138C1.581 13.0494 0 14.6304 0 18.1874V41.1084C0 42.4914 0.400015 42.8864 1.77802 42.8864H2.17801C3.56101 42.8864 3.95599 42.4864 3.95599 41.1084V32.2164H11.662C18.578 32.2164 21.739 29.2524 21.739 22.7314C21.933 16.0134 18.772 13.0494 11.856 13.0494ZM17.784 22.5344C17.784 26.2884 16.796 28.2644 11.856 28.2644H4.14999V18.7794C4.14999 17.3964 4.74301 17.0014 5.92801 17.0014H11.856C15.61 16.8034 17.784 17.7914 17.784 22.5344ZM30.43 19.5704C28.7775 19.6175 27.1285 19.751 25.49 19.9704C24.305 20.1704 23.909 20.5634 23.909 21.7484V22.1484C23.909 22.7414 23.909 22.9384 24.109 23.1364C24.2025 23.2578 24.322 23.3567 24.4587 23.426C24.5954 23.4952 24.7458 23.5329 24.899 23.5364C25.0065 23.5495 25.1156 23.5383 25.2182 23.5037C25.3208 23.4691 25.4144 23.4119 25.492 23.3364C27.1205 23.033 28.7759 22.8989 30.432 22.9364C34.384 22.9364 35.965 24.1224 35.965 26.6904V29.0614H31.025C24.504 29.0614 21.54 31.2354 21.54 35.9774C21.54 40.5224 24.702 43.0904 30.234 43.0904C36.952 43.0904 39.916 40.7194 39.916 35.5814V26.6834C40.3113 21.9414 37.1497 19.5704 30.431 19.5704H30.43ZM36.358 32.6114V35.7734C36.358 38.3424 35.37 39.7254 30.628 39.7254C27.4667 39.7254 25.886 38.5398 25.886 36.1684C25.886 33.5994 27.467 32.6114 31.419 32.6114H36.359H36.358ZM62.441 22.1384L57.3 42.8864C55.719 49.0124 53.15 51.5804 48.408 51.9754H48.008C47.02 51.9754 46.625 51.3824 46.427 50.3944V49.9944C46.427 49.5944 46.227 49.0064 46.627 48.8084C46.827 48.4084 47.22 48.4084 48.01 48.4084C51.172 48.0084 52.357 46.6304 53.543 43.0734C52.9654 43.2372 52.3646 43.3048 51.765 43.2734C48.208 43.2734 47.22 40.7044 46.43 37.7404L42.083 22.1304C41.9844 21.9133 41.9333 21.6775 41.9333 21.4389C41.9333 21.2004 41.9844 20.9646 42.083 20.7474C42.283 20.3474 42.874 20.3474 43.466 20.3474H43.866C45.249 20.3474 45.644 20.7474 46.04 22.1254L50.19 37.7354C50.783 39.7114 51.376 39.9094 52.759 39.9094C53.945 39.9094 54.537 39.5094 54.933 37.7354L58.687 22.1254C59.087 20.7424 59.477 20.3474 60.86 20.3474H61.26C61.5058 20.3066 61.7576 20.3213 61.9969 20.3905C62.2362 20.4598 62.457 20.5817 62.643 20.7474C62.6496 21.2161 62.5821 21.6829 62.443 22.1304L62.441 22.1384ZM93.069 16.0124V31.6224C93.1375 33.8372 92.5899 36.0276 91.487 37.9494C89.314 41.3084 85.164 43.0874 79.434 43.0874C73.506 43.0874 69.357 41.3094 67.381 37.9494C66.2374 36.0457 65.687 33.8444 65.8 31.6264V16.0134C65.8 13.4444 66.788 13.0494 69.554 13.0494H70.344C73.11 13.0494 74.098 13.4494 74.098 16.0134V21.9414V31.8214C74.0571 32.653 74.2634 33.478 74.691 34.1924C75.481 35.3784 76.865 35.9704 79.433 35.9704C80.3088 36.0901 81.2007 35.9903 82.0284 35.68C82.8562 35.3696 83.5938 34.8585 84.175 34.1924C84.6027 33.4781 84.8091 32.653 84.768 31.8214V21.9414V16.0134C84.768 13.4444 85.756 13.0494 88.522 13.0494H89.312C92.08 13.0494 93.068 13.4494 93.068 16.0134L93.069 16.0124Z" fill="url(#paint0_linear)"/>
<path d="M96.2299 19.5694H90.1049C89.7972 19.5486 89.5076 19.417 89.2895 19.1989C89.0714 18.9808 88.9398 18.6911 88.9189 18.3834V12.0614C88.9398 11.7537 89.0714 11.464 89.2895 11.246C89.5076 11.0279 89.7972 10.8963 90.1049 10.8754H96.2299C96.5381 10.8956 96.8286 11.0269 97.0473 11.245C97.266 11.4632 97.398 11.7533 97.4189 12.0614V18.3844C97.3981 18.6921 97.2665 18.9818 97.0484 19.1999C96.8303 19.418 96.5407 19.5496 96.233 19.5704L96.2299 19.5694Z" fill="#B8CB00"/>
</g>
<defs>
<linearGradient id="paint0_linear" x1="46.5373" y1="21.185" x2="46.5373" y2="60.7338" gradientUnits="userSpaceOnUse">
<stop stop-color="#B8CB00"/>
<stop offset="1" stop-color="#428B29"/>
</linearGradient>
</defs>
</svg>
