<svg width="141" height="48" viewBox="0 0 141 48" fill="none" xmlns="http://www.w3.org/2000/svg">
<g style="mix-blend-mode:luminosity">
<path fill-rule="evenodd" clip-rule="evenodd" d="M29.4799 27.3566L41.0969 27.3416L40.6739 29.9856L30.9589 39.2626L39.1139 39.2476L38.6389 42.0996L26.6289 42.1066L27.1339 39.1576L36.4479 30.2376H29.0129L29.4799 27.3566Z" fill="#D13239"/>
<path fill-rule="evenodd" clip-rule="evenodd" d="M16.771 22.8326C16.4799 22.551 16.1332 22.3333 15.753 22.1936C15.3148 22.0298 14.8622 21.908 14.401 21.8296C13.8903 21.7403 13.3741 21.6858 12.856 21.6666C12.485 21.6516 12.247 21.6516 12.247 21.6516H3.387L0 42.1066H3.164L4.412 34.5306L10.547 34.5606C11.9514 34.6028 13.3473 34.3295 14.632 33.7606C15.7055 33.0996 16.4765 32.0435 16.779 30.8196C16.779 30.8196 16.965 30.0616 17.121 29.1406C17.292 28.1226 17.463 26.9046 17.552 26.2586C17.589 25.9766 17.611 25.7976 17.611 25.7976C17.643 25.6211 17.6581 25.442 17.656 25.2626C17.6721 24.6402 17.5289 24.0241 17.24 23.4726C17.1136 23.2394 16.9562 23.0245 16.772 22.8336L16.771 22.8326ZM14.335 26.4426C14.335 26.4796 14.053 28.1216 13.681 30.0676C13.6127 30.3963 13.4449 30.6959 13.2003 30.9258C12.9557 31.1558 12.6463 31.3048 12.314 31.3526C11.5725 31.4951 10.8178 31.5575 10.063 31.5386L4.938 31.5236L6.067 24.7236L10.709 24.7386C10.709 24.7386 11.021 24.7316 11.459 24.7386C12.0271 24.74 12.5947 24.7734 13.159 24.8386C13.5011 24.8408 13.8347 24.9453 14.117 25.1386C14.2585 25.334 14.3411 25.5658 14.355 25.8066C14.3711 26.0148 14.3637 26.2241 14.333 26.4306L14.335 26.4426Z" fill="#D13239"/>
<path fill-rule="evenodd" clip-rule="evenodd" d="M56.8501 21.6516H59.8951L56.4861 42.1066L53.4331 42.0996L56.8501 21.6516Z" fill="#D13239"/>
<path fill-rule="evenodd" clip-rule="evenodd" d="M73.1021 27.3557L76.0211 27.3486L77.054 37.7326L81.5471 27.3326L85.147 27.3396L86.209 37.7676L90.6951 27.3466H93.725L87.293 42.0906H83.6931L82.653 31.7666L78.1151 42.0906L74.579 42.1057L73.1021 27.3557Z" fill="#D13239"/>
<path d="M51.2281 27.4746C50.0524 27.2064 48.8457 27.0991 47.6411 27.1556C46.8969 27.1381 46.1529 27.1954 45.4201 27.3266C44.1222 27.5438 42.9335 28.1865 42.0411 29.1536C40.8151 30.6686 40.4521 33.9816 40.4521 33.9816C40.1057 35.5874 39.9337 37.2259 39.9391 38.8686C39.9603 39.4872 40.1575 40.0869 40.5074 40.5974C40.8574 41.1078 41.3457 41.5079 41.9151 41.7506C42.7297 42.0704 43.5951 42.2414 44.4701 42.2556C45.9156 42.3598 47.3686 42.2775 48.7931 42.0106C49.9017 41.7489 50.8965 41.137 51.6301 40.2656C51.9199 39.8802 52.1711 39.4672 52.3801 39.0326C52.5639 38.649 52.7058 38.2467 52.8031 37.8326L52.9961 37.0376L49.8391 37.0446C49.8391 37.0446 49.6681 39.1316 47.9601 39.3246C46.9823 39.4487 45.9951 39.4822 45.0111 39.4246C44.6771 39.4096 42.8571 39.4916 43.0061 37.9616C43.0052 37.9281 43.0076 37.8946 43.0131 37.8616C43.0017 37.122 43.0942 36.3844 43.2881 35.6706L53.2041 35.6406L53.6271 33.1896C54.1171 30.4236 53.7681 28.3066 51.2281 27.4746ZM50.5671 32.8526L43.7671 32.8456L44.0341 31.7686C44.1607 31.3139 44.4041 30.9002 44.7401 30.5686C45.232 30.2601 45.8005 30.0956 46.3811 30.0936C47.4802 29.9763 48.59 30.0063 49.6811 30.1826C49.8749 30.2043 50.0598 30.2761 50.2175 30.3907C50.3753 30.5053 50.5006 30.659 50.5811 30.8366C50.7094 31.503 50.7046 32.1881 50.5671 32.8526Z" fill="#D13239"/>
<path d="M43.027 37.9057C43.027 37.9277 43.02 37.9506 43.02 37.9726C43.013 38.0886 43.027 37.8957 43.027 37.9057Z" fill="#D13239"/>
<path d="M61.7312 37.9136C61.7312 37.9356 61.7242 37.9587 61.7242 37.9807C61.7232 38.0967 61.7312 37.9036 61.7312 37.9136Z" fill="#D13239"/>
<path d="M69.9371 27.4826C68.7614 27.2144 67.5547 27.1071 66.3501 27.1636C65.6059 27.1462 64.8618 27.2035 64.129 27.3347C62.8312 27.5518 61.6425 28.1946 60.7501 29.1617C59.5241 30.6767 59.1611 33.9897 59.1611 33.9897C58.815 35.5955 58.6433 37.234 58.6491 38.8767C58.6701 39.4953 58.8672 40.095 59.2172 40.6055C59.5673 41.116 60.0557 41.516 60.6251 41.7586C61.4397 42.0783 62.3051 42.2493 63.1801 42.2637C64.6256 42.3678 66.0786 42.2855 67.5031 42.0187C68.6117 41.757 69.6065 41.1451 70.34 40.2737C70.6299 39.8883 70.8811 39.4753 71.09 39.0407C71.2739 38.6571 71.4157 38.2547 71.5131 37.8406L71.7061 37.0457L68.5491 37.0527C68.5491 37.0527 68.3781 39.1397 66.6701 39.3327C65.6921 39.4542 64.7055 39.4913 63.7211 39.4436C63.3941 39.4286 61.5671 39.5027 61.7161 37.9807C61.7152 37.9472 61.7176 37.9137 61.7231 37.8807C61.7117 37.1411 61.8043 36.4035 61.9981 35.6896L71.9141 35.6596L72.3381 33.2087C72.8261 30.4317 72.4771 28.3076 69.9371 27.4826ZM69.2461 32.8527L62.4461 32.8457L62.7131 31.7687C62.8397 31.3139 63.0831 30.9002 63.4191 30.5686C63.9113 30.26 64.4801 30.0954 65.0611 30.0937C66.1601 29.9764 67.27 30.0063 68.3611 30.1827C68.5549 30.2044 68.7397 30.2761 68.8975 30.3908C69.0552 30.5054 69.1805 30.659 69.2611 30.8367C69.3881 31.5032 69.3824 32.1883 69.2441 32.8527H69.2461Z" fill="#D13239"/>
<path fill-rule="evenodd" clip-rule="evenodd" d="M97.2329 27.3557L99.1859 38.1407L104.704 27.3486L107.804 27.3786L99.8489 42.7906C99.2262 44.0533 98.4423 45.2298 97.5168 46.2906C96.9236 46.8708 96.1665 47.2548 95.3479 47.3907C94.7779 47.4909 94.1948 47.4909 93.6249 47.3907L92.8818 47.2567L93.3419 44.5006C93.9919 44.6263 94.6616 44.6062 95.3029 44.4417C96.0309 44.1516 96.6249 42.9037 96.6249 42.9037L96.9958 42.2796L94.1279 27.3486L97.2329 27.3557Z" fill="#D13239"/>
<path fill-rule="evenodd" clip-rule="evenodd" d="M108.939 28.8197L112.139 28.8266L112.332 27.5867C112.332 27.5867 112.674 25.3436 113.439 24.9126C113.782 24.7391 114.151 24.6213 114.531 24.5636C115.448 24.4294 116.376 24.3845 117.302 24.4296C118.367 24.4465 119.431 24.5183 120.488 24.6446C120.659 24.6544 120.826 24.7031 120.976 24.787C121.125 24.871 121.254 24.988 121.351 25.1291C121.448 25.2703 121.512 25.4318 121.538 25.6014C121.563 25.7709 121.55 25.9441 121.498 26.1076L121.23 28.0606C121.162 28.5533 121.016 29.0322 120.799 29.4797C120.424 29.9462 119.908 30.2796 119.329 30.4306C118.274 30.7726 114.665 31.6936 114.665 31.6936L111.828 32.5106C110.81 32.8169 109.878 33.3589 109.109 34.0926C108.363 34.9298 107.846 35.9457 107.609 37.0416C107.475 37.6806 106.725 42.0997 106.725 42.0997L122.041 42.1066L122.553 39.0466L110.439 39.0617L110.654 37.8136C110.654 37.8136 110.795 36.5286 111.315 36.1056C111.653 35.7838 112.071 35.5581 112.526 35.4516C113.105 35.2436 115.081 34.7167 115.081 34.7167L119.649 33.4686C119.649 33.4686 122.149 32.8296 123.125 31.4636C123.824 30.239 124.285 28.8934 124.484 27.4976C124.618 26.3933 124.638 25.2781 124.543 24.1697C124.396 23.7022 124.155 23.2698 123.834 22.8993C123.514 22.5288 123.121 22.2281 122.679 22.0156C121.766 21.6076 120.815 21.3697 118.059 21.4067C116.193 21.3019 114.324 21.5333 112.54 22.0896C111.906 22.3151 111.332 22.6817 110.861 23.1618C110.39 23.6418 110.034 24.2228 109.821 24.8606C109.387 26.1453 109.092 27.4724 108.939 28.8197Z" fill="#B3B2B1"/>
<path fill-rule="evenodd" clip-rule="evenodd" d="M137.773 34.5087L139.919 21.6447H136.119L124.28 34.3607L123.745 37.5847H134.099L133.341 42.1006L136.52 42.1086L137.27 37.5857L140.204 37.5927L140.731 34.5107L137.773 34.5087ZM134.609 34.5157L127.917 34.5087L136.065 25.8257L134.609 34.5157Z" fill="#B3B2B1"/>
<path fill-rule="evenodd" clip-rule="evenodd" d="M23.4858 23.3376H33.2379C33.2379 23.3376 35.4218 21.5696 36.9738 20.4376C38.5258 19.3056 41.3488 17.5116 41.3488 17.5116L35.8379 14.9346C35.8379 14.9346 31.1808 17.8166 29.2048 19.1756C27.2858 20.4296 23.4858 23.3376 23.4858 23.3376Z" fill="#B3B2B1"/>
<path fill-rule="evenodd" clip-rule="evenodd" d="M44.4459 15.6876L39.9229 12.6426C43.0064 10.9499 46.1914 9.449 49.4598 8.14861C54.8968 5.97961 57.8008 5.07361 57.8008 5.07361L58.7228 9.3886C58.7228 9.3886 53.4868 11.1416 50.4858 12.5606C48.407 13.4712 46.3895 14.5157 44.4459 15.6876Z" fill="#B3B2B1"/>
<path fill-rule="evenodd" clip-rule="evenodd" d="M62.0638 8.44561L61.2769 4.02661C61.2769 4.02661 66.8619 2.54061 71.9769 1.59061C77.0919 0.640612 83.8768 0.190613 83.8768 0.190613L81.6339 7.01661C77.7943 6.54447 73.9125 6.52701 70.0688 6.96461C67.3737 7.2918 64.7018 7.78777 62.0688 8.44961L62.0638 8.44561Z" fill="#B3B2B1"/>
<path fill-rule="evenodd" clip-rule="evenodd" d="M85.1792 7.59162L88.9521 0.00862401C94.1017 -0.0575946 99.2492 0.257601 104.352 0.951625C108.913 1.61604 113.426 2.57369 117.863 3.81863L99.7792 13.2736C96.7999 11.4741 93.6221 10.0261 90.3092 8.95862C87.3402 8.08162 85.1792 7.59162 85.1792 7.59162Z" fill="#B3B2B1"/>
<path fill-rule="evenodd" clip-rule="evenodd" d="M103.02 15.3316L106.994 18.3476H139.653C139.525 17.4394 139.206 16.5686 138.717 15.7926C137.983 14.7069 137.122 13.7119 136.154 12.8286C135.203 12.0027 134.198 11.241 133.146 10.5486C130.773 9.01079 128.268 7.68851 125.659 6.5976L103.02 15.3316Z" fill="#B3B2B1"/>
<path d="M25.6031 27.3416C24.4112 27.3967 23.252 27.749 22.2311 28.3666L22.4021 27.3416H19.1561L16.5562 42.0256H19.8091L21.2502 33.8926C21.3595 32.9093 21.8161 31.9973 22.5378 31.3206C23.2594 30.6438 24.1989 30.2467 25.1871 30.2006L26.8661 30.1936L27.3711 27.3416H25.6031Z" fill="#D13239"/>
</g>
</svg>
