<svg width="34" height="43" viewBox="0 0 34 43" fill="none" xmlns="http://www.w3.org/2000/svg">
<path d="M33.539 37.834C33.5397 38.4668 33.4157 39.0936 33.1741 39.6785C32.9325 40.2635 32.5781 40.7951 32.1311 41.243C31.6841 41.691 31.1532 42.0465 30.5688 42.2893C29.9844 42.532 29.3578 42.6573 28.725 42.658H2.59682e-06V4.824C-0.000654353 4.19116 0.123342 3.56439 0.364913 2.97947C0.606484 2.39455 0.960897 1.86294 1.40792 1.41499C1.85494 0.967037 2.38581 0.611521 2.97023 0.368737C3.55465 0.125953 4.18116 0.000656269 4.814 0L33.529 0V37.834H33.539Z" fill="#80152A"/>
<path d="M32.7598 37.3891C32.7734 37.9818 32.6666 38.571 32.446 39.1213C32.2254 39.6716 31.8955 40.1714 31.4763 40.5906C31.0571 41.0098 30.5573 41.3397 30.007 41.5603C29.4568 41.7809 28.8675 41.8876 28.2748 41.8741H0.768824V5.27409C0.754663 4.68039 0.861328 4.09001 1.08234 3.5388C1.30335 2.9876 1.6341 2.48707 2.05449 2.06761C2.47488 1.64815 2.97615 1.31852 3.52785 1.09874C4.07955 0.878953 4.67016 0.773604 5.26382 0.789087H32.7638L32.7598 37.3891Z" fill="url(#paint0_linear)"/>
<path d="M7.78122 0.829102L7.88122 10.1481L0.949219 12.4651L7.78122 0.829102Z" fill="#8A2034"/>
<path d="M7.78076 0.829102L7.88076 10.1481L17.0298 6.3291L7.78076 0.829102Z" fill="url(#paint1_linear)"/>
<path d="M3.99522 19.348L7.88022 10.1479L0.949219 12.465L3.99522 19.348Z" fill="#AE2338"/>
<path d="M3.99491 19.3457L7.82991 28.6947L0.878906 26.4457L3.99491 19.3457Z" fill="url(#paint2_linear)"/>
<path d="M7.79091 41.7993L7.83091 28.6992L0.878906 26.4482L7.79091 41.7993Z" fill="#8A2034"/>
<path d="M7.79091 41.7993L0.878906 41.8093V26.4482L7.79091 41.7993Z" fill="#8C2033"/>
<path d="M7.79102 41.7953L7.83102 28.6953L17.01 32.4703L7.79102 41.7953Z" fill="url(#paint3_linear)"/>
<path d="M26.1978 0.878906L26.2978 10.1979L17.0288 6.33191L26.1978 0.878906Z" fill="url(#paint4_linear)"/>
<path d="M26.1978 0.878906L26.2978 10.1979L32.7398 12.4979L26.1978 0.878906Z" fill="url(#paint5_linear)"/>
<path d="M30.0729 19.4572L26.2979 10.1982L32.7399 12.4982L30.0729 19.4572Z" fill="url(#paint6_linear)"/>
<path d="M30.0731 19.4561L26.2681 28.6561L32.7201 26.349L30.0731 19.4561Z" fill="url(#paint7_linear)"/>
<path d="M26.3481 41.7787L26.2681 28.6547L32.7201 26.3477L26.3481 41.7787Z" fill="url(#paint8_linear)"/>
<path d="M26.3481 41.7793L26.2681 28.6553L17.019 32.4703L26.3481 41.7793Z" fill="url(#paint9_linear)"/>
<path d="M26.348 41.7797L7.79102 41.8097L17.02 32.4707L26.348 41.7797Z" fill="url(#paint10_linear)"/>
<path d="M17.9682 22.203L20.0552 23.162L19.8452 21.674L17.9372 20.657L17.9682 22.203ZM2.13721 27.187L4.85421 27.497L5.44321 24.97L2.84321 24.511L2.13721 27.187ZM11.8052 9.69798L10.0272 8.37998L8.78921 10.068L10.7372 11.287L11.8052 9.69798ZM17.2482 5.27298L16.1092 3.78498L14.5012 4.73398L15.8292 6.18198L17.2482 5.27298ZM23.1212 4.23398L22.7512 3.01498L20.8232 2.85498L21.3822 4.18298L23.1212 4.23398ZM29.6542 5.75698L28.0262 4.59798V5.34698L29.5942 6.31598L29.6542 5.75698ZM7.73021 16.557L5.51321 15.588L4.76421 17.788L7.04121 18.637L7.73021 16.557ZM18.7872 15.557L18.3872 16.915L19.8152 18.233L20.1752 16.965L18.7872 15.557ZM27.9162 9.46398L29.1052 9.52398L29.1152 8.97498L27.8772 8.72498L27.9162 9.46398ZM22.9722 4.86398C17.2592 4.58398 7.03121 9.99798 5.56321 31.731H19.5762C16.4302 23.591 16.7992 17.448 18.9572 13.293C22.1032 7.23998 26.7782 6.84098 31.1422 9.38798C31.2922 9.01798 31.5122 8.55898 31.5122 8.55898C30.4075 7.40418 29.0827 6.48236 27.616 5.84791C26.1492 5.21346 24.5702 4.87924 22.9722 4.86498V4.86398ZM23.3912 9.37898L23.9102 10.627L24.8792 10.108L24.5192 8.95898L23.3912 9.37898ZM20.2252 12.206L21.2842 13.664L21.9432 12.705L21.0142 11.267L20.2252 12.206ZM21.8432 29.195L21.1842 27.595L18.7572 27.147L19.3962 28.985L21.8432 29.195Z" fill="#F7DEE1"/>
<path d="M9.09912 9.6379L10.7771 8.9379L10.0281 8.37891L9.09912 9.6379Z" fill="white"/>
<path d="M15.8412 6.18287L16.2902 5.89287L14.7122 4.96387L15.8412 6.18287Z" fill="white"/>
<path d="M2.8458 24.5098L2.2168 26.8868L3.7048 27.3658L4.8538 27.4958L5.4428 24.9688L2.8458 24.5098Z" fill="#D7C4C9"/>
<path d="M6.35183 25.0986C6.18183 26.0476 6.03183 27.0366 5.90283 28.0746L7.82084 28.6936L6.35183 25.0986Z" fill="#D7C4C9"/>
<path d="M2.21721 26.8867L2.13721 27.1867L3.70521 27.3667L2.21721 26.8867Z" fill="#C2C3C6"/>
<path d="M7.83023 28.6947L5.91323 28.0757C5.77323 29.2447 5.65323 30.4627 5.56323 31.7317H7.82023L7.83023 28.6947Z" fill="#C2C3C6"/>
<path d="M7.8208 31.7313H15.2118L7.8308 28.6953L7.8208 31.7313Z" fill="#DDC3C8"/>
<path d="M28.4651 4.91401L28.0262 4.604V5.353L29.0752 6.00201L28.4651 4.91401ZM29.6442 6.991C28.6153 6.25271 27.4644 5.70161 26.2441 5.36301L26.2741 7.91C27.9132 7.95571 29.5127 8.42345 30.9182 9.26801L29.6442 6.991ZM27.9161 9.46801L29.1052 9.528L29.1151 8.979L27.8762 8.729L27.9161 9.46801Z" fill="url(#paint11_linear)"/>
<path d="M26.2479 5.36288C25.182 5.07124 24.0862 4.90347 22.9819 4.86288C20.9239 4.81665 18.8926 5.33545 17.1089 6.36288L22.9219 8.78988C23.9395 8.20416 25.0937 7.8975 26.2679 7.90088L26.2479 5.36288ZM23.1219 4.23388L22.7519 3.01488L22.6219 3.00488L21.2339 3.83388L21.3839 4.19388L23.1219 4.23388ZM23.8809 9.18788L24.6999 9.52788L24.5199 8.94888L23.8809 9.18788Z" fill="url(#paint12_linear)"/>
<path d="M7.95998 36.6293V35.6003C7.93424 35.1974 7.76127 34.8181 7.47398 34.5345C7.18669 34.2509 6.80514 34.0828 6.40198 34.0623H3.12598V40.2553H4.80398V38.4473L6.15198 40.2553H8.15998L6.59198 38.1683C6.95903 38.1012 7.29309 37.9133 7.54099 37.6344C7.78889 37.3555 7.93638 37.0017 7.95998 36.6293ZM6.31198 36.9393H4.79398V35.6913H6.31198V36.9393ZM12.812 34.0333H11.296C10.8807 34.0536 10.4887 34.231 10.1994 34.5296C9.91004 34.8282 9.7451 35.2256 9.73798 35.6413V40.2253H11.386V39.0163H12.864V40.2253H14.542V35.6293C14.5232 35.1886 14.3311 34.7732 14.0075 34.4735C13.6838 34.1738 13.2548 34.0141 12.814 34.0293L12.812 34.0333ZM12.862 37.3493H11.386V35.6913H12.864L12.862 37.3493ZM28.193 36.2603H26.578V35.5813H29.405V34.0393H26.568C26.1353 34.0288 25.716 34.1899 25.4016 34.4874C25.0872 34.7849 24.9033 35.1947 24.89 35.6273V36.2863C24.9034 36.7181 25.0836 37.1278 25.3928 37.4295C25.702 37.7313 26.116 37.9014 26.548 37.9043H28.048V38.6533H24.989V40.2213H28.006C28.4288 40.2384 28.842 40.0922 29.16 39.8129C29.478 39.5337 29.6763 39.1428 29.714 38.7213V37.9023C29.7266 37.4839 29.5747 37.0772 29.2909 36.7695C29.0071 36.4618 28.614 36.2776 28.196 36.2563L28.193 36.2603ZM21.441 34.0433H19.786V40.2433H23.926V38.5853H21.444L21.441 34.0433ZM16.317 40.2433H17.975V34.0433H16.32L16.317 40.2433Z" fill="white"/>
<defs>
<linearGradient id="paint0_linear" x1="0.767578" y1="21.3314" x2="32.7638" y2="21.3314" gradientUnits="userSpaceOnUse">
<stop offset="0.08" stop-color="#AA2237"/>
<stop offset="0.982" stop-color="#B4313D"/>
</linearGradient>
<linearGradient id="paint1_linear" x1="7.78076" y1="5.4886" x2="17.0298" y2="5.4886" gradientUnits="userSpaceOnUse">
<stop offset="0.037" stop-color="#B83A41"/>
<stop offset="0.896" stop-color="#BF4A50"/>
</linearGradient>
<linearGradient id="paint2_linear" x1="4.35441" y1="28.6947" x2="4.35441" y2="19.3457" gradientUnits="userSpaceOnUse">
<stop offset="0.037" stop-color="#A92237"/>
<stop offset="0.939" stop-color="#972235"/>
</linearGradient>
<linearGradient id="paint3_linear" x1="12.4005" y1="41.7953" x2="12.4005" y2="28.6953" gradientUnits="userSpaceOnUse">
<stop offset="0.037" stop-color="#BC4245"/>
<stop offset="0.939" stop-color="#A42136"/>
</linearGradient>
<linearGradient id="paint4_linear" x1="21.6633" y1="10.1979" x2="21.6633" y2="0.878906" gradientUnits="userSpaceOnUse">
<stop offset="0.037" stop-color="#CC5057"/>
<stop offset="0.896" stop-color="#B73840"/>
</linearGradient>
<linearGradient id="paint5_linear" x1="25.5632" y1="8.94249" x2="29.8045" y2="8.16618" gradientUnits="userSpaceOnUse">
<stop offset="0.08" stop-color="#D4575F"/>
<stop offset="0.945" stop-color="#B63540"/>
</linearGradient>
<linearGradient id="paint6_linear" x1="26.2979" y1="14.8277" x2="32.7399" y2="14.8277" gradientUnits="userSpaceOnUse">
<stop stop-color="#C04B51"/>
<stop offset="1" stop-color="#B83A41"/>
</linearGradient>
<linearGradient id="paint7_linear" x1="26.2745" y1="24.0561" x2="32.7265" y2="24.0561" gradientUnits="userSpaceOnUse">
<stop stop-color="#BA4044"/>
<stop offset="1" stop-color="#B4303C"/>
</linearGradient>
<linearGradient id="paint8_linear" x1="24.9131" y1="32.3812" x2="29.9691" y2="32.7028" gradientUnits="userSpaceOnUse">
<stop stop-color="#972136"/>
<stop offset="1" stop-color="#9F2236"/>
</linearGradient>
<linearGradient id="paint9_linear" x1="20.6667" y1="29.4033" x2="31.3064" y2="35.8048" gradientUnits="userSpaceOnUse">
<stop offset="0.037" stop-color="#B22C3A"/>
<stop offset="0.939" stop-color="#C04D53"/>
</linearGradient>
<linearGradient id="paint10_linear" x1="17.0695" y1="41.8097" x2="17.0695" y2="32.4707" gradientUnits="userSpaceOnUse">
<stop offset="0.037" stop-color="#B22C3A"/>
<stop offset="0.939" stop-color="#9B2135"/>
</linearGradient>
<linearGradient id="paint11_linear" x1="26.2395" y1="7.06108" x2="30.9135" y2="7.06108" gradientUnits="userSpaceOnUse">
<stop offset="0.037" stop-color="white"/>
<stop offset="0.742" stop-color="#F4E6D9"/>
</linearGradient>
<linearGradient id="paint12_linear" x1="18.5377" y1="3.88549" x2="23.9769" y2="10.0843" gradientUnits="userSpaceOnUse">
<stop offset="0.037" stop-color="white"/>
<stop offset="0.896" stop-color="#F4E6D9"/>
</linearGradient>
</defs>
</svg>
