<svg width="43" height="39" viewBox="0 0 43 39" fill="none" xmlns="http://www.w3.org/2000/svg">
<path d="M35.355 12.3948C34.897 12.2368 34.435 12.0948 33.971 11.9578C34.049 11.6438 34.119 11.3298 34.185 11.0148C35.234 5.93278 34.548 1.83478 32.21 0.485777C29.967 -0.805223 26.3 0.540777 22.592 3.76578C22.228 4.08378 21.869 4.41078 21.522 4.74778C21.288 4.52378 21.05 4.30578 20.809 4.08878C16.925 0.641777 13.032 -0.812223 10.695 0.542777C8.454 1.84278 7.789 5.69178 8.735 10.5128C8.829 10.9898 8.935 11.4658 9.053 11.9378C8.50167 12.0938 7.971 12.2604 7.461 12.4378C2.908 14.0248 0 16.5108 0 19.0948C0 21.7608 3.122 24.4328 7.863 26.0538C8.247 26.1871 8.63467 26.3078 9.026 26.4158C8.89933 26.9244 8.787 27.4364 8.689 27.9518C7.789 32.6898 8.489 36.4518 10.727 37.7388C13.036 39.0698 16.911 37.7018 20.683 34.4048C20.983 34.1438 21.283 33.8668 21.583 33.5788C21.961 33.9434 22.348 34.2968 22.744 34.6388C26.398 37.7838 30.007 39.0528 32.244 37.7608C34.551 36.4258 35.3 32.3858 34.327 27.4688C34.253 27.0928 34.165 26.7088 34.07 26.3188C34.343 26.2388 34.61 26.1548 34.87 26.0698C39.794 24.4328 43 21.7948 43 19.0948C43 16.5008 40 13.9948 35.355 12.3948ZM23.8 5.15178C26.971 2.38778 29.939 1.29478 31.29 2.07778C32.73 2.90778 33.29 6.25778 32.39 10.6488C32.332 10.9348 32.267 11.2198 32.197 11.5048C30.3027 11.076 28.3822 10.7727 26.448 10.5968C25.34 9.0045 24.1259 7.48873 22.814 6.05978C23.132 5.74978 23.4607 5.44711 23.8 5.15178ZM12.7 21.2948C13.09 22.0448 13.496 22.7868 13.918 23.5208C14.3507 24.2674 14.801 25.0034 15.269 25.7288C13.936 25.5854 12.6113 25.3738 11.3 25.0948C11.683 23.8658 12.151 22.5948 12.7 21.2948ZM12.7 16.9748C12.166 15.7058 11.708 14.4588 11.334 13.2548C12.562 12.9798 13.869 12.7548 15.234 12.5868C14.778 13.2981 14.339 14.0204 13.917 14.7538C13.495 15.4871 13.0873 16.2274 12.694 16.9748H12.7ZM13.676 19.1358C14.2413 17.9584 14.8513 16.8028 15.506 15.6688C16.1587 14.5354 16.8537 13.4291 17.591 12.3498C18.869 12.2498 20.181 12.2018 21.506 12.2018C22.831 12.2018 24.151 12.2528 25.429 12.3498C26.1577 13.4278 26.8483 14.5308 27.501 15.6588C28.1537 16.7868 28.7713 17.9364 29.354 19.1078C28.7793 20.2904 28.1637 21.4508 27.507 22.5888C26.8563 23.7221 26.1683 24.8318 25.443 25.9178C24.167 26.0098 22.849 26.0558 21.505 26.0558C20.161 26.0558 18.864 26.0148 17.611 25.9328C16.8683 24.8494 16.1683 23.7381 15.511 22.5988C14.8537 21.4594 14.2403 20.3051 13.671 19.1358H13.676ZM29.097 23.5068C29.5297 22.7568 29.9453 21.9974 30.344 21.2288C30.8909 22.4638 31.3729 23.7265 31.788 25.0118C30.4639 25.3096 29.125 25.5379 27.777 25.6958C28.2277 24.9764 28.666 24.2468 29.092 23.5068H29.097ZM30.327 16.9768C29.927 16.2228 29.5147 15.4771 29.09 14.7398C28.6693 14.0131 28.2333 13.2964 27.782 12.5898C29.154 12.7628 30.469 12.9898 31.703 13.2758C31.3046 14.5318 30.8433 15.767 30.321 16.9768H30.327ZM21.527 7.37078C22.375 8.28878 23.227 9.31378 24.058 10.4248C22.3647 10.3448 20.6707 10.3448 18.976 10.4248C19.8 9.32378 20.661 8.30078 21.52 7.37078H21.527ZM11.621 2.13078C13.059 1.29878 16.24 2.48578 19.593 5.46278C19.8077 5.65344 20.0227 5.85344 20.238 6.06278C18.916 7.4905 17.6903 9.00451 16.569 10.5948C14.6394 10.7679 12.723 11.0662 10.832 11.4878C10.7227 11.0491 10.6227 10.6074 10.532 10.1628C9.728 6.02878 10.264 2.91478 11.615 2.13078H11.621ZM9.518 24.6448C9.16133 24.5434 8.80733 24.4324 8.456 24.3118C6.635 23.7384 4.93479 22.8354 3.44 21.6478C3.01223 21.3544 2.64906 20.9765 2.37286 20.5374C2.09666 20.0984 1.91327 19.6074 1.834 19.0948C1.834 17.5298 4.169 15.5328 8.062 14.1738C8.55133 14.0044 9.045 13.8491 9.543 13.7078C10.121 15.5623 10.8208 17.3766 11.638 19.1388C10.8118 20.9258 10.1036 22.7651 9.518 24.6448ZM19.474 33.0168C18.0677 34.3079 16.4359 35.3292 14.66 36.0298C14.1916 36.2541 13.6822 36.3799 13.1632 36.3993C12.6443 36.4187 12.1268 36.3314 11.643 36.1428C10.287 35.3618 9.723 32.3428 10.491 28.2888C10.5823 27.8094 10.687 27.3334 10.805 26.8608C12.7154 27.2703 14.6516 27.5489 16.6 27.6948C17.7289 29.2942 18.9619 30.8175 20.291 32.2548C20.0257 32.5188 19.7533 32.7728 19.474 33.0168ZM21.574 30.9418C20.703 30.0028 19.836 28.9638 18.986 27.8418C19.8087 27.8751 20.6473 27.8914 21.502 27.8908C22.3787 27.8908 23.2453 27.8714 24.102 27.8328C23.3123 28.9119 22.4675 29.9496 21.571 30.9418H21.574ZM32.726 33.4948C32.6864 34.0126 32.5409 34.5167 32.2985 34.976C32.0561 35.4352 31.7221 35.8398 31.317 36.1648C29.963 36.9498 27.063 35.9288 23.939 33.2398C23.5803 32.9318 23.2197 32.6031 22.857 32.2538C24.1591 30.8109 25.3619 29.2814 26.457 27.6758C28.4164 27.5103 30.362 27.2095 32.28 26.7758C32.368 27.1304 32.4453 27.4774 32.512 27.8168C32.9328 29.6801 33.0053 31.6051 32.726 33.4948ZM34.285 24.3198C34.049 24.3978 33.809 24.4738 33.562 24.5458C32.9611 22.6827 32.2337 20.8628 31.385 19.0988C32.2014 17.3577 32.9006 15.564 33.478 13.7298C33.9187 13.8564 34.3447 13.9898 34.756 14.1298C38.735 15.4998 41.162 17.5248 41.162 19.0858C41.164 20.7538 38.541 22.9128 34.285 24.3218V24.3198Z" fill="#53C1DE"/>
<path d="M21.5011 15.252C22.2604 15.252 23.0027 15.4771 23.634 15.8989C24.2653 16.3208 24.7573 16.9203 25.0479 17.6218C25.3385 18.3233 25.4145 19.0952 25.2664 19.8399C25.1182 20.5846 24.7526 21.2686 24.2157 21.8055C23.6788 22.3424 22.9948 22.7081 22.2501 22.8562C21.5054 23.0043 20.7335 22.9283 20.032 22.6377C19.3305 22.3471 18.7309 21.8551 18.3091 21.2238C17.8872 20.5924 17.6621 19.8502 17.6621 19.0909C17.6621 18.0728 18.0666 17.0963 18.7866 16.3763C19.5065 15.6564 20.4829 15.252 21.5011 15.252Z" fill="#53C1DE"/>
</svg>
